<svg  viewBox="0 0 20 20" fill="none" xmlns="http://www.w3.org/2000/svg">
<path opacity="0.3" d="M10 20C15.5228 20 20 15.5228 20 10C20 4.47715 15.5228 0 10 0C4.47715 0 0 4.47715 0 10C0 15.5228 4.47715 20 10 20Z" fill="#C29B40"/>
<path d="M9.71 13.7102L15.71 7.71019C15.8032 7.61695 15.8772 7.50626 15.9277 7.38444C15.9781 7.26261 16.0041 7.13204 16.0041 7.00019C16.0041 6.86833 15.9781 6.73776 15.9277 6.61594C15.8772 6.49411 15.8032 6.38342 15.71 6.29019C15.6168 6.19695 15.5061 6.12299 15.3843 6.07253C15.2624 6.02207 15.1319 5.99609 15 5.99609C14.8681 5.99609 14.7376 6.02207 14.6158 6.07253C14.4939 6.12299 14.3832 6.19695 14.29 6.29019L9 11.5902L5.71 8.29019C5.5217 8.10188 5.2663 7.99609 5 7.99609C4.7337 7.99609 4.47831 8.10188 4.29 8.29019C4.1017 8.47849 3.99591 8.73388 3.99591 9.00019C3.99591 9.26649 4.1017 9.52188 4.29 9.71019L8.29 13.7102C8.38297 13.8039 8.49357 13.8783 8.61543 13.9291C8.73728 13.9798 8.86799 14.006 9 14.006C9.13201 14.006 9.26272 13.9798 9.38458 13.9291C9.50644 13.8783 9.61704 13.8039 9.71 13.7102Z" fill="#C29B40"/>
</svg>
