<svg xmlns="http://www.w3.org/2000/svg" viewBox="0 0 19 18" fill="none">
  <path d="M9.5 12L16.25 12" stroke="#171D38" stroke-width="1.5" stroke-linecap="round" stroke-linejoin="round"/>
  <path d="M2.75 12H4.25" stroke="#171D38" stroke-width="2" stroke-linecap="round" stroke-linejoin="round"/>
  <path d="M6.875 13.875C7.91053 13.875 8.75 13.0355 8.75 12C8.75 10.9645 7.91053 10.125 6.875 10.125C5.83947 10.125 5 10.9645 5 12C5 13.0355 5.83947 13.875 6.875 13.875Z" stroke="#1A2550" stroke-width="2" stroke-linecap="round" stroke-linejoin="round"/>
  <path d="M14.75 6H16.25" stroke="#1A2550" stroke-width="2" stroke-linecap="round" stroke-linejoin="round"/>
  <path d="M2.75 6H9.5" stroke="#1A2550" stroke-width="2" stroke-linecap="round" stroke-linejoin="round"/>
  <path d="M12.125 7.875C13.1605 7.875 14 7.03553 14 6C14 4.96447 13.1605 4.125 12.125 4.125C11.0895 4.125 10.25 4.96447 10.25 6C10.25 7.03553 11.0895 7.875 12.125 7.875Z" stroke="#1A2550" stroke-width="2" stroke-linecap="round" stroke-linejoin="round"/>
</svg>
