<svg viewBox="0 0 24 24" fill="none" xmlns="http://www.w3.org/2000/svg">
<g clip-path="url(#clip0_7367_22463)">
<path d="M18.3535 22.413L19.9405 24L20.9348 23.0056L19.3479 21.4186L18.3535 22.413Z" fill="black"/>
<path d="M3.06543 23.0056L4.05974 24L5.64674 22.413L4.65238 21.4186L3.06543 23.0056Z" fill="black"/>
<mask id="mask0_7367_22463" style="mask-type:luminance" maskUnits="userSpaceOnUse" x="0" y="0" width="24" height="24">
<path d="M0 1.90735e-06H24V24H0V1.90735e-06Z" fill="white"/>
</mask>
<g mask="url(#mask0_7367_22463)">
<path d="M2.85938 12.1875H1.45312V3.51563C1.45312 1.57711 3.03023 9.53674e-07 4.96875 9.53674e-07H6.375C8.31352 9.53674e-07 9.89062 1.57711 9.89062 3.51563H8.48438C8.48438 2.35252 7.53811 1.40625 6.375 1.40625H4.96875C3.80564 1.40625 2.85938 2.35252 2.85938 3.51563V12.1875Z" fill="black"/>
<path d="M9.1875 2.8125C7.24922 2.8125 5.67188 4.38937 5.67188 6.32812V7.03125H12.7031V6.32812C12.7031 4.38937 11.1258 2.8125 9.1875 2.8125Z" fill="black"/>
<path d="M22.5469 13.3594V17.8125C22.5469 20.5266 20.3391 22.7344 17.625 22.7344H6.375C3.66094 22.7344 1.45312 20.5266 1.45312 17.8125V13.3594H22.5469Z" fill="#B2B2B2"/>
<path d="M22.5469 13.3594V17.8125C22.5469 20.5266 20.3391 22.7344 17.625 22.7344H12V13.3594H22.5469Z" fill="#B2B2B2"/>
<path d="M18.7031 14.2969V11.4844H22.5937C23.3692 11.4844 24 12.1152 24 12.8906C24 13.666 23.3692 14.2969 22.5937 14.2969H18.7031Z" fill="black"/>
<path d="M13.5469 11.4844V14.2969H1.40625C0.630937 14.2969 0 13.6659 0 12.8906C0 12.1153 0.630937 11.4844 1.40625 11.4844H13.5469Z" fill="black"/>
<path d="M13.5469 14.2969H12V11.4844H13.5469V14.2969Z" fill="black"/>
<path d="M17.625 10.0781H14.8125C13.6495 10.0781 12.7031 11.0245 12.7031 12.1875V17.1094H19.7344V12.1875C19.7344 11.0245 18.788 10.0781 17.625 10.0781Z" fill="#7D7D7D"/>
<path d="M19.7344 12.1875V17.1094H16.1719V10.0781H17.625C18.788 10.0781 19.7344 11.0245 19.7344 12.1875Z" fill="#7D7D7D"/>
</g>
</g>
<defs>
<clipPath id="clip0_7367_22463">
<rect width="24" height="24" fill="white"/>
</clipPath>
</defs>
</svg>
