<svg viewBox="0 0 48 48" fill="none" xmlns="http://www.w3.org/2000/svg">
<path opacity="0.3" d="M42.9999 38.84L36.6599 32.84C35.4545 34.3919 34.0097 35.7421 32.3799 36.84L38.8999 43.04C39.174 43.3602 39.513 43.6186 39.8944 43.7981C40.2758 43.9776 40.691 44.0742 41.1124 44.0814C41.5339 44.0886 41.9521 44.0063 42.3395 43.84C42.7268 43.6736 43.0744 43.427 43.3594 43.1164C43.6444 42.8058 43.8602 42.4382 43.9926 42.038C44.1251 41.6378 44.1711 41.2141 44.1277 40.7948C44.0842 40.3755 43.9523 39.9702 43.7407 39.6056C43.529 39.2411 43.2425 38.9256 42.8999 38.68L42.9999 38.84Z" fill="black"/>
<path d="M22.2798 4C18.7197 4 15.2396 5.05568 12.2795 7.03355C9.31944 9.01141 7.01234 11.8226 5.64996 15.1117C4.28758 18.4008 3.93112 22.02 4.62566 25.5116C5.32019 29.0033 7.03453 32.2106 9.55187 34.7279C12.0692 37.2453 15.2765 38.9596 18.7682 39.6541C22.2598 40.3487 25.879 39.9922 29.1681 38.6298C32.4572 37.2675 35.2684 34.9603 37.2462 32.0003C39.2241 29.0402 40.2798 25.5601 40.2798 22C40.2798 17.2261 38.3834 12.6477 35.0077 9.27208C31.6321 5.89642 27.0537 4 22.2798 4ZM22.2798 34.72C19.7688 34.72 17.3142 33.9757 15.2261 32.581C13.1381 31.1864 11.5103 29.2041 10.5484 26.8847C9.58663 24.5652 9.33396 22.0127 9.82238 19.5497C10.3108 17.0867 11.5184 14.8237 13.2925 13.0468C15.0666 11.2699 17.3277 10.0588 19.7899 9.56647C22.2521 9.07418 24.8051 9.32283 27.126 10.281C29.447 11.2392 31.4318 12.8638 32.8297 14.9497C34.2276 17.0356 34.9758 19.489 34.9798 22C34.9851 23.6702 34.6603 25.325 34.0242 26.8693C33.3881 28.4137 32.4531 29.8171 31.273 30.9991C30.0929 32.181 28.691 33.1182 27.1476 33.7567C25.6043 34.3953 23.95 34.7226 22.2798 34.72Z" fill="black"/>
</svg>
