<svg
    width="30"
    height="30"
    viewBox="0 0 32 32"
    fill="none"
    xmlns="http://www.w3.org/2000/svg"
  >
    <path
      d="M10 3V6H22V3C22 2.45 21.55 2 21 2H11C10.45 2 10 2.45 10 3ZM8 6V3C8 1.34375 9.34375 0 11 0H21C22.6562 0 24 1.34375 24 3V6H28C30.2062 6 32 7.79375 32 10V26C32 28.2062 30.2062 30 28 30H4C1.79375 30 0 28.2062 0 26V10C0 7.79375 1.79375 6 4 6H8ZM23 8H9H4C2.89375 8 2 8.89375 2 10V16H11H13H19H21H30V10C30 8.89375 29.1063 8 28 8H23ZM30 18H21V21C21 22.1063 20.1063 23 19 23H13C11.8938 23 11 22.1063 11 21V18H2V26C2 27.1063 2.89375 28 4 28H28C29.1063 28 30 27.1063 30 26V18ZM13 18V21H19V18H13Z"
      fill="black"
    />
  </svg>