<svg
  width="30"
  height="30"
  viewBox="0 0 32 32"
  fill="none"
  xmlns="http://www.w3.org/2000/svg"
>
  <path
    d="M3.35798 7.99904L14.0246 1.99904V13.999L3.35798 7.99904ZM15.8024 1.99904C15.8024 1.30529 15.4858 0.661543 14.958 0.299043C14.4302 -0.0634573 13.7802 -0.100957 13.2302 0.211543L2.56353 6.21154C1.95798 6.54904 1.5802 7.24279 1.5802 7.99904C1.5802 8.75529 1.95798 9.44904 2.56353 9.78654L13.2302 15.7865C13.7802 16.099 14.4358 16.0615 14.958 15.699C15.4802 15.3365 15.8024 14.6928 15.8024 13.999V8.99904H20.6913C20.6913 10.1053 21.4858 10.999 22.4691 10.999H27.358C28.8302 10.999 30.0246 9.65529 30.0246 7.99904C30.0246 6.34279 28.8302 4.99904 27.358 4.99904H22.4691C21.4858 4.99904 20.6913 5.89279 20.6913 6.99904H15.8024V1.99904ZM27.358 6.99904C27.8469 6.99904 28.2469 7.44904 28.2469 7.99904C28.2469 8.54904 27.8469 8.99904 27.358 8.99904H22.4691V6.99904H27.358ZM17.5802 23.999H18.4691H19.358H28.2469V24.499V29.999H22.0246H15.8024V23.999H17.5802ZM14.0246 23.999V29.999H3.35798V23.999H14.0246ZM28.2469 21.999H19.358V15.999H28.2469V21.999ZM17.5802 15.999V19.999V21.999H15.8024H3.35798C2.37464 21.999 1.5802 22.8928 1.5802 23.999V29.999C1.5802 31.1053 2.37464 31.999 3.35798 31.999H28.2469C29.2302 31.999 30.0246 31.1053 30.0246 29.999V24.499V23.999V15.999C30.0246 14.8928 29.2302 13.999 28.2469 13.999H19.358C18.3746 13.999 17.5802 14.8928 17.5802 15.999Z"
    fill="black"
  />
</svg>