<svg width="11" height="16" viewBox="0 0 11 16" fill="none" xmlns="http://www.w3.org/2000/svg">
<path d="M5.66634 0C2.95436 0 0.333008 1.99967 0.333008 4.82911C0.333008 6.63802 1.06086 7.75739 1.75967 8.6962C2.45849 9.63502 3.10634 10.3855 3.10634 11.5443V13.9747C3.10634 14.5511 3.60808 14.9873 4.17301 14.9873H4.59967V15.1899C4.59967 15.7474 5.0791 16 5.66634 16C6.25358 16 6.73301 15.7474 6.73301 15.1899V14.9873H7.15967C7.7246 14.9873 8.22634 14.5511 8.22634 13.9747V11.5443C8.22634 10.3855 8.87419 9.63502 9.57301 8.6962C10.2718 7.75739 10.9997 6.63802 10.9997 4.82911C10.9997 1.99967 8.37832 0 5.66634 0ZM5.66634 0.405063C8.15765 0.405063 10.573 2.23788 10.573 4.82911C10.573 6.53693 9.91419 7.53792 9.22634 8.46201C8.57469 9.33748 7.87795 10.1505 7.80633 11.3418H3.52635C3.45474 10.1505 2.75799 9.33748 2.10634 8.46201C1.41849 7.53792 0.759674 6.53693 0.759674 4.82911C0.759674 2.23788 3.17503 0.405063 5.66634 0.405063ZM4.40635 1.63291C4.37659 1.63473 4.34338 1.64251 4.313 1.65189C3.06412 2.09899 2.12522 3.14138 1.88633 4.41771C1.86713 4.52376 1.94798 4.63999 2.05969 4.65822C2.17137 4.67644 2.2938 4.59338 2.313 4.48733C2.52541 3.35252 3.35031 2.42877 4.45969 2.03163C4.56601 2.00974 4.64505 1.89922 4.62634 1.79746C4.57678 1.66419 4.49559 1.62732 4.40635 1.63291ZM3.53301 11.7468H7.79967V12.962H3.53301V11.7468ZM3.53301 13.3671H7.79967V13.9747C7.79967 14.3291 7.49523 14.5823 7.15967 14.5823H4.17301C3.83746 14.5823 3.53301 14.3291 3.53301 13.9747V13.3671ZM5.02634 14.9873H6.30634V15.1899C6.30634 15.53 6.02459 15.5949 5.66634 15.5949C5.30809 15.5949 5.02634 15.53 5.02634 15.1899V14.9873Z" fill="black"/>
</svg>
