<svg viewBox="0 0 60 60" fill="none" xmlns="http://www.w3.org/2000/svg">
<path opacity="0.3" d="M31.175 46.4516C31.1632 44.0932 31.7593 41.7717 32.9058 39.7108C34.0523 37.6498 35.7104 35.9191 37.7204 34.6855C39.7304 33.4519 42.0243 32.757 44.381 32.6678C46.7377 32.5787 49.0775 33.0983 51.1749 34.1766V25.7766C51.1749 25.2329 50.959 24.7114 50.5745 24.327C50.1901 23.9425 49.6686 23.7266 49.1249 23.7266H7.12495C6.58126 23.7266 6.05983 23.9425 5.67538 24.327C5.29093 24.7114 5.07495 25.2329 5.07495 25.7766V40.0016C5.08157 43.5975 6.51472 47.044 9.0598 49.5844C11.6049 52.1248 15.054 53.5516 18.65 53.5516H33.175C31.8621 51.4164 31.1696 48.958 31.175 46.4516Z" fill="white"/>
<path d="M50.2 17.5008C50.3158 17.8112 50.3556 18.1447 50.3162 18.4737C50.2766 18.8026 50.159 19.1172 49.973 19.3914C49.7869 19.6655 49.538 19.8911 49.247 20.0493C48.9559 20.2075 48.6312 20.2937 48.3 20.3008H8.3C7.89466 20.2996 7.49569 20.1999 7.13748 20.0102C6.77926 19.8205 6.47253 19.5465 6.24373 19.212C6.01493 18.8774 5.87092 18.4922 5.8241 18.0895C5.77729 17.6869 5.82907 17.2789 5.975 16.9008C6.72517 15.0858 7.86022 13.4552 9.30182 12.1215C10.7434 10.7878 12.4572 9.78277 14.325 9.17578V5.27578C14.325 4.81828 14.5067 4.37952 14.8302 4.05602C15.1537 3.73252 15.5925 3.55078 16.05 3.55078C16.5075 3.55078 16.9463 3.73252 17.2698 4.05602C17.5933 4.37952 17.775 4.81828 17.775 5.27578V8.52578C18.025 8.52578 18.275 8.52578 18.55 8.52578H26.75V5.27578C26.75 4.81828 26.9317 4.37952 27.2552 4.05602C27.5787 3.73252 28.0175 3.55078 28.475 3.55078C28.7004 3.55076 28.9235 3.59554 29.1314 3.68254C29.3393 3.76953 29.5278 3.89699 29.686 4.05751C29.8442 4.21802 29.9689 4.40839 30.0528 4.61754C30.1368 4.82669 30.1783 5.05044 30.175 5.27578V8.45078H37.5C37.75 8.45078 38 8.45078 38.275 8.45078V5.27578C38.275 4.81828 38.4567 4.37952 38.7802 4.05602C39.1037 3.73252 39.5425 3.55078 40 3.55078C40.4575 3.55078 40.8963 3.73252 41.2198 4.05602C41.5433 4.37952 41.725 4.81828 41.725 5.27578V9.17578C43.6772 9.82854 45.455 10.9175 46.9235 12.36C48.392 13.8025 49.5125 15.5605 50.2 17.5008Z" fill="white"/>
<path d="M19.9 35.3008C21.0874 35.3008 22.05 34.3494 22.05 33.1758C22.05 32.0022 21.0874 31.0508 19.9 31.0508C18.7126 31.0508 17.75 32.0022 17.75 33.1758C17.75 34.3494 18.7126 35.3008 19.9 35.3008Z" fill="white"/>
<path d="M27.9249 35.3008C29.1123 35.3008 30.0749 34.3494 30.0749 33.1758C30.0749 32.0022 29.1123 31.0508 27.9249 31.0508C26.7375 31.0508 25.7749 32.0022 25.7749 33.1758C25.7749 34.3494 26.7375 35.3008 27.9249 35.3008Z" fill="white"/>
<path d="M19.8749 43.3008C21.0623 43.3008 22.0249 42.3494 22.0249 41.1758C22.0249 40.0022 21.0623 39.0508 19.8749 39.0508C18.6874 39.0508 17.7249 40.0022 17.7249 41.1758C17.7249 42.3494 18.6874 43.3008 19.8749 43.3008Z" fill="white"/>
<path d="M45 36.4512C43.0222 36.4512 41.0888 37.0377 39.4443 38.1365C37.7998 39.2353 36.5181 40.7971 35.7612 42.6243C35.0043 44.4516 34.8063 46.4623 35.1922 48.4021C35.578 50.3419 36.5304 52.1237 37.9289 53.5222C39.3275 54.9208 41.1093 55.8732 43.0491 56.259C44.9889 56.6449 46.9996 56.4468 48.8268 55.69C50.6541 54.9331 52.2159 53.6514 53.3147 52.0069C54.4135 50.3624 55 48.429 55 46.4512C55 43.799 53.9464 41.2555 52.0711 39.3801C50.1957 37.5047 47.6522 36.4512 45 36.4512ZM50.65 45.5762L46.375 51.0262C46.2003 51.2511 45.9767 51.4333 45.7212 51.5589C45.4656 51.6845 45.1848 51.7503 44.9 51.7512C44.6149 51.7522 44.3334 51.6872 44.0776 51.5615C43.8217 51.4357 43.5984 51.2525 43.425 51.0262L40.35 47.1012C40.1625 46.9103 40.0174 46.6819 39.9243 46.431C39.8312 46.1802 39.7921 45.9124 39.8096 45.6454C39.8271 45.3784 39.9008 45.1181 40.0259 44.8815C40.1511 44.645 40.3247 44.4375 40.5356 44.2727C40.7464 44.108 40.9897 43.9896 41.2495 43.9253C41.5092 43.8611 41.7796 43.8525 42.043 43.9C42.3063 43.9475 42.5567 44.0501 42.7776 44.2011C42.9985 44.3521 43.1851 44.5481 43.325 44.7762L44.9 46.8262L47.7 43.2762C47.8493 43.0802 48.0363 42.916 48.25 42.7933C48.4636 42.6706 48.6996 42.5918 48.9441 42.5615C49.1887 42.5312 49.4368 42.5501 49.6739 42.617C49.911 42.6839 50.1324 42.7975 50.325 42.9512C50.7039 43.2677 50.9426 43.7209 50.9894 44.2123C51.0362 44.7038 50.8873 45.1938 50.575 45.5762H50.65Z" fill="white"/>
</svg>
