<svg xmlns="http://www.w3.org/2000/svg"  viewBox="0 0 24 24" fill="none">
  <path d="M3.55995 10.0895L4.40995 7.93945H3.06995C2.80273 7.96526 2.5547 8.08966 2.37422 8.2884C2.19374 8.48715 2.09375 8.74599 2.09375 9.01445C2.09375 9.28292 2.19374 9.54176 2.37422 9.7405C2.5547 9.93925 2.80273 10.0637 3.06995 10.0895H3.55995Z" fill="black"/>
  <path d="M20.93 7.93945H19.85L20.77 10.0895H20.93C21.1972 10.0637 21.4452 9.93925 21.6257 9.7405C21.8062 9.54176 21.9062 9.28292 21.9062 9.01445C21.9062 8.74599 21.8062 8.48715 21.6257 8.2884C21.4452 8.08966 21.1972 7.96526 20.93 7.93945Z" fill="black"/>
  <path d="M2.87 17.8691V18.9391C2.87 19.3847 3.04699 19.812 3.36206 20.1271C3.67712 20.4421 4.10443 20.6191 4.55 20.6191C4.99556 20.6191 5.42287 20.4421 5.73793 20.1271C6.053 19.812 6.23 19.3847 6.23 18.9391V17.8691H2.87Z" fill="black"/>
  <path d="M18.1699 18.9391C18.1699 19.3847 18.3469 19.812 18.662 20.1271C18.977 20.4421 19.4044 20.6191 19.8499 20.6191C20.2955 20.6191 20.7228 20.4421 21.0379 20.1271C21.3529 19.812 21.5299 19.3847 21.5299 18.9391V17.8691H18.1699V18.9391Z" fill="black"/>
  <path opacity="0.3" d="M21.2199 11.1293L18.7799 5.46925C18.5139 4.84901 18.0717 4.32042 17.5083 3.94893C16.9448 3.57745 16.2848 3.37938 15.6099 3.37925H8.6099C7.91082 3.36931 7.22532 3.57261 6.6447 3.96207C6.06408 4.35154 5.61591 4.90867 5.3599 5.55925L3.1299 11.1693C2.97053 11.5771 2.88912 12.0113 2.8899 12.4493V17.8693H21.5099V12.4993C21.5093 12.0274 21.4106 11.5609 21.2199 11.1293ZM5.7999 8.91925L6.7399 6.05925C6.78024 5.93171 6.86013 5.82032 6.96801 5.74122C7.07588 5.66211 7.20613 5.6194 7.3399 5.61925H16.8399C16.9746 5.62032 17.1057 5.66324 17.215 5.74206C17.3243 5.82089 17.4064 5.93173 17.4499 6.05925L18.3899 8.91925C18.4216 9.01555 18.4299 9.11799 18.4143 9.21814C18.3986 9.3183 18.3594 9.4133 18.2998 9.49532C18.2402 9.57734 18.162 9.64405 18.0717 9.68993C17.9813 9.73582 17.8813 9.75958 17.7799 9.75925H6.3999C6.29937 9.75801 6.20056 9.7331 6.11146 9.68655C6.02235 9.63999 5.94547 9.5731 5.88704 9.4913C5.82861 9.40949 5.79027 9.31507 5.77513 9.21569C5.75999 9.1163 5.76847 9.01475 5.7999 8.91925ZM5.5999 14.4693C5.39223 14.4693 5.18922 14.4077 5.01655 14.2923C4.84388 14.1769 4.7093 14.0129 4.62982 13.8211C4.55035 13.6292 4.52956 13.4181 4.57007 13.2144C4.61059 13.0107 4.71059 12.8236 4.85744 12.6768C5.00428 12.5299 5.19137 12.4299 5.39505 12.3894C5.59873 12.3489 5.80985 12.3697 6.00172 12.4492C6.19358 12.5287 6.35757 12.6632 6.47294 12.8359C6.58832 13.0086 6.6499 13.2116 6.6499 13.4193C6.65708 13.559 6.63484 13.6988 6.58461 13.8294C6.53439 13.9601 6.45729 14.0787 6.35832 14.1777C6.25935 14.2767 6.1407 14.3537 6.01006 14.404C5.87941 14.4542 5.73968 14.4764 5.5999 14.4693ZM18.5999 14.4693C18.3922 14.4693 18.1892 14.4077 18.0165 14.2923C17.8439 14.1769 17.7093 14.0129 17.6298 13.8211C17.5504 13.6292 17.5296 13.4181 17.5701 13.2144C17.6106 13.0107 17.7106 12.8236 17.8574 12.6768C18.0043 12.5299 18.1914 12.4299 18.3951 12.3894C18.5987 12.3489 18.8099 12.3697 19.0017 12.4492C19.1936 12.5287 19.3576 12.6632 19.4729 12.8359C19.5883 13.0086 19.6499 13.2116 19.6499 13.4193C19.6569 13.5573 19.6352 13.6953 19.5861 13.8245C19.5371 13.9537 19.4618 14.0714 19.365 14.17C19.2683 14.2687 19.1521 14.3462 19.0238 14.3977C18.8956 14.4492 18.758 14.4736 18.6199 14.4693H18.5999Z" fill="black"/>
  <path d="M15.8398 16.2285H8.83984C8.64093 16.2285 8.45017 16.1495 8.30951 16.0088C8.16886 15.8682 8.08984 15.6774 8.08984 15.4785C8.08984 15.2796 8.16886 15.0888 8.30951 14.9482C8.45017 14.8075 8.64093 14.7285 8.83984 14.7285H15.8398C16.0388 14.7285 16.2295 14.8075 16.3702 14.9482C16.5108 15.0888 16.5898 15.2796 16.5898 15.4785C16.5898 15.6774 16.5108 15.8682 16.3702 16.0088C16.2295 16.1495 16.0388 16.2285 15.8398 16.2285Z" fill="black"/>
</svg>