<svg width="24" height="24" viewBox="0 0 24 24" fill="none" xmlns="http://www.w3.org/2000/svg">
    <g clip-path="url(#clip0_7077_108)">
        <path d="M23.8559 12.3317C23.5963 11.8701 22.9906 11.697 22.5002 11.9855L19.2118 13.8893L18.3752 14.3797V18.9373L19.1541 19.3989C19.1829 19.3989 19.1829 19.4277 19.2118 19.4277L22.4425 21.3027C22.5867 21.4181 22.7887 21.4758 22.9906 21.4758C23.5386 21.4758 23.9713 21.0431 23.9713 20.495V16.6297L24.0002 12.822C24.0002 12.649 23.9713 12.4759 23.8559 12.3317Z"
              fill="#B2B2B2"/>
        <path d="M4.64447 10.8606C7.21174 10.8606 9.28864 8.78372 9.28864 6.21644C9.28864 3.64916 7.21174 1.57227 4.64447 1.57227C2.07719 1.57227 0.000292874 3.64916 0.000292874 6.21644C-0.0285529 8.78372 2.07719 10.8606 4.64447 10.8606ZM4.64447 4.31262C5.71176 4.31262 6.54829 5.17799 6.54829 6.21644C6.54829 7.28374 5.68292 8.12026 4.64447 8.12026C3.60602 8.12026 2.74064 7.25489 2.74064 6.21644C2.7118 5.14915 3.57717 4.31262 4.64447 4.31262Z"
              fill="black"/>
        <path d="M16.4136 11.1202C15.6636 11.4952 14.8271 11.726 13.9329 11.726C12.8368 11.726 11.7983 11.4087 10.9329 10.8318H7.64451C6.77913 11.4087 5.74068 11.726 4.64454 11.726C3.75032 11.726 2.9138 11.5241 2.1638 11.1202C1.50035 11.4952 1.03882 12.2452 1.03882 13.0529V20.0913C1.03882 21.3894 2.10611 22.4278 3.37533 22.4278H15.231C16.529 22.4278 17.5675 21.3605 17.5675 20.0913V13.0529C17.5386 12.2452 17.0771 11.4952 16.4136 11.1202Z"
              fill="#B2B2B2"/>
        <path d="M13.933 10.8606C16.5003 10.8606 18.5772 8.78372 18.5772 6.21644C18.5772 3.64916 16.5003 1.57227 13.933 1.57227C11.3657 1.57227 9.28882 3.64916 9.28882 6.21644C9.28882 8.78372 11.3657 10.8606 13.933 10.8606ZM13.933 4.31262C15.0003 4.31262 15.8368 5.17799 15.8368 6.21644C15.8368 7.28374 14.9714 8.12026 13.933 8.12026C12.8945 8.12026 12.0292 7.25489 12.0292 6.21644C12.0292 5.14915 12.8657 4.31262 13.933 4.31262Z"
              fill="black"/>
    </g>
    <defs>
        <clipPath id="clip0_7077_108">
            <rect width="24" height="24" fill="white"/>
        </clipPath>
    </defs>
</svg>
