<svg xmlns="http://www.w3.org/2000/svg"  viewBox="0 0 24 24" fill="none">
<path opacity="0.3" d="M13.73 6.51953H6.42997C4.17112 6.51953 2.33997 8.35069 2.33997 10.6095V17.9095C2.33997 20.1684 4.17112 21.9995 6.42997 21.9995H13.73C15.9888 21.9995 17.82 20.1684 17.82 17.9095V10.6095C17.82 8.35069 15.9888 6.51953 13.73 6.51953Z" fill="black"/>
<path d="M17.83 10.6094V17.9094C17.83 18.0294 17.83 18.1494 17.83 18.2694C18.8457 18.2694 19.8199 17.8659 20.5382 17.1476C21.2564 16.4293 21.66 15.4552 21.66 14.4394C21.66 13.4236 21.2564 12.4494 20.5382 11.7312C19.8199 11.0129 18.8457 10.6094 17.83 10.6094Z" fill="black"/>
<path opacity="0.3" d="M2.33997 10.6095V12.1595H17.83V10.6095C17.8273 9.52388 17.3942 8.48359 16.6256 7.71686C15.857 6.95012 14.8156 6.51953 13.73 6.51953H6.42997C5.34523 6.51953 4.30492 6.95044 3.5379 7.71746C2.77088 8.48449 2.33997 9.5248 2.33997 10.6095Z" fill="black"/>
<path d="M10.08 4.72C9.88613 4.72016 9.69978 4.64527 9.55996 4.51104C9.42014 4.37681 9.33771 4.19367 9.32996 4V2C9.32996 1.80109 9.40897 1.61032 9.54963 1.46967C9.69028 1.32902 9.88104 1.25 10.08 1.25C10.2789 1.25 10.4696 1.32902 10.6103 1.46967C10.7509 1.61032 10.83 1.80109 10.83 2V4C10.8247 4.19452 10.7431 4.37914 10.6027 4.5139C10.4623 4.64866 10.2745 4.7227 10.08 4.72Z" fill="black"/>
<path d="M6.16992 4.72C5.9761 4.72016 5.78974 4.64527 5.64992 4.51104C5.5101 4.37681 5.42767 4.19367 5.41992 4V2C5.41992 1.80109 5.49894 1.61032 5.63959 1.46967C5.78024 1.32902 5.97101 1.25 6.16992 1.25C6.36883 1.25 6.5596 1.32902 6.70025 1.46967C6.8409 1.61032 6.91992 1.80109 6.91992 2V4C6.91468 4.19452 6.83304 4.37914 6.69266 4.5139C6.55229 4.64866 6.36449 4.7227 6.16992 4.72Z" fill="black"/>
<path d="M13.9999 4.82031C13.8018 4.81772 13.6125 4.73787 13.4724 4.59778C13.3323 4.45768 13.2525 4.26842 13.2499 4.07031V2.07031C13.2499 1.8714 13.3289 1.68063 13.4695 1.53998C13.6102 1.39933 13.801 1.32031 13.9999 1.32031C14.1988 1.32031 14.3896 1.39933 14.5302 1.53998C14.6709 1.68063 14.7499 1.8714 14.7499 2.07031V4.07031C14.7499 4.26922 14.6709 4.45999 14.5302 4.60064C14.3896 4.74129 14.1988 4.82031 13.9999 4.82031Z" fill="black"/>
</svg>