<svg xmlns="http://www.w3.org/2000/svg" viewBox="0 0 47 47" fill="none" color="white">
  <path opacity="0.3"
    d="M25.3961 10.9219L6.77872 29.5015C5.3572 30.923 4.55859 32.851 4.55859 34.8613C4.55859 35.8567 4.75466 36.8424 5.13558 37.7621C5.51651 38.6817 6.07485 39.5173 6.77872 40.2212C7.48258 40.925 8.31819 41.4834 9.23784 41.8643C10.1575 42.2452 11.1431 42.4413 12.1386 42.4413C14.1489 42.4413 16.0769 41.6427 17.4984 40.2212L36.078 21.6038C36.8274 20.8482 37.2479 19.8271 37.2479 18.7628C37.2479 17.6986 36.8274 16.6775 36.078 15.9219L31.078 10.9219C30.3224 10.1725 29.3013 9.75195 28.237 9.75195C27.1728 9.75195 26.1517 10.1725 25.3961 10.9219ZM10.2446 32.8538C10.6418 32.4561 11.148 32.1852 11.6992 32.0753C12.2503 31.9654 12.8217 32.0214 13.3411 32.2363C13.8604 32.4512 14.3043 32.8154 14.6166 33.2826C14.9289 33.7499 15.0956 34.2993 15.0956 34.8613C15.0956 35.4234 14.9289 35.9728 14.6166 36.44C14.3043 36.9073 13.8604 37.2714 13.3411 37.4863C12.8217 37.7012 12.2503 37.7573 11.6992 37.6474C11.148 37.5375 10.6418 37.2666 10.2446 36.8689C9.97136 36.614 9.75144 36.3074 9.59762 35.9669C9.4438 35.6263 9.35915 35.2586 9.34858 34.8851C9.33801 34.5116 9.40172 34.1396 9.53604 33.7909C9.67035 33.4422 9.87258 33.1237 10.131 32.8538H10.2446Z"
    fill="currentColor" />
  <path opacity="0.3"
    d="M25.3961 10.9219L6.77872 29.5015C5.3572 30.923 4.55859 32.851 4.55859 34.8613C4.55859 35.8567 4.75466 36.8424 5.13558 37.7621C5.51651 38.6817 6.07485 39.5173 6.77872 40.2212C7.48258 40.925 8.31819 41.4834 9.23784 41.8643C10.1575 42.2452 11.1431 42.4413 12.1386 42.4413C14.1489 42.4413 16.0769 41.6427 17.4984 40.2212L36.078 21.6038C36.8274 20.8482 37.2479 19.8271 37.2479 18.7628C37.2479 17.6986 36.8274 16.6775 36.078 15.9219L31.078 10.9219C30.3224 10.1725 29.3013 9.75195 28.237 9.75195C27.1728 9.75195 26.1517 10.1725 25.3961 10.9219ZM10.2446 32.8538C10.6418 32.4561 11.148 32.1852 11.6992 32.0753C12.2503 31.9654 12.8217 32.0214 13.3411 32.2363C13.8604 32.4512 14.3043 32.8154 14.6166 33.2826C14.9289 33.7499 15.0956 34.2993 15.0956 34.8613C15.0956 35.4234 14.9289 35.9728 14.6166 36.44C14.3043 36.9073 13.8604 37.2714 13.3411 37.4863C12.8217 37.7012 12.2503 37.7573 11.6992 37.6474C11.148 37.5375 10.6418 37.2666 10.2446 36.8689C9.97136 36.614 9.75144 36.3074 9.59762 35.9669C9.4438 35.6263 9.35915 35.2586 9.34858 34.8851C9.33801 34.5116 9.40172 34.1396 9.53604 33.7909C9.67035 33.4422 9.87258 33.1237 10.131 32.8538H10.2446Z"
    fill="currentColor" />
  <path opacity="0.3"
    d="M4.90521 37.0008C4.90521 36.7735 4.7537 36.5652 4.71582 36.3379C4.7537 36.5652 4.8484 36.7546 4.90521 37.0008Z"
    fill="currentColor" />
  <path opacity="0.3"
    d="M38.4066 27.2852H30.4331L17.4975 40.2208C16.7935 40.9241 15.9577 41.4817 15.0381 41.8619C14.1184 42.2422 13.1329 42.4375 12.1377 42.4367H38.4066C39.4765 42.4367 40.5026 42.0117 41.2592 41.2551C42.0157 40.4986 42.4407 39.4725 42.4407 38.4026V31.3192C42.4407 30.2493 42.0157 29.2233 41.2592 28.4667C40.5026 27.7102 39.4765 27.2852 38.4066 27.2852Z"
    fill="currentColor" />
  <path opacity="0.3"
    d="M4.71582 33.3855C4.71582 33.1583 4.8484 32.9499 4.90521 32.7227C4.8484 32.9689 4.7537 33.1583 4.71582 33.3855Z"
    fill="currentColor" />
  <path
    d="M4.56152 8.59268V34.8616C4.56152 36.8708 5.35968 38.7978 6.78041 40.2185C8.20114 41.6392 10.1281 42.4374 12.1373 42.4374C14.1465 42.4374 16.0734 41.6392 17.4942 40.2185C18.9149 38.7978 19.713 36.8708 19.713 34.8616V8.59268C19.713 7.52278 19.288 6.49669 18.5315 5.74015C17.7749 4.98361 16.7489 4.55859 15.6789 4.55859H8.59561C7.52571 4.55859 6.49962 4.98361 5.74308 5.74015C4.98654 6.49669 4.56152 7.52278 4.56152 8.59268ZM9.29637 34.8616C9.29263 34.2944 9.45765 33.7389 9.77044 33.2657C10.0832 32.7925 10.5297 32.423 11.053 32.2042C11.5764 31.9854 12.1529 31.9272 12.7095 32.0369C13.266 32.1467 13.7773 32.4194 14.1784 32.8205C14.5795 33.2216 14.8522 33.7329 14.962 34.2894C15.0717 34.846 15.0135 35.4225 14.7947 35.9459C14.5759 36.4692 14.2064 36.9157 13.7332 37.2285C13.26 37.5413 12.7045 37.7063 12.1373 37.7025C11.3838 37.7025 10.6612 37.4032 10.1285 36.8704C9.59568 36.3377 9.29637 35.6151 9.29637 34.8616Z"
    fill="currentColor" />
</svg>