<svg viewBox="0 0 51 51" fill="none" color="white" xmlns="http://www.w3.org/2000/svg">
    <g id="copy-success">
        <g id="design">
            <g id="copy-success_2">
                <path id="Vector"
                    d="M38.667 4.33203H24.8545C22.8192 4.33202 20.867 5.13909 19.426 6.57628C17.9849 8.01346 17.1725 9.96346 17.167 11.9987V13.707H26.1462C29.0121 13.7125 31.7591 14.8535 33.7857 16.88C35.8122 18.9066 36.9532 21.6536 36.9587 24.5195V33.4987H38.667C40.7022 33.4932 42.6522 32.6808 44.0894 31.2397C45.5266 29.7986 46.3337 27.8464 46.3337 25.8112V11.9987C46.3337 9.96537 45.5259 8.01532 44.0881 6.57755C42.6504 5.13977 40.7003 4.33203 38.667 4.33203Z"
                    fill="currentColor" />
                <path id="Vector_2" opacity="0.3"
                    d="M26.1462 16.832H12.3337C10.2984 16.8375 8.34842 17.6499 6.91124 19.091C5.47406 20.5321 4.66698 22.4843 4.66699 24.5195V38.332C4.66699 40.3654 5.47473 42.3154 6.91251 43.7532C8.35029 45.191 10.3003 45.9987 12.3337 45.9987H26.1462C28.1814 45.9987 30.1336 45.1916 31.5747 43.7545C33.0158 42.3173 33.8281 40.3673 33.8337 38.332V24.5195C33.8337 22.4807 33.0237 20.5253 31.582 19.0836C30.1404 17.642 28.185 16.832 26.1462 16.832ZM27.2087 28.332L19.5003 35.7695C19.2047 36.0571 18.8086 36.2181 18.3962 36.2181C17.9837 36.2181 17.5876 36.0571 17.292 35.7695L13.6253 31.9987C13.4443 31.6924 13.3733 31.3336 13.4239 30.9815C13.4745 30.6294 13.6437 30.3051 13.9036 30.0622C14.1635 29.8193 14.4985 29.6724 14.8532 29.6457C15.208 29.619 15.5612 29.7141 15.8545 29.9154L18.4378 32.457L25.042 26.082C25.335 25.7894 25.7321 25.6251 26.1462 25.6251C26.5602 25.6251 26.9574 25.7894 27.2503 26.082C27.3989 26.2306 27.516 26.4075 27.5946 26.6024C27.6732 26.7972 27.7117 27.0058 27.7078 27.2159C27.7039 27.4259 27.6577 27.633 27.5719 27.8248C27.4862 28.0166 27.3626 28.1891 27.2087 28.332Z"
                    fill="currentColor" />
            </g>
        </g>
    </g>
</svg>