<svg viewBox="0 0 55 55" fill="none" xmlns="http://www.w3.org/2000/svg">
    <g opacity="0.3">
        <path d="M39.7998 45.2473H13.9331C13.3482 45.2432 12.7786 45.0593 12.3016 44.7206C11.8247 44.382 11.4633 43.9049 11.2665 43.354L0.599812 12.3673C0.385243 11.8245 0.354691 11.2263 0.512844 10.6645C0.670996 10.1026 1.00912 9.60819 1.47533 9.25702C1.94155 8.90584 2.5101 8.71733 3.09377 8.7204C3.67744 8.72346 4.24398 8.91794 4.70648 9.274L15.3731 16.954C15.6678 17.1712 16.0087 17.3173 16.3692 17.3809C16.7297 17.4445 17.1 17.4239 17.4512 17.3206C17.8023 17.2173 18.1249 17.0342 18.3935 16.7855C18.6622 16.5369 18.8697 16.2295 18.9998 15.8873L24.3331 1.96733C24.4867 1.40242 24.8218 0.903721 25.2869 0.548177C25.7519 0.192632 26.3211 0 26.9065 0C27.4919 0 28.061 0.192632 28.5261 0.548177C28.9911 0.903721 29.3263 1.40242 29.4798 1.96733L34.6531 15.9673C34.7821 16.3138 34.9902 16.6253 35.2609 16.877C35.5316 17.1288 35.8573 17.3138 36.2121 17.4174C36.567 17.521 36.9411 17.5403 37.3047 17.4737C37.6683 17.4072 38.0114 17.2566 38.3065 17.034L49.3198 8.84733C49.7777 8.44975 50.3574 8.22008 50.9633 8.19622C51.5692 8.17236 52.1652 8.35572 52.6529 8.71607C53.1406 9.07642 53.4909 9.59223 53.6461 10.1784C53.8013 10.7646 53.752 11.3862 53.5065 11.9407L42.4665 43.354C42.2953 43.9209 41.9403 44.4146 41.4575 44.7575C40.9746 45.1003 40.3914 45.2726 39.7998 45.2473Z"
              fill="white"/>
    </g>
    <path d="M33.6663 33.9668H20.333C19.8026 33.9668 19.2939 33.7561 18.9188 33.381C18.5437 33.0059 18.333 32.4972 18.333 31.9668C18.333 31.4364 18.5437 30.9277 18.9188 30.5526C19.2939 30.1775 19.8026 29.9668 20.333 29.9668H33.6663C34.1968 29.9668 34.7055 30.1775 35.0806 30.5526C35.4556 30.9277 35.6663 31.4364 35.6663 31.9668C35.6663 32.4972 35.4556 33.0059 35.0806 33.381C34.7055 33.7561 34.1968 33.9668 33.6663 33.9668Z"
          fill="white"/>
    <path d="M40.6531 53.541H13.373C12.8426 53.541 12.3339 53.3303 11.9588 52.9552C11.5838 52.5802 11.373 52.0714 11.373 51.541C11.373 51.0106 11.5838 50.5019 11.9588 50.1268C12.3339 49.7517 12.8426 49.541 13.373 49.541H40.6531C41.1835 49.541 41.6922 49.7517 42.0673 50.1268C42.4423 50.5019 42.6531 51.0106 42.6531 51.541C42.6531 52.0714 42.4423 52.5802 42.0673 52.9552C41.6922 53.3303 41.1835 53.541 40.6531 53.541Z"
          fill="white"/>
</svg>
