<svg xmlns="http://www.w3.org/2000/svg" viewBox="0 0 24 24" fill="none">
  <path opacity="0.3" d="M9.90996 21.67L4.66996 18.67C4.02642 18.2997 3.4934 17.7643 3.12598 17.1192C2.75856 16.474 2.57006 15.7424 2.57996 15V9C2.57541 8.26267 2.76644 7.53731 3.13359 6.89787C3.50075 6.25843 4.03088 5.72778 4.66996 5.36L9.90996 2.36C10.5447 1.99116 11.2658 1.79688 12 1.79688C12.7341 1.79688 13.4552 1.99116 14.09 2.36L19.33 5.36C19.969 5.72778 20.4992 6.25843 20.8663 6.89787C21.2335 7.53731 21.4245 8.26267 21.42 9V15C21.4192 15.7323 21.2257 16.4514 20.8588 17.0851C20.4919 17.7188 19.9646 18.2448 19.33 18.61L14.09 21.61C13.4605 21.988 12.7422 22.1927 12.008 22.2032C11.2739 22.2137 10.55 22.0298 9.90996 21.67Z" fill="black"/>
  <path opacity="0.3" d="M20.86 6.89C20.4966 6.2519 19.9681 5.7234 19.33 5.36L14.09 2.36C13.4552 1.99116 12.7342 1.79688 12 1.79688C11.2659 1.79688 10.5448 1.99116 9.91001 2.36L4.67001 5.36C4.03191 5.7234 3.50342 6.2519 3.14001 6.89L12 12L20.86 6.89Z" fill="black"/>
  <path d="M20.85 6.89062L12 12.0006L12.13 22.2206C12.8324 22.2087 13.5203 22.0195 14.13 21.6706L19.37 18.6706C20.0061 18.2953 20.5311 17.7577 20.8913 17.1128C21.2515 16.468 21.4339 15.7391 21.42 15.0006V9.00063C21.4215 8.25906 21.2247 7.53058 20.85 6.89062Z" fill="black"/>
</svg>