<svg viewBox="0 0 65 65" fill="none" xmlns="http://www.w3.org/2000/svg">
<path opacity="0.3" d="M62.034 53.5035L35.6711 63.9848C33.5617 64.8478 31.1977 64.8478 29.0883 63.9848L2.9171 53.5035C2.20388 53.2197 1.59223 52.7285 1.1613 52.0933C0.730369 51.458 0.5 50.7081 0.5 49.9405C0.5 49.1729 0.730369 48.423 1.1613 47.7878C1.59223 47.1525 2.20388 46.6613 2.9171 46.3775L6.91149 44.7478L26.6917 52.6727C30.3454 54.1211 34.414 54.1211 38.0677 52.6727L58.0396 44.7478L62.1299 46.3775C62.8394 46.6707 63.4446 47.1702 63.8671 47.8112C64.2896 48.4522 64.51 49.2053 64.4997 49.973C64.4893 50.7407 64.2488 51.4876 63.8092 52.117C63.3696 52.7465 62.7512 53.2295 62.034 53.5035ZM35.6711 46.729L61.9382 36.2158C62.6415 35.9269 63.243 35.4354 63.6664 34.8038C64.0897 34.1723 64.3157 33.4291 64.3157 32.6688C64.3157 31.9084 64.0897 31.1653 63.6664 30.5337C63.243 29.9021 62.6415 29.4107 61.9382 29.1218L35.6711 18.6085C33.6123 17.8277 31.3389 17.8277 29.2801 18.6085L2.9171 29.1218C2.2138 29.4107 1.61225 29.9021 1.1889 30.5337C0.765554 31.1653 0.539519 31.9084 0.539519 32.6688C0.539519 33.4291 0.765554 34.1723 1.1889 34.8038C1.61225 35.4354 2.2138 35.9269 2.9171 36.2158L29.2801 46.729C31.3389 47.5098 33.6123 47.5098 35.6711 46.729Z" fill="black"/>
<path d="M29.2801 29.4733L2.9171 18.9601C2.20388 18.6763 1.59223 18.185 1.1613 17.5498C0.730369 16.9146 0.5 16.1647 0.5 15.3971C0.5 14.6295 0.730369 13.8795 1.1613 13.2443C1.59223 12.6091 2.20388 12.1178 2.9171 11.8341L29.2801 1.35281C31.3331 0.541171 33.618 0.541171 35.6711 1.35281L61.9382 11.8341C62.6514 12.1178 63.263 12.6091 63.694 13.2443C64.1249 13.8795 64.3553 14.6295 64.3553 15.3971C64.3553 16.1647 64.1249 16.9146 63.694 17.5498C63.263 18.185 62.6514 18.6763 61.9382 18.9601L35.6711 29.4733C33.6123 30.2541 31.3389 30.2541 29.2801 29.4733Z" fill="black"/>
</svg>
