<svg width="24" height="24" viewBox="0 0 24 24" fill="none" xmlns="http://www.w3.org/2000/svg">
    <g clip-path="url(#clip0_9079_17315)">
        <path d="M3.25956 3.44043C3.05949 3.44043 2.89738 3.60259 2.89738 3.8026V6.69999H2.17304V3.8026C2.17304 3.60259 2.01093 3.44043 1.81087 3.44043C1.6108 3.44043 1.44869 3.60259 1.44869 3.8026V6.69999H0.724346V3.8026C0.724346 3.60259 0.562237 3.44043 0.362173 3.44043C0.162109 3.44043 0 3.60259 0 3.8026V8.14868L1.81087 9.59737L3.62173 8.14868V3.8026C3.62173 3.60259 3.45962 3.44043 3.25956 3.44043Z"
              fill="black"/>
        <path d="M3.25956 8.14844H0.362173L0 8.16664C0 8.50399 0.0785674 8.83671 0.229425 9.13847H0.253521L1.08652 10.8045V19.8346C1.08652 20.2346 1.41083 20.5589 1.81087 20.5589C2.2109 20.5589 2.53521 20.2346 2.53521 19.8346V10.8159L3.37396 9.13843H3.39235C3.54316 8.83671 3.62173 8.50399 3.62173 8.16664L3.25956 8.14844Z"
              fill="black"/>
        <path d="M23.9999 4.20118C23.9999 3.97494 23.7941 3.80052 23.5722 3.8448C22.5769 4.04346 21.8269 4.92205 21.8269 5.97578V12.6992C21.8269 12.7554 21.84 12.8109 21.8651 12.8611L22.5513 14.2333V19.8145C22.5513 20.2045 22.851 20.5402 23.2406 20.5585C23.6566 20.5781 23.9999 20.2466 23.9999 19.8349V4.20118Z"
              fill="black"/>
        <path d="M12.3622 3.80273V20.5593C16.9894 20.5593 20.7405 16.8082 20.7405 12.181C20.7405 7.55383 16.9894 3.80273 12.3622 3.80273Z"
              fill="black"/>
        <path d="M19.2917 12.181C19.2917 7.55383 16.1893 3.80273 12.3622 3.80273C7.73499 3.80273 3.98389 7.55383 3.98389 12.181C3.98389 16.8082 7.73499 20.5593 12.3622 20.5593C16.1893 20.5593 19.2917 16.8082 19.2917 12.181Z"
              fill="#B2B2B2"/>
    </g>
    <defs>
        <clipPath id="clip0_9079_17315">
            <rect width="24" height="24" fill="white"/>
        </clipPath>
    </defs>
</svg>
