<svg width="35" height="35" viewBox="0 0 35 35" fill="none" xmlns="http://www.w3.org/2000/svg">
<g clip-path="url(#clip0_7929_76419)">
<path d="M27.666 35H7.33403C5.72991 35 4.42944 33.6996 4.42944 32.0954V2.90459C4.42951 1.3004 5.72991 0 7.33403 0H20.6643C21.4068 0 22.1211 0.284375 22.6605 0.794609L29.6621 7.41856C30.242 7.96715 30.5705 8.73024 30.5705 9.52855V32.0954C30.5705 33.6996 29.2701 35 27.666 35Z" fill="#CFEAF9"/>
<path d="M29.6621 7.41856L22.6604 0.794609C22.1211 0.284307 21.4068 0 20.6643 0H17.5V35H27.666C29.2701 35 30.5706 33.6996 30.5706 32.0954V9.52855C30.5705 8.73024 30.242 7.96722 29.6621 7.41856Z" fill="#0067C6"/>
<path d="M22.8734 8.71373H30.453C30.3098 8.2242 30.0397 7.77584 29.6621 7.41859L22.6604 0.794634C22.3084 0.461518 21.8815 0.225474 21.4211 0.101196V7.26143C21.4211 8.06349 22.0714 8.71373 22.8734 8.71373Z" fill="#002D57"/>
<path d="M26.0039 15.7227H8.99609C8.40711 15.7227 7.92969 15.2636 7.92969 14.6973C7.92969 14.131 8.40711 13.6719 8.99609 13.6719H26.0039C26.5929 13.6719 27.0703 14.131 27.0703 14.6973C27.0703 15.2636 26.5929 15.7227 26.0039 15.7227Z" fill="white"/>
<path d="M26.0039 21.1914H8.99609C8.40711 21.1914 7.92969 20.7323 7.92969 20.166C7.92969 19.5997 8.40711 19.1406 8.99609 19.1406H26.0039C26.5929 19.1406 27.0703 19.5997 27.0703 20.166C27.0703 20.7323 26.5929 21.1914 26.0039 21.1914Z" fill="white"/>
<path d="M14.8496 26.6602H8.99609C8.40711 26.6602 7.92969 26.2011 7.92969 25.6348C7.92969 25.0685 8.40711 24.6094 8.99609 24.6094H14.8496C15.4386 24.6094 15.916 25.0685 15.916 25.6348C15.916 26.2011 15.4386 26.6602 14.8496 26.6602Z" fill="white"/>
<path d="M27.0703 14.6973C27.0703 14.131 26.5929 13.6719 26.0039 13.6719H17.5V15.7227H26.0039C26.5929 15.7227 27.0703 15.2636 27.0703 14.6973Z" fill="#CFEAF9"/>
<path d="M26.0039 19.1406H17.5V21.1914H26.0039C26.5929 21.1914 27.0703 20.7323 27.0703 20.166C27.0703 19.5997 26.5929 19.1406 26.0039 19.1406Z" fill="#CFEAF9"/>
</g>
<defs>
<clipPath id="clip0_7929_76419">
<rect width="35" height="35" fill="white"/>
</clipPath>
</defs>
</svg>
