<svg width="35" height="35" viewBox="0 0 35 35" fill="none" xmlns="http://www.w3.org/2000/svg">
<g clip-path="url(#clip0_7929_76450)">
<path d="M27.666 35H7.33403C5.72991 35 4.42944 33.6996 4.42944 32.0954V2.90459C4.42951 1.3004 5.72991 0 7.33403 0H20.6643C21.4068 0 22.1211 0.284375 22.6605 0.794609L29.6621 7.41856C30.242 7.96715 30.5705 8.73024 30.5705 9.52855V32.0954C30.5705 33.6996 29.2701 35 27.666 35Z" fill="#DED8E6"/>
<path d="M29.6621 7.41856L22.6604 0.794609C22.1211 0.284307 21.4068 0 20.6643 0H17.5C17.5 13.6684 17.5 21.3316 17.5 35H27.666C29.2701 35 30.5706 33.6996 30.5706 32.0954V9.52855C30.5705 8.73024 30.242 7.96722 29.6621 7.41856Z" fill="#8E79AB"/>
<path d="M22.8734 8.71373H30.453C30.3098 8.2242 30.0397 7.77584 29.6621 7.41859L22.6604 0.794634C22.3084 0.461518 21.8815 0.225474 21.4211 0.101196V7.26143C21.4211 8.06349 22.0714 8.71373 22.8734 8.71373Z" fill="#432E60"/>
<path d="M7.132 30.592C7.132 30.3147 7.192 30.068 7.312 29.852C7.432 29.6333 7.59867 29.464 7.812 29.344C8.028 29.2213 8.272 29.16 8.544 29.16C8.87733 29.16 9.16267 29.248 9.4 29.424C9.63733 29.6 9.796 29.84 9.876 30.144H9.124C9.068 30.0267 8.988 29.9373 8.884 29.876C8.78267 29.8147 8.66667 29.784 8.536 29.784C8.32533 29.784 8.15467 29.8573 8.024 30.004C7.89333 30.1507 7.828 30.3467 7.828 30.592C7.828 30.8373 7.89333 31.0333 8.024 31.18C8.15467 31.3267 8.32533 31.4 8.536 31.4C8.66667 31.4 8.78267 31.3693 8.884 31.308C8.988 31.2467 9.068 31.1573 9.124 31.04H9.876C9.796 31.344 9.63733 31.584 9.4 31.76C9.16267 31.9333 8.87733 32.02 8.544 32.02C8.272 32.02 8.028 31.96 7.812 31.84C7.59867 31.7173 7.432 31.548 7.312 31.332C7.192 31.116 7.132 30.8693 7.132 30.592ZM12.0429 31.504H10.9949L10.8269 32H10.1109L11.1269 29.192H11.9189L12.9349 32H12.2109L12.0429 31.504ZM11.8669 30.976L11.5189 29.948L11.1749 30.976H11.8669ZM14.2961 29.192C14.5921 29.192 14.8508 29.2507 15.0721 29.368C15.2934 29.4853 15.4641 29.6507 15.5841 29.864C15.7068 30.0747 15.7681 30.3187 15.7681 30.596C15.7681 30.8707 15.7068 31.1147 15.5841 31.328C15.4641 31.5413 15.2921 31.7067 15.0681 31.824C14.8468 31.9413 14.5894 32 14.2961 32H13.2441V29.192H14.2961ZM14.2521 31.408C14.5108 31.408 14.7121 31.3373 14.8561 31.196C15.0001 31.0547 15.0721 30.8547 15.0721 30.596C15.0721 30.3373 15.0001 30.136 14.8561 29.992C14.7121 29.848 14.5108 29.776 14.2521 29.776H13.9281V31.408H14.2521Z" fill="white"/>
</g>
<defs>
<clipPath id="clip0_7929_76450">
<rect width="35" height="35" fill="white"/>
</clipPath>
</defs>
</svg>
