<svg width="24" height="25" viewBox="0 0 24 25" fill="none" xmlns="http://www.w3.org/2000/svg">
<g clip-path="url(#clip0_6996_5810)">
<path d="M18.9708 24.5H5.02883C3.92886 24.5 3.03711 23.6083 3.03711 22.5083V2.49172C3.03716 1.3917 3.92886 0.5 5.02883 0.5H14.1696C14.6788 0.5 15.1685 0.695 15.5384 1.04487L20.3395 5.58702C20.7372 5.96319 20.9624 6.48645 20.9624 7.03386V22.5083C20.9624 23.6083 20.0707 24.5 18.9708 24.5Z" fill="#C29B40" fill-opacity="0.16"/>
<path d="M20.3397 5.58702L15.5386 1.04487C15.1687 0.694953 14.679 0.5 14.1698 0.5H12V24.5H18.971C20.0709 24.5 20.9627 23.6083 20.9627 22.5083V7.03386C20.9626 6.48645 20.7374 5.96323 20.3397 5.58702Z" fill="#C29B40" fill-opacity="0.16"/>
<path d="M15.6848 6.47507H20.8822C20.7841 6.1394 20.5988 5.83194 20.3399 5.58698L15.5388 1.04484C15.2974 0.816414 15.0046 0.654555 14.689 0.569336V5.47921C14.689 6.02919 15.1348 6.47507 15.6848 6.47507Z" fill="#C29B40"/>
<path d="M17.8312 11.2812H6.16875C5.76488 11.2812 5.4375 10.9664 5.4375 10.5781C5.4375 10.1898 5.76488 9.875 6.16875 9.875H17.8312C18.2351 9.875 18.5625 10.1898 18.5625 10.5781C18.5625 10.9664 18.2351 11.2812 17.8312 11.2812Z" fill="white"/>
<path d="M17.8312 15.0312H6.16875C5.76488 15.0312 5.4375 14.7164 5.4375 14.3281C5.4375 13.9398 5.76488 13.625 6.16875 13.625H17.8312C18.2351 13.625 18.5625 13.9398 18.5625 14.3281C18.5625 14.7164 18.2351 15.0312 17.8312 15.0312Z" fill="white"/>
<path d="M10.1826 18.7812H6.16875C5.76488 18.7812 5.4375 18.4664 5.4375 18.0781C5.4375 17.6898 5.76488 17.375 6.16875 17.375H10.1826C10.5865 17.375 10.9139 17.6898 10.9139 18.0781C10.9139 18.4664 10.5864 18.7812 10.1826 18.7812Z" fill="white"/>
<path d="M18.5625 10.5781C18.5625 10.1898 18.2351 9.875 17.8312 9.875H12V11.2812H17.8312C18.2351 11.2812 18.5625 10.9664 18.5625 10.5781Z" fill="white"/>
<path d="M17.8312 13.625H12V15.0312H17.8312C18.2351 15.0312 18.5625 14.7164 18.5625 14.3281C18.5625 13.9398 18.2351 13.625 17.8312 13.625Z" fill="white"/>
</g>
<defs>
<clipPath id="clip0_6996_5810">
<rect width="24" height="24" fill="white" transform="translate(0 0.5)"/>
</clipPath>
</defs>
</svg>
