<svg xmlns="http://www.w3.org/2000/svg" color="gray" viewBox="0 0 24 24"
    fill="none">
    <g opacity="0.3">
        <path
            d="M8.58917 5.72147L7.09453 12.2526C6.50069 14.8476 8.12289 17.4326 10.7178 18.0264L14.6463 18.9254C17.2412 19.5193 19.8262 17.8971 20.4201 15.3021L21.9147 8.77098C22.5085 6.17605 20.8863 3.59104 18.2914 2.9972L14.363 2.09818C11.768 1.50434 9.18301 3.12654 8.58917 5.72147Z"
            fill="currentColor" />
    </g>
    <path
        d="M14.64 18.9202L10.72 18.0002C9.47263 17.7142 8.38979 16.9449 7.7092 15.8612C7.0286 14.7775 6.80589 13.468 7.08996 12.2202L8.58996 5.6902C8.68606 5.34482 8.82374 5.01239 8.99996 4.7002L5.45996 5.7002C4.85766 5.87389 4.2955 6.1646 3.80563 6.5557C3.31576 6.9468 2.90777 7.43062 2.60501 7.9795C2.30224 8.52838 2.11063 9.13156 2.04113 9.75454C1.97163 10.3775 2.0256 11.0081 2.19996 11.6102L3.92996 17.6102C4.27289 18.8253 5.08265 19.8554 6.18244 20.4756C7.28224 21.0957 8.58272 21.2556 9.79996 20.9202L13.93 19.7302C14.4434 19.567 14.9266 19.3203 15.36 19.0002C15.1182 18.9931 14.8774 18.9664 14.64 18.9202Z"
        fill="currentColor" />
    <path
        d="M17.3995 10.4106C17.3365 10.4199 17.2725 10.4199 17.2095 10.4106L12.5095 9.21062C12.3159 9.16155 12.1497 9.03759 12.0475 8.86599C11.9453 8.6944 11.9154 8.48923 11.9645 8.29562C12.0136 8.10201 12.1375 7.93582 12.3091 7.83362C12.4807 7.73141 12.6859 7.70155 12.8795 7.75062L17.5895 8.96062C17.7613 9.01053 17.9097 9.12025 18.0078 9.26996C18.1058 9.41967 18.1471 9.59951 18.1241 9.777C18.1012 9.95449 18.0155 10.1179 17.8827 10.2378C17.7498 10.3577 17.5784 10.426 17.3995 10.4306V10.4106Z"
        fill="currentColor" />
    <path
        d="M14.4902 13.8203H14.3002L11.5202 13.1003C11.3266 13.0512 11.1604 12.9272 11.0582 12.7556C10.956 12.584 10.9262 12.3789 10.9752 12.1853C11.0243 11.9917 11.1483 11.8255 11.3199 11.7233C11.4914 11.6211 11.6966 11.5912 11.8902 11.6403L14.6802 12.3703C14.8723 12.4197 15.0369 12.5433 15.1381 12.7138C15.2393 12.8843 15.2688 13.088 15.2202 13.2803C15.1715 13.436 15.0745 13.5723 14.9433 13.6693C14.8121 13.7664 14.6534 13.8192 14.4902 13.8203Z"
        fill="currentColor" />
</svg>