<svg width="35" height="35" viewBox="0 0 35 35" fill="none" xmlns="http://www.w3.org/2000/svg">
<g clip-path="url(#clip0_7929_76429)">
<path d="M27.666 35H7.33403C5.72991 35 4.42944 33.6996 4.42944 32.0954V2.90459C4.42951 1.3004 5.72991 0 7.33403 0H20.6643C21.4068 0 22.1211 0.284375 22.6605 0.794609L29.6621 7.41856C30.242 7.96715 30.5705 8.73024 30.5705 9.52855V32.0954C30.5705 33.6996 29.2701 35 27.666 35Z" fill="#FFD396"/>
<path d="M29.6621 7.41856L22.6604 0.794609C22.1211 0.284307 21.4068 0 20.6643 0H17.5C17.5 13.6684 17.5 21.3316 17.5 35H27.666C29.2701 35 30.5706 33.6996 30.5706 32.0954V9.52855C30.5705 8.73024 30.242 7.96722 29.6621 7.41856Z" fill="#FFB554"/>
<path d="M22.8734 8.71373H30.453C30.3098 8.2242 30.0397 7.77584 29.6621 7.41859L22.6604 0.794634C22.3084 0.461518 21.8815 0.225474 21.4211 0.101196V7.26143C21.4211 8.06349 22.0714 8.71373 22.8734 8.71373Z" fill="#E38100"/>
<path d="M8.182 30.31H9.664V31H7.228V30.322L8.68 28.366H7.234V27.676H9.646V28.354L8.182 30.31ZM10.7404 27.28C10.5924 27.28 10.4684 27.234 10.3684 27.142C10.2724 27.046 10.2244 26.928 10.2244 26.788C10.2244 26.648 10.2724 26.532 10.3684 26.44C10.4684 26.344 10.5924 26.296 10.7404 26.296C10.8884 26.296 11.0104 26.344 11.1064 26.44C11.2064 26.532 11.2564 26.648 11.2564 26.788C11.2564 26.928 11.2064 27.046 11.1064 27.142C11.0104 27.234 10.8884 27.28 10.7404 27.28ZM11.1544 27.676V31H10.3144V27.676H11.1544ZM12.8243 28.156C12.9323 28.004 13.0803 27.878 13.2683 27.778C13.4603 27.674 13.6783 27.622 13.9223 27.622C14.2063 27.622 14.4623 27.692 14.6903 27.832C14.9223 27.972 15.1043 28.172 15.2363 28.432C15.3723 28.688 15.4403 28.986 15.4403 29.326C15.4403 29.666 15.3723 29.968 15.2363 30.232C15.1043 30.492 14.9223 30.694 14.6903 30.838C14.4623 30.982 14.2063 31.054 13.9223 31.054C13.6783 31.054 13.4623 31.004 13.2743 30.904C13.0903 30.804 12.9403 30.678 12.8243 30.526V32.584H11.9843V27.676H12.8243V28.156ZM14.5823 29.326C14.5823 29.126 14.5403 28.954 14.4563 28.81C14.3763 28.662 14.2683 28.55 14.1323 28.474C14.0003 28.398 13.8563 28.36 13.7003 28.36C13.5483 28.36 13.4043 28.4 13.2683 28.48C13.1363 28.556 13.0283 28.668 12.9443 28.816C12.8643 28.964 12.8243 29.138 12.8243 29.338C12.8243 29.538 12.8643 29.712 12.9443 29.86C13.0283 30.008 13.1363 30.122 13.2683 30.202C13.4043 30.278 13.5483 30.316 13.7003 30.316C13.8563 30.316 14.0003 30.276 14.1323 30.196C14.2683 30.116 14.3763 30.002 14.4563 29.854C14.5403 29.706 14.5823 29.53 14.5823 29.326Z" fill="white"/>
</g>
<defs>
<clipPath id="clip0_7929_76429">
<rect width="35" height="35" fill="white"/>
</clipPath>
</defs>
</svg>
