<svg width="35" height="36" viewBox="0 0 35 36" fill="none" xmlns="http://www.w3.org/2000/svg">
<g clip-path="url(#clip0_6996_36555)">
<path d="M27.666 35.5H7.33403C5.72991 35.5 4.42944 34.1996 4.42944 32.5954V3.40459C4.42951 1.8004 5.72991 0.5 7.33403 0.5H20.6643C21.4068 0.5 22.1211 0.784375 22.6605 1.29461L29.6621 7.91856C30.242 8.46715 30.5705 9.23024 30.5705 10.0285V32.5954C30.5705 34.1996 29.2701 35.5 27.666 35.5Z" fill="#FFD396"/>
<path d="M29.6621 7.91856L22.6604 1.29461C22.1211 0.784307 21.4068 0.5 20.6643 0.5H17.5V35.5H27.666C29.2701 35.5 30.5706 34.1996 30.5706 32.5954V10.0285C30.5705 9.23024 30.242 8.46722 29.6621 7.91856Z" fill="#FFB554"/>
<path d="M22.8734 9.21369H30.453C30.3098 8.72417 30.0397 8.2758 29.6621 7.91856L22.6604 1.2946C22.3084 0.961488 21.8815 0.725443 21.4211 0.601166V7.7614C21.4211 8.56346 22.0714 9.21369 22.8734 9.21369Z" fill="#FF8F00"/>
<path d="M26.0039 16.2227H8.99609C8.40711 16.2227 7.92969 15.7636 7.92969 15.1973C7.92969 14.631 8.40711 14.1719 8.99609 14.1719H26.0039C26.5929 14.1719 27.0703 14.631 27.0703 15.1973C27.0703 15.7636 26.5929 16.2227 26.0039 16.2227Z" fill="white"/>
<path d="M26.0039 21.6914H8.99609C8.40711 21.6914 7.92969 21.2323 7.92969 20.666C7.92969 20.0997 8.40711 19.6406 8.99609 19.6406H26.0039C26.5929 19.6406 27.0703 20.0997 27.0703 20.666C27.0703 21.2323 26.5929 21.6914 26.0039 21.6914Z" fill="white"/>
<path d="M14.8496 27.1602H8.99609C8.40711 27.1602 7.92969 26.7011 7.92969 26.1348C7.92969 25.5685 8.40711 25.1094 8.99609 25.1094H14.8496C15.4386 25.1094 15.916 25.5685 15.916 26.1348C15.916 26.7011 15.4386 27.1602 14.8496 27.1602Z" fill="white"/>
<path d="M27.0703 15.1973C27.0703 14.631 26.5929 14.1719 26.0039 14.1719H17.5V16.2227H26.0039C26.5929 16.2227 27.0703 15.7636 27.0703 15.1973Z" fill="#FFE4C3"/>
<path d="M26.0039 19.6406H17.5V21.6914H26.0039C26.5929 21.6914 27.0703 21.2323 27.0703 20.666C27.0703 20.0997 26.5929 19.6406 26.0039 19.6406Z" fill="#FFE4C3"/>
</g>
<defs>
<clipPath id="clip0_6996_36555">
<rect width="35" height="35" fill="white" transform="translate(0 0.5)"/>
</clipPath>
</defs>
</svg>
