<svg viewBox="0 0 60 60" fill="none" xmlns="http://www.w3.org/2000/svg">
<path opacity="0.3" d="M30 55C43.8071 55 55 43.8071 55 30C55 16.1929 43.8071 5 30 5C16.1929 5 5 16.1929 5 30C5 43.8071 16.1929 55 30 55Z" fill="white"/>
<path d="M40.6 35.3256C40.6165 36.8665 40.182 38.3786 39.35 39.6756C38.4448 41.0097 37.1789 42.0588 35.7 42.7006C33.8983 43.4609 31.9549 43.8274 30 43.7756C27.7418 43.8595 25.5009 43.351 23.5 42.3006C22.3025 41.5899 21.2913 40.6044 20.55 39.4256C19.8467 38.3989 19.4481 37.1942 19.4 35.9506C19.3818 35.6416 19.4255 35.332 19.5285 35.0401C19.6316 34.7482 19.7919 34.4798 20 34.2506C20.2247 34.0226 20.4936 33.8429 20.7902 33.7225C21.0869 33.6021 21.405 33.5436 21.725 33.5506C22.2604 33.5447 22.7782 33.7412 23.175 34.1006C23.6286 34.5584 23.9708 35.1144 24.175 35.7256C24.4745 36.4667 24.8428 37.1782 25.275 37.8506C25.7011 38.456 26.2787 38.9387 26.95 39.2506C27.8313 39.6681 28.8007 39.8654 29.775 39.8256C31.1633 39.8893 32.5339 39.4939 33.675 38.7006C34.1356 38.3928 34.5134 37.9764 34.775 37.4881C35.0366 36.9998 35.174 36.4546 35.175 35.9006C35.1901 35.5051 35.1248 35.1106 34.983 34.741C34.8412 34.3714 34.6259 34.0345 34.35 33.7506C33.8355 33.1998 33.203 32.7725 32.5 32.5006C31.625 32.2006 30.5 31.9006 29.05 31.5506C27.3576 31.2118 25.7064 30.6921 24.125 30.0006C22.8944 29.4581 21.8323 28.5946 21.05 27.5006C20.3022 26.3697 19.9344 25.0298 20 23.6756C19.9746 22.281 20.395 20.9147 21.2 19.7756C22.0496 18.5786 23.2318 17.6572 24.6 17.1256C26.3259 16.4831 28.159 16.1775 30 16.2256C31.4398 16.1942 32.8752 16.3968 34.25 16.8256C35.3389 17.1664 36.3499 17.7186 37.225 18.4506C37.9477 19.0251 38.5363 19.7503 38.95 20.5756C39.3042 21.2374 39.4929 21.9751 39.5 22.7256C39.5042 23.3658 39.2626 23.9833 38.825 24.4506C38.6182 24.6994 38.3579 24.8982 38.0636 25.0324C37.7693 25.1666 37.4484 25.2326 37.125 25.2256C36.61 25.2628 36.1003 25.1018 35.7 24.7756C35.2971 24.3112 34.9529 23.799 34.675 23.2506C34.2565 22.3571 33.6612 21.5576 32.925 20.9006C31.9515 20.2105 30.7633 19.8912 29.575 20.0006C28.3799 19.9387 27.1966 20.263 26.2 20.9256C25.8201 21.156 25.5042 21.4783 25.2814 21.8627C25.0586 22.2471 24.9361 22.6814 24.925 23.1256C24.9123 23.6181 25.0616 24.1012 25.35 24.5006C25.6737 24.9161 26.083 25.2571 26.55 25.5006C27.0424 25.7776 27.5618 26.0038 28.1 26.1756L30.6 26.8506C31.9862 27.1708 33.3547 27.563 34.7 28.0256C35.803 28.3892 36.8473 28.9113 37.8 29.5756C38.6442 30.1678 39.3308 30.9574 39.8 31.8756C40.3439 32.9432 40.6185 34.1276 40.6 35.3256Z" fill="white"/>
<path d="M30 46.8006C29.7497 46.8175 29.4985 46.784 29.2613 46.702C29.0242 46.6201 28.8059 46.4913 28.6194 46.3235C28.4329 46.1556 28.2819 45.9521 28.1755 45.7248C28.0692 45.4976 28.0095 45.2513 28 45.0006L28.25 15.0006C28.25 14.7555 28.2986 14.5129 28.3932 14.2868C28.4877 14.0607 28.6262 13.8556 28.8007 13.6835C28.9751 13.5114 29.182 13.3756 29.4094 13.2841C29.6367 13.1927 29.88 13.1472 30.125 13.1506C30.618 13.1505 31.0911 13.3446 31.4421 13.6909C31.793 14.0371 31.9934 14.5076 32 15.0006L31.75 45.0006C31.7381 45.4657 31.5514 45.9092 31.227 46.2428C30.9027 46.5764 30.4646 46.7756 30 46.8006Z" fill="white"/>
</svg>
