<svg viewBox="0 0 22 24" fill="none" xmlns="http://www.w3.org/2000/svg">
<path d="M22 20.3906V23.2969C22 23.6852 21.6564 24 21.2326 24H0.767442C0.343609 24 0 23.6852 0 23.2969V20.3906C0 20.1593 0.0118698 19.9305 0.0350466 19.7048L3.53248 18.5031C4.33129 18.2287 4.86047 17.5291 4.86047 16.7475V13.6915C5.80513 13.3267 6.84246 13.125 7.93023 13.125H8.01639C8.83996 13.7125 9.87534 14.0625 11 14.0625C12.1247 14.0625 13.16 13.7125 13.9836 13.125H14.0698C15.1575 13.125 16.1949 13.3268 17.1395 13.6914V16.7475C17.1395 17.529 17.6687 18.2287 18.4675 18.5031L21.9649 19.7048C21.9881 19.9305 22 20.1593 22 20.3906ZM16.5891 2.00902L11.9069 0.170578C11.3277 -0.0568594 10.6722 -0.0568594 10.093 0.170578L5.41087 2.00906C4.4332 2.39292 4.16777 3.54947 4.89393 4.26159L6.13953 5.48311H15.8605L17.106 4.26159C17.8322 3.54947 17.5668 2.39292 16.5891 2.00902ZM11 8.45897C9.31245 8.45897 7.7461 7.69092 6.81002 6.40448L6.13953 5.48311V9.60938C6.13953 12.0688 8.31564 14.0625 11 14.0625C13.6844 14.0625 15.8605 12.0688 15.8605 9.60938V5.48311L15.19 6.40453C14.2539 7.69097 12.6876 8.45897 11 8.45897Z" fill="#B2B2B2"/>
<path d="M12.7236 17.3849L14.2489 23.9998H7.75127L9.27664 17.3849H12.7236ZM13.8133 13.241C13.0193 13.7582 12.0485 14.0623 11.0001 14.0623C9.95173 14.0623 8.98092 13.7582 8.18692 13.241L9.18296 15.9786H12.8173L13.8133 13.241ZM0.0351562 19.7046L3.53259 18.5029C4.3314 18.2285 4.86058 17.5289 4.86058 16.7473V13.6913C2.22702 14.708 0.313686 16.9918 0.0351562 19.7046ZM6.81013 6.40429C7.74621 7.69072 9.31256 8.45877 11.0001 8.45877C12.6877 8.45877 14.254 7.69072 15.1901 6.40429L15.8606 5.48291H6.13964L6.81013 6.40429ZM17.1396 13.6912V16.7473C17.1396 17.5288 17.6688 18.2285 18.4676 18.5029L21.965 19.7046C21.6865 16.9918 19.7732 14.708 17.1396 13.6912Z" fill="black"/>
</svg>
