<svg width="19" height="19" viewBox="0 0 19 19" fill="none" xmlns="http://www.w3.org/2000/svg">
<path d="M9.20832 4.21678L5.20834 4.22838C4.10378 4.23158 3.21095 5.12961 3.21415 6.23417L3.23745 14.2695C3.24066 15.374 4.13868 16.2669 5.24324 16.2637L13.2786 16.2404C14.3831 16.2372 15.2759 15.3391 15.2727 14.2346L15.2611 10.2346M14.205 3.16662C14.4789 2.89115 14.8509 2.73575 15.2394 2.73463C15.6278 2.7335 16.0008 2.88673 16.2763 3.16061C16.5518 3.43449 16.7072 3.80658 16.7083 4.19503C16.7094 4.58348 16.5562 4.95647 16.2823 5.23194L9.74213 11.8102L6.98236 12.5086L7.66479 9.74484L14.205 3.16662Z" stroke="#1D1D1D" stroke-width="1.5" stroke-linecap="round" stroke-linejoin="round"/>
</svg>
