<svg width="24" height="24" viewBox="0 0 24 24" fill="none" xmlns="http://www.w3.org/2000/svg">
    <path d="M1.48853 23.5312V3.39551C1.48853 3.13662 1.69838 2.92676 1.95728 2.92676H17.9954C18.2543 2.92676 18.4641 3.13662 18.4641 3.39551V23.5312C18.4641 23.7901 18.2543 23.9999 17.9954 23.9999H1.95728C1.69838 23.9999 1.48853 23.7901 1.48853 23.5312Z"
          fill="black"/>
    <path d="M17.0007 2.92676V23.9999H17.9813C18.248 23.9999 18.4642 23.7837 18.4642 23.517V3.40966C18.4642 3.14295 18.248 2.92676 17.9813 2.92676H17.0007Z"
          fill="black"/>
    <path d="M17.0007 23.9999H2.9519V4.85889C2.9519 4.6 3.16176 4.39014 3.42065 4.39014H16.5319C16.7908 4.39014 17.0007 4.6 17.0007 4.85889V23.9999Z"
          fill="#7D7D7D"/>
    <path d="M22.4837 10.6342L21.3614 8.76372C21.2864 8.63866 21.1052 8.63866 21.0301 8.76372L19.9078 10.6342C19.8306 10.7629 19.9233 10.9267 20.0734 10.9267H22.318C22.4682 10.9267 22.5609 10.7629 22.4837 10.6342Z"
          fill="black"/>
    <path d="M22.4837 13.3658L21.3614 15.2362C21.2864 15.3613 21.1052 15.3613 21.0301 15.2362L19.9078 13.3658C19.8306 13.237 19.9233 13.0732 20.0734 13.0732H22.318C22.4682 13.0732 22.5609 13.2371 22.4837 13.3658Z"
          fill="black"/>
    <path d="M9.97629 5.73535C9.77623 5.73535 9.61414 5.89749 9.61414 6.09751V24H10.3385V6.09751C10.3384 5.89749 10.1764 5.73535 9.97629 5.73535Z"
          fill="black"/>
</svg>
