<svg width="24" height="24" viewBox="0 0 24 24" fill="none" xmlns="http://www.w3.org/2000/svg">
<g opacity="0.3">
<path d="M17.74 3.5H6.26C3.90727 3.5 2 5.40727 2 7.76V16.24C2 18.5927 3.90727 20.5 6.26 20.5H17.74C20.0927 20.5 22 18.5927 22 16.24V7.76C22 5.40727 20.0927 3.5 17.74 3.5Z" fill="#C29B40"/>
</g>
<path d="M12.0002 13.0005C11.204 12.9974 10.4335 12.7181 9.82019 12.2105L6.42019 9.40047C6.26769 9.26786 6.17412 9.0801 6.16005 8.8785C6.14599 8.6769 6.21258 8.47796 6.34519 8.32547C6.4778 8.17297 6.66556 8.07939 6.86716 8.06533C7.06876 8.05126 7.26769 8.11786 7.42019 8.25047L10.8002 11.0605C11.1445 11.3503 11.5801 11.5092 12.0302 11.5092C12.4803 11.5092 12.9159 11.3503 13.2602 11.0605L16.5502 8.27047C16.6965 8.15577 16.8805 8.10033 17.0658 8.11515C17.2511 8.12997 17.424 8.21398 17.5502 8.35047C17.6781 8.50254 17.7413 8.69865 17.7263 8.89678C17.7114 9.09491 17.6194 9.2793 17.4702 9.41047L14.1802 12.2005C13.5704 12.7155 12.7984 12.9988 12.0002 13.0005Z" fill="#C29B40"/>
</svg>
