<svg xmlns="http://www.w3.org/2000/svg" color="#C29B40" viewBox="0 0 32 32" fill="none">
    <g opacity="0.3">
        <path
            d="M23.6534 4.6665H8.34669C5.20971 4.6665 2.66669 7.20953 2.66669 10.3465V21.6532C2.66669 24.7901 5.20971 27.3332 8.34669 27.3332H23.6534C26.7903 27.3332 29.3334 24.7901 29.3334 21.6532V10.3465C29.3334 7.20953 26.7903 4.6665 23.6534 4.6665Z"
            fill="currentColor" />
    </g>
    <path
        d="M16 17.3331C14.9384 17.329 13.9111 16.9567 13.0933 16.2798L8.56001 12.5331C8.35668 12.3563 8.23191 12.106 8.21316 11.8372C8.19441 11.5684 8.2832 11.3031 8.46001 11.0998C8.63682 10.8965 8.88717 10.7717 9.15597 10.753C9.42477 10.7342 9.69001 10.823 9.89335 10.9998L14.4 14.7465C14.8591 15.1329 15.4399 15.3448 16.04 15.3448C16.6401 15.3448 17.2209 15.1329 17.68 14.7465L22.0667 11.0265C22.2617 10.8736 22.5071 10.7996 22.7542 10.8194C23.0012 10.8391 23.2318 10.9512 23.4 11.1331C23.5705 11.3359 23.6548 11.5974 23.6349 11.8616C23.6149 12.1257 23.4923 12.3716 23.2933 12.5465L18.9067 16.2665C18.0936 16.9531 17.0643 17.3309 16 17.3331Z"
        fill="currentColor" />
</svg>