<svg viewBox="0 0 16 16" fill="none" xmlns="http://www.w3.org/2000/svg">
<path opacity="0.3" d="M8 16C12.4183 16 16 12.4183 16 8C16 3.58172 12.4183 0 8 0C3.58172 0 0 3.58172 0 8C0 12.4183 3.58172 16 8 16Z" fill="#E11B22"/>
<path d="M8.0002 9.11999C8.21237 9.11999 8.41585 9.03571 8.56588 8.88568C8.71591 8.73565 8.8002 8.53217 8.8002 8.31999V4.59199C8.8002 4.37982 8.71591 4.17634 8.56588 4.02631C8.41585 3.87628 8.21237 3.79199 8.0002 3.79199C7.78802 3.79199 7.58454 3.87628 7.43451 4.02631C7.28448 4.17634 7.2002 4.37982 7.2002 4.59199V8.31999C7.2002 8.53217 7.28448 8.73565 7.43451 8.88568C7.58454 9.03571 7.78802 9.11999 8.0002 9.11999Z" fill="#E11B22"/>
<path d="M8 12.208C8.55228 12.208 9 11.7603 9 11.208C9 10.6557 8.55228 10.208 8 10.208C7.44772 10.208 7 10.6557 7 11.208C7 11.7603 7.44772 12.208 8 12.208Z" fill="#E11B22"/>
</svg>
