<svg viewBox="0 0 21 22" fill="none" xmlns="http://www.w3.org/2000/svg">
<g clip-path="url(#clip0_7952_24766)">
<path d="M1.96875 12.9625H7.21875C7.9454 12.9625 8.5375 13.5546 8.5375 14.2812V19.5312C8.5375 20.2579 7.9454 20.85 7.21875 20.85H1.96875C1.2421 20.85 0.65 20.2579 0.65 19.5312V14.2812C0.65 13.5546 1.2421 12.9625 1.96875 12.9625Z" fill="#7D7D7D"/>
<path d="M1.96875 12.9625H7.21875C7.9454 12.9625 8.5375 13.5546 8.5375 14.2812V19.5312C8.5375 20.2579 7.9454 20.85 7.21875 20.85H1.96875C1.2421 20.85 0.65 20.2579 0.65 19.5312V14.2812C0.65 13.5546 1.2421 12.9625 1.96875 12.9625Z" stroke="black" stroke-width="1.3"/>
<path d="M1.96875 12.9625H7.21875C7.9454 12.9625 8.5375 13.5546 8.5375 14.2812V19.5312C8.5375 20.2579 7.9454 20.85 7.21875 20.85H1.96875C1.2421 20.85 0.65 20.2579 0.65 19.5312V14.2812C0.65 13.5546 1.2421 12.9625 1.96875 12.9625Z" stroke="black" stroke-opacity="0.2" stroke-width="1.3"/>
<path d="M19.0312 0.5H1.96875C0.885964 0.5 0 1.38592 0 2.46875V11.6562C0.544701 11.2428 1.22719 11 1.96875 11H7.21875C9.03001 11 10.5 12.47 10.5 14.2812V19.5312C10.5 20.2728 10.2572 20.9553 9.84375 21.5H19.0312C20.1141 21.5 21 20.614 21 19.5312V2.46875C21 1.38592 20.1141 0.5 19.0312 0.5Z" fill="#7D7D7D"/>
<g clip-path="url(#clip1_7952_24766)">
<path d="M17.1956 4.83231L16.6687 4.30543C16.5232 4.15994 16.2873 4.15994 16.1418 4.30543L11.9268 8.52045C11.7813 8.66594 11.7813 8.90183 11.9268 9.04733L12.4537 9.57421C12.5992 9.7197 12.8351 9.7197 12.9806 9.57421L17.1956 5.35919C17.3411 5.21369 17.3411 4.9778 17.1956 4.83231Z" fill="black"/>
<path d="M17.3004 6.38907L17.949 3.7947C17.9924 3.62127 17.8353 3.46417 17.6618 3.50753L15.0674 4.15611C14.8888 4.20077 14.8272 4.42313 14.9574 4.55328L16.9031 6.49903C17.0334 6.62926 17.2558 6.56762 17.3004 6.38907Z" fill="black"/>
</g>
</g>
<defs>
<clipPath id="clip0_7952_24766">
<rect width="21" height="21" fill="white" transform="translate(0 0.5)"/>
</clipPath>
<clipPath id="clip1_7952_24766">
<rect width="8.94141" height="8.94141" fill="white" transform="translate(10.0898 2.46875)"/>
</clipPath>
</defs>
</svg>
