<svg viewBox="0 0 60 60" fill="none" xmlns="http://www.w3.org/2000/svg">
<path d="M30 37.125C33.935 37.125 37.125 33.935 37.125 30C37.125 26.065 33.935 22.875 30 22.875C26.065 22.875 22.875 26.065 22.875 30C22.875 33.935 26.065 37.125 30 37.125Z" fill="white"/>
<path opacity="0.3" d="M30 37.125C33.935 37.125 37.125 33.935 37.125 30C37.125 26.065 33.935 22.875 30 22.875C26.065 22.875 22.875 26.065 22.875 30C22.875 33.935 26.065 37.125 30 37.125Z" fill="white"/>
<path opacity="0.3" d="M30 8.59961C18.175 8.59961 5 20.1496 5 29.9996C5 39.3996 18.175 51.3996 30 51.3996C42.5 51.3996 55 39.9246 55 29.9996C55 20.4496 41.825 8.59961 30 8.59961ZM30 40.8746C27.8491 40.8746 25.7466 40.2368 23.9582 39.0418C22.1698 37.8469 20.7759 36.1484 19.9528 34.1613C19.1297 32.1741 18.9143 29.9875 19.334 27.878C19.7536 25.7685 20.7893 23.8307 22.3102 22.3098C23.8311 20.7889 25.7688 19.7532 27.8784 19.3336C29.9879 18.914 32.1745 19.1293 34.1617 19.9524C36.1488 20.7755 37.8473 22.1694 39.0422 23.9578C40.2372 25.7462 40.875 27.8487 40.875 29.9996C40.875 32.8838 39.7292 35.6499 37.6898 37.6894C35.6503 39.7289 32.8842 40.8746 30 40.8746Z" fill="white"/>
</svg>
