<svg viewBox="0 0 25 25" fill="none" xmlns="http://www.w3.org/2000/svg">
<g clip-path="url(#clip0_4305_9987)">
<path d="M12.4998 0.5C19.117 0.5 24.5 5.88346 24.5 12.5002C24.5 19.117 19.117 24.5 12.4998 24.5C5.88302 24.5 0.5 19.117 0.5 12.5002C0.5 5.88346 5.88302 0.5 12.4998 0.5ZM15.9044 5.3H13.2778C11.7364 5.3 10.4864 6.46105 10.4864 7.89365V9.94904H9.09516C8.98763 9.94904 8.9 10.03 8.9 10.1304V12.2623C8.9 12.3622 8.98763 12.4432 9.09516 12.4432H10.4864V19.5187C10.4864 19.619 10.574 19.7 10.6815 19.7H13.4639C13.5719 19.7 13.6591 19.619 13.6591 19.5187V12.4432H15.6765C15.7779 12.4432 15.8627 12.3715 15.8707 12.2773L16.0649 10.1453C16.0749 10.0397 15.9844 9.94904 15.8703 9.94904H13.6591V8.43633C13.6591 8.08203 13.9689 7.79463 14.3502 7.79463H15.9044C16.0124 7.79463 16.1 7.7132 16.1 7.6133V5.48133C16.1 5.38142 16.0124 5.3 15.9044 5.3Z" fill="#001731"/>
</g>
<defs>
<clipPath id="clip0_4305_9987">
<rect width="24" height="24" fill="white" transform="translate(0.5 0.5)"/>
</clipPath>
</defs>
</svg>
