<svg viewBox="0 0 65 65" fill="none" xmlns="http://www.w3.org/2000/svg">
<path opacity="0.3" d="M30.42 8.71217C31.0302 10.2599 32.0921 11.5882 33.4676 12.5242C34.843 13.4601 36.4683 13.9605 38.132 13.9602H47.732C50.7646 13.9593 53.7414 14.7762 56.3488 16.3249C58.9562 17.8735 61.0978 20.0967 62.548 22.7602C62.2779 18.2582 60.293 14.0309 57.0014 10.9476C53.7099 7.86441 49.362 6.15972 44.852 6.18418H29.3L30.42 8.71217Z" fill="black"/>
<path d="M47.604 13.9601H38.004C36.3403 13.9604 34.715 13.46 33.3396 12.524C31.9641 11.5881 30.9022 10.2598 30.292 8.71207L29.3 5.99207C28.6825 4.44937 27.6187 3.12595 26.245 2.19108C24.8712 1.25621 23.2497 0.7524 21.588 0.74408H15.188C13.2565 0.744075 11.3439 1.12505 9.55977 1.86519C7.77565 2.60533 6.15504 3.6901 4.79072 5.0574C3.42639 6.4247 2.34515 8.04767 1.60889 9.83339C0.872637 11.6191 0.495827 13.5325 0.500035 15.4641V48.04C0.495829 50.2631 0.92952 52.4651 1.77635 54.5205C2.62317 56.5759 3.86655 58.4444 5.43549 60.0193C7.00443 61.5942 8.8682 62.8446 10.9204 63.6992C12.9726 64.5538 15.173 64.9958 17.396 65H47.604C49.827 64.9958 52.0274 64.5538 54.0796 63.6992C56.1318 62.8446 57.9956 61.5942 59.5645 60.0193C61.1335 58.4444 62.3768 56.5759 63.2237 54.5205C64.0705 52.4651 64.5042 50.2631 64.5 48.04V30.92C64.5042 28.697 64.0705 26.495 63.2237 24.4396C62.3768 22.3841 61.1335 20.5157 59.5645 18.9408C57.9956 17.3659 56.1318 16.1155 54.0796 15.2609C52.0274 14.4063 49.827 13.9643 47.604 13.9601ZM44.404 34.28L34.484 47.272C34.2739 47.5409 34.0074 47.7604 33.7033 47.9152C33.3993 48.07 33.065 48.1563 32.724 48.168C32.3884 48.162 32.058 48.0847 31.7545 47.9413C31.4511 47.7978 31.1817 47.5915 30.964 47.336L23.7 38.76C23.373 38.2874 23.2344 37.7096 23.3114 37.1401C23.3885 36.5706 23.6756 36.0504 24.1165 35.6817C24.5574 35.3129 25.1201 35.1223 25.6943 35.1472C26.2685 35.172 26.8127 35.4106 27.22 35.816L32.5 42.344L40.692 31.624C40.8716 31.3831 41.0973 31.1802 41.3559 31.0271C41.6144 30.874 41.9008 30.7737 42.1985 30.732C42.4961 30.6903 42.799 30.7081 43.0897 30.7843C43.3804 30.8606 43.6531 30.9937 43.892 31.176C44.3384 31.5457 44.6315 32.068 44.7143 32.6417C44.7971 33.2153 44.6637 33.7993 44.34 34.28H44.404Z" fill="black"/>
</svg>
