<svg xmlns="http://www.w3.org/2000/svg" viewBox="0 0 24 24" fill="none">
  <path fill-rule="evenodd" clip-rule="evenodd" d="M6.18919 2.75566C10.0436 0.679408 13.9002 0.845035 17.7546 2.75636C18.183 2.96878 18.6224 3.1161 18.8756 2.56641C19.0976 2.08481 18.7665 1.82212 18.3632 1.61387C16.3186 0.558025 14.1532 -0.00557261 11.8447 0.000450218C9.62034 -0.0180815 7.54486 0.535787 5.60349 1.60646C5.19297 1.83255 4.80606 2.10543 5.11423 2.63266C5.38677 3.09896 5.7932 2.96878 6.18919 2.75566Z" fill="black"/>
  <path fill-rule="evenodd" clip-rule="evenodd" d="M4.93989 20.0677C4.58112 20.0677 4.28906 20.3584 4.28906 20.7158C4.28906 21.073 4.58112 21.3638 4.93989 21.3638C5.29889 21.3638 5.59072 21.073 5.59072 20.7158C5.59072 20.3584 5.29889 20.0677 4.93989 20.0677Z" fill="black"/>
  <path fill-rule="evenodd" clip-rule="evenodd" d="M13.4108 9.17415C13.4108 8.81695 13.119 8.52623 12.76 8.52623C12.4012 8.52623 12.1094 8.81695 12.1094 9.17415C12.1094 9.53135 12.4012 9.82206 12.76 9.82206C13.119 9.82206 13.4108 9.53135 13.4108 9.17415Z" fill="black"/>
  <path fill-rule="evenodd" clip-rule="evenodd" d="M20.4038 18.5896C20.0448 18.5896 19.7529 18.8803 19.7529 19.2375C19.7529 19.5947 20.0448 19.8854 20.4038 19.8854C20.7625 19.8854 21.0544 19.5947 21.0544 19.2375C21.0544 18.8803 20.7625 18.5896 20.4038 18.5896Z" fill="black"/>
  <path fill-rule="evenodd" clip-rule="evenodd" d="M15.508 15.9594C15.149 15.9594 14.8574 16.2501 14.8574 16.6073C14.8574 16.9645 15.149 17.2552 15.508 17.2552C15.8668 17.2552 16.1589 16.9645 16.1589 16.6073C16.1589 16.2501 15.8668 15.9594 15.508 15.9594Z" fill="black"/>
  <path fill-rule="evenodd" clip-rule="evenodd" d="M15.508 15.9594C15.149 15.9594 14.8574 16.2501 14.8574 16.6073C14.8574 16.9645 15.149 17.2552 15.508 17.2552C15.8668 17.2552 16.1589 16.9645 16.1589 16.6073C16.1589 16.2501 15.8668 15.9594 15.508 15.9594Z" fill="black"/>
  <path fill-rule="evenodd" clip-rule="evenodd" d="M23.3491 11.6982C22.9901 11.6982 22.6982 11.9889 22.6982 12.3461C22.6982 12.7035 22.9901 12.994 23.3491 12.994C23.7078 12.994 23.9999 12.7035 23.9999 12.3461C23.9999 11.9889 23.7078 11.6982 23.3491 11.6982Z" fill="black"/>
  <path fill-rule="evenodd" clip-rule="evenodd" d="M23.0348 10.2237C23.0348 9.86652 22.743 9.57581 22.384 9.57581C22.0252 9.57581 21.7334 9.86652 21.7334 10.2237C21.7334 10.5812 22.0252 10.8716 22.384 10.8716C22.743 10.8716 23.0348 10.5812 23.0348 10.2237Z" fill="black"/>
  <path fill-rule="evenodd" clip-rule="evenodd" d="M3.62642 4.61482C3.98519 4.61482 4.27725 4.32433 4.27725 3.9669C4.27725 3.6097 3.98519 3.31898 3.62642 3.31898C3.26764 3.31898 2.97559 3.6097 2.97559 3.9669C2.97559 4.32433 3.26764 4.61482 3.62642 4.61482Z" fill="black"/>
  <path fill-rule="evenodd" clip-rule="evenodd" d="M1.21747 10.31C0.97443 10.31 0.764521 10.4451 0.652873 10.642L0.650603 10.6408C0.648107 10.6473 0.645611 10.6536 0.643115 10.66C0.620195 10.7034 0.601814 10.749 0.589333 10.7974C0.0347201 12.2637 0 13.7857 0 13.7857C0 14.1431 0.29183 14.4336 0.650603 14.4336C0.958091 14.4336 1.21497 14.2195 1.2826 13.9337L1.28373 13.9335C1.28373 13.9321 1.28373 13.9309 1.28396 13.9297C1.2944 13.8834 1.30143 13.8355 1.30143 13.7857C1.30143 13.7632 1.2969 13.7416 1.29463 13.7196C1.38131 12.2642 1.81543 11.2132 1.81543 11.2132C1.84924 11.1349 1.8683 11.0485 1.8683 10.9579C1.8683 10.6007 1.57624 10.31 1.21747 10.31Z" fill="black"/>
  <path fill-rule="evenodd" clip-rule="evenodd" d="M8.71561 6.2876C3.36827 8.41296 1.98855 13.4981 3.44157 18.4706C3.44951 18.5142 3.46176 18.5561 3.47788 18.5962C3.57477 18.8329 3.80783 19.0006 4.08037 19.0006C4.1194 19.0006 4.1573 18.9958 4.19452 18.9893C4.27326 18.9754 4.34656 18.9462 4.41282 18.9068C4.60253 18.7935 4.73097 18.5888 4.73097 18.3527C4.73097 18.3105 4.72621 18.2693 4.71849 18.229C4.71622 18.2181 4.71259 18.2082 4.70987 18.1973C4.58143 17.728 4.45821 17.2568 4.36449 16.7805C3.32493 11.5027 6.8085 6.97559 11.9203 6.97559C16.6154 6.97559 19.7727 9.89573 19.7727 14.2889C19.7727 16.0369 19.0733 16.9079 17.8325 16.882C17.8304 16.882 17.8286 16.8813 17.8266 16.8813L17.8216 16.8817C17.7975 16.8813 17.7732 16.8827 17.7494 16.8813C17.7464 16.8841 17.7446 16.8871 17.7417 16.8899C17.4233 16.9318 17.1759 17.2012 17.1759 17.5292C17.1759 17.8276 17.38 18.0761 17.6557 18.1514C17.6638 18.1549 17.6727 18.1581 17.6881 18.1623L17.692 18.163C17.6972 18.1639 17.7029 18.1644 17.7081 18.1653C17.7217 18.1672 17.738 18.1688 17.7582 18.1704C17.7809 18.1725 17.8032 18.1771 17.8266 18.1771C17.8349 18.1771 17.8427 18.175 17.8511 18.1748C17.9824 18.1787 18.139 18.1771 18.139 18.1771C20.1768 18.0164 20.9091 16.3258 20.9091 13.8838C20.9091 7.79562 14.3963 4.02973 8.71561 6.2876Z" fill="black"/>
  <path fill-rule="evenodd" clip-rule="evenodd" d="M9.01943 4.5508C9.04652 4.54621 9.07078 4.5358 9.09706 4.52913C9.06997 4.53621 9.04369 4.54371 9.0166 4.55121L9.01943 4.5508Z" fill="#00AEEF"/>
  <path fill-rule="evenodd" clip-rule="evenodd" d="M9.53348 3.79327C9.53144 3.78261 9.5278 3.77265 9.52531 3.76223C9.45587 3.48448 9.20557 3.27739 8.90557 3.27739C8.86631 3.27739 8.82819 3.28225 8.79097 3.28897C8.74195 3.3031 8.69475 3.31839 8.64664 3.33298C7.60209 3.65104 6.73636 4.08468 5.84816 4.61538C4.62411 5.34692 3.64968 6.17251 2.62147 7.48989C2.47465 7.67799 2.21255 7.92516 2.0394 8.19062C1.95226 8.28792 1.89553 8.41115 1.8801 8.54736C1.84424 8.7248 1.88531 8.90224 2.05642 9.0688C2.06255 9.07528 2.06935 9.08108 2.07571 9.08733C2.09863 9.10841 2.12336 9.12926 2.15082 9.15011C2.15377 9.15242 2.15672 9.15404 2.15967 9.15636C2.85158 9.66575 3.29114 8.70326 3.59953 8.30598C5.22139 6.21769 6.78855 5.12918 9.01608 4.54149C9.03129 4.53755 9.04604 4.53315 9.06147 4.52921C9.12206 4.51369 9.18015 4.49145 9.2328 4.46018C9.41956 4.34876 9.54596 4.14746 9.54596 3.91511C9.54596 3.87342 9.54119 3.83288 9.53348 3.79327Z" fill="black"/>
  <path fill-rule="evenodd" clip-rule="evenodd" d="M21.5413 7.73136C21.5105 7.67484 21.4735 7.62225 21.4276 7.57754C19.059 4.49316 15.894 3.00112 12.1011 2.92236C11.933 2.92468 11.5079 2.92236 11.4584 2.92236C11.0997 2.92236 10.8076 3.21308 10.8076 3.57028C10.8076 3.92771 11.0997 4.2182 11.4584 4.2182C14.7963 4.04122 18.1587 5.41767 20.4319 8.39086C20.4391 8.40221 20.4487 8.41263 20.4566 8.42329C20.5751 8.58057 20.7618 8.68389 20.974 8.68389C21.3319 8.68389 21.6226 8.3941 21.6226 8.03806C21.6226 7.92663 21.5915 7.82286 21.5413 7.73136Z" fill="black"/>
  <path fill-rule="evenodd" clip-rule="evenodd" d="M18.2345 14.2913C18.2246 14.0872 18.1964 13.8829 18.1597 13.6816C17.8531 12.0044 16.9045 10.4874 15.6351 9.54713C15.7436 9.63609 15.8239 9.7584 15.8588 9.89854C15.8613 9.90966 15.8654 9.91985 15.8677 9.93097C15.8754 9.97174 15.8802 10.0139 15.8802 10.057C15.8802 10.2974 15.7495 10.5059 15.5563 10.6211C15.4887 10.6614 15.4141 10.691 15.3337 10.7051C15.2961 10.7119 15.2575 10.7167 15.2178 10.7167C15.0857 10.7167 14.9636 10.6773 14.8604 10.6109C15.9017 11.4888 16.7818 12.9435 16.9372 14.4087C16.9871 14.8787 17.0346 15.3589 17.6203 15.3397C18.2852 15.3182 18.2579 14.7726 18.2345 14.2913Z" fill="black"/>
  <path fill-rule="evenodd" clip-rule="evenodd" d="M15.3335 10.7051C15.4138 10.6907 15.4883 10.6613 15.5559 10.621C15.7492 10.5059 15.8799 10.2974 15.8799 10.0569C15.8799 10.0138 15.8752 9.97169 15.8672 9.93068C15.865 9.9198 15.8611 9.9096 15.8586 9.89849C15.8234 9.75834 15.7433 9.63603 15.6346 9.54708C15.6262 9.54082 15.6178 9.53434 15.6095 9.52831C15.4998 9.44654 15.3648 9.3972 15.2173 9.3972C14.852 9.3972 14.5547 9.69301 14.5547 10.0569C14.5547 10.0982 14.5595 10.138 14.5669 10.1769C14.5751 10.2212 14.5874 10.2638 14.6039 10.3046C14.6366 10.3842 14.6854 10.4554 14.7446 10.5161C14.7834 10.5466 14.8218 10.5784 14.8599 10.6108C14.9632 10.6773 15.0855 10.7167 15.2173 10.7167C15.2573 10.7167 15.2956 10.7118 15.3335 10.7051Z" fill="black"/>
  <path fill-rule="evenodd" clip-rule="evenodd" d="M14.9495 10.6849C14.8812 10.6271 14.8129 10.5705 14.7441 10.5161C14.8064 10.5796 14.8743 10.6366 14.9495 10.6849Z" fill="#00AEEF"/>
  <path fill-rule="evenodd" clip-rule="evenodd" d="M12.6187 11.3579C12.6166 11.3575 12.6154 11.3571 12.6133 11.3567C12.6154 11.3575 12.6174 11.3579 12.6195 11.3588L12.6187 11.3579Z" fill="black"/>
  <path fill-rule="evenodd" clip-rule="evenodd" d="M15.2376 21.969C14.8784 21.8397 14.5046 21.7385 14.1638 21.5715C11.4145 20.2238 9.93541 18.0187 9.79358 14.9716C9.73027 13.6093 10.6151 12.6533 11.8518 12.6047L11.8698 12.5984C11.9449 12.5861 12.0157 12.5609 12.0801 12.5254C12.2791 12.4163 12.4157 12.2081 12.4157 11.9665C12.4157 11.7265 12.2809 11.5194 12.0842 11.4096C11.9973 11.3614 11.8995 11.3318 11.7942 11.3281C11.7867 11.3278 11.7797 11.3257 11.7722 11.3257C11.7576 11.3257 11.7438 11.3292 11.7295 11.3301C10.0743 11.4362 8.74132 12.6468 8.52392 14.2908C8.03466 17.9939 11.1878 22.4297 14.8348 23.1729C15.2503 23.2577 15.6261 23.235 15.7539 22.7585C15.8662 22.3401 15.6111 22.1034 15.2376 21.969Z" fill="black"/>
  <path fill-rule="evenodd" clip-rule="evenodd" d="M15.2568 14.0894C15.2507 14.0387 15.238 13.9905 15.221 13.9439C15.1005 13.4707 14.9135 12.9166 14.6453 12.5411C14.6253 12.5089 14.6024 12.4788 14.5772 12.4505C14.5729 12.4452 14.569 12.4389 14.5647 12.4338L14.5611 12.431C14.4426 12.3078 14.2767 12.2302 14.0922 12.2302C13.7332 12.2302 13.4414 12.5209 13.4414 12.8781C13.4414 12.9462 13.4548 13.0104 13.4745 13.072L13.472 13.0746C13.472 13.0746 13.4759 13.0829 13.4825 13.098C13.4906 13.1204 13.5002 13.142 13.5106 13.1631C13.5782 13.3229 13.7276 13.6991 13.9032 14.2807C13.9127 14.3405 13.9293 14.3977 13.9536 14.451C14.0611 14.6882 14.2994 14.8541 14.5772 14.8541C14.6968 14.8541 14.8073 14.821 14.9051 14.7672C15.117 14.6512 15.2625 14.4292 15.2625 14.1716C15.2625 14.1438 15.2602 14.1165 15.2568 14.0894Z" fill="black"/>
  <path fill-rule="evenodd" clip-rule="evenodd" d="M8.26562 19.7001C8.28908 19.7401 8.31091 19.7806 8.33436 19.8206C8.31374 19.7789 8.2911 19.7389 8.26562 19.7001Z" fill="#E82227"/>
  <path fill-rule="evenodd" clip-rule="evenodd" d="M7.12402 20.3153C7.15435 20.3834 7.19114 20.4478 7.234 20.5081C7.20974 20.4656 7.18589 20.4226 7.16405 20.3834C7.16082 20.3777 7.14505 20.3512 7.12402 20.3153Z" fill="#E82227"/>
  <path fill-rule="evenodd" clip-rule="evenodd" d="M18.3216 19.6306C18.2331 19.5813 18.1337 19.5512 18.0263 19.5477C17.9896 19.5514 17.9528 19.5537 17.9163 19.557C15.1275 19.7986 12.8619 17.9341 12.6202 15.1582C12.5785 14.6766 12.5937 14.114 11.9303 14.1631C11.3188 14.2087 11.3136 14.8214 11.3451 15.3065C11.5487 18.4414 14.1951 20.8646 17.4034 20.8989C17.6119 20.8989 17.8232 20.8783 18.0345 20.8486C18.076 20.8429 18.1175 20.8371 18.1593 20.8303C18.2149 20.816 18.268 20.7949 18.3175 20.7676C18.5203 20.6566 18.6595 20.4442 18.6595 20.1977C18.6595 19.9533 18.5222 19.7423 18.3216 19.6306Z" fill="black"/>
  <path fill-rule="evenodd" clip-rule="evenodd" d="M11.2266 22.8935L11.2273 22.8926C11.225 22.8914 11.223 22.8902 11.2207 22.8888C11.2141 22.8844 11.2069 22.8807 11.2001 22.8768C10.5967 22.5372 9.59476 21.5381 9.531 21.4885C9.53032 21.4876 9.52963 21.4869 9.52895 21.4862C9.48198 21.4501 9.43092 21.4184 9.37305 21.3956C9.03924 21.2645 8.6605 21.4281 8.52888 21.7607C8.45626 21.944 8.47601 22.1399 8.56269 22.3014L8.57086 22.3331C9.37759 23.4182 10.6581 23.9577 10.6581 23.9577C10.9711 24.0804 11.3258 23.9271 11.4492 23.6155C11.5552 23.348 11.4551 23.0501 11.2266 22.8935Z" fill="#E82227"/>
  <path fill-rule="evenodd" clip-rule="evenodd" d="M10.3963 8.70616C10.2921 8.70616 10.1031 8.77635 10.1031 8.77635C7.41897 9.57878 5.60717 12.0479 5.63508 15.0424C5.68932 16.9155 6.49537 19.1933 7.02933 20.1458C7.05407 20.1966 7.09718 20.2707 7.12373 20.3156C7.13553 20.3358 7.14438 20.3504 7.14643 20.3536C7.15845 20.3758 7.17184 20.3997 7.18546 20.4238C7.30346 20.5908 7.49816 20.7011 7.71851 20.7011C7.8322 20.7011 7.93772 20.6693 8.03099 20.6181C8.23296 20.5077 8.37138 20.2964 8.37138 20.0508C8.37138 19.9487 8.3462 19.8535 8.30353 19.7675C8.29037 19.7451 8.27812 19.7224 8.26496 19.6999C7.35792 18.1557 6.89771 16.4515 6.95626 14.5636C7.02434 12.366 8.55837 10.5874 10.5208 9.98949C10.5599 9.98207 10.5973 9.97026 10.6336 9.9559C10.6917 9.93968 10.8637 9.82919 10.8803 9.78286C10.9829 9.66842 11.0469 9.51924 11.0469 9.35408C11.0469 8.99688 10.755 8.70616 10.3963 8.70616Z" fill="#00AC75"/>
</svg>