<svg xmlns="http://www.w3.org/2000/svg" viewBox="0 0 24 24" fill="none">
  <path fill-rule="evenodd" clip-rule="evenodd" d="M6.18949 2.75561C10.0439 0.679362 13.9005 0.84499 17.7549 2.75631C18.1833 2.96873 18.6227 3.11606 18.8759 2.56636C19.0979 2.08476 18.7668 1.82208 18.3635 1.61383C16.3189 0.557979 14.1535 -0.00561838 11.845 0.000404442C9.62065 -0.0181273 7.54516 0.535741 5.60379 1.60641C5.19328 1.8325 4.80637 2.10538 5.11454 2.63261C5.38708 3.09892 5.7935 2.96873 6.18949 2.75561Z" fill="white"/>
  <path fill-rule="evenodd" clip-rule="evenodd" d="M4.93989 20.0676C4.58112 20.0676 4.28906 20.3584 4.28906 20.7158C4.28906 21.073 4.58112 21.3637 4.93989 21.3637C5.29889 21.3637 5.59072 21.073 5.59072 20.7158C5.59072 20.3584 5.29889 20.0676 4.93989 20.0676Z" fill="white"/>
  <path fill-rule="evenodd" clip-rule="evenodd" d="M13.4109 9.1741C13.4109 8.8169 13.1191 8.52618 12.7601 8.52618C12.4013 8.52618 12.1095 8.8169 12.1095 9.1741C12.1095 9.5313 12.4013 9.82202 12.7601 9.82202C13.1191 9.82202 13.4109 9.5313 13.4109 9.1741Z" fill="white"/>
  <path fill-rule="evenodd" clip-rule="evenodd" d="M20.4041 18.5895C20.0451 18.5895 19.7533 18.8803 19.7533 19.2375C19.7533 19.5947 20.0451 19.8854 20.4041 19.8854C20.7629 19.8854 21.0547 19.5947 21.0547 19.2375C21.0547 18.8803 20.7629 18.5895 20.4041 18.5895Z" fill="white"/>
  <path fill-rule="evenodd" clip-rule="evenodd" d="M15.5077 15.9593C15.1487 15.9593 14.8571 16.25 14.8571 16.6072C14.8571 16.9644 15.1487 17.2551 15.5077 17.2551C15.8664 17.2551 16.1585 16.9644 16.1585 16.6072C16.1585 16.25 15.8664 15.9593 15.5077 15.9593Z" fill="white"/>
  <path fill-rule="evenodd" clip-rule="evenodd" d="M15.5077 15.9593C15.1487 15.9593 14.8571 16.25 14.8571 16.6072C14.8571 16.9644 15.1487 17.2551 15.5077 17.2551C15.8664 17.2551 16.1585 16.9644 16.1585 16.6072C16.1585 16.25 15.8664 15.9593 15.5077 15.9593Z" fill="white"/>
  <path fill-rule="evenodd" clip-rule="evenodd" d="M23.3492 11.6981C22.9902 11.6981 22.6984 11.9888 22.6984 12.346C22.6984 12.7035 22.9902 12.994 23.3492 12.994C23.708 12.994 24 12.7035 24 12.346C24 11.9888 23.708 11.6981 23.3492 11.6981Z" fill="white"/>
  <path fill-rule="evenodd" clip-rule="evenodd" d="M23.035 10.2237C23.035 9.86648 22.7431 9.57576 22.3841 9.57576C22.0253 9.57576 21.7335 9.86648 21.7335 10.2237C21.7335 10.5811 22.0253 10.8716 22.3841 10.8716C22.7431 10.8716 23.035 10.5811 23.035 10.2237Z" fill="white"/>
  <path fill-rule="evenodd" clip-rule="evenodd" d="M3.62617 4.61477C3.98495 4.61477 4.277 4.32429 4.277 3.96686C4.277 3.60966 3.98495 3.31894 3.62617 3.31894C3.2674 3.31894 2.97534 3.60966 2.97534 3.96686C2.97534 4.32429 3.2674 4.61477 3.62617 4.61477Z" fill="white"/>
  <path fill-rule="evenodd" clip-rule="evenodd" d="M1.21747 10.31C0.97443 10.31 0.764521 10.445 0.652873 10.6419L0.650603 10.6408C0.648107 10.6473 0.645611 10.6535 0.643115 10.66C0.620195 10.7033 0.601814 10.749 0.589333 10.7974C0.0347201 12.2637 0 13.7856 0 13.7856C0 14.143 0.29183 14.4335 0.650603 14.4335C0.958091 14.4335 1.21497 14.2195 1.2826 13.9336L1.28373 13.9334C1.28373 13.932 1.28373 13.9309 1.28396 13.9297C1.2944 13.8834 1.30143 13.8354 1.30143 13.7856C1.30143 13.7631 1.2969 13.7416 1.29463 13.7196C1.38131 12.2642 1.81543 11.2132 1.81543 11.2132C1.84924 11.1349 1.8683 11.0485 1.8683 10.9579C1.8683 10.6007 1.57624 10.31 1.21747 10.31Z" fill="white"/>
  <path fill-rule="evenodd" clip-rule="evenodd" d="M8.7161 6.28755C3.36876 8.41291 1.98903 13.498 3.44206 18.4706C3.45 18.5141 3.46225 18.556 3.47836 18.5961C3.57526 18.8329 3.80832 19.0006 4.08086 19.0006C4.11989 19.0006 4.15779 18.9957 4.195 18.9892C4.27375 18.9753 4.34705 18.9461 4.41331 18.9068C4.60302 18.7935 4.73146 18.5887 4.73146 18.3527C4.73146 18.3105 4.7267 18.2693 4.71898 18.229C4.71671 18.2181 4.71308 18.2081 4.71036 18.1972C4.58192 17.7279 4.45869 17.2567 4.36497 16.7805C3.32542 11.5026 6.80899 6.97554 11.9208 6.97554C16.6159 6.97554 19.7732 9.89569 19.7732 14.2889C19.7732 16.0369 19.0738 16.9079 17.8329 16.8819C17.8309 16.8819 17.8291 16.8812 17.827 16.8812L17.822 16.8817C17.798 16.8812 17.7737 16.8826 17.7499 16.8812C17.7469 16.884 17.7451 16.887 17.7422 16.8898C17.4238 16.9317 17.1764 17.2011 17.1764 17.5292C17.1764 17.8275 17.3804 18.0761 17.6562 18.1514C17.6643 18.1548 17.6732 18.1581 17.6886 18.1622L17.6925 18.1629C17.6977 18.1639 17.7034 18.1643 17.7086 18.1653C17.7222 18.1671 17.7385 18.1687 17.7587 18.1704C17.7814 18.1724 17.8037 18.1771 17.827 18.1771C17.8354 18.1771 17.8432 18.175 17.8515 18.1748C17.9829 18.1787 18.1395 18.1771 18.1395 18.1771C20.1773 18.0163 20.9096 16.3257 20.9096 13.8837C20.9096 7.79557 14.3968 4.02969 8.7161 6.28755Z" fill="white"/>
  <path fill-rule="evenodd" clip-rule="evenodd" d="M9.01919 4.55075C9.04628 4.54617 9.07054 4.53575 9.09682 4.52908C9.06973 4.53617 9.04345 4.54367 9.01636 4.55117L9.01919 4.55075Z" fill="#00AEEF"/>
  <path fill-rule="evenodd" clip-rule="evenodd" d="M9.53372 3.79322C9.53168 3.78257 9.52805 3.77261 9.52555 3.76218C9.45611 3.48444 9.20581 3.27734 8.90581 3.27734C8.86655 3.27734 8.82843 3.28221 8.79121 3.28893C8.7422 3.30306 8.69499 3.31835 8.64689 3.33294C7.60233 3.65099 6.7366 4.08463 5.84841 4.61534C4.62436 5.34688 3.64993 6.17247 2.62171 7.48985C2.47489 7.67794 2.21279 7.92511 2.03964 8.19058C1.9525 8.28787 1.89577 8.41111 1.88034 8.54732C1.84448 8.72476 1.88556 8.9022 2.05666 9.06875C2.06279 9.07524 2.0696 9.08103 2.07595 9.08728C2.09887 9.10836 2.12361 9.12921 2.15106 9.15006C2.15402 9.15238 2.15697 9.154 2.15992 9.15632C2.85182 9.66571 3.29138 8.70321 3.59977 8.30594C5.22163 6.21764 6.7888 5.12913 9.01633 4.54144C9.03153 4.5375 9.04628 4.5331 9.06171 4.52916C9.1223 4.51364 9.1804 4.49141 9.23304 4.46013C9.4198 4.34871 9.5462 4.14741 9.5462 3.91507C9.5462 3.87337 9.54144 3.83283 9.53372 3.79322Z" fill="white"/>
  <path fill-rule="evenodd" clip-rule="evenodd" d="M21.5414 7.73131C21.5106 7.67479 21.4736 7.6222 21.4278 7.5775C19.0591 4.49312 15.8941 3.00108 12.1012 2.92232C11.9331 2.92463 11.508 2.92232 11.4586 2.92232C11.0998 2.92232 10.8077 3.21303 10.8077 3.57023C10.8077 3.92767 11.0998 4.21815 11.4586 4.21815C14.7965 4.04117 18.1589 5.41762 20.432 8.39081C20.4393 8.40216 20.4488 8.41259 20.4567 8.42324C20.5752 8.58053 20.7619 8.68384 20.9741 8.68384C21.332 8.68384 21.6227 8.39405 21.6227 8.03801C21.6227 7.92659 21.5916 7.82281 21.5414 7.73131Z" fill="white"/>
  <path fill-rule="evenodd" clip-rule="evenodd" d="M18.2338 14.2912C18.2238 14.0871 18.1957 13.8828 18.1589 13.6815C17.8523 12.0044 16.9038 10.4873 15.6344 9.54709C15.7428 9.63604 15.8232 9.75835 15.8581 9.8985C15.8606 9.90962 15.8647 9.91981 15.867 9.93093C15.8747 9.9717 15.8794 10.0139 15.8794 10.0569C15.8794 10.2974 15.7487 10.5059 15.5556 10.621C15.488 10.6613 15.4133 10.691 15.333 10.7051C15.2953 10.7118 15.2567 10.7167 15.217 10.7167C15.085 10.7167 14.9629 10.6773 14.8596 10.6108C15.901 11.4888 16.781 12.9435 16.9365 14.4087C16.9864 14.8787 17.0338 15.3589 17.6195 15.3397C18.2844 15.3181 18.2572 14.7726 18.2338 14.2912Z" fill="white"/>
  <path fill-rule="evenodd" clip-rule="evenodd" d="M15.3331 10.705C15.4135 10.6907 15.4879 10.6613 15.5555 10.6209C15.7489 10.5058 15.8796 10.2973 15.8796 10.0569C15.8796 10.0138 15.8748 9.97164 15.8669 9.93064C15.8646 9.91975 15.8607 9.90956 15.8583 9.89844C15.8231 9.75829 15.743 9.63598 15.6343 9.54703C15.6259 9.54078 15.6175 9.53429 15.6091 9.52827C15.4995 9.4465 15.3645 9.39716 15.217 9.39716C14.8516 9.39716 14.5543 9.69297 14.5543 10.0569C14.5543 10.0981 14.5591 10.138 14.5666 10.1769C14.5747 10.2211 14.587 10.2637 14.6036 10.3045C14.6362 10.3842 14.685 10.4553 14.7443 10.516C14.7831 10.5466 14.8214 10.5783 14.8595 10.6108C14.9628 10.6772 15.0851 10.7166 15.217 10.7166C15.2569 10.7166 15.2952 10.7118 15.3331 10.705Z" fill="white"/>
  <path fill-rule="evenodd" clip-rule="evenodd" d="M14.9498 10.6848C14.8815 10.627 14.8131 10.5705 14.7444 10.516C14.8067 10.5796 14.8746 10.6365 14.9498 10.6848Z" fill="#00AEEF"/>
  <path fill-rule="evenodd" clip-rule="evenodd" d="M12.6183 11.3579C12.6162 11.3575 12.615 11.3571 12.6129 11.3567C12.615 11.3575 12.6171 11.3579 12.6192 11.3587L12.6183 11.3579Z" fill="white"/>
  <path fill-rule="evenodd" clip-rule="evenodd" d="M15.2378 21.969C14.8786 21.8397 14.5049 21.7385 14.164 21.5715C11.4148 20.2237 9.93566 18.0187 9.79383 14.9716C9.73051 13.6093 10.6153 12.6533 11.8521 12.6046L11.87 12.5984C11.9451 12.5861 12.0159 12.5608 12.0804 12.5254C12.2794 12.4163 12.416 12.208 12.416 11.9664C12.416 11.7264 12.2812 11.5194 12.0844 11.4096C11.9975 11.3614 11.8997 11.3317 11.7944 11.328C11.7869 11.3278 11.7799 11.3257 11.7724 11.3257C11.7579 11.3257 11.744 11.3292 11.7298 11.3301C10.0745 11.4362 8.74156 12.6468 8.52416 14.2908C8.03491 17.9939 11.1881 22.4297 14.835 23.1728C15.2505 23.2576 15.6263 23.2349 15.7541 22.7584C15.8664 22.3401 15.6114 22.1033 15.2378 21.969Z" fill="white"/>
  <path fill-rule="evenodd" clip-rule="evenodd" d="M15.257 14.0894C15.2508 14.0386 15.2381 13.9905 15.2211 13.9439C15.1006 13.4706 14.9136 12.9165 14.6454 12.541C14.6254 12.5088 14.6025 12.4787 14.5773 12.4505C14.573 12.4451 14.5691 12.4389 14.5648 12.4338L14.5612 12.431C14.4427 12.3078 14.2769 12.2302 14.0924 12.2302C13.7334 12.2302 13.4415 12.5209 13.4415 12.8781C13.4415 12.9462 13.4549 13.0104 13.4747 13.072L13.4722 13.0745C13.4722 13.0745 13.476 13.0829 13.4826 13.0979C13.4908 13.1204 13.5003 13.1419 13.5107 13.163C13.5784 13.3228 13.7277 13.699 13.9033 14.2807C13.9129 14.3405 13.9294 14.3977 13.9537 14.451C14.0613 14.6882 14.2995 14.854 14.5773 14.854C14.6969 14.854 14.8074 14.8209 14.9052 14.7672C15.1172 14.6511 15.2626 14.4292 15.2626 14.1716C15.2626 14.1438 15.2604 14.1165 15.257 14.0894Z" fill="white"/>
  <path fill-rule="evenodd" clip-rule="evenodd" d="M8.26514 19.7C8.28859 19.7401 8.31042 19.7805 8.33387 19.8206C8.31325 19.7789 8.29061 19.7388 8.26514 19.7Z" fill="#E82227"/>
  <path fill-rule="evenodd" clip-rule="evenodd" d="M7.1239 20.3153C7.15423 20.3834 7.19102 20.4478 7.23388 20.508C7.20962 20.4655 7.18576 20.4226 7.16393 20.3834C7.1607 20.3776 7.14493 20.3512 7.1239 20.3153Z" fill="#E82227"/>
  <path fill-rule="evenodd" clip-rule="evenodd" d="M18.3216 19.6306C18.2331 19.5813 18.1337 19.5511 18.0263 19.5477C17.9896 19.5514 17.9528 19.5537 17.9163 19.5569C15.1275 19.7985 12.8619 17.934 12.6202 15.1582C12.5785 14.6766 12.5937 14.1139 11.9303 14.163C11.3188 14.2087 11.3136 14.8214 11.3451 15.3064C11.5487 18.4413 14.1951 20.8646 17.4034 20.8989C17.6119 20.8989 17.8232 20.8783 18.0345 20.8486C18.076 20.8428 18.1175 20.837 18.1593 20.8303C18.2149 20.8159 18.268 20.7949 18.3175 20.7675C18.5203 20.6566 18.6595 20.4441 18.6595 20.1977C18.6595 19.9533 18.5222 19.7423 18.3216 19.6306Z" fill="white"/>
  <path fill-rule="evenodd" clip-rule="evenodd" d="M11.2268 22.8934L11.2275 22.8925C11.2253 22.8913 11.2232 22.8902 11.2209 22.8888C11.2144 22.8844 11.2071 22.8807 11.2003 22.8768C10.5969 22.5372 9.59501 21.5381 9.53124 21.4885C9.53056 21.4876 9.52988 21.4869 9.5292 21.4862C9.48222 21.45 9.43116 21.4183 9.3733 21.3956C9.03949 21.2645 8.66074 21.428 8.52912 21.7607C8.45651 21.9439 8.47625 22.1399 8.56294 22.3013L8.57111 22.3331C9.37784 23.4181 10.6584 23.9576 10.6584 23.9576C10.9713 24.0804 11.326 23.927 11.4495 23.6155C11.5554 23.3479 11.4554 23.05 11.2268 22.8934Z" fill="#E82227"/>
  <path fill-rule="evenodd" clip-rule="evenodd" d="M10.3964 8.70612C10.2922 8.70612 10.1032 8.77631 10.1032 8.77631C7.41909 9.57873 5.60729 12.0479 5.63521 15.0424C5.68944 16.9155 6.49549 19.1932 7.02945 20.1458C7.05419 20.1965 7.0973 20.2706 7.12386 20.3156C7.13566 20.3357 7.14451 20.3503 7.14655 20.3536C7.15858 20.3758 7.17196 20.3997 7.18558 20.4238C7.30358 20.5908 7.49829 20.701 7.71863 20.701C7.83233 20.701 7.93785 20.6693 8.03111 20.6181C8.23308 20.5076 8.37151 20.2963 8.37151 20.0508C8.37151 19.9486 8.34632 19.8534 8.30366 19.7675C8.29049 19.745 8.27824 19.7223 8.26508 19.6999C7.35805 18.1557 6.89784 16.4515 6.95638 14.5635C7.02446 12.3659 8.5585 10.5873 10.521 9.98944C10.56 9.98203 10.5974 9.97021 10.6338 9.95585C10.6918 9.93964 10.8639 9.82914 10.8804 9.78281C10.983 9.66838 11.047 9.5192 11.047 9.35403C11.047 8.99683 10.7552 8.70612 10.3964 8.70612Z" fill="#00AC75"/>
</svg>