<svg xmlns="http://www.w3.org/2000/svg" viewBox="0 0 32 32" fill="none">
  <path opacity="0.3" d="M27.6534 13.5867H26.3867C26.1239 12.4448 25.6733 11.3544 25.0534 10.3601L25.9467 9.46675C26.261 9.15179 26.4375 8.72502 26.4375 8.28008C26.4375 7.83514 26.261 7.40837 25.9467 7.09341L24.9067 6.05341C24.5917 5.73913 24.165 5.56263 23.72 5.56263C23.2751 5.56263 22.8483 5.73913 22.5334 6.05341L21.64 6.94675C20.6457 6.32679 19.5553 5.87622 18.4134 5.61341V4.28008C18.3929 3.84729 18.2073 3.4388 17.8948 3.13869C17.5823 2.83858 17.1666 2.66968 16.7334 2.66675H15.2667C14.8222 2.67023 14.3969 2.84835 14.0826 3.16266C13.7683 3.47697 13.5902 3.90226 13.5867 4.34675V5.68008C12.4448 5.94289 11.3544 6.39346 10.36 7.01341L9.46669 6.05341C9.15173 5.73913 8.72496 5.56263 8.28002 5.56263C7.83508 5.56263 7.40831 5.73913 7.09335 6.05341L6.05335 7.09341C5.73907 7.40837 5.56256 7.83514 5.56256 8.28008C5.56256 8.72502 5.73907 9.15179 6.05335 9.46675L6.94669 10.3601C6.32673 11.3544 5.87616 12.4448 5.61335 13.5867H4.28002C3.84722 13.6072 3.43874 13.7928 3.13863 14.1053C2.83852 14.4178 2.66962 14.8335 2.66669 15.2667V16.7334C2.67017 17.1779 2.84829 17.6032 3.1626 17.9175C3.47691 18.2318 3.9022 18.4099 4.34669 18.4134H5.68002C5.94283 19.5553 6.3934 20.6457 7.01335 21.6401L6.12002 22.5334C5.80574 22.8484 5.62923 23.2751 5.62923 23.7201C5.62923 24.165 5.80574 24.5918 6.12002 24.9067L7.16002 25.9467C7.47498 26.261 7.90175 26.4375 8.34669 26.4375C8.79163 26.4375 9.2184 26.261 9.53335 25.9467L10.4267 25.0534C11.421 25.6734 12.5114 26.1239 13.6534 26.3867V27.6534C13.6563 28.0867 13.8252 28.5023 14.1253 28.8149C14.4254 29.1274 14.8339 29.313 15.2667 29.3334H16.7334C17.1778 29.3299 17.6031 29.1518 17.9174 28.8375C18.2317 28.5232 18.4099 28.0979 18.4134 27.6534V26.3867C19.5553 26.1239 20.6457 25.6734 21.64 25.0534L22.5334 25.9467C22.8483 26.261 23.2751 26.4375 23.72 26.4375C24.165 26.4375 24.5917 26.261 24.9067 25.9467L25.9467 24.9067C26.261 24.5918 26.4375 24.165 26.4375 23.7201C26.4375 23.2751 26.261 22.8484 25.9467 22.5334L25.0534 21.6401C25.6733 20.6457 26.1239 19.5553 26.3867 18.4134H27.6534C28.0978 18.4099 28.5231 18.2318 28.8374 17.9175C29.1517 17.6032 29.3299 17.1779 29.3334 16.7334V15.2667C29.3299 14.8223 29.1517 14.397 28.8374 14.0827C28.5231 13.7684 28.0978 13.5902 27.6534 13.5867ZM16 20.9467C15.0217 20.9467 14.0653 20.6566 13.2518 20.1131C12.4383 19.5695 11.8043 18.797 11.4299 17.8931C11.0555 16.9892 10.9575 15.9946 11.1484 15.035C11.3393 14.0755 11.8104 13.1941 12.5022 12.5023C13.194 11.8105 14.0754 11.3393 15.035 11.1485C15.9945 10.9576 16.9891 11.0556 17.893 11.43C18.7969 11.8044 19.5695 12.4384 20.113 13.2519C20.6566 14.0653 20.9467 15.0217 20.9467 16.0001C20.9467 17.312 20.4255 18.5702 19.4978 19.4979C18.5702 20.4256 17.312 20.9467 16 20.9467Z" fill="#1A2550"/>
  <path d="M16 20.9467C14.6881 20.9467 13.4299 20.4256 12.5022 19.4979C11.5745 18.5702 11.0534 17.312 11.0534 16.0001C11.0534 14.6881 11.5745 13.4299 12.5022 12.5023C13.4299 11.5746 14.6881 11.0534 16 11.0534V2.66675H15.2667C14.8222 2.67023 14.3969 2.84835 14.0826 3.16266C13.7683 3.47697 13.5902 3.90226 13.5867 4.34675V5.68008C12.4448 5.94289 11.3544 6.39346 10.36 7.01341L9.46669 6.05341C9.15173 5.73913 8.72496 5.56263 8.28002 5.56263C7.83508 5.56263 7.40831 5.73913 7.09335 6.05341L6.05335 7.09341C5.73907 7.40837 5.56256 7.83514 5.56256 8.28008C5.56256 8.72502 5.73907 9.15179 6.05335 9.46675L6.94669 10.3601C6.32673 11.3544 5.87616 12.4448 5.61335 13.5867H4.28002C3.84722 13.6072 3.43874 13.7928 3.13863 14.1053C2.83852 14.4178 2.66962 14.8335 2.66669 15.2667V16.7334C2.67017 17.1779 2.84829 17.6032 3.1626 17.9175C3.47691 18.2318 3.9022 18.4099 4.34669 18.4134H5.68002C5.94283 19.5553 6.3934 20.6457 7.01335 21.6401L6.12002 22.5334C5.80574 22.8484 5.62923 23.2751 5.62923 23.7201C5.62923 24.165 5.80574 24.5918 6.12002 24.9067L7.16002 25.9467C7.47498 26.261 7.90175 26.4375 8.34669 26.4375C8.79163 26.4375 9.2184 26.261 9.53335 25.9467L10.4267 25.0534C11.421 25.6734 12.5114 26.1239 13.6534 26.3867V27.6534C13.6563 28.0867 13.8252 28.5023 14.1253 28.8149C14.4254 29.1274 14.8339 29.313 15.2667 29.3334H16V20.9467Z" fill="#1A2550"/>
</svg>