<svg  viewBox="0 0 50 50" fill="none" xmlns="http://www.w3.org/2000/svg">
<path d="M30 2.99928L34.6 11.0743C34.7698 11.3884 35.0049 11.6625 35.2895 11.8781C35.5741 12.0937 35.9016 12.2458 36.25 12.3243L45.1 14.3493C46.1183 14.6077 47.0534 15.1227 47.8161 15.8451C48.5789 16.5674 49.1439 17.4732 49.4572 18.4759C49.7706 19.4787 49.8218 20.5449 49.6061 21.5731C49.3904 22.6013 48.9149 23.557 48.225 24.3493L42.225 31.3493C41.9896 31.6272 41.8129 31.9499 41.7055 32.2979C41.5981 32.6459 41.5622 33.012 41.6 33.3743L42.5 42.6993C42.6293 43.7351 42.4827 44.7868 42.0749 45.7477C41.6672 46.7087 41.0128 47.5449 40.1779 48.1716C39.3431 48.7984 38.3575 49.1934 37.321 49.3168C36.2844 49.4402 35.2336 49.2876 34.275 48.8743L25.975 45.1243C25.6527 44.9794 25.3033 44.9045 24.95 44.9045C24.5966 44.9045 24.2473 44.9794 23.925 45.1243L15.625 48.8743C14.671 49.2639 13.632 49.398 12.6104 49.2633C11.5888 49.1287 10.62 48.7299 9.79957 48.1064C8.97917 47.4829 8.33557 46.6562 7.93229 45.708C7.52901 44.7597 7.38001 43.7227 7.49999 42.6993L8.37499 33.3743C8.41277 33.012 8.37688 32.6459 8.26947 32.2979C8.16206 31.9499 7.98536 31.6272 7.74999 31.3493L1.74999 24.3493C1.06004 23.557 0.584548 22.6013 0.368835 21.5731C0.153123 20.5449 0.204388 19.4787 0.517742 18.4759C0.831095 17.4732 1.39609 16.5674 2.15885 15.8451C2.92161 15.1227 3.85671 14.6077 4.87499 14.3493L13.725 12.3243C14.0733 12.2458 14.4008 12.0937 14.6854 11.8781C14.9701 11.6625 15.2052 11.3884 15.375 11.0743L20 2.99928C20.512 2.12826 21.2428 1.40612 22.1197 0.904367C22.9967 0.402617 23.9896 0.138672 25 0.138672C26.0104 0.138672 27.0032 0.402617 27.8802 0.904367C28.7572 1.40612 29.4879 2.12826 30 2.99928Z" fill="white"/>
</svg>
