<svg viewBox="0 0 65 65" fill="none" xmlns="http://www.w3.org/2000/svg">
    <path d="M49.6942 16.0509L34.3608 2.71754C32.3199 0.964109 29.7182 0 27.0275 0C24.3368 0 21.7351 0.964109 19.6942 2.71754L4.33418 16.0509C3.06913 17.1572 2.0571 18.5229 1.36689 20.0552C0.676677 21.5874 0.324459 23.2504 0.33418 24.9309V47.2509C0.334043 48.8638 0.969239 50.4118 2.10222 51.5598C3.23519 52.7077 4.77476 53.3632 6.38751 53.3842H15.4542C16.2673 53.3984 17.0751 53.2501 17.8301 52.9479C18.5851 52.6457 19.2721 52.1957 19.8509 51.6244C20.4297 51.0531 20.8885 50.372 21.2004 49.6209C21.5124 48.8699 21.6712 48.0641 21.6675 47.2509V35.7309C21.6465 34.4081 22.0879 33.1195 22.9155 32.0874C23.7432 31.0553 24.9051 30.3445 26.2008 30.0775C26.9809 29.9264 27.7849 29.9515 28.554 30.151C29.3231 30.3505 30.0379 30.7193 30.6462 31.2305C31.2545 31.7416 31.7409 32.3823 32.0699 33.1055C32.3988 33.8288 32.562 34.6164 32.5475 35.4109V47.2509C32.5403 48.8568 33.1659 50.4009 34.2889 51.5488C35.4119 52.6968 36.9419 53.3562 38.5475 53.3842H47.6142C49.2269 53.3632 50.7665 52.7077 51.8995 51.5598C53.0325 50.4118 53.6677 48.8638 53.6675 47.2509V24.9042C53.6733 23.2308 53.3218 21.5754 52.6366 20.0486C51.9514 18.5218 50.9483 17.1589 49.6942 16.0509Z"
          fill="white"/>
</svg>
