<svg viewBox="0 0 24 24" fill="none" xmlns="http://www.w3.org/2000/svg">
<path opacity="0.3" d="M10.9998 2.05982C9.44572 2.24146 7.97144 2.84654 6.73785 3.80901C5.50427 4.77148 4.55881 6.05436 4.00469 7.51758C3.45056 8.9808 3.30907 10.5681 3.59565 12.1063C3.88223 13.6445 4.58588 15.0743 5.62978 16.2398L9.99978 21.0898C10.2529 21.3689 10.5616 21.5919 10.906 21.7445C11.2505 21.8971 11.623 21.976 11.9998 21.976C12.3765 21.976 12.7491 21.8971 13.0935 21.7445C13.438 21.5919 13.7467 21.3689 13.9998 21.0898L18.3498 16.2398C19.5006 14.9468 20.2319 13.335 20.4469 11.6174C20.6619 9.8999 20.3505 8.15754 19.554 6.62076C18.7574 5.08398 17.5132 3.82517 15.9857 3.01079C14.4583 2.1964 12.7197 1.86479 10.9998 2.05982ZM11.9998 13.7498C11.3645 13.7518 10.7429 13.5652 10.2137 13.2137C9.68449 12.8622 9.2715 12.3616 9.027 11.7752C8.78251 11.1888 8.71752 10.5431 8.84024 9.91973C8.96297 9.2964 9.2679 8.72349 9.71643 8.27357C10.165 7.82364 10.7369 7.51692 11.3599 7.39225C11.9828 7.26758 12.6287 7.33056 13.2159 7.57322C13.803 7.81588 14.3049 8.22731 14.6581 8.7554C15.0113 9.2835 15.1998 9.90452 15.1998 10.5398C15.1998 11.3894 14.863 12.2044 14.2631 12.8061C13.6633 13.4078 12.8494 13.7472 11.9998 13.7498Z" fill="#C29B40"/>
<path d="M11.9996 13.8396C13.8664 13.8396 15.3796 12.3263 15.3796 10.4596C15.3796 8.59287 13.8664 7.07959 11.9996 7.07959C10.1329 7.07959 8.61963 8.59287 8.61963 10.4596C8.61963 12.3263 10.1329 13.8396 11.9996 13.8396Z" fill="#C29B40"/>
</svg>
