<svg xmlns="http://www.w3.org/2000/svg" viewBox="0 0 32 32" fill="none">
    <path d="M11.6267 2.66675H5.02669C3.72329 2.66675 2.66669 3.72336 2.66669 5.02675V11.6267C2.66669 12.9301 3.72329 13.9867 5.02669 13.9867H11.6267C12.9301 13.9867 13.9867 12.9301 13.9867 11.6267V5.02675C13.9867 3.72336 12.9301 2.66675 11.6267 2.66675Z" fill="#171D38"/>
    <g opacity="0.3">
    <path d="M26.9734 2.66675H20.3734C19.07 2.66675 18.0134 3.72336 18.0134 5.02675V11.6267C18.0134 12.9301 19.07 13.9867 20.3734 13.9867H26.9734C28.2768 13.9867 29.3334 12.9301 29.3334 11.6267V5.02675C29.3334 3.72336 28.2768 2.66675 26.9734 2.66675Z" fill="#171D38"/>
    </g>
    <path d="M26.96 18H20.36C19.0566 18 18 19.0566 18 20.36V26.96C18 28.2634 19.0566 29.32 20.36 29.32H26.96C28.2634 29.32 29.32 28.2634 29.32 26.96V20.36C29.32 19.0566 28.2634 18 26.96 18Z" fill="#171D38"/>
    <g opacity="0.3">
    <path d="M11.6267 18H5.02669C3.72329 18 2.66669 19.0566 2.66669 20.36V26.96C2.66669 28.2634 3.72329 29.32 5.02669 29.32H11.6267C12.9301 29.32 13.9867 28.2634 13.9867 26.96V20.36C13.9867 19.0566 12.9301 18 11.6267 18Z" fill="#171D38"/>
    </g>
    </svg>