<svg width="24" height="24" viewBox="0 0 24 24" fill="none" xmlns="http://www.w3.org/2000/svg">
    <path d="M24 12V24H21.2308V20.4H2.76923V24H1.23417e-06V1.80003C-0.000241784 1.56356 0.0354066 1.32936 0.104904 1.11083C0.174401 0.892298 0.276382 0.693743 0.405004 0.526535C0.533625 0.359327 0.686361 0.226752 0.85446 0.136406C1.02256 0.0460591 1.20272 -0.000283718 1.38462 3.22047e-05C1.54227 -0.00124316 1.69874 0.035372 1.84616 0.108032C2.11583 0.231123 2.34946 0.460001 2.51481 0.763075C2.68015 1.06615 2.76905 1.42847 2.76923 1.80003V12H24Z"
          fill="black"/>
    <path d="M21.2308 20.4H24V24H21.2308V20.4Z" fill="black"/>
    <path d="M2.76923 12H24V16.8H2.76923V12Z" fill="#B2B2B2"/>
    <path d="M2.76923 16.8H24V20.4H2.76923V16.8Z" fill="black"/>
    <path d="M7.84614 8.40002H6.92307C6.15837 8.40002 5.53845 9.20591 5.53845 10.2C5.53845 11.1941 6.15837 12 6.92307 12H7.84614C8.61085 12 9.23076 11.1941 9.23076 10.2C9.23076 9.20591 8.61085 8.40002 7.84614 8.40002Z"
          fill="#7D7D7D"/>
    <path d="M5.53845 10.2C5.53845 10.6774 5.68433 11.1352 5.944 11.4728C6.20366 11.8104 6.55584 12 6.92307 12H7.84614C8.21337 12 8.56555 11.8104 8.82522 11.4728C9.08488 11.1352 9.23076 10.6774 9.23076 10.2H5.53845Z"
          fill="black"/>
    <path d="M2.76921 1.80003V24H1.84613V0.108032C2.11581 0.231123 2.34944 0.460001 2.51478 0.763075C2.68013 1.06615 2.76902 1.42847 2.76921 1.80003Z"
          fill="#7D7D7D"/>
</svg>
