<svg width="24" height="24" viewBox="0 0 24 24" fill="none" xmlns="http://www.w3.org/2000/svg">
    <g clip-path="url(#clip0_7077_71)">
        <path d="M23.3824 0.618045C22.5587 -0.205689 21.2231 -0.205689 20.3993 0.618045L0.618045 20.3993C-0.205689 21.2231 -0.205689 22.5587 0.618045 23.3824L12.469 12.469L23.3824 0.618045Z"
              fill="#B2B2B2"/>
        <path d="M0.61792 23.3823C1.44165 24.206 2.77726 24.206 3.601 23.3823L23.3823 3.601C24.206 2.77726 24.206 1.44165 23.3823 0.61792L0.61792 23.3823Z"
              fill="#B2B2B2"/>
        <path d="M3.40086 15.4614C2.62288 14.6834 1.36147 14.6834 0.583488 15.4614C-0.194496 16.2394 -0.194496 17.5008 0.583488 18.2788L3.15229 20.8476L5.15624 20.2968L5.96966 18.0302L5.73528 15.7664L3.56249 15.623L3.40086 15.4614Z"
              fill="black"/>
        <path d="M5.5554 11.9812C4.77742 11.2032 3.51601 11.2032 2.73803 11.9812C1.96004 12.7592 1.96004 14.0206 2.73803 14.7986L5.96973 18.0303L7.82819 17.1562L8.78711 15.2129L5.5554 11.9812Z"
              fill="black"/>
        <path d="M14.7986 2.73803C14.0206 1.96004 12.7592 1.96004 11.9812 2.73803C11.2032 3.51601 11.2032 4.77742 11.9812 5.5554L15.2129 8.78711L17.2968 7.68756L18.0303 5.96973L17.7656 4.03131L15.4687 3.40815L14.7986 2.73803Z"
              fill="black"/>
        <path d="M18.279 0.583488C17.5011 -0.194496 16.2396 -0.194496 15.4617 0.583488C14.6837 1.36147 14.6837 2.62288 15.4617 3.40086L18.0305 5.96966L20.3438 5.10936L20.8478 3.15229L18.279 0.583488Z"
              fill="black"/>
        <path d="M20.5991 8.53852C21.3771 9.3165 22.6385 9.3165 23.4164 8.53852C24.1944 7.76053 24.1944 6.49913 23.4164 5.72114L20.8476 3.15234L18.0303 5.96972L18.6162 8.35069L20.5991 8.53852Z"
              fill="black"/>
        <path d="M18.4446 12.0188C19.2226 12.7968 20.484 12.7968 21.262 12.0188C22.04 11.2408 22.04 9.97941 21.262 9.20143L18.0303 5.96973L15.2129 8.7871L18.4446 12.0188Z"
              fill="black"/>
        <path d="M9.20143 21.262C9.97941 22.04 11.2408 22.04 12.0188 21.262C12.7968 20.484 12.7968 19.2226 12.0188 18.4446L8.7871 15.2129L5.96973 18.0303L6.2648 20.7959L8.61123 20.6718L9.20143 21.262Z"
              fill="black"/>
        <path d="M5.72114 23.4164C6.49913 24.1944 7.76053 24.1944 8.53852 23.4164C9.3165 22.6385 9.3165 21.3771 8.53852 20.5991L5.96972 18.0303L3.15234 20.8476L5.72114 23.4164Z"
              fill="black"/>
    </g>
    <defs>
        <clipPath id="clip0_7077_71">
            <rect width="24" height="24" fill="white"/>
        </clipPath>
    </defs>
</svg>
