<svg  viewBox="0 0 52 46" fill="none" xmlns="http://www.w3.org/2000/svg">
<path opacity="0.3" d="M41.0752 1.3003C38.735 0.483714 36.2393 0.212378 33.7784 0.506996C31.3175 0.801613 28.9564 1.6544 26.8752 3.0003C26.5371 3.22185 26.1418 3.33987 25.7377 3.33987C25.3335 3.33987 24.9382 3.22185 24.6002 3.0003C22.6885 1.76667 20.5387 0.948868 18.2905 0.600002C16.0423 0.251136 13.7458 0.379005 11.5502 0.975305C8.30469 1.83686 5.43585 3.74884 3.39158 6.41272C1.34731 9.07661 0.242676 12.3424 0.250151 15.7003C0.000151157 33.0003 17.9002 42.4503 23.8252 45.1503C24.4267 45.4247 25.0768 45.577 25.7376 45.5984C26.3985 45.6199 27.057 45.5101 27.6752 45.2753C33.5751 43.0003 50.8751 34.8003 51.2001 15.5003C51.1562 12.3847 50.1635 9.35659 48.3546 6.81959C46.5456 4.28258 44.0063 2.35726 41.0752 1.3003Z" fill="white"/>
<path d="M41.0753 1.3003C38.7352 0.483714 36.2395 0.212378 33.7785 0.506996C31.3176 0.801613 28.9565 1.6544 26.8753 3.0003C26.5373 3.22185 26.1419 3.33987 25.7378 3.33987C25.3336 3.33987 24.9383 3.22185 24.6003 3.0003C22.6886 1.76667 20.5389 0.948868 18.2906 0.600002C16.0424 0.251136 13.7459 0.379005 11.5503 0.975305C8.3048 1.83686 5.43597 3.74884 3.3917 6.41272C1.34743 9.07661 0.242794 12.3424 0.250269 15.7003C0.237076 17.3788 0.396244 19.0543 0.725269 20.7003H50.7253C51.0437 18.9853 51.2027 17.2446 51.2003 15.5003C51.1563 12.3847 50.1636 9.35659 48.3547 6.81959C46.5457 4.28258 44.0064 2.35726 41.0753 1.3003Z" fill="white"/>
</svg>
