<svg
    viewBox="0 0 32 32"
    fill="none"
    xmlns="http://www.w3.org/2000/svg"
    width="30"
    height="30"
  >
    <path
      d="M13.3333 5V17C13.3333 17.55 12.9333 18 12.4444 18C11.9556 18 11.5556 17.55 11.5556 17V5C11.5556 3.34375 12.75 2 14.2222 2H17.7778C19.25 2 20.4444 3.34375 20.4444 5V17C20.4444 17.55 20.0444 18 19.5556 18C19.0667 18 18.6667 17.55 18.6667 17V5C18.6667 4.45 18.2667 4 17.7778 4H14.2222C13.7333 4 13.3333 4.45 13.3333 5ZM9.77778 4.91875V7.0875C6.10556 8.98125 3.55556 13.1562 3.55556 18V20H1.77778V18C1.77778 12.0312 5.1 6.93125 9.77778 4.91875ZM22.2222 7.0875V4.91875C26.8611 6.9125 30.1667 11.9438 30.2222 17.85V18V20H28.4444V17.8563C28.3944 13.075 25.8611 8.9625 22.2222 7.0875ZM29.85 24H2.15C1.94444 24 1.77778 24.1875 1.77778 24.4188C1.77778 24.4438 1.77778 24.4625 1.78333 24.4813C3.25 25.5312 7.58889 28 16 28C24.4111 28 28.75 25.5312 30.2167 24.4813C30.2167 24.4688 30.2222 24.4438 30.2222 24.4188C30.2222 24.1875 30.0556 24 29.85 24ZM2.15 22H29.85C31.0389 22 32 23.0813 32 24.4188C32 25.1063 31.7389 25.7563 31.2278 26.125C29.5167 27.3687 24.8389 30 16 30C7.16111 30 2.48333 27.3687 0.772222 26.1313C0.261111 25.7563 0 25.1063 0 24.4188C0 23.0813 0.961111 22 2.15 22Z"
      fill="black"
    />
  </svg>