<svg viewBox="0 0 48 48" fill="none" color="black" xmlns="http://www.w3.org/2000/svg">
  <path
    d="M41.02 16.0001L29.52 6.00007C27.9893 4.685 26.0381 3.96191 24.02 3.96191C22.002 3.96191 20.0507 4.685 18.52 6.00007L7.00002 16.0001C6.05124 16.8298 5.29222 17.8541 4.77456 19.0033C4.2569 20.1525 3.99273 21.3997 4.00002 22.6601V39.4001C3.99992 40.6097 4.47632 41.7708 5.32605 42.6317C6.17578 43.4927 7.33046 43.9843 8.54002 44.0001H15.34C15.9499 44.0107 16.5557 43.8995 17.122 43.6728C17.6882 43.4462 18.2035 43.1087 18.6376 42.6802C19.0716 42.2518 19.4158 41.7409 19.6497 41.1776C19.8837 40.6143 20.0028 40.01 20 39.4001V30.7601C19.9843 29.768 20.3153 28.8015 20.936 28.0274C21.5568 27.2534 22.4282 26.7203 23.4 26.5201C23.9851 26.4067 24.588 26.4256 25.1649 26.5752C25.7417 26.7248 26.2778 27.0014 26.7341 27.3848C27.1903 27.7681 27.5551 28.2486 27.8018 28.7911C28.0485 29.3335 28.1709 29.9242 28.16 30.5201V39.4001C28.1546 40.6045 28.6238 41.7626 29.466 42.6235C30.3083 43.4845 31.4558 43.979 32.66 44.0001H39.46C40.6696 43.9843 41.8243 43.4927 42.674 42.6317C43.5237 41.7708 44.0001 40.6097 44 39.4001V22.6401C44.0043 21.385 43.7408 20.1434 43.2269 18.9984C42.713 17.8533 41.9606 16.8311 41.02 16.0001Z"
    fill="currentColor" />
</svg>