<svg viewBox="0 0 60 60" fill="none" xmlns="http://www.w3.org/2000/svg">
<path d="M5.85374 24.2531C5.3112 24.7278 5 25.4136 5 26.1345V47.5001C5 48.8808 6.11929 50.0001 7.5 50.0001H17.5C18.8807 50.0001 20 48.8808 20 47.5001V37.5001C20 36.1194 21.1193 35.0001 22.5 35.0001H27.5C28.8807 35.0001 30 36.1194 30 37.5001V47.5001C30 48.8808 31.1193 50.0001 32.5 50.0001H42.5C43.8807 50.0001 45 48.8808 45 47.5001V26.1345C45 25.4136 44.6888 24.7278 44.1463 24.2531L26.6463 8.94055C25.7037 8.11581 24.2963 8.1158 23.3537 8.94055M3.75 5L20 21.25M3.75 5V12.5M3.75 5H11.25M20 21.25V15M20 21.25H12.5" stroke="white" stroke-width="4" stroke-linecap="round" stroke-linejoin="round"/>
</svg>
