<svg xmlns="http://www.w3.org/2000/svg" width="20" height="20" viewBox="0 0 20 20" fill="none">
    <path opacity="0.3" d="M9.99935 18.3333C14.6017 18.3333 18.3327 14.6024 18.3327 10C18.3327 5.39763 14.6017 1.66667 9.99935 1.66667C5.39698 1.66667 1.66602 5.39763 1.66602 10C1.66602 14.6024 5.39698 18.3333 9.99935 18.3333Z" fill="#C29B40"/>
    <path d="M9.99935 8.83334C10.2204 8.83334 10.4323 8.92114 10.5886 9.07742C10.7449 9.2337 10.8327 9.44566 10.8327 9.66668V13.55C10.8327 13.771 10.7449 13.983 10.5886 14.1393C10.4323 14.2955 10.2204 14.3833 9.99935 14.3833C9.77834 14.3833 9.56637 14.2955 9.41009 14.1393C9.25381 13.983 9.16602 13.771 9.16602 13.55V9.66668C9.16602 9.44566 9.25381 9.2337 9.41009 9.07742C9.56637 8.92114 9.77834 8.83334 9.99935 8.83334Z" fill="#C29B40"/>
    <path d="M9.9987 7.7C10.574 7.7 11.0404 7.23363 11.0404 6.65834C11.0404 6.08304 10.574 5.61667 9.9987 5.61667C9.4234 5.61667 8.95703 6.08304 8.95703 6.65834C8.95703 7.23363 9.4234 7.7 9.9987 7.7Z" fill="#C29B40"/>
</svg>
