<svg xmlns="http://www.w3.org/2000/svg" color="white" viewBox="0 0 20 21" fill="none">
    <g clip-path="url(#clip0_9303_1754)">
        <path
            d="M14.0911 2.31818H5.90927C3.64992 2.31818 1.81836 4.14974 1.81836 6.40909V14.5909C1.81836 16.8503 3.64992 18.6818 5.90927 18.6818H14.0911C16.3504 18.6818 18.182 16.8503 18.182 14.5909V6.40909C18.182 4.14974 16.3504 2.31818 14.0911 2.31818Z"
            stroke="currentColor" stroke-width="2" stroke-linecap="round" stroke-linejoin="round" />
        <path
            d="M13.2728 9.98457C13.3737 10.6655 13.2574 11.3609 12.9404 11.9719C12.6233 12.583 12.1217 13.0785 11.5068 13.3879C10.8919 13.6974 10.1951 13.8051 9.51549 13.6958C8.83586 13.5864 8.20801 13.2655 7.72126 12.7788C7.2345 12.292 6.91363 11.6642 6.80426 10.9846C6.6949 10.3049 6.80263 9.60812 7.11211 8.99324C7.4216 8.37836 7.91709 7.87672 8.52811 7.55968C9.13912 7.24263 9.83455 7.12632 10.5155 7.2273C11.2101 7.33029 11.8531 7.65395 12.3496 8.15046C12.8461 8.64697 13.1698 9.29 13.2728 9.98457Z"
            stroke="currentColor" stroke-width="2" stroke-linecap="round" stroke-linejoin="round" />
        <path
            d="M14.9048 5.94003C14.9174 6.02514 14.9029 6.11207 14.8633 6.18845C14.8236 6.26483 14.7609 6.32676 14.6841 6.36545C14.6072 6.40413 14.5201 6.4176 14.4352 6.40393C14.3502 6.39026 14.2717 6.35015 14.2109 6.2893C14.15 6.22846 14.1099 6.14998 14.0963 6.06503C14.0826 5.98007 14.0961 5.89297 14.1347 5.81611C14.1734 5.73925 14.2354 5.67655 14.3117 5.63692C14.3881 5.59728 14.475 5.58275 14.5602 5.59537C14.647 5.60824 14.7274 5.6487 14.7894 5.71076C14.8515 5.77283 14.8919 5.8532 14.9048 5.94003Z"
            stroke="currentColor" stroke-width="2" stroke-linecap="round" stroke-linejoin="round" />
    </g>
    <defs>
        <clipPath id="clip0_9303_1754">
            <rect width="19.6364" height="19.6364" fill="currentColor"
                transform="translate(0.181885 0.681824)" />
        </clipPath>
    </defs>
</svg>