<svg viewBox="0 0 25 25" fill="none" xmlns="http://www.w3.org/2000/svg">
<g clip-path="url(#clip0_4305_9993)">
<path d="M12.4998 0.5C19.117 0.5 24.5 5.88346 24.5 12.5002C24.5 19.117 19.117 24.5 12.4998 24.5C5.88302 24.5 0.5 19.117 0.5 12.5002C0.5 5.88346 5.88302 0.5 12.4998 0.5ZM15.5 5.5H9.5C7.29086 5.5 5.5 7.29086 5.5 9.5V15.5C5.5 17.7091 7.29086 19.5 9.5 19.5H15.5C17.7091 19.5 19.5 17.7091 19.5 15.5V9.5C19.5 7.29086 17.7091 5.5 15.5 5.5ZM15.2647 6.73529C16.9216 6.73529 18.2647 8.07844 18.2647 9.73529V15.2647L18.2596 15.441C18.1684 17.0158 16.8624 18.2647 15.2647 18.2647H9.73529L9.55902 18.2596C7.98421 18.1684 6.73529 16.8624 6.73529 15.2647V9.73529L6.74039 9.55902C6.83163 7.98421 8.13761 6.73529 9.73529 6.73529H15.2647ZM12.2941 9.20588C10.3611 9.20588 8.79412 10.7729 8.79412 12.7059C8.79412 14.6389 10.3611 16.2059 12.2941 16.2059C14.2271 16.2059 15.7941 14.6389 15.7941 12.7059C15.7941 10.7729 14.2271 9.20588 12.2941 9.20588ZM12.2941 10.4412C13.5449 10.4412 14.5588 11.4551 14.5588 12.7059C14.5588 13.9566 13.5449 14.9706 12.2941 14.9706C11.0434 14.9706 10.0294 13.9566 10.0294 12.7059C10.0294 11.4551 11.0434 10.4412 12.2941 10.4412ZM16.2059 7.97059C15.7511 7.97059 15.3824 8.3393 15.3824 8.79412C15.3824 9.24894 15.7511 9.61765 16.2059 9.61765C16.6607 9.61765 17.0294 9.24894 17.0294 8.79412C17.0294 8.3393 16.6607 7.97059 16.2059 7.97059Z" fill="#001731"/>
</g>
<defs>
<clipPath id="clip0_4305_9993">
<rect width="24" height="24" fill="white" transform="translate(0.5 0.5)"/>
</clipPath>
</defs>
</svg>
