<svg viewBox="0 0 65 65" fill="none" xmlns="http://www.w3.org/2000/svg">
<path opacity="0.3" d="M62.5216 27.7977L58.0751 23.2873C57.7651 22.9835 57.5202 22.6198 57.3552 22.2183C57.1902 21.8169 57.1086 21.386 57.1155 20.9521V14.5543C57.1113 13.6778 56.934 12.8107 56.5937 12.003C56.2535 11.1952 55.757 10.4626 55.1327 9.84734C54.5085 9.23204 53.7689 8.74613 52.9563 8.41753C52.1437 8.08893 51.2742 7.92411 50.3978 7.93255H44C43.566 7.93938 43.1352 7.85782 42.7337 7.69284C42.3322 7.52786 41.9686 7.2829 41.6648 6.97288L37.1863 2.46244C35.9387 1.21616 34.2474 0.516113 32.484 0.516113C30.7205 0.516113 29.0292 1.21616 27.7816 2.46244L23.2711 6.9089C22.9674 7.21892 22.6037 7.46388 22.2022 7.62886C21.8008 7.79384 21.3699 7.8754 20.9359 7.86857H14.5382C13.6617 7.87275 12.7946 8.05005 11.9869 8.39031C11.1791 8.73057 10.4465 9.22707 9.83123 9.85129C9.21592 10.4755 8.73001 11.2152 8.40141 12.0277C8.07281 12.8403 7.908 13.7098 7.91644 14.5863V20.984C7.92327 21.418 7.84171 21.8489 7.67672 22.2503C7.51174 22.6518 7.26679 23.0155 6.95677 23.3192L2.44632 27.7977C1.20004 29.0453 0.5 30.7366 0.5 32.5001C0.5 34.2635 1.20004 35.9548 2.44632 37.2024L6.89279 41.7129C7.20281 42.0167 7.44776 42.3803 7.61275 42.7818C7.77773 43.1833 7.85929 43.6141 7.85246 44.0481V50.4459C7.85663 51.3224 8.03394 52.1894 8.3742 52.9972C8.71445 53.8049 9.21095 54.5375 9.83518 55.1528C10.4594 55.7681 11.199 56.254 12.0116 56.5826C12.8242 56.9112 13.6937 57.076 14.5701 57.0676H20.9679C21.4019 57.0608 21.8328 57.1423 22.2342 57.3073C22.6357 57.4723 22.9994 57.7172 23.3031 58.0273L27.8136 62.5377C29.0612 63.784 30.7525 64.484 32.5159 64.484C34.2794 64.484 35.9707 63.784 37.2183 62.5377L41.6968 58.0912C42.0006 57.7812 42.3642 57.5363 42.7657 57.3713C43.1672 57.2063 43.598 57.1247 44.032 57.1316H50.4298C52.1944 57.1316 53.8868 56.4306 55.1346 55.1827C56.3825 53.9349 57.0835 52.2425 57.0835 50.4779V44.0801C57.0766 43.6461 57.1582 43.2153 57.3232 42.8138C57.4882 42.4123 57.7331 42.0487 58.0431 41.7449L62.5536 37.2344C63.1734 36.614 63.6644 35.8771 63.9985 35.0662C64.3325 34.2553 64.5029 33.3864 64.5 32.5094C64.497 31.6324 64.3207 30.7647 63.9811 29.9561C63.6416 29.1474 63.1456 28.4139 62.5216 27.7977Z" fill="black"/>
<path d="M28.4531 42.7694C28.1359 42.7649 27.8227 42.6976 27.5317 42.5713C27.2407 42.445 26.9776 42.2622 26.7577 42.0336L19.1763 34.3563C18.9431 34.1343 18.757 33.8676 18.6291 33.5722C18.5011 33.2768 18.4339 32.9587 18.4315 32.6368C18.429 32.3149 18.4914 31.9957 18.6149 31.6984C18.7384 31.4011 18.9204 31.1317 19.1502 30.9062C19.38 30.6807 19.6528 30.5038 19.9523 30.386C20.2519 30.2681 20.5722 30.2118 20.894 30.2203C21.2158 30.2288 21.5326 30.302 21.8255 30.4355C22.1185 30.569 22.3816 30.7601 22.5991 30.9974L28.4851 36.9793L42.4962 23.2881C42.9461 22.8388 43.5559 22.5864 44.1917 22.5864C44.8274 22.5864 45.4372 22.8388 45.8871 23.2881C46.3364 23.7379 46.5887 24.3477 46.5887 24.9835C46.5887 25.6193 46.3364 26.2291 45.8871 26.6789L30.1485 42.0976C29.9244 42.3161 29.6591 42.488 29.3681 42.6033C29.0771 42.7186 28.7661 42.775 28.4531 42.7694Z" fill="black"/>
</svg>
