<svg
  viewBox="0 0 32 32"
  fill="none"
  xmlns="http://www.w3.org/2000/svg"
  width="30"
  height="30"
>
  <g clipPath="url(#clip0_1047_282)">
    <path
      d="M12 11C12 6.03125 16.0312 2 21 2C25.9688 2 30 6.03125 30 11C30 15.9688 25.9688 20 21 20C20.3062 20 19.625 19.9187 18.975 19.775C18.6375 19.7 18.2875 19.8 18.0438 20.0438L16.0875 22H13C12.45 22 12 22.45 12 23V26H9C8.45 26 8 26.45 8 27V30H2V24.9125L12.175 14.7375C12.4375 14.475 12.5312 14.0813 12.4187 13.725C12.1438 12.8625 12 11.95 12 10.9937V11ZM21 0C14.925 0 10 4.925 10 11C10 11.9438 10.1187 12.8625 10.3438 13.7437L0.29375 23.7938C0.10625 23.9813 0 24.2375 0 24.5V31C0 31.55 0.45 32 1 32H9C9.55 32 10 31.55 10 31V28H13C13.55 28 14 27.55 14 27V24H16.5C16.7625 24 17.0187 23.8937 17.2062 23.7062L19.0812 21.8312C19.7062 21.9437 20.3438 22 21 22C27.075 22 32 17.075 32 11C32 4.925 27.075 0 21 0ZM23 10.5C23.3978 10.5 23.7794 10.342 24.0607 10.0607C24.342 9.77936 24.5 9.39782 24.5 9C24.5 8.60218 24.342 8.22064 24.0607 7.93934C23.7794 7.65804 23.3978 7.5 23 7.5C22.6022 7.5 22.2206 7.65804 21.9393 7.93934C21.658 8.22064 21.5 8.60218 21.5 9C21.5 9.39782 21.658 9.77936 21.9393 10.0607C22.2206 10.342 22.6022 10.5 23 10.5Z"
      fill="black"
    />
  </g>
  <defs>
    <clipPath id="clip0_1047_282">
      <rect width="32" height="32" fill="white" />
    </clipPath>
  </defs>
</svg>