<svg width="24" height="24" viewBox="0 0 24 24" fill="none" xmlns="http://www.w3.org/2000/svg">
    <g clip-path="url(#clip0_7217_21665)">
        <path d="M0.00561523 24H9.8916V18.3308H0.00561523V24ZM2.16777 19.7989H7.77627V21.2045H2.16777V19.7989Z"
              fill="#7D7D7D"/>
        <path d="M0.00561523 16.9252H9.8916V11.3497H0.00561523V16.9252ZM2.16777 12.8453H7.77627V14.2509H2.16777V12.8453Z"
              fill="#7D7D7D"/>
        <path d="M11.2972 24H23.9944V11.3497H11.2972V24ZM19.7307 12.8453H21.1363V14.2856H19.7307V12.8453ZM16.9196 12.8453H18.3251V14.2856H16.9196V12.8453ZM14.1084 12.8453H15.514V14.2856H14.1084V12.8453ZM14.1084 15.543H21.1363V21.1889H14.1084V15.543Z"
              fill="black"/>
        <path d="M19.7307 3.24052V0H15.514V3.24286L11.2972 6.054V8.53852H23.9944V6.05166L19.7307 3.24052Z"
              fill="#B2B2B2"/>
    </g>
    <defs>
        <clipPath id="clip0_7217_21665">
            <rect width="24" height="24" fill="white"/>
        </clipPath>
    </defs>
</svg>
