<svg viewBox="0 0 50 50" fill="none" xmlns="http://www.w3.org/2000/svg">
<path d="M9.5 11.1992H4.225C2.02967 11.1992 0.25 12.9789 0.25 15.1742V42.0742C0.25 44.2696 2.02967 46.0492 4.225 46.0492H9.5C11.6953 46.0492 13.475 44.2696 13.475 42.0742V15.1742C13.475 12.9789 11.6953 11.1992 9.5 11.1992Z" fill="white"/>
<path opacity="0.3" d="M13.325 18.4495L23.325 3.22454C24.0313 2.13894 25.0922 1.33175 26.3268 0.940425C27.5615 0.549105 28.8936 0.597851 30.0964 1.07836C31.2991 1.55888 32.2981 2.44144 32.9233 3.57577C33.5484 4.7101 33.7611 6.02605 33.525 7.29954L32.225 14.7995C32.1486 15.2288 32.1668 15.6696 32.2782 16.0911C32.3896 16.5127 32.5915 16.9049 32.8699 17.2404C33.1484 17.5759 33.4966 17.8468 33.8904 18.034C34.2841 18.2212 34.714 18.3204 35.15 18.3245H45.3249C46.0176 18.328 46.6999 18.494 47.3167 18.8092C47.9335 19.1244 48.4677 19.5801 48.8763 20.1394C49.2849 20.6988 49.5564 21.3463 49.6691 22.0298C49.7817 22.7132 49.7324 23.4136 49.5249 24.0745L43.0499 45.2745C42.6888 46.4248 41.9707 47.4301 40.9998 48.1448C40.0289 48.8596 38.8556 49.2465 37.65 49.2495H25C23.2117 49.2717 21.4621 48.7293 20 47.6995L13.5 42.4995L13.325 18.4495Z" fill="white"/>
</svg>
