<svg viewBox="0 0 24 22" fill="none" xmlns="http://www.w3.org/2000/svg">
<path d="M21.2891 19.5894H22.6953V21.9426H21.2891V19.5894Z" fill="black"/>
<path d="M4.06738 13.2397L4.99671 10.2943L6.33832 10.7176L5.40899 13.663L4.06738 13.2397Z" fill="black"/>
<path d="M17.6758 10.7173L19.0174 10.294L19.9467 13.2394L18.6051 13.6627L17.6758 10.7173Z" fill="black"/>
<path d="M12 0.0576172L11.5312 2.34699L12 8.07934L20.9124 1.44859V0.0576172H12Z" fill="#B2B2B2"/>
<path d="M12.0004 8.07934V0.0576172H3.08789V8.06663L12.0004 8.07934Z" fill="#B2B2B2"/>
<path d="M12 4.79823L11.5312 8.62736L12 11.2091H20.9124V1.44873L14.4169 6.2725L12 4.79823Z" fill="black"/>
<path d="M9.51834 3.28418L3.08789 8.0667V11.209H12.0004V4.79815L9.51834 3.28418Z" fill="black"/>
<path d="M1.30469 19.5894H2.71094V21.9426H1.30469V19.5894Z" fill="black"/>
<path d="M7.81055 12.7471H0V20.2924H7.81055L8.73394 16.5197L7.81055 12.7471Z" fill="#B2B2B2"/>
<path d="M16.1894 12.7471L15.4297 16.5197L16.1894 20.2924H24V12.7471H16.1894Z" fill="#B2B2B2"/>
<path d="M16.1895 20.2924V17.2228L15.7207 16.5197L16.1895 15.8166V12.7471H12L11.5312 16.5197L12 20.2924H16.1895Z" fill="#B2B2B2"/>
<path d="M7.81055 20.2924H12V12.7471H7.81055V15.8166L8.2793 16.3395L7.81055 17.2228V20.2924Z" fill="#B2B2B2"/>
<path d="M16.1898 15.8169H12.0003L11.5352 16.52L12.0003 17.2231H16.1898V15.8169Z" fill="black"/>
<path d="M7.81055 15.8169H12V17.2231H7.81055V15.8169Z" fill="black"/>
</svg>
