<svg xmlns="http://www.w3.org/2000/svg"  viewBox="0 0 24 24" fill="none">
  <path opacity="0.3" d="M16.0207 1.97449L7.88081 2.01853C4.58924 2.03634 1.93534 4.71913 1.95314 8.01069L1.99686 16.0906C2.01467 19.3821 4.69745 22.0361 7.98902 22.0182L16.1289 21.9742C19.4205 21.9564 22.0744 19.2736 22.0566 15.982L22.0129 7.90216C21.995 4.61059 19.3123 1.95668 16.0207 1.97449Z" fill="black"/>
  <path d="M12.0002 15.7113C14.0989 15.7113 15.8002 14.01 15.8002 11.9113C15.8002 9.81265 14.0989 8.11133 12.0002 8.11133C9.90151 8.11133 8.2002 9.81265 8.2002 11.9113C8.2002 14.01 9.90151 15.7113 12.0002 15.7113Z" fill="black"/>
  <path d="M18.5 21.47C18.0267 20.1239 17.1472 18.9579 15.9829 18.1331C14.8186 17.3082 13.4269 16.8652 12 16.8652C10.5731 16.8652 9.18141 17.3082 8.01709 18.1331C6.85277 18.9579 5.97325 20.1239 5.5 21.47C6.2843 21.8282 7.13786 22.0091 8 22H16.13C16.9476 21.9846 17.7537 21.8043 18.5 21.47Z" fill="black"/>
</svg>