<svg viewBox="0 0 21 24" fill="none" xmlns="http://www.w3.org/2000/svg">
<path d="M18.439 7.26562V10.0781C18.439 11.4997 17.1753 12.6562 15.622 12.6562H5.37805C3.82471 12.6562 2.56098 11.4997 2.56098 10.0781V7.26562C2.56098 3.25936 6.12242 0 10.5 0C14.8776 0 18.439 3.25936 18.439 7.26562ZM4.35366 18.75H4.60976V14.0509L3.24568 14.3794C1.33468 14.8397 0 16.4242 0 18.2326V23.2969C0 23.6852 0.34399 24 0.768293 24H3.58537V19.4531C3.58537 19.0648 3.92936 18.75 4.35366 18.75ZM17.7543 14.3794L16.3902 14.0509V18.75H16.6463C17.0706 18.75 17.4146 19.0648 17.4146 19.4531V24H20.2317C20.656 24 21 23.6852 21 23.2969V18.2326C21 16.4242 19.6653 14.8397 17.7543 14.3794ZM10.5 14.5312C9.26126 14.5312 8.13084 14.1074 7.27184 13.4098L6.14634 13.6808V18.75H14.8537V13.6808L13.7282 13.4098C12.8692 14.1074 11.7387 14.5312 10.5 14.5312Z" fill="black"/>
<path d="M17.4152 19.4531V24H3.58594V19.4531C3.58594 19.0648 3.92993 18.75 4.35423 18.75H4.61033V14.0509L6.14691 13.6808V18.75H14.8542V13.6809L16.3908 14.0509V18.75H16.6469C17.0712 18.75 17.4152 19.0648 17.4152 19.4531ZM11.9511 4.80559C11.7407 4.67715 11.4745 4.6518 11.2396 4.73781L6.11762 6.61281C5.82597 6.71959 5.63472 6.97811 5.63472 7.26564V10.0781C5.63472 12.5375 7.81324 14.5313 10.5006 14.5313C13.1879 14.5313 15.3664 12.5375 15.3664 10.0781V7.26564C15.3664 7.03056 15.238 6.811 15.0243 6.68059L11.9511 4.80559Z" fill="#B2B2B2"/>
</svg>
