<svg width="24" height="20" viewBox="0 0 24 20" fill="none" xmlns="http://www.w3.org/2000/svg">
    <path d="M4.12528 19.7035C4.06134 19.7035 3.99632 19.6947 3.93178 19.6762C3.55837 19.5696 3.34218 19.1804 3.44887 18.807L4.19887 16.182C4.30556 15.8086 4.69471 15.5924 5.06807 15.6991C5.44148 15.8058 5.65767 16.195 5.55098 16.5683L4.80098 19.1933C4.71281 19.5021 4.43128 19.7035 4.12528 19.7035Z"
          fill="#7E6D67"/>
    <path d="M19.8746 19.7035C19.5686 19.7035 19.2871 19.5022 19.1989 19.1933L18.4489 16.5683C18.3422 16.195 18.5584 15.8058 18.9318 15.6991C19.3051 15.5924 19.6943 15.8087 19.801 16.182L20.551 18.807C20.6577 19.1804 20.4415 19.5696 20.0681 19.6763C20.0036 19.6947 19.9385 19.7035 19.8746 19.7035Z"
          fill="black"/>
    <path d="M17.9531 0.296875H6.04688C3.9758 0.296875 2.29688 1.9758 2.29688 4.04688V6.625C2.29688 7.01331 2.61169 7.32812 3 7.32812H3.1875C3.8347 7.32812 4.35938 7.8528 4.35938 8.5V10C4.35938 11.4239 5.51363 12.5781 6.9375 12.5781H17.0625C18.4864 12.5781 19.6406 11.4239 19.6406 10V8.5C19.6406 7.8528 20.1653 7.32812 20.8125 7.32812H21C21.3883 7.32812 21.7031 7.01331 21.7031 6.625V4.04688C21.7031 1.9758 20.0242 0.296875 17.9531 0.296875Z"
          fill="black"/>
    <path d="M12 11.1719H6.46875C5.82155 11.1719 5.29688 10.6472 5.29688 10V8.17188C5.29688 6.92922 4.28953 5.92188 3.04688 5.92188H2.25C1.00734 5.92188 0 6.92922 0 8.17188V10.75C0 14.2449 2.83322 17.0781 6.32812 17.0781H12L12.7031 13.9724L12 11.1719Z"
          fill="#B2B2B2"/>
    <path d="M21.75 5.92188H20.9531C19.7105 5.92188 18.7031 6.92922 18.7031 8.17188V10C18.7031 10.6472 18.1785 11.1719 17.5312 11.1719H12V17.0781H17.6719C21.1668 17.0781 24 14.2449 24 10.75V8.17188C24 6.92922 22.9927 5.92188 21.75 5.92188Z"
          fill="#B2B2B2"/>
</svg>
