<svg viewBox="0 0 777 688" preserveAspectRatio="none">
  <svg
    width="777"
    height="688"
    viewBox="0 0 777 688"
    fill="none"
    xmlns="http://www.w3.org/2000/svg"
  >
    <g opacity="0.6">
      <rect
        x="-292.199"
        y="-63.7373"
        width="1217.19"
        height="925.334"
        fill="#F3F3F3"
      />
      <g>
        <rect
          x="-296.723"
          y="-63.7373"
          width="2371.03"
          height="925.334"
          fill="#aaaaaa"
        />
      </g>
      <path
        opacity="0.4"
        d="M-479.258 -226.633C-486.781 -226.633 -494.23 -225.468 -501.179 -223.206C-508.129 -220.943 -514.444 -217.627 -519.763 -213.446C-525.083 -209.265 -529.302 -204.302 -532.181 -198.839C-535.06 -193.377 -536.541 -187.522 -536.541 -181.609V1097.11C-536.541 1109.06 -530.506 1120.51 -519.763 1128.95C-509.021 1137.39 -494.451 1142.14 -479.258 1142.14H1720.64C1735.83 1142.14 1750.41 1137.39 1761.15 1128.95C1771.89 1120.51 1777.93 1109.06 1777.93 1097.11V-181.609C1777.93 -193.55 1771.89 -205.002 1761.15 -213.446C1750.41 -221.889 1735.83 -226.633 1720.64 -226.633H-479.258ZM-421.975 -136.586H165.298C120.004 -126.603 125.998 -110.598 140.811 -104.1L149.721 -100.213L143.31 -96.1616C135.071 -90.9055 135.21 -86.3794 143.727 -83.7514C147.43 -82.6016 149.791 -80.6854 148.911 -79.5356C146.157 -75.9038 152.383 -69.3154 160.761 -66.9429C167.404 -65.0449 170.32 -65.3916 177.773 -68.9687L186.799 -73.294L198.233 -68.6219C212.212 -62.8913 210.893 -63.8403 212.281 -58.0003C212.929 -55.3175 215.244 -51.4849 217.489 -49.4774C219.711 -47.4698 221.539 -44.6776 221.539 -43.2175C221.539 -39.7865 229.177 -19.6382 232.788 -13.5061C234.755 -10.1663 234.732 -7.90326 232.788 -5.96872C230.08 -3.28593 228.552 2.64542 229.154 8.084C229.524 11.3143 237.717 11.6245 242.138 8.595C243.874 7.39049 244.707 7.08025 244.013 7.86501C243.318 8.63152 245.633 11.4603 249.174 14.1066L255.608 18.8881L245.725 17.8844C236.63 16.8806 235.495 17.3369 230.913 24.272C226.214 31.3713 226.168 32.0101 230.404 35.4594C236.421 40.3505 249.105 38.1239 247.299 32.5029C246.327 29.528 247.369 28.8528 251.766 29.5463C256.58 30.3128 257.251 31.6086 256.326 38.0692C255.631 42.8508 253.618 46.0263 250.864 46.6103C240.101 48.9099 236.792 77.1795 245.934 88.6589C248.063 91.3235 250.563 96.4336 251.535 99.9741C253.618 107.639 266.232 128.554 271.555 133.19C272.832 134.147 274.354 134.876 276.019 135.33C277.684 135.783 279.453 135.949 281.206 135.818C285.303 135.38 287.71 136.566 288.913 139.614C290.117 142.716 292.894 144.012 298.125 144.012C304.929 144.012 305.901 143.045 308.771 133.244C310.554 127.331 311.317 121.053 310.484 119.283C309.512 117.275 310.507 116.089 313.262 116.089C315.645 116.089 316.803 115.432 315.854 114.629C314.905 113.863 315.275 112.129 316.71 110.742C318.122 109.337 319.626 104.664 320.02 100.339C320.39 95.9956 321.57 92.455 322.658 92.455C323.746 92.455 324.672 91.1045 324.672 89.462C324.672 87.7647 328.56 85.8667 333.675 85.0819C345.363 83.3116 355.477 76.6868 361.102 67.1601C366.101 58.7103 367.235 58.0898 388.088 52.5599C402.669 48.7091 427.434 33.6526 427.666 28.506C427.735 27.0278 424.888 25.8233 421.347 25.8233C417.806 25.8233 414.172 24.9108 413.385 23.8522C412.552 22.7572 416.325 22.3922 422.111 23.0127L432.295 24.1442L430.466 14.2161C429.448 8.75926 428.892 4.30617 429.216 4.30617C429.564 4.30617 425.004 0.437119 419.148 -4.3262C407.345 -13.9258 407.044 -18.4884 418.801 -9.61876L426.208 -4.03418L428.453 -8.96176C431.415 -15.4771 424.101 -20.0397 413.478 -18.3606C405.887 -17.1561 405.817 -17.2292 410.562 -21.4815C414.959 -25.4235 415.816 -25.5148 419.958 -22.467C426.555 -17.6124 438.359 -20.4047 438.359 -26.847C438.359 -29.9861 436.391 -32.1396 432.804 -32.9244C429.726 -33.5631 428.036 -35.1144 429.008 -36.3919C430.235 -38.0162 432.295 -38.0162 435.951 -36.4284C438.798 -35.1874 442.247 -34.7859 443.682 -35.4794C448.172 -37.7424 446.505 -43.3635 440.997 -44.5315C434.748 -45.8456 434.054 -49.0394 439.655 -50.7914C444.561 -52.3244 445.163 -66.5414 440.326 -66.7969C437.687 -66.9429 437.687 -67.1984 440.326 -68.0744C442.131 -68.6584 443.635 -72.4362 443.635 -76.4695C443.635 -81.5614 444.862 -83.8244 447.616 -83.8244C450.394 -83.8244 451.551 -86.0874 451.551 -91.3435C451.551 -97.6581 450.602 -98.8809 445.603 -99.0086C442.339 -99.0999 441.136 -99.6839 442.964 -100.286C448.264 -102.02 446.829 -106.692 439.793 -110.452C422.088 -120.197 413.154 -129.906 385.89 -136.586H1663.36V68.2187C1661.45 67.1566 1659.31 66.3775 1657.04 65.9191C1652.3 65.0277 1647.89 63.2782 1644.15 60.8091C1641.35 58.7387 1638.45 56.7481 1635.47 54.8412C1629.85 51.2328 1624.28 47.5764 1618.76 43.8728C1601.26 32.1926 1594.41 29.455 1581.75 29.09C1575.85 28.9161 1569.98 28.2555 1564.25 27.119C1558.44 25.7502 1557.08 26.3343 1555.76 30.4406C1554.88 33.1234 1555.44 36.4632 1556.87 37.8867C1561.29 42.212 1554.05 44.0005 1549.12 39.7847C1545.88 37.0107 1545.6 35.8244 1548.05 35.0761C1552.77 33.6526 1552.1 28.0863 1547.03 26.4985C1544.33 25.659 1541.13 26.9183 1538.42 29.7836C1534.54 33.9811 1533.29 34.1454 1524.07 31.8459C1516.99 30.0756 1512.57 29.9843 1509.49 31.5174C1503.24 34.6382 1498.45 32.7584 1498.45 27.192C1498.45 24.6005 1496.51 20.2204 1494.13 17.4464C1490.08 12.7561 1488.41 12.5188 1470.45 13.4313C1459.8 13.9971 1451.24 13.8328 1451.33 13.121C1451.96 8.70448 1450.06 6.76999 1443.95 5.52896C1440.15 4.7442 1437.72 3.57619 1438.58 2.88268C1439.43 2.20741 1438.99 -0.037384 1437.65 -2.09967C1434.55 -6.80824 1384.23 -16.8824 1382.68 -13.1228C1382.13 -11.7906 1379.42 -10.6955 1376.64 -10.6955C1373.87 -10.6955 1371.57 -9.25378 1371.57 -7.48351C1371.57 -5.71323 1372.82 -4.28969 1374.4 -4.28969C1375.95 -4.28969 1376.81 -2.55591 1376.32 -0.493622C1375.83 1.58691 1374.31 3.10167 1372.87 2.88268C1371.44 2.68192 1368.29 3.94119 1365.9 5.71147C1362.69 8.06577 1361.04 8.24823 1359.63 6.40495C1358.5 4.92668 1354.61 4.41568 1350.14 5.12744C1344.26 6.0947 1341.95 5.4012 1339.66 1.89714C1336.16 -3.4137 1333.15 -1.44266 1330.12 8.17523C1328.09 14.7088 1327.55 15.0191 1322.74 12.1903C1318.43 9.59877 1317.65 6.89772 1318.18 -4.3262C1318.87 -18.8169 1314.62 -25.7338 1304.94 -25.7338C1302.16 -25.7338 1296.38 -27.2303 1292.05 -29.0553C1282.77 -32.9609 1279.02 -31.7199 1279.02 -24.6752C1279.02 -17.9957 1275.45 -16.4079 1264.11 -18.1417C1257.86 -19.0907 1255.25 -20.5142 1256.15 -22.4305C1257.96 -26.2813 1238.24 -30.4241 1230.07 -27.9055C1225.12 -26.3543 1223.75 -26.8288 1222.43 -30.6978C1221.11 -34.6399 1220.46 -34.8954 1218.24 -32.1761C1216.37 -29.8948 1215 -29.6758 1213.59 -31.4096C1212.5 -32.7419 1209.24 -34.2019 1206.39 -34.6399C1201.46 -35.4064 1201.46 -35.6254 1205.84 -38.655C1225.32 -52.1602 1226.78 -54.0947 1225.53 -64.6434C1224 -77.5281 1213.87 -85.7589 1199.36 -85.8502C1193.29 -85.8867 1189.13 -87.1277 1188.15 -89.1717C1187.32 -90.942 1184.91 -92.402 1182.83 -92.402C1180.4 -92.402 1179.52 -93.8621 1180.38 -96.5084C1182.02 -101.655 1173.09 -107.057 1166.03 -106.217C1165.01 -106.114 1164.03 -105.867 1163.13 -105.487C1156.1 -102.421 1145.98 -88.7702 1147.86 -84.8464C1148.9 -82.5651 1147.49 -81.6344 1142.84 -81.6344C1135.61 -81.6344 1134.57 -79.6451 1139.6 -75.4293C1142.28 -73.221 1141.63 -72.783 1136.29 -73.2027C1132.47 -73.46 1128.63 -73.0743 1125.01 -72.0712C1123.66 -71.6117 1122.17 -71.4438 1120.71 -71.5849C1119.25 -71.726 1117.86 -72.1709 1116.68 -72.8743C1112.47 -75.7213 1099.32 -73.9145 1095.3 -69.9177C1093.84 -68.4759 1088.12 -66.0669 1082.57 -64.5704C1077.01 -63.0921 1071.83 -60.5005 1071.04 -58.8398C1070.25 -57.1972 1067.27 -55.8467 1064.38 -55.8467C1060.74 -55.8467 1059.56 -54.8612 1060.6 -52.6529C1061.53 -50.6819 1060.6 -49.4226 1058.24 -49.4226C1053.82 -49.4226 1052.78 -39.677 1056.99 -37.5599C1062.8 -34.6399 1058.91 -32.6141 1044.68 -31.1724C1022.07 -28.8728 1021.81 -28.7633 1023.85 -17.6854C1025.01 -11.3891 1028.02 -6.26071 1032.46 -2.90266C1036.19 -0.0921173 1037.94 2.18916 1036.35 2.18916C1034.75 2.18916 1030.21 -0.256393 1026.28 -3.23119C1018.8 -8.87053 1010.86 -8.81577 1005.29 -3.12167C1002 0.236374 997.21 -1.78941 997.58 -6.40674C997.996 -11.3708 993.553 -17.4482 990.613 -15.9699C989.155 -15.2399 988.368 -12.9768 988.762 -10.9693C989.178 -8.96178 986.864 -4.5817 983.624 -1.22365C980.383 2.11615 978.532 5.82097 979.458 7.04375C980.453 8.32126 979.851 8.63148 978.069 7.73723C975.94 6.67871 975.824 4.99969 977.676 2.18916C979.134 -0.0191193 980.314 -4.81897 980.314 -8.43251C980.314 -14.1814 979.388 -15.0026 973.07 -15.0573C966.959 -15.1121 966.497 -15.4954 970.292 -17.3022C975.384 -19.7294 973.787 -25.7703 968.047 -25.7703C965.964 -25.7703 963.465 -24.0912 962.493 -22.0107C961.274 -19.5919 959.536 -17.357 957.354 -15.4041C955.196 -13.3094 953.975 -10.7109 953.883 -8.01274C953.883 -5.49422 950.642 0.345856 946.754 4.94493C940.76 11.953 940.158 13.9241 942.843 17.4099C944.712 20.4021 945.235 23.8069 944.324 27.0643C943.213 30.7143 944 33.3606 946.639 35.0944C949.411 37.2158 951.451 39.8605 952.563 42.7777C954.369 47.7236 954.091 47.6506 944.185 41.19C937.083 36.8736 929.194 33.428 920.786 30.9698C913.542 28.9988 905.024 25.513 901.9 23.2317C898.174 20.4942 895.651 19.8554 894.47 21.4067C891.855 24.8377 895.489 32.2656 899.747 32.2656C903.89 32.2656 909.607 39.5657 907.084 41.628C906.205 42.358 902.826 42.3945 899.562 41.7193C896.322 41.0623 892.85 41.5915 891.878 42.8508C890.906 44.1283 887.434 45.1685 884.171 45.1685C880.729 45.2298 877.41 46.1858 874.728 47.8878C871.835 50.0779 871.418 49.6581 872.576 45.6978C873.663 42.0478 872.923 40.8798 869.359 40.8798C866.256 41.0762 863.378 42.2306 861.35 44.0918C859.545 45.8621 856.953 47.3221 855.657 47.3221C850.82 47.3221 832.35 58.6555 830.823 62.5793C829.064 67.1054 823.046 68.0362 820.13 64.2036C819.088 62.8348 820.315 60.4988 822.861 59.0023C832.142 53.4724 823.023 45.3146 807.47 45.2051C803.882 45.1868 803.257 45.9351 805.155 47.8878C806.567 49.3479 808.419 55.7355 809.298 62.0501C810.826 73.1097 810.687 73.493 805.039 72.3615C797.17 70.7919 783.376 81.8151 785.39 88.0932C787.079 93.2946 782.589 93.842 775.229 89.316C767.985 84.8629 766.156 85.2644 766.156 91.287C766.156 94.1888 768.216 97.4921 770.762 98.7149C774.697 100.576 774.812 100.941 771.225 100.996C764.421 101.087 757.431 93.112 757.685 85.5199C757.847 81.6873 755.903 76.6138 753.45 74.2595C750.302 71.2482 750.163 70.6642 752.941 72.2885C755.116 73.566 762.546 75.8473 769.42 77.362C780.205 79.7346 782.844 79.6433 788.26 76.7598C799.971 70.5182 798.675 59.13 785.482 52.3774C779.875 49.3611 774.496 46.0887 769.374 42.577C764.606 39.2737 757.894 36.5909 754.468 36.5909C750.395 36.5909 747.756 35.0031 746.831 32.0466C745.581 28.1958 744.146 27.8125 736.601 29.1266C728.037 30.6413 727.945 30.5501 732.435 26.462C736.878 22.447 736.786 22.0637 730.398 17.1726C723.941 12.245 720.237 11.7888 700.68 13.4861C697.37 13.7598 695.01 14.5993 695.38 15.3111C697.232 18.7057 688.159 23.8887 682.419 22.739C679.04 22.0454 676.286 22.2827 676.286 23.2865C676.286 24.3085 672.189 26.9365 667.19 29.1266C662.191 31.3166 656.543 35.6054 654.622 38.6167C652.701 41.6645 649.068 45.9716 646.522 48.2711C643.976 50.5524 641.893 53.7097 641.893 55.261C641.893 56.8122 640.897 58.0533 639.717 58.0533C637.727 58.0533 624.904 76.705 624.766 79.8258C624.58 84.0964 606.366 103.113 597.224 108.588C591.322 112.147 586.484 116.308 586.461 117.841C586.415 119.392 585.211 120.049 583.776 119.319C582.318 118.589 580.976 119.265 580.814 120.798C580.212 127.459 580.791 137.168 582.295 146.056C585.073 162.299 591.831 165.128 605.509 155.765L613.541 150.29L618.586 162.445C623.331 173.888 623.377 174.764 619.118 177.301C616.433 178.907 615.276 181.407 616.271 183.506C618.054 187.338 626.015 188.433 626.015 184.893C626.015 183.706 628.446 182.703 631.339 182.703C634.255 182.703 636.616 181.79 636.616 180.604C636.616 179.418 638.884 178.414 641.708 178.414C645.92 178.414 647.47 176.041 650.016 165.547C651.868 157.937 654.53 152.644 656.497 152.644C664.135 152.644 665.014 141.366 657.978 134.102C650.78 126.656 654.669 117.494 669.875 106.124C676.587 101.124 681.331 96.0868 680.452 94.9188C677.836 91.4878 684.618 81.7238 689.571 81.7238C692.07 81.7238 695.519 83.1109 697.208 84.7899C700.564 88.0567 699.916 88.951 682.28 105.358C674.596 112.476 673.809 114.41 674.851 123.864L676.147 135.745C676.216 136.493 679.179 138.665 682.72 140.544C688.622 143.665 690.08 143.647 700.796 140.435C712.947 136.785 726.324 137.935 718.478 141.986C716.349 143.081 710.146 143.994 704.707 144.012C698.343 144.049 692.857 145.6 689.478 148.337C686.585 150.71 683.16 152.644 681.864 152.644C679.549 152.644 677.281 159.379 674.527 174.545C673.207 181.863 663.024 193.16 663.024 187.32C663.024 184.4 652.539 185.988 641.36 190.55C636.778 192.448 633.653 192.686 632.589 191.28C631.686 190.094 627.774 189.327 623.817 189.565C611.133 190.35 606.551 185.331 613.865 178.596C617.568 175.147 616.781 161.259 612.869 161.259C611.758 161.259 607.731 163.23 603.912 165.693C596.969 170.128 593.798 182.703 599.607 182.703C601.066 182.703 602.2 185.458 602.2 188.798C602.2 194.018 600.857 195.186 592.317 196.883C584.957 198.361 581.393 200.643 578.43 205.716C576.254 209.476 571.672 213.6 568.246 214.896C562.182 217.177 562.02 217.05 563.664 209.932C564.96 204.402 564.312 202.249 561.257 201.281C559.012 200.588 556.003 197.814 554.498 195.131C551.149 188.96 546.875 183.128 541.769 177.757C539.292 175.293 539.154 173.285 541.26 170.11C545.379 163.85 544.708 161.259 539.015 161.259C535.265 161.259 534.363 160.109 535.381 156.933C536.515 153.447 535.45 152.644 529.919 152.644C526.1 152.644 522.073 154.287 520.753 156.404C517.05 162.244 514.898 174.125 517.49 174.125C518.763 174.125 519.11 176.133 518.323 178.596C517.351 181.626 515.384 182.757 512.167 182.064C507.006 180.969 497.886 187.448 501.011 189.984C502.053 190.842 501.034 190.952 498.72 190.24C493.535 188.616 490.619 194.018 492.818 201.19C493.744 204.11 493.281 206.392 491.753 206.392C490.272 206.392 489.67 208.308 490.457 210.68C492.077 215.717 493.188 215.827 507.098 212.286C514.504 210.425 517.791 208.363 518.069 205.333C518.3 202.96 518.578 199.931 518.74 198.617C518.879 197.303 520.73 194.602 522.767 192.594C526.054 189.364 526.887 189.328 530.405 192.211C533.946 195.076 533.691 195.916 527.998 199.767C523.508 202.814 522.744 204.147 525.544 204.238C528.623 204.366 528.414 205.077 524.503 207.468C520.684 209.841 520.198 211.246 522.443 213.454C524.688 215.644 524.341 217.579 521.054 221.375C516.819 226.284 516.888 226.376 523.137 224.916C534.478 222.269 558.225 219.331 559.544 220.426C562.275 222.634 550.402 227.544 544.917 226.467C540.056 225.518 539.362 226.084 540.612 229.953C541.885 233.913 541.237 234.369 535.844 233.329C532.372 232.672 527.882 233.037 525.845 234.095C520.892 236.723 524.133 242.929 530.474 242.929C537.418 242.929 544.06 251.926 544.06 261.398V269.282L524.642 268.26C512.699 267.639 503.765 268.15 501.497 269.592C498.951 271.235 497.863 276.491 498.025 286.966C498.396 312.188 498.211 311.732 506.82 311.732C520.499 311.732 518.856 319.89 502.724 332.282C497.007 336.662 493.859 341.133 493.859 344.765C493.859 347.868 491.383 352.083 488.397 354.164C474.325 363.928 466.896 370.972 459.235 381.85C451.435 392.964 451.134 394.205 453.981 403.403C457.175 413.733 455.972 420.157 449.722 425.961C447.153 428.333 446.806 429.976 448.681 430.906C450.232 431.691 451.551 434.009 451.551 436.089C451.551 438.152 455.81 443.152 461.04 447.222C466.271 451.31 471.502 456.658 472.682 459.085C475.413 464.742 501.891 479.671 508.556 479.324C511.357 479.16 520.8 478.777 529.525 478.43C538.251 478.102 549.985 476.24 555.609 474.287C570.028 469.323 577.551 469.816 582.55 476.039C585.813 480.091 588.498 481.095 593.891 480.31C604.676 478.704 608.217 481.77 606.111 490.895L604.306 498.743L602.385 503.688L601.806 503.725C601.922 503.853 602.2 503.926 602.2 504.09C602.2 505.842 606.366 510.989 611.388 515.515C620.6 523.819 626.039 532.451 627.404 540.937C627.821 543.492 629.001 547.672 629.996 550.245C630.543 551.647 630.641 553.134 630.282 554.574C629.922 556.013 629.116 557.36 627.936 558.494C619.697 566.25 614.929 587.147 620.738 590.067C625.9 592.64 632.195 605.288 635.644 619.943C637.565 628.101 640.805 636.313 642.842 638.193C649.23 644.106 657.307 659.728 656.034 663.67C654.437 668.708 660.547 675.132 667.051 675.278C680.845 675.588 710.887 670.715 716.581 667.229C725.977 661.444 744.979 639.16 746.807 631.696C747.78 627.845 750.835 624.25 754.376 622.936C760.995 620.49 763.934 609.814 760.255 601.693C758.565 598.006 759.722 595.633 765.439 590.888C769.466 587.548 774.118 584.774 775.738 584.738C777.359 584.701 781.663 582.73 785.343 580.376C791.361 576.544 792.055 574.7 791.662 562.655C791.43 555.264 790.319 548.091 789.255 546.723C788.167 545.336 786.709 539.696 786.015 534.148C784.672 523.344 787.704 516.993 798.999 506.773L805.549 500.841L809.877 498.743L823.254 489.161C845.82 473.119 863.85 437.695 847.255 442.003C840.866 443.47 834.429 444.809 827.953 446.018C815.964 448.281 814.112 448.171 811.589 444.886C809.113 441.656 810.687 440.689 823.578 437.403C830.982 435.556 838.219 433.319 845.242 430.706C848.991 429.118 853.273 427.786 854.777 427.786C856.259 427.786 859.522 425.815 862.022 423.46C864.521 421.088 868.641 419.172 871.187 419.172C875.885 419.172 893.035 408.586 893.035 405.703C893.035 404.845 895.419 402.235 898.312 399.863C906.668 393.074 905.163 386.175 894.378 381.977C889.286 380.006 885.074 376.867 885.074 374.915C885.074 372.031 885.838 371.867 889.055 374.039C891.415 375.626 902.386 376.831 916.527 377.068C937.589 377.397 940.737 377.981 946.87 382.726C950.666 385.646 953.79 389.113 953.813 390.391C953.929 394.826 964.159 400.41 970.431 399.425C975.94 398.567 976.588 399.297 976.958 406.615C977.375 414.974 996.793 454.249 1003.34 459.997C1006.58 462.844 1007.81 462.516 1013.62 457.077C1020.84 450.325 1024.73 450.653 1020.1 457.643C1017.09 462.224 1018.87 472.919 1022.65 472.919C1033.71 472.919 1037.46 459.213 1028.39 451.839C1025.15 449.211 1023.53 444.539 1023.41 437.312C1023.22 426.928 1023.53 426.508 1036.07 419.445C1043.17 415.467 1049.03 411.379 1049.03 410.375C1049.03 409.371 1052.57 407.072 1056.95 405.228C1061.3 403.403 1064.91 400.647 1064.91 399.151C1064.91 397.654 1068.61 396.231 1073.26 395.957C1077.89 395.647 1083.24 394.388 1085.14 393.092C1087.73 391.358 1089.09 391.741 1090.46 394.753C1091.45 396.943 1095 401.761 1098.38 405.411C1101.78 409.097 1104.51 415.083 1104.51 418.843C1104.51 424.136 1105.67 425.632 1109.67 425.632C1112.49 425.632 1115.53 424.665 1116.43 423.497C1119.04 420.047 1122.58 420.997 1124.39 425.632C1125.32 428.005 1127.86 431.417 1130.18 433.279C1132.98 435.56 1134.18 440.287 1133.97 448.08C1133.74 455.836 1134.92 460.381 1137.58 462.187C1139.76 463.647 1142.84 468.685 1144.39 473.411C1147.58 483.029 1158.18 492.264 1166.05 492.264C1170.26 492.264 1170.89 491.351 1169.36 487.446C1168.06 483.863 1166.98 480.233 1166.12 476.569C1164.87 472.683 1161.92 469.27 1157.79 466.932C1153.95 464.961 1149.9 462.37 1148.83 461.165C1145.89 457.844 1146.42 438.517 1149.46 438.517C1150.91 438.517 1152.14 439.977 1152.14 441.747C1152.14 443.517 1153.76 444.977 1155.8 444.977C1157.83 444.977 1160.17 446.437 1161 448.226C1161.46 449.116 1162.23 449.886 1163.22 450.451C1164.2 451.015 1165.37 451.351 1166.58 451.42C1168.9 451.42 1170.61 453.281 1170.61 455.709C1170.61 461.038 1177.09 461.348 1181.72 456.256C1183.62 454.157 1188.43 451.274 1192.41 449.832C1198.8 447.551 1199.7 446.054 1199.7 437.458C1199.7 429.027 1198.22 426.417 1188.96 418.259C1179.29 409.718 1178.59 408.349 1181.72 404.243C1185.19 399.68 1195.95 396.085 1198.92 398.476C1199.77 399.187 1197.69 401.542 1194.33 403.768C1190.42 406.323 1188.87 409.043 1189.94 411.324C1193.62 419.08 1204.52 413.642 1205.53 403.549C1206.02 398.713 1208.15 397.527 1222.08 394.406C1230.88 392.417 1241.99 388.383 1246.76 385.463C1259.3 377.78 1280.2 350.404 1273.51 350.404C1271.82 350.404 1271.73 349.127 1273.28 346.846C1275.08 344.254 1273.58 340.349 1267.96 332.61C1260.55 322.354 1260.46 321.77 1265.02 318.32C1267.77 316.259 1270.93 314.559 1274.37 313.283C1276.91 312.499 1279.02 310.984 1279.02 309.907C1279.02 307.115 1265.04 305.29 1261.57 307.626C1259.72 308.867 1257.17 308.173 1254.53 305.801C1250.69 302.333 1251.11 301.585 1260.71 295.982L1271.1 289.923L1268.37 295.727C1264.85 303.264 1266.73 304.56 1274.9 300.198C1278.53 298.263 1283.93 296.676 1286.93 296.676C1291.61 296.676 1292.03 297.296 1289.57 301.001C1286.19 306.148 1288.55 310.345 1293.92 308.666C1296.05 308.009 1297.56 308.648 1297.33 310.126C1297.09 313.664 1297.06 317.208 1297.23 320.748L1297.56 328.687L1307.44 325.913C1315.89 323.54 1317.49 322.08 1318.23 316.021C1318.78 311.259 1317.06 306.506 1313.39 302.698L1307.74 296.438L1314.55 292.113C1318.3 289.722 1321.3 286.693 1321.3 285.397C1321.3 281.345 1329.57 275.414 1333.48 276.637C1341.12 279.009 1349.47 275.031 1359.72 264.117C1377.92 244.699 1384.79 233.347 1384.79 222.598C1384.79 218.418 1386.06 214.969 1387.64 214.969C1389.63 214.969 1390.09 223.054 1389.12 241.031C1387.94 263.387 1386.97 267.676 1382.45 271.07C1378.45 274.1 1377.22 277.86 1377.22 286.802C1377.22 300.983 1373.47 307.443 1365.26 307.443C1361.32 307.443 1358.13 309.323 1356.18 312.791C1353.87 316.933 1351.21 318.174 1344.54 318.174C1338.39 318.174 1332.99 320.328 1325.93 325.602C1316.21 332.848 1313.44 337.52 1318.71 337.52C1320.17 337.52 1321.3 339.418 1321.3 341.717C1321.3 348.105 1326.26 349.09 1329.45 343.396C1331.93 339.016 1343.27 333.286 1351.74 332.136C1354.91 331.427 1358 330.511 1360.97 329.398C1364.61 328.084 1371.13 326.186 1375.42 325.146C1381.85 323.577 1383.91 321.332 1387.01 312.626C1391.46 300.216 1392.1 291.091 1389.12 284.229C1387.2 279.794 1387.61 279.447 1393.52 280.652C1397.27 281.418 1400.88 280.926 1401.96 279.52C1402.98 278.17 1406.94 276.089 1410.76 274.903C1415.9 273.315 1416.75 272.348 1414.09 270.997C1412.12 270.012 1411.43 268.023 1412.52 266.581C1413.93 264.719 1413.03 264.373 1409.39 265.303C1403.44 266.836 1391.02 257.602 1393.91 253.806C1394.88 252.528 1396.78 251.981 1398.08 252.638C1399.39 253.313 1399.72 248.878 1398.77 242.436C1397.27 231.96 1397.5 231.34 1401.62 234.114C1408.24 238.548 1409.12 236.103 1404.65 225.81C1402.35 220.314 1400.99 214.599 1400.62 208.819C1400.55 197.905 1398.01 191.372 1393.82 191.372C1391.73 191.372 1390.88 192.686 1391.76 194.565C1393.77 198.818 1386.48 198.818 1382.13 194.565C1378.36 190.86 1368.94 190.222 1368.94 193.653C1368.94 194.93 1367.06 194.419 1364.77 192.558C1362.48 190.715 1358.61 189.182 1356.18 189.145C1352.92 189.109 1353.87 187.502 1359.89 183.214C1364.4 179.983 1374.4 171.351 1382.11 163.96C1395.99 150.637 1396.18 150.564 1409.58 150.765C1416.98 150.892 1427.58 150.29 1433.02 149.432C1441.24 148.155 1442.98 148.483 1442.98 151.403C1442.98 154.068 1444.73 154.688 1450.22 153.958C1454.59 153.407 1458.99 153.042 1463.41 152.863C1469.43 152.681 1471.79 147.242 1466.51 145.819C1464.94 145.399 1466.7 142.424 1470.36 139.194C1474.01 135.982 1477.99 131.967 1479.15 130.306C1481.23 127.331 1485.72 126.127 1492.64 126.656C1494.54 126.802 1495.38 127.842 1494.5 129.029C1493.57 130.233 1493.59 133.226 1494.57 135.69C1496.28 140.07 1496.44 140.07 1503.48 134.595C1507.41 131.529 1512.2 129.029 1514.12 129.029C1517.29 129.029 1511.76 134.394 1485.89 156.513C1481.16 160.529 1477.32 164.598 1477.32 165.511C1477.32 166.423 1475.47 168.358 1473.32 169.836C1468.57 173.03 1468.13 187.283 1472.18 205.114C1474.66 215.991 1474.5 217.871 1470.54 220.207C1468.06 221.685 1466.54 224.094 1467.14 225.554C1468.67 229.314 1484.34 217.597 1487.74 210.151C1489.2 206.902 1492.14 204.274 1494.26 204.274C1496.49 204.274 1498.48 201.774 1498.96 198.325C1499.45 194.821 1501.39 192.43 1503.75 192.43C1506.21 192.43 1508.2 189.729 1509.03 185.349C1509.75 181.462 1511.55 178.304 1513.01 178.359C1516.39 178.45 1516.71 163.23 1513.41 159.598C1512.04 158.101 1511.67 156.24 1512.6 155.491C1513.52 154.725 1514.31 155.272 1514.31 156.678C1514.31 158.594 1515.67 158.685 1519.58 156.97C1525.79 154.269 1526.99 147.261 1520.93 149.159C1518.75 149.834 1516.95 149.451 1516.95 148.319C1516.95 147.169 1519.35 146.239 1522.27 146.239C1525.19 146.239 1527.59 144.998 1527.59 143.519C1527.62 141.694 1528.52 141.877 1530.42 144.067C1532.55 146.512 1533.56 146.64 1534.58 144.578C1535.32 143.1 1538.29 140.855 1541.2 139.596C1545.28 137.807 1547.57 138.081 1551.27 140.818C1555.78 144.14 1556.71 143.811 1566.27 136C1571.87 131.438 1578.23 126.985 1580.41 126.109C1582.58 125.251 1587.35 123.152 1590.99 121.473C1594.6 119.794 1600.24 118.973 1603.51 119.648C1611.33 121.236 1613.55 116.436 1609.55 106.562C1606.77 99.7369 1607.07 98.2769 1612.6 92.601C1617.07 87.9837 1621.07 86.2499 1627.32 86.1587C1632.72 86.1039 1635.96 87.0894 1635.96 88.8597C1635.96 93.2763 1651.3 101.489 1656.86 100.047C1659.54 99.3536 1661.72 97.6198 1661.65 96.1781C1661.46 91.579 1662.02 88.8232 1663.34 87.3449V103.752C1659.29 104.756 1659.24 107.475 1663.34 109.957V1052.09H1523.54C1526.74 1050.81 1530.19 1044.55 1530.19 1042.53C1530.19 1040.43 1531.99 1038.15 1534.19 1037.45C1536.36 1036.78 1538.17 1035.08 1538.17 1033.73C1538.17 1032.36 1542.29 1027.51 1547.38 1022.93C1553.54 1017.4 1556.64 1012.45 1556.64 1008.25C1556.64 1004.79 1557.8 1001.36 1559.19 1000.66C1562.61 998.946 1558.07 989.693 1554.19 990.423C1552.54 990.734 1547.47 988.197 1542.98 984.802C1535.92 979.418 1533.36 978.78 1523.31 979.692C1516.07 980.349 1511.72 979.875 1511.72 978.469C1511.72 977.192 1509.52 975.604 1506.83 974.911C1504.15 974.217 1500.68 971.407 1499.12 968.651C1496.23 963.468 1477.35 952.992 1477.35 956.551C1477.35 959.562 1468.57 956.35 1464.62 951.879C1461.95 948.849 1457.63 947.973 1445.48 947.973C1436.82 947.973 1429.76 947.207 1429.76 946.276C1429.76 945.363 1426.2 943.502 1421.84 942.17C1416.5 940.527 1414.37 938.684 1415.39 936.53C1417.29 932.515 1414.92 931.329 1401.87 929.851C1386.36 928.099 1368.54 924.905 1360.7 922.459C1355.21 920.762 1353.98 919.229 1354.98 915.05C1355.91 911.071 1355.07 908.863 1353.5 908.607C1351.92 908.334 1349.61 910.049 1347.67 913.845C1344.43 920.233 1343.75 920.415 1331.65 919.466C1319.5 918.517 1318.92 918.736 1317.32 924.613C1315.63 930.909 1309.73 932.899 1307.39 927.953C1305.38 923.664 1288.65 920.142 1282.86 922.788C1279.04 924.522 1277.26 923.974 1274.27 920.324C1269.04 913.937 1265.83 914.557 1265.83 921.93C1265.83 925.361 1264.21 928.683 1262.15 929.321C1257.31 930.836 1246.92 928.555 1242.64 925.069C1240.78 923.554 1237.57 922.879 1235.51 923.518C1233.45 924.157 1230.25 922.66 1228.36 920.178C1223.84 914.301 1221.18 914.521 1207.85 921.802C1197.02 927.715 1196.46 927.77 1187.85 924.467C1182.97 922.587 1177.55 918.974 1175.82 916.419C1171.77 910.451 1162.3 908.315 1159.29 912.677C1157.51 915.269 1156.21 915.415 1153.2 913.389C1150.2 911.381 1148.39 911.564 1144.57 914.374C1139.34 918.225 1132.31 917.221 1129.99 912.294C1129.18 910.615 1125.52 909.264 1121.84 909.264C1116.22 909.264 1115.15 910.25 1115.15 915.433C1115.15 923.481 1111.45 925.58 1094.72 927.113C1082.68 928.208 1080.37 927.788 1076.99 923.865C1073.4 919.722 1072.48 919.631 1064.42 922.35C1053.57 926.018 1046.37 925.252 1040.74 919.904C1036.9 916.254 1036.02 916.181 1033.08 919.047C1030.4 921.675 1030.45 923.354 1033.22 927.569C1035.81 931.511 1035.88 933.501 1033.62 935.727C1031.95 937.352 1031.3 939.268 1032.18 939.979C1033.06 940.71 1030.79 941.914 1027.14 942.662C1019.06 944.305 1008.2 953.211 1010.52 956.277C1011.44 957.482 1009.82 959.526 1006.98 960.767C1002.63 962.665 1000.31 961.697 992.442 954.927C984.11 947.754 982.467 947.189 977.676 949.634C972.931 952.007 971.959 951.715 969.436 947.188C966.844 942.553 964.391 941.932 943.699 940.618C915.625 938.83 890.281 933.519 892.04 929.778C893.822 926.018 880.838 919.612 870.979 919.411C859.638 919.156 846.607 924.595 847.556 929.175C848.112 931.803 847.093 932.461 843.946 931.475C841.215 930.617 838.576 931.493 837.048 933.72C835.683 935.709 833.415 936.731 831.98 936.001C828.693 934.359 808.071 942.133 803.257 946.842C801.267 948.795 796.314 951.769 792.333 953.448C788.329 955.146 784.649 958.686 784.186 961.369C782.983 968.158 772.568 966.844 762.129 958.631C751.436 950.2 745.72 950.437 747.363 959.179C747.502 960.037 744.354 960.219 740.373 959.58C734.819 958.668 731.578 959.69 726.718 963.906C723.2 966.953 717.576 969.454 714.266 969.454C710.979 969.454 707.554 970.458 706.628 971.68C704.499 974.473 688.367 973.651 676.286 970.166C671.194 968.706 662.63 967.465 657.261 967.428C650.919 967.355 646.614 966.041 644.994 963.687C642.656 960.292 642.055 960.292 635.597 963.723C631.802 965.731 628.654 968.103 628.654 968.961C628.654 969.819 614.258 970.494 596.645 970.439C568.339 970.348 564.242 969.874 561.002 966.26C558.942 964.015 557.276 960.913 557.276 959.361C557.276 957.81 554.915 956.551 551.953 956.551C547.648 956.551 546.676 957.755 547.3 962.464C547.925 967.337 546.421 969.034 538.783 972.137C533.691 974.199 525.753 975.896 521.101 975.896C516.472 975.896 511.982 976.754 511.172 977.831C510.362 978.907 507.538 979.309 504.853 978.743C499.206 977.539 486.152 985.806 480.783 993.982C478.769 997.048 475.228 999.585 472.96 999.603C470.645 999.64 465.762 1001.52 462.128 1003.82C458.471 1006.14 453.102 1008.11 450.208 1008.2C446.459 1008.27 442.64 1012.05 437.109 1021.14C432.804 1028.18 428.267 1034.15 427.064 1033.93C423.592 1033.33 406.65 1045.01 401.142 1052.09H200.709C200.821 1045.69 200.232 1039.3 198.95 1032.98C197.561 1026.91 198.14 1025.54 202.792 1024.33C207.375 1023.15 207.838 1022.14 205.523 1018.64C200.501 1010.97 196.566 940.746 200.478 928.372C206.055 910.688 213.091 897.402 217.211 896.745C222.859 895.832 222.882 889.919 217.257 889.919C212.629 889.919 194.344 898.278 192.909 901.07C192.608 901.568 192.141 901.993 191.559 902.298C190.976 902.603 190.299 902.778 189.6 902.804C187.007 902.804 176.615 910.651 176.615 912.586C176.615 913.225 174.232 915.816 171.338 918.353C168.422 920.89 166.061 924.193 166.061 925.708C166.061 927.204 163.631 929.522 160.692 930.818C155.994 932.844 155.531 934.432 157.058 943.849C158.563 953.102 158.007 955.2 153.216 958.832C147.661 963.03 147.615 963.03 144.421 958.869C141.806 955.456 140.186 955.146 135.742 957.044C132.756 958.321 128.544 960.986 126.345 962.957C124.17 964.928 120.189 967.154 117.481 967.976C113.87 969.071 113.014 970.823 114.171 974.6C115.328 978.269 114.426 980.167 111.139 981.243C107.158 982.557 107.436 983.032 113.153 984.894L119.772 987.083L113.824 989.328C110.537 990.569 107.876 992.723 107.876 994.073C107.876 998.107 114.078 1003.42 119.726 1004.22C123.475 1004.75 125.419 1007.21 126.577 1012.98C128.312 1021.67 127.294 1022.91 122.642 1017.73C120.415 1015.64 117.258 1014.32 113.824 1014.02C110.607 1013.82 107.413 1012.41 106.695 1010.9C106.001 1009.37 102.321 1008.13 98.5485 1008.13C94.799 1008.13 92.3456 1009 93.1326 1010.06C97.2523 1015.44 68.8076 1016.16 50.5464 1011.1C37.2845 1007.45 27.0546 1007.01 7.17328 1009.28C-4.5379 1010.61 -5.09338 1010.44 -8.35681 1004C-10.6713 999.494 -12.7543 997.961 -14.7678 999.293C-16.3879 1000.37 -22.0121 1000.86 -27.266 1000.39C-33.6483 1000.04 -40.0493 1000.81 -46.0132 1002.63C-55.2247 1005.77 -56.2894 1008.66 -53.6972 1023.73C-53.5583 1024.62 -50.7115 1025.37 -47.4481 1025.39C-43.4441 1025.41 -42.6109 1025.96 -44.8328 1027.11C-47.1472 1028.31 -47.7027 1031.87 -46.4529 1038.9C-45.6197 1043.55 -45.5966 1048.7 -46.2215 1052.09H-57.7244C-59.4602 1051.18 -62.8162 1044.75 -62.1681 1042.66C-60.548 1037.6 -64.5983 1035.57 -72.9535 1037.27C-77.0038 1038.11 -79.8275 1040.41 -80.3367 1043.26L-81.1468 1047.91L-86.2849 1043.11C-89.3631 1040.25 -95.9594 1037.8 -102.81 1036.96C-109.059 1036.2 -114.22 1034.63 -114.22 1033.44C-114.22 1032.16 -117.947 1031.87 -123.664 1032.75C-130.699 1033.82 -139.471 1032.47 -158.126 1027.43L-183.099 1020.61L-188.283 1025.96C-191.292 1029.06 -197.541 1031.89 -203.327 1032.78C-208.766 1033.6 -218.071 1036.65 -224.042 1039.5C-230.476 1042.56 -239.202 1044.68 -245.312 1044.7C-250.751 1044.72 -260.495 1050.56 -263.249 1052.09H-421.975V196.153C-420.124 194.693 -419.314 193.233 -420.54 192.631C-420.934 192.43 -421.466 192.448 -421.975 192.357V145.089C-420.309 144.468 -419.175 143.209 -418.689 141.201C-418.226 139.303 -419.568 138.464 -421.975 138.044V130.051C-421.397 130.489 -421.443 130.726 -420.702 131.255C-417.23 133.701 -414.384 137.807 -414.361 140.38C-414.291 144.103 -412.74 145.107 -407.07 145.034C-400.867 144.979 -399.988 145.655 -400.983 150.108C-402.024 154.816 -401.446 155.181 -394.225 154.013C-388.601 153.101 -385.869 153.612 -384.805 155.838C-383.717 158.138 -382.097 158.448 -378.602 156.933C-374.621 155.199 -374.043 155.601 -375.2 159.142C-376.588 163.522 -391.239 176.297 -394.85 176.297C-398.368 176.297 -416.906 187.247 -416.906 189.327C-416.906 191.956 -414.87 191.755 -403.668 187.959C-398.483 186.188 -393.091 185.312 -391.702 186.024C-390.313 186.718 -389.156 185.714 -389.156 183.798C-389.156 181.881 -388.184 180.823 -387.004 181.425C-385.846 182.009 -379.944 178.87 -373.973 174.454C-354.948 160.291 -355.689 160.492 -356.522 168.96L-357.24 176.516L-348.745 170.712C-339.95 164.69 -336.317 154.816 -342.913 154.816C-344.95 154.816 -347.843 156.459 -349.324 158.539C-350.805 160.62 -352.055 161.186 -352.101 159.78C-352.057 158.988 -351.784 158.215 -351.302 157.519C-350.821 156.823 -350.144 156.223 -349.324 155.765C-347.773 154.98 -347.195 152.918 -348.028 151.166C-348.861 149.396 -347.148 145.49 -344.232 142.461L-338.932 137.022L-340.599 143.738C-342.52 151.513 -338.585 152.626 -328.818 147.078C-325.531 145.198 -321.203 144.158 -319.213 144.797C-317.199 145.417 -313.913 144.359 -311.992 142.461C-309.237 139.76 -309.214 138.847 -311.807 138.135C-313.635 137.643 -315.139 136.31 -315.139 135.215C-315.139 134.12 -310.395 135.672 -304.609 138.628C-298.637 141.694 -290.12 144.049 -284.959 144.049C-278.64 144.049 -272.183 146.312 -263.758 151.531C-257.069 155.674 -249.409 159.105 -246.631 159.105C-243.53 159.105 -241.053 161.094 -239.989 164.525C-239.063 167.537 -237.373 169.544 -236.216 168.96C-233.624 167.646 -225.269 175.348 -225.269 179.053C-225.269 180.549 -222.885 183.433 -219.968 185.44C-217.075 187.484 -214.645 191.518 -214.645 194.419C-214.645 197.339 -213.071 200.515 -211.104 201.464C-209.16 202.413 -205.457 205.844 -202.888 209.093C-199.185 213.746 -198.861 215.663 -201.314 218.072C-204.438 221.138 -199.462 226.102 -184.025 235.263C-179.558 237.928 -178.956 241.377 -178.655 265.34C-178.331 291.31 -177.961 292.898 -169.86 305.801C-158.913 323.102 -156.714 325.42 -147.549 329.07C-143.267 330.804 -137.342 336.333 -133.87 341.809C-130.491 347.138 -125.585 353.197 -122.992 355.314C-118.965 358.617 -118.826 359.475 -122.09 361.117C-124.196 362.176 -125.376 363.417 -124.682 363.855C-123.988 364.311 -119.59 366.83 -114.845 369.513C-110.101 372.159 -106.907 375.225 -107.717 376.32C-109.476 378.619 -95.9131 388.913 -91.0527 389.022C-89.2011 389.059 -87.7661 387.672 -87.7661 385.956C-87.8277 385.013 -88.1521 384.093 -88.7161 383.26C-89.2802 382.427 -90.07 381.703 -91.0295 381.138C-92.8579 380.189 -97.3712 374.75 -101.005 369.093C-104.639 363.435 -110.263 356.318 -113.549 353.215C-119.984 347.119 -121.071 343.907 -116.766 343.907C-115.285 343.907 -112.878 346.462 -111.443 349.51C-108.596 355.606 -95.5196 369.166 -77.6982 384.514C-69.3198 391.723 -66.7045 395.519 -67.746 398.895C-69.667 405.101 -64.1123 408.824 -38.8383 418.186C-23.0536 424.026 -15.8094 425.614 -9.49091 424.647C-3.05664 423.661 0.669678 424.537 6.45581 428.388C10.6219 431.125 19.3705 434.757 25.8973 436.436C37.1456 439.32 46.6349 445.561 47.0978 450.325C47.3293 453.026 64.6878 462.151 69.5482 462.151C71.5386 462.151 73.9457 463.118 74.8483 464.304C77.3711 467.608 84.1062 466.859 84.1062 463.246C84.1062 461.476 85.842 459.997 87.9482 459.997C91.4662 459.997 92.9011 463.775 95.1924 478.357C95.5859 480.766 92.6465 485.602 88.6657 489.088C84.6848 492.592 81.4214 496.151 81.4214 497.045L77.4868 501.937V508.726C77.4868 512.467 76.561 516.245 75.4732 517.121C71.7701 520.15 73.4828 528.144 78.644 531.94C81.4677 534.02 88.6425 543.748 94.5676 553.603C104.173 569.554 115.352 580.212 122.804 580.431C124.054 580.486 127.734 582.347 130.997 584.556C136.135 588.041 136.969 590.651 136.969 603.627C136.969 611.913 135.21 626.294 133.034 635.565C130.835 644.836 128.984 656.553 128.984 661.663C128.984 666.773 126.716 675.442 123.938 680.972C121.161 686.52 118.221 697.36 117.411 705.044C116.578 712.709 115.143 721.195 114.217 723.86C112.944 727.528 113.639 728.678 117.087 728.678C120.166 728.678 121.161 729.809 120.096 732.091C119.088 734.44 118.526 736.894 118.43 739.373C118.43 741.508 116.069 743.716 113.153 744.337C109.889 745.03 107.876 747.275 107.876 750.213C107.876 753.133 109.149 754.539 111.232 753.9C113.685 753.133 114.31 755.177 113.546 761.528C112.574 769.978 116.833 790.966 120.883 797.481C122.627 799.724 125.084 801.567 128.012 802.829C130.789 804.015 132.71 806.625 132.224 808.596C131.645 810.968 133.451 812.428 137.501 812.976C150.879 814.673 169.579 813.523 170.667 810.914C171.269 809.454 170.274 808.213 168.422 808.213C163.33 808.213 152.8 799.38 152.8 795.072C152.8 792.955 151.388 788.667 149.629 785.528C146.921 780.673 147.083 779.395 150.925 777.132C153.424 775.636 155.484 773.482 155.484 772.333C155.484 771.165 157.799 768.463 160.692 766.346C169.117 760.141 169.88 754.867 162.96 750.104L156.78 745.888L164.048 740.96C168.029 738.259 171.338 734.427 171.338 732.438C171.338 730.466 173.653 727.802 176.523 726.561C182.193 724.097 181.105 717.91 174.995 717.91C172.982 717.91 171.338 717.016 171.338 715.903C171.338 714.808 174.486 714.114 178.351 714.333C184.23 714.662 185.758 713.585 187.679 707.763C189.461 702.325 191.405 700.755 196.358 700.755C211.217 700.755 225.335 690.225 219.942 683.198C215.545 677.468 216.933 675.88 225.497 676.683C232.764 677.376 234.986 676.427 240.217 670.314C243.596 666.371 248.618 661.225 251.35 658.852C260.908 650.622 269.125 638.175 269.125 632.043C269.125 624.013 281.785 615.252 295.972 613.409C304.374 612.314 307.776 610.416 312.498 604.266C320.668 593.644 324.672 583.479 324.672 573.277C324.672 566.25 326.824 562.509 336.661 552.8C347.192 542.397 348.627 539.842 347.955 532.177C347.331 525.425 345.942 523.289 341.868 522.687C338.952 522.267 332.981 519.749 328.607 517.102C324.255 514.438 315.136 511.646 308.332 510.897C301.527 510.167 292.038 507.631 287.201 505.24L278.406 500.878L261.117 497.009L261.603 496.644C261.464 496.589 259.867 496.571 259.913 496.516C260.839 495.33 259.496 490.53 256.951 485.858C254.521 481.342 250.446 477.497 245.242 474.81C240.038 472.123 233.939 470.715 227.719 470.765C220.544 470.765 213.323 466.914 194.969 453.245C188.489 448.427 185.017 447.551 172.01 447.66C163.585 447.715 153.957 446.638 150.647 445.196C147.361 443.755 142.361 443.189 139.514 443.919C136.668 444.667 134.284 444.32 134.284 443.189C134.284 439.338 111.972 445.324 106.348 450.671C101.65 455.161 99.8677 455.544 93.7806 453.664C91.6216 452.905 89.2742 452.537 86.9109 452.587C84.5477 452.638 82.2288 453.106 80.1252 453.956C70.0342 457.68 62.8825 449.941 62.8825 435.213C62.8825 422.603 61.1698 421.307 44.2279 421.307C34.646 421.307 34.1137 420.996 36.2198 416.489C39.599 409.189 44.4362 396.505 44.4362 394.862C44.4362 392.307 27.124 393.293 22.6802 396.085C20.0721 397.91 18.2583 400.337 17.4958 403.02C16.1302 409.444 -2.10773 411.433 -8.8891 405.904C-17.1981 399.151 -19.5356 391.176 -17.6378 376.174C-16.0176 363.581 -15.0225 361.811 -7.52356 357.887C-1.55225 354.784 3.05353 353.927 8.724 354.931C24.3698 357.705 31.1743 357.157 29.369 353.288C27.8646 350.112 29.4153 349.875 43.0244 351.171C60.6143 352.85 62.8825 353.708 62.8825 358.307C62.8825 362.267 73.6216 378.327 76.2601 378.327C77.2785 378.327 79.6855 376.867 81.5602 375.024C84.3376 372.286 84.1756 369.64 80.5651 360.314C78.1348 354.073 76.1444 347.484 76.1444 345.714C76.1444 342.411 83.3655 336.607 100.747 326.004C108.015 321.587 110.352 318.868 109.218 315.966C108.339 313.703 110.491 307.316 114.217 301.329C117.851 295.489 120.235 290.233 119.425 289.576C117.944 288.39 135.441 283.791 141.574 283.773C145.694 283.754 145.972 280.123 141.922 279.028C136.02 277.422 142.454 268.99 151.457 266.563C156.387 265.249 161.016 263.022 161.71 261.617C162.405 260.193 163.076 261.708 163.192 264.957C163.423 271.399 167.265 272.476 173.792 267.986C176.106 266.398 182.078 263.789 187.169 262.183C199.621 258.204 203.764 254.572 201.727 249.371C199.783 244.389 195.571 243.732 193.534 248.075C192.655 249.937 189.947 250.557 186.336 249.791C177.009 247.82 173.884 243.914 175.69 236.65C177.217 230.372 176.824 230.026 169.001 230.026C164.464 230.026 160.761 229.022 160.761 227.836C160.761 224.642 169.603 225.281 175.458 228.894C178.812 230.776 182.762 231.888 186.869 232.106C191.914 232.161 192.539 231.559 190.086 229.186C187.655 226.795 188.512 225.938 194.391 224.751C198.418 223.93 203.833 221.685 206.379 219.824C213.485 214.622 215.151 218.4 209.689 227.343C207.004 231.759 204.366 237.599 203.834 240.264C203 244.498 204.019 245.046 212.073 245.046C217.119 245.046 221.979 246.049 222.905 247.254C223.807 248.458 225.636 248.896 226.955 248.239C228.297 247.582 231.746 248.039 234.616 249.298C238.805 251.123 240.356 250.758 242.462 247.582C245.286 243.275 243.527 234.314 239.847 234.314C238.62 234.314 238.25 232.891 239.106 231.121C240.078 229.04 239.037 227.836 236.19 227.836C228.529 227.836 223.553 222.142 226.839 217.141C228.992 213.856 228.899 212.816 226.423 212.816C224.201 212.816 224.016 212.104 225.844 210.607C229.432 207.687 227.163 195.642 223.021 195.642C221.238 195.642 218.461 193.306 216.841 190.441C215.244 187.594 211.286 184.546 208 183.688C198.881 181.352 195.872 178.031 189.715 163.12C186.614 155.583 182.425 147.881 180.365 146.02C178.328 144.158 176.615 141.494 176.615 140.107C176.615 135.106 168.723 137.734 166.987 143.319C165.879 146.697 163.971 149.88 161.363 152.699C157.706 156.167 157.128 156.167 152.128 152.115C148.888 149.469 146.574 144.395 146.18 139.085C145.717 132.825 144.352 130.27 141.111 129.868C138.658 129.576 133.52 126.583 129.701 123.225C124.401 118.571 120.212 117.111 111.995 116.965C106.07 116.856 99.4974 116.399 97.2986 115.907C93.989 115.177 93.4335 117.732 93.989 131.675C94.5444 145.29 93.9427 148.337 90.6793 148.337C85.5411 148.337 85.5411 154.542 90.6329 156.148C93.9658 157.189 99.8677 169.088 99.8908 174.873C99.8908 175.877 96.3729 179.418 92.0217 182.721C84.6154 188.342 84.2451 189.346 86.3512 198.471C89.4526 212.013 85.9114 215.699 77.3942 207.87C72.5107 203.362 70.8443 199.402 70.8443 192.284C70.8443 183.177 70.5203 182.703 63.2529 182.703C54.9439 182.703 47.8385 180.148 34.16 172.19C29.2996 169.362 21.9628 166.934 17.8661 166.807C11.6865 166.624 10.1127 165.438 8.83972 159.853C7.84448 155.601 5.36798 152.699 2.05835 152.006C-8.42621 149.779 -2.40857 130.58 12.3114 119.283C16.894 115.779 20.6435 111.673 20.6435 110.176C20.6435 108.68 24.4161 105.54 29.045 103.241C33.674 100.96 39.0435 96.8898 40.9182 94.1705L44.3205 89.2065L43.5567 94.0063C43.1401 96.6343 41.9597 99.4814 40.9645 100.303C37.3308 103.223 39.3212 106.508 46.2878 109.118C52.4905 111.472 54.0875 111.216 59.1794 107.329C62.9288 104.464 65.6136 103.679 66.7477 105.175C68.9233 108.059 80.5419 108.242 82.6712 105.431C83.5507 104.281 81.838 102.109 78.8755 100.613C75.913 99.0981 73.5059 96.6526 73.5059 95.1561C73.5059 93.6595 72.5801 92.4915 71.4923 92.4915C70.3814 92.4915 64.7109 88.9875 58.9016 84.7534C49.204 77.6723 48.9031 77.1248 55.0596 77.9278C66.4931 79.3878 74.7557 69.2407 75.1492 53.1622C75.3807 43.1793 74.3854 39.2372 71.1683 37.3209C65.359 33.8716 68.6224 31.8459 79.9401 31.8459C85.1245 31.8459 90.0775 30.8786 90.957 29.7289C93.5029 26.3708 101.164 37.0837 100.261 42.7413C99.59 46.9023 100.377 47.6324 104.103 46.4826C110.121 44.6028 123.707 54.9507 123.707 61.393C123.707 63.9481 121.3 68.6201 118.291 71.7227C115.282 74.8253 113.662 78.4753 114.68 79.7893C117.365 83.3116 110.561 85.9032 102.182 84.5344C95.9331 83.5124 94.637 84.1877 93.0631 89.316C90.9338 96.2146 97.7847 101.963 104.959 99.3171C114.495 95.7583 121.901 98.8609 128.683 109.172C130.852 112.066 134.295 114.229 138.357 115.25C141.945 115.98 144.884 117.367 144.884 118.352C144.884 119.319 147.569 120.725 150.832 121.509C167.589 125.415 166.872 125.525 165.483 119.575C164.742 116.472 165.159 113.936 166.409 113.936C167.658 113.936 168.654 114.976 168.654 116.272C168.654 117.549 170.112 118.188 171.917 117.713C179.948 115.523 173.445 90.3015 164.835 90.3015C159.974 90.3015 157.521 84.2789 160.646 79.9353C162.034 77.9643 163.284 77.3803 163.33 78.6943C163.446 81.8516 175.597 92.4915 179.115 92.4915C180.643 92.4915 181.892 91.2505 181.939 89.7722C181.985 88.3122 184.346 84.6621 187.169 81.7238C194.552 74.0587 193.789 71.3029 181.892 62.3786C176.106 57.9985 172.264 53.6732 173.329 52.7059C174.44 51.7386 173.213 51.5379 170.667 52.2862C168.121 53.0162 166.038 52.7424 166.038 51.6839C166.038 50.6071 163.678 49.1654 160.761 48.3989C154.258 46.7198 153.98 43.3435 160.09 39.584C163.215 37.6677 163.608 36.6639 161.247 36.6274C159.141 36.5909 158.331 35.0944 159.257 32.7584C160.599 29.2908 153.864 21.8995 141.829 13.7233C138.832 11.5168 136.047 9.13774 133.497 6.60573C130.905 4.03244 127.34 2.28041 125.605 2.75491C122.411 3.61269 108.13 -9.89252 107.968 -13.9258C107.922 -15.1121 105.191 -18.6344 101.928 -21.7735C94.3361 -29.0188 71.0989 -31.8111 59.3182 -26.8288C52.6526 -24.0182 51.9583 -24.0183 53.3007 -26.8653C54.4579 -29.3291 52.7914 -30.0773 46.1489 -30.0773C32.401 -30.0773 24.5087 -21.2442 21.6619 -2.66544C19.8103 9.37975 29.4847 25.8233 38.3954 25.8233C49.1577 25.8233 52.9072 37.6312 46.1952 50.2786C43.765 54.8412 41.7283 59.6958 41.7283 61.0463C41.7051 62.4151 40.6868 62.1413 39.3444 60.444C38.0483 58.8015 37.0299 54.0565 37.0299 49.9501C37.0299 40.46 30.642 34.6199 24.717 38.6349C21.2452 40.9892 20.6435 40.7155 20.6435 36.8282C20.6435 34.0541 18.9539 32.2656 16.3386 32.2656C13.0289 32.2656 12.7512 31.6086 15.0425 29.3456C17.3107 27.119 16.7552 25.148 12.728 20.9687C9.81177 17.9574 7.42792 13.8876 7.42792 11.9348C7.16949 9.25085 6.24139 6.63354 4.69684 4.23318C1.27142 -0.968155 4.14136 -10.732 9.0943 -10.732C11.1542 -10.732 14.0935 -13.3783 15.6674 -16.6269C17.2502 -19.8917 18.9951 -23.1062 20.8981 -26.263C24.7401 -32.3221 23.8143 -33.5632 13.353 -36.1182C9.258 -37.2642 4.91614 -37.7604 0.577087 -37.5782C-9.6297 -36.7204 -12.4997 -28.7085 -9.83801 -11.462C-8.5188 -2.8114 -9.05115 1.49565 -11.9211 5.03621C-14.0041 7.66425 -15.8325 14.0336 -15.9251 19.1436C-16.0408 26.5715 -14.6984 29.3638 -9.21313 33.1964C-5.44055 35.8609 -3.14923 39.1095 -4.1676 40.4235C-5.32483 41.9382 -9.16681 40.0037 -14.6753 35.1126L-23.3545 27.3745L-29.1407 35.3134C-35.8989 44.6576 -35.9915 45.1685 -31.27 45.1685C-28.9555 45.1685 -28.1454 46.9206 -28.9092 50.1327C-29.835 54.093 -31.8255 55.1332 -39.0698 55.2975C-44.0459 55.4252 -48.7905 54.6039 -49.5774 53.5454C-50.3875 52.4869 -53.2343 51.6109 -55.8959 51.6109C-73.1156 44.9131 -80.383 52.4504 -86.2386 55.9362C-88.3448 55.9362 -90.8444 54.9325 -91.747 53.7462C-92.8348 52.3044 -95.0104 52.3044 -98.3201 53.7462C-101.051 54.9325 -107.856 55.8997 -113.41 55.8632C-122.321 55.8085 -122.969 55.4435 -118.919 52.9432C-116.535 51.4832 -115.054 49.9501 -115.378 49.3844L-120.354 43.3435C-123.002 41.7527 -126.236 40.8876 -129.565 40.8798C-133.06 40.8798 -142.04 38.3612 -149.47 35.3134C-157.339 32.1196 -165.671 30.2033 -169.374 30.7873C-173.957 31.5173 -176.017 30.6779 -176.966 27.7213C-178.794 22.0272 -181.479 22.6842 -184.603 29.5828L-187.358 35.4959L-191.732 27.2285C-194.301 22.3922 -197.472 19.4357 -199.439 20.0197C-201.291 20.5672 -202.448 22.1549 -202.031 23.5785C-201.568 25.2575 -203.189 25.6773 -206.73 24.7647C-210.525 23.7975 -216.913 25.951 -228.254 32.1196C-246.4 41.9748 -251.445 42.7412 -258.25 36.6274C-260.842 34.2731 -266.975 31.7363 -271.905 30.9881C-276.789 30.2581 -281.487 28.7798 -282.274 27.7213C-283.061 26.681 -288.292 25.8233 -293.823 25.8233C-299.378 25.8233 -308.196 24.3633 -313.427 22.593C-318.974 20.758 -324.873 19.6722 -330.878 19.3809C-335.275 19.3809 -338.932 18.4319 -338.932 17.2821C-338.932 16.1141 -342.172 14.5446 -346.2 13.7598C-351.101 12.7107 -355.86 11.2865 -360.41 9.50751C-366.567 6.98897 -367.932 7.13498 -372.098 10.8763C-374.691 13.2123 -378.116 14.8914 -379.713 14.6723C-386.24 13.7416 -402.348 24.345 -406.746 32.4299C-410.449 39.2372 -412.694 40.8798 -418.434 40.8798C-419.962 40.8798 -420.864 41.2812 -421.952 41.555L-421.975 -136.586ZM89.1054 -122.369C87.3976 -122.279 85.7221 -121.958 84.1525 -121.42C69.8954 -119.631 52.4905 -118.828 44.2742 -116.638C37.0994 -114.722 31.2437 -106.345 31.2437 -105.597C31.2437 -104.849 32.9564 -101.582 35.0394 -98.3516C38.3723 -93.1685 38.326 -92.402 34.8774 -92.402C32.7018 -92.402 29.4385 -89.4272 27.5637 -85.8319C24.5549 -79.9553 23.768 -79.6451 20.5972 -82.7659C19.5115 -83.7997 18.0763 -84.5695 16.4582 -84.9862C14.8401 -85.4029 13.1053 -85.4494 11.4551 -85.1202C7.75189 -84.3537 4.85883 -85.3574 2.68323 -88.1862C0.484497 -91.0697 -3.4964 -92.3838 -9.81488 -92.3838C-20.8086 -92.3838 -21.8038 -88.7337 -13.4255 -79.1341C-9.14374 -74.243 -6.38947 -73.0385 -1.82996 -73.9693C5.06714 -75.3745 7.33527 -71.177 7.38159 -56.668C7.42786 -47.5063 10.159 -44.2213 19.3011 -42.378H19.3474C26.1057 -41.0275 75.9592 -40.918 80.2642 -42.232C82.0463 -42.7795 82.9258 -45.1156 82.1852 -47.4151C81.8342 -48.6304 81.7988 -49.8892 82.0812 -51.1155C82.3636 -52.3419 82.958 -53.5105 83.8284 -54.5509C88.1102 -58.7485 84.9162 -63.6396 76.0981 -66.6144C69.8953 -68.6949 66.0302 -68.5124 55.2448 -65.5924C42.8624 -62.2526 41.3811 -62.2526 32.725 -65.5924C24.3929 -68.8044 23.8375 -69.5344 27.448 -72.4545C30.5031 -74.9365 34.6229 -75.3928 44.5751 -74.316C51.7731 -73.5495 57.6518 -73.6772 57.6518 -74.608C57.6518 -75.5205 61.841 -76.36 67.0023 -76.4695C73.8068 -76.6155 76.0056 -75.8855 75.0103 -73.7867C73.043 -69.6257 78.1812 -70.2462 88.5268 -75.4293C95.0536 -78.7143 97.3449 -81.2693 96.72 -84.5909C96.2571 -87.1094 94.4287 -88.9345 92.6465 -88.6425C88.3185 -87.9124 89.6146 -92.2013 95.2388 -97.0011C97.7615 -99.1546 99.1733 -102.294 98.3865 -104.009C97.4144 -106.053 98.8956 -107.385 102.807 -107.842C106.07 -108.225 109.241 -109.74 109.843 -111.218C110.584 -113.043 100.585 -122.953 89.1054 -122.369ZM-109.615 -117.514C-121.071 -117.387 -124.774 -112.368 -124.774 -110.233C-124.774 -108.645 -122.715 -106.674 -120.169 -105.907C-117.623 -105.141 -114.012 -102.75 -112.114 -100.596C-108.064 -96.0338 -108.573 -96.1251 -99.5468 -98.9174C-93.8995 -100.651 -92.696 -102.148 -93.668 -106.327C-94.3624 -109.229 -93.6449 -112.021 -92.0248 -112.55C-90.4046 -113.098 -98.1581 -117.66 -109.615 -117.514ZM-40.3659 -116.328C-52.7714 -115.835 -54.4841 -112.131 -50.8504 -108.59C-47.7953 -105.597 -35.7369 -105.36 -30.2979 -108.152C-23.6554 -111.565 -27.9603 -116.803 -40.3659 -116.328ZM-14.6753 -116.219C-24.234 -116.219 -24.6738 -113.591 -21.3409 -110.16C-19.3505 -108.116 -15.3464 -104.757 -12.4302 -102.713C-6.01917 -98.1873 3.65527 -97.7311 5.59943 -101.856C7.38159 -105.633 5.27539 -107.458 -0.881042 -107.458C-4.02875 -107.458 -5.11652 -108.554 -4.12134 -110.689C-2.91779 -113.244 -5.11652 -116.219 -14.6753 -116.219ZM647.031 -113.901C628.839 -113.901 628.376 -113.718 630.182 -109.046C631.2 -106.382 633.19 -103.881 634.602 -103.443C636.222 -102.951 636.153 -102.075 634.371 -101.199C630.667 -99.3189 633.63 -90.2485 637.958 -90.2485C639.81 -90.2485 642.078 -87.8759 642.98 -84.9012C645.712 -76.068 651.127 -78.7508 655.918 -91.4165C658.395 -97.9684 660.432 -104.739 660.432 -106.473C660.432 -108.189 661.589 -109.594 663.024 -109.594C663.74 -109.603 664.423 -109.834 664.925 -110.237C665.427 -110.64 665.709 -111.182 665.708 -111.747C665.708 -112.97 657.701 -113.901 647.008 -113.901H647.031ZM682.373 -113.901C675.73 -113.901 674.92 -113.116 674.758 -106.363C674.619 -100.377 675.591 -98.8444 679.549 -98.8444C682.28 -98.8444 683.808 -97.8771 682.905 -96.6908C679.503 -92.2378 688.853 -94.7928 694.801 -99.9759L701.05 -105.341L695.357 -109.63C691.753 -112.154 687.183 -113.657 682.373 -113.901ZM1144.39 -113.901C1141.38 -113.901 1138.92 -112.934 1138.92 -111.747C1138.92 -108.955 1146.08 -108.955 1148.18 -111.747C1149.11 -112.934 1147.4 -113.901 1144.39 -113.901ZM-71.5186 -108.481C-72.0278 -108.061 -71.0094 -104.21 -69.2736 -99.9211C-65.8713 -91.5443 -59.5759 -90.796 -60.71 -98.8809C-61.3581 -103.316 -69.2273 -110.324 -71.5186 -108.481ZM-132.019 -104.192C-133.13 -104.429 -134.194 -103.881 -135.699 -102.549C-137.62 -100.888 -140.999 -99.8664 -143.221 -100.323C-145.582 -100.797 -149.863 -98.0049 -153.52 -93.5883C-156.946 -89.4455 -162.547 -83.6236 -165.949 -80.6306C-172.638 -74.7723 -172.082 -68.9504 -164.884 -69.1877C-161.896 -69.1745 -158.937 -68.7227 -156.159 -67.8554C-153.219 -66.8334 -150.048 -68.2204 -146.183 -72.2172C-141.832 -76.6885 -139.772 -77.4733 -137.388 -75.557C-135.028 -73.6225 -135.166 -73.0567 -137.944 -73.0567C-141.878 -73.0567 -151.229 -66.9429 -151.229 -64.3696C-151.229 -61.3035 -142.388 -60.0078 -140.05 -62.7453C-138.43 -64.6069 -138.129 -64.0958 -139.124 -61.121C-140.281 -57.7995 -138.592 -55.792 -132.065 -52.6894C-127.344 -50.4446 -121.881 -46.8493 -119.984 -44.6958C-115.563 -39.6952 -107.647 -39.7135 -98.783 -44.8053C-92.3719 -48.4919 -83.0909 -50.4811 -63.2791 -52.4339C-60.3891 -52.7066 -57.5102 -53.0474 -54.6461 -53.4559C-53.8592 -53.6202 -54.5998 -55.8102 -56.2894 -58.3835C-59.3214 -62.9826 -59.4602 -62.9826 -63.3254 -58.9128C-67.1211 -54.9342 -67.2599 -54.989 -65.7787 -59.9713C-63.6957 -67.1619 -68.1858 -73.0567 -75.8698 -73.0567C-80.2673 -73.0567 -81.8874 -73.9693 -80.9153 -76.0498C-80.1284 -77.6923 -80.7302 -79.6998 -82.2114 -80.4299C-83.7159 -81.1964 -84.2945 -83.1126 -83.5075 -84.7369C-81.0542 -89.92 -87.3033 -90.4857 -92.9043 -85.5764C-98.8524 -80.3933 -99.8477 -76.214 -95.6353 -74.1152C-94.1541 -73.367 -93.7838 -71.7427 -94.7095 -70.5199C-95.6353 -69.2972 -94.7327 -67.4357 -92.7422 -66.4137C-89.9649 -64.9719 -90.3583 -64.5156 -94.3855 -64.4973C-97.51 -64.4973 -101.537 -67.1071 -104.199 -70.9032C-106.675 -74.4437 -110.54 -77.3456 -112.762 -77.3456C-115.031 -77.3456 -116.859 -78.3128 -116.859 -79.4991C-116.859 -83.1309 -127.043 -81.8716 -129.889 -77.8566C-132.343 -74.4255 -132.574 -74.4255 -132.667 -77.7653C-132.69 -79.7728 -131.44 -82.0359 -129.843 -82.8389C-128.223 -83.6237 -127.436 -86.5619 -128.084 -89.336C-128.732 -92.11 -128.084 -94.7381 -126.58 -95.1396C-124.89 -95.5958 -125.423 -97.7676 -127.992 -100.742C-129.797 -102.823 -130.931 -103.918 -132.019 -104.192ZM164.835 -103.133C167.103 -103.133 168.26 -102.166 167.358 -100.98C166.432 -99.7934 164.58 -98.8444 163.238 -98.8444C161.849 -98.8444 160.761 -99.8116 160.761 -100.98C160.761 -102.166 162.567 -103.133 164.835 -103.133ZM950.203 -90.1208C946.338 -89.8105 941.477 -87.5657 936.177 -83.3864C929.419 -78.0573 925.253 -76.5425 917.777 -76.7068C909.607 -76.8893 906.321 -75.411 895.998 -66.7604C889.286 -61.1575 881.81 -55.9927 879.38 -55.281C876.464 -54.4232 875.446 -52.4339 876.371 -49.5504C877.181 -47.0866 875.307 -41.794 872.136 -37.4139C869.034 -33.1434 866.812 -28.5443 867.16 -27.1938C867.507 -25.825 865.678 -22.102 863.086 -18.9447C860.494 -15.8056 858.573 -11.9001 858.851 -10.3306C859.777 -4.74596 858.642 -1.88066 856.073 -3.19467C854.569 -3.94293 853.389 -2.11792 853.389 1.00288C853.389 5.03619 854.801 6.47798 858.666 6.47798C862.184 6.47798 864.498 8.41251 865.702 12.3911C866.674 15.6396 868.525 18.8882 869.868 19.5999C872.969 21.2607 888.152 21.6074 891.161 20.0927C892.434 19.4539 890.952 16.7346 887.897 14.0701C878.408 5.85745 878.246 -3.81519 887.388 -19.7294C891.855 -27.4675 897.849 -36.0817 900.743 -38.8922C903.636 -41.721 909.723 -47.6523 914.305 -52.0507C919.166 -56.7592 929.118 -62.4716 938.376 -65.8479C955.457 -72.0712 960.502 -77.017 958.026 -85.0837C956.868 -88.752 954.045 -90.4128 950.203 -90.1208ZM-119.729 -89.6645C-120.682 -89.6539 -121.612 -89.4326 -122.414 -89.0257C-124.45 -88.0037 -124.265 -86.9635 -121.789 -85.6859C-117.067 -83.2587 -114.22 -83.3134 -114.22 -85.8137C-114.22 -88.0585 -116.952 -89.701 -119.729 -89.6462V-89.6645ZM-27.1502 -85.8502C-27.9834 -85.8867 -28.4926 -85.3392 -28.9555 -84.2442C-29.8119 -82.1819 -31.0386 -82.0724 -33.6076 -83.8244C-37.2645 -86.2882 -48.1193 -82.5469 -48.1193 -78.8238C-48.1193 -77.8383 -49.9709 -78.5318 -52.2853 -80.4116C-58.5344 -85.5034 -63.4874 -84.5909 -63.0476 -78.4041C-62.6773 -72.929 -55.8728 -69.4432 -50.7115 -72.0165C-48.86 -72.9472 -48.5359 -71.396 -49.7163 -67.5269C-51.3596 -62.1796 -50.9661 -61.7598 -45.0874 -62.6723C-39.2549 -63.5849 -38.7226 -63.0556 -39.6947 -57.617C-40.7362 -51.8134 -40.3196 -51.5579 -30.2979 -51.5579H-19.7671L-19.3042 -66.2676C-18.9108 -77.8018 -19.8134 -81.6344 -23.3082 -83.9886C-25.1135 -85.1932 -26.317 -85.8137 -27.1734 -85.8502H-27.1502ZM436.877 -85.0837C437.757 -84.5909 438.22 -82.7659 439.331 -78.9698C441.321 -72.2537 438.173 -71.3412 431.6 -76.6703C427.434 -80.0649 427.48 -80.4481 431.901 -83.0762C434.678 -84.7187 435.998 -85.5764 436.877 -85.0837ZM1368.84 -73.951C1360.63 -72.2172 1355.03 -59.2413 1362.27 -50.2621C1366.09 -45.5171 1368.06 -44.8601 1375.16 -46.0646C1379.74 -46.8493 1386.64 -47.4881 1390.51 -47.4881C1394.37 -47.4698 1400.69 -49.8241 1404.51 -52.7259C1412.52 -58.7485 1416.54 -59.4238 1416.54 -54.7334C1416.54 -49.8424 1434.13 -43.6008 1439.78 -46.5026C1446.73 -50.0614 1445.11 -54.6057 1436.33 -56.1387C1431.98 -56.887 1429.62 -57.6718 1431.06 -57.8907C1435.38 -58.5478 1423.72 -61.9788 1416.57 -62.1431C1412.93 -62.2343 1404.63 -65.2091 1398.12 -68.7132C1387.96 -74.1882 1385.95 -74.608 1383.98 -71.761C1381.92 -68.7862 1381.18 -68.8227 1376.85 -71.9982C1375.65 -72.9348 1374.16 -73.6132 1372.52 -73.9693C1371.32 -74.2215 1370.05 -74.2215 1368.84 -73.9693V-73.951ZM1353.11 -68.7314C1351.65 -68.7314 1350.44 -65.8661 1350.44 -62.3256C1350.44 -58.785 1351.65 -55.8467 1353.08 -55.8467C1354.54 -55.8467 1355.74 -58.7668 1355.74 -62.3256C1355.74 -65.8661 1354.54 -68.7132 1353.08 -68.7132L1353.11 -68.7314ZM-7.61615 -64.4426C-9.58344 -64.4426 -12.5691 -62.0153 -14.2355 -59.0588C-16.8278 -54.4232 -16.3648 -52.8902 -11.0416 -48.2911C-4.02875 -42.2138 -4.93134 -42.524 0.577087 -44.2396C9.44147 -47.0136 2.38239 -64.4426 -7.61615 -64.4426ZM-160.371 -44.5498C-163.83 -44.8538 -167.329 -44.7306 -170.74 -44.1848C-182.428 -42.743 -182.497 -42.6883 -180.183 -36.1182C-178.725 -31.9754 -178.864 -27.9786 -180.553 -25.4235C-182.034 -23.1787 -183.701 -18.6709 -184.303 -15.4771C-184.904 -12.2468 -186.154 -7.44701 -187.126 -4.81897C-188.33 -1.42441 -187.566 0.382385 -184.488 1.34966C-182.081 2.07967 -178.308 5.56546 -176.063 9.08777C-172.452 14.7818 -171.527 15.1469 -167.569 12.3728C-165.116 10.6938 -161.019 8.68625 -158.473 7.95624C-155.927 7.22623 -153.867 4.67119 -153.867 2.33514C-153.867 -0.037384 -151.183 -3.08517 -147.919 -4.45395C-143.012 -6.51624 -142.55 -6.46146 -145.281 -4.10718C-149.215 -0.712631 -149.632 6.47798 -145.906 6.47798C-144.447 6.47798 -143.313 8.32126 -143.313 10.6025C-143.313 18.5414 -140.189 21.498 -131.741 21.6805L-123.478 21.8812L-130.723 24.0347C-134.727 25.221 -138.036 26.9913 -138.036 27.9768C-138.036 33.0321 -134.032 36.6274 -125.909 38.7992C-120.932 40.1315 -116.859 42.3033 -116.859 43.6173C-114.012 50.0779 -107.416 46.8658 -102.532 48.0886C-98.4358 47.9973 -96.1908 48.2529 -93.8532 48.5084C-84.9922 46.6274 -76.1581 44.6684 -67.3525 42.6318C-66.5425 42.65 -58.6039 44.5663 -55.8497 45.1868C-48.4434 45.1868 -41.4999 40.533 -44.8328 37.8137C-45.9206 36.9559 -44.717 35.3134 -42.148 34.1637C-39.6021 33.0139 -37.5422 30.5683 -37.5422 28.7433C-37.5422 25.0932 -47.6564 17.4281 -52.5862 17.3186C-54.299 17.2822 -56.4051 15.0556 -57.2846 12.3911C-58.774 8.02798 -60.3248 3.67805 -61.9367 -0.657883C-64.1817 -6.75348 -64.2512 -11.2065 -62.0756 -17.7949C-60.4554 -22.686 -59.6685 -27.4675 -60.3629 -28.38C-62.631 -31.3366 -74.6894 -30.1686 -76.2632 -26.8288C-77.0965 -25.0585 -79.4341 -23.5985 -81.4476 -23.5985C-83.6232 -23.5985 -85.1508 -21.3902 -85.1508 -18.1781C-85.1508 -12.8856 -85.3128 -12.8491 -91.747 -16.2801C-97.9266 -19.5652 -98.3664 -19.5469 -98.3664 -16.0611C-98.3664 -12.5936 -98.783 -12.5936 -105.032 -15.9334C-108.735 -17.8862 -112.901 -18.8899 -114.29 -18.1781C-115.725 -17.4664 -116.836 -17.8132 -116.836 -18.9082C-116.836 -20.0032 -121.627 -25.1498 -127.482 -30.3146C-134.704 -36.7569 -139.818 -39.4762 -143.568 -39.0017C-146.6 -38.6185 -151.275 -39.9507 -153.983 -41.9583C-155.71 -43.3382 -157.946 -44.2518 -160.371 -44.5681V-44.5498ZM1382.36 -39.9872C1381.92 -40.1239 1381.44 -40.1784 1380.97 -40.1468C1380.49 -40.1151 1380.04 -39.9981 1379.63 -39.8047C1377.73 -38.8557 1377.2 -35.8444 1378.24 -31.9936C1379.31 -28.1245 1378.87 -25.7885 1377.08 -25.7885C1372.45 -25.7885 1373.84 -21.8829 1378.87 -20.8244C1381.41 -20.2769 1387.36 -19.7294 1392.06 -19.5834C1398.7 -19.4009 1400.67 -20.1857 1400.67 -23.1787C1400.68 -24.3531 1400.39 -25.5174 1399.83 -26.6051C1399.27 -27.6929 1398.44 -28.6827 1397.4 -29.5182C1396.35 -30.3537 1395.1 -31.0184 1393.73 -31.4745C1392.36 -31.9305 1390.89 -32.1689 1389.4 -32.1761C1386.69 -32.1761 1385.04 -32.9609 1385.76 -33.9099C1387.38 -36.0087 1385.07 -39.239 1382.36 -39.9872ZM-16.1102 -32.0666L-26.1319 -31.9754C-45.3883 -31.7016 -47.4713 -29.9861 -40.713 -20.0032C-36.6396 -13.9806 -36.6627 -11.2796 -40.713 -14.5829C-45.3882 -18.3789 -50.8041 -17.7219 -50.7115 -13.3966C-50.5958 -8.85226 -44.6476 -2.09967 -40.7593 -2.09967C-39.2318 -2.09967 -36.3849 0.78389 -34.464 4.3427C-30.3673 11.8436 -26.2476 12.4276 -18.5173 6.58746C-11.9211 1.58688 -10.2084 -9.67354 -15.3928 -13.8893C-17.8229 -15.8604 -18.5635 -19.4557 -17.5915 -24.4745L-16.1102 -32.0666ZM1198.64 -27.2486C1198.41 -26.7558 1197.09 -25.6608 1194.7 -23.9087C1187.16 -18.4154 1186.56 -18.3424 1186.56 -22.54C1186.56 -24.3102 1187.6 -25.7703 1188.92 -25.7703C1190.26 -25.7703 1193.55 -26.409 1196.23 -27.1755C1198.04 -27.723 1198.87 -27.7596 1198.64 -27.2486ZM1617.65 4.72594C1611.72 3.99593 1604.48 9.32503 1604.32 14.5264C1604.2 17.7202 1619.52 18.1399 1625.38 15.0921C1630.7 12.3363 1625.75 5.69321 1617.65 4.72594ZM981.795 12.5006C982.096 12.2451 982.49 12.3728 982.906 12.9203C984.295 14.6906 984.665 21.6075 983.809 28.2871C982.513 38.3795 982.976 40.5695 986.494 41.19C989.132 41.6645 989.965 42.942 988.692 44.6028C984.11 50.5524 980.268 42.066 980.314 25.9328C980.314 17.6654 980.846 13.2671 981.795 12.5006ZM1039.4 14.0701C1039.8 13.7416 1040.21 14.3621 1040.61 15.8403C1041.16 18.0304 1040.44 20.7679 1039.03 21.9177C1037.39 23.2682 1037.02 21.8447 1038.01 17.9391C1038.57 15.6943 1038.99 14.3986 1039.4 14.0701ZM840.937 33.1781C839.687 33.1599 838.53 33.9264 836.539 35.5507C832.072 39.1825 831.008 43.4348 833.993 45.8803C837.095 48.3988 841.863 47.4498 846.399 43.38C850.519 39.6935 850.472 39.1825 845.82 35.7514C843.506 34.0541 842.187 33.1964 840.96 33.1781H840.937ZM106.834 49.8224C101.048 48.9099 97.3449 52.7972 97.2986 59.8418C97.2755 64.0028 98.4559 64.6964 104.566 64.1306C110.676 63.5648 111.857 62.4333 111.857 57.013C111.857 52.4504 110.375 50.3699 106.834 49.8224ZM985.591 51.6109C989.317 51.6109 988.878 55.1332 984.202 62.488C981.98 65.9556 979.62 68.8027 978.925 68.8027C976.541 68.8027 977.676 62.6341 980.314 61.32C981.772 60.59 982.953 58.0898 982.953 55.7902C982.953 53.5089 984.133 51.5927 985.591 51.5927V51.6109ZM-421.975 54.5309C-420.355 56.064 -419.337 57.3597 -416.675 59.4585C-410.171 64.6051 -403.668 68.8027 -402.279 68.8027C-400.89 68.8027 -399.733 70.7372 -399.733 73.1097C-399.733 75.4823 -401.492 77.435 -403.714 77.435C-404.786 77.4159 -405.806 77.064 -406.551 76.4558C-407.296 75.8476 -407.707 75.0322 -407.695 74.1865C-407.713 73.3216 -408.163 72.4973 -408.948 71.8925C-409.732 71.2877 -410.787 70.9513 -411.884 70.9562C-414.754 70.9562 -418.48 72.2702 -421.975 73.9492V54.5309ZM973.463 70.1167C974.435 70.2627 975.037 70.6277 975.037 71.1752C975.037 72.2337 972.653 73.1097 969.76 73.1097C966.844 73.1097 964.437 72.7447 964.437 72.2885C964.437 71.8322 966.844 70.9745 969.76 70.3539C970.958 70.065 972.222 69.9841 973.463 70.1167ZM419.426 71.2299C417.204 71.2299 414.89 72.7447 411.788 75.7925C404.567 82.7823 405.169 86.7427 413.293 85.4834C419.449 84.5344 419.704 84.7352 415.978 88.0932C410.724 92.8018 410.747 95.3933 416.07 93.7508C419.542 92.6558 419.935 93.5683 418.431 99.0981C416.88 104.902 417.297 105.632 421.579 104.573C424.263 103.934 429.448 104.756 433.081 106.453C440.928 110.085 445.348 110.432 447.524 107.566C448.403 106.417 453.148 103.898 458.101 101.982C463.031 100.084 468.979 96.2511 471.247 93.4406C474.996 88.7685 474.95 87.6735 470.715 80.8844C466.086 73.4382 457.129 69.2772 454.143 73.2192C453.287 74.3508 447.57 75.4092 441.483 75.5918C435.396 75.7743 430.42 77.0153 430.42 78.2746C430.42 79.5156 428.522 78.3476 426.254 75.7378C423.662 72.7265 421.625 71.2299 419.426 71.2299ZM-157.177 74.1135C-156.772 74.1804 -156.388 74.3121 -156.05 74.5004C-155.711 74.6888 -155.425 74.9297 -155.21 75.2085C-154.284 76.413 -150.604 77.435 -146.97 77.435C-138.245 77.435 -141.184 80.9756 -151.414 82.8189C-155.858 83.6036 -160.163 85.6477 -160.95 87.3084C-161.736 88.9692 -163.588 90.3015 -165.069 90.3015C-167.708 90.3015 -162.917 84.2789 -157.802 81.1581C-156.135 80.1361 -156.506 78.8768 -158.797 77.6905C-161.112 76.4678 -161.412 75.318 -159.653 74.442C-159.289 74.26 -158.882 74.1373 -158.457 74.0809C-158.032 74.0245 -157.597 74.0356 -157.177 74.1135ZM-421.975 96.6708C-421.721 96.7438 -421.397 97.0359 -421.142 97.0541C-418.827 97.2366 -415.171 97.5103 -412.995 97.6198C-410.475 97.8234 -408.042 98.4587 -405.866 99.4814C-404.154 100.394 -402.001 100.102 -401.076 98.8791C-400.15 97.6746 -398.275 97.2549 -396.909 97.9301C-393.6 99.6091 -393.808 105.358 -397.187 105.358C-401.909 105.358 -416.791 114.374 -421.998 119.958L-421.975 96.6708ZM92.9937 105.358C89.1055 105.358 88.1334 107.986 91.0959 110.395C94.4981 113.151 99.752 111.819 98.2244 108.588C97.3912 106.818 95.0536 105.358 93.04 105.358H92.9937ZM69.0853 112.111C64.8729 111.381 57.5824 116.874 57.5824 120.798C57.5824 124.393 65.4053 122.349 69.4324 117.695C73.2976 113.26 73.2513 112.822 69.0853 112.111ZM83.8053 118.261C78.9449 118.261 76.6768 124.466 80.4493 127.514C82.949 129.558 85.9114 127.514 87.4853 122.586C88.5268 119.374 87.5316 118.261 83.8053 118.261ZM-113.156 124.247C-111.837 124.868 -113.41 127.167 -116.743 129.357C-125.492 135.106 -129.82 134.212 -122.113 128.226C-118.502 125.415 -114.475 123.626 -113.156 124.247ZM732.828 128.992C736.3 128.992 742.364 133.244 742.364 135.653C742.364 139.723 735.189 138.61 732.597 134.139C730.352 130.233 730.398 128.992 732.828 128.992ZM686.909 157.974C688.344 157.244 690.219 158.192 691.075 159.981C693.621 165.438 691.006 168.029 687.534 163.503C685.474 160.821 685.243 158.813 686.909 157.974ZM661.704 159.105C659.529 159.105 657.724 159.963 657.724 161.04C657.724 162.135 657.029 164.562 656.15 166.423C654.275 170.438 658.001 170.949 662.515 167.263C666.912 163.686 666.449 159.105 661.704 159.105ZM1531.53 182.703C1526.74 182.703 1526.39 185.258 1530.72 188.762C1535.23 192.43 1539 191.919 1537.11 187.922C1536.39 186.538 1535.84 185.102 1535.49 183.633C1535.49 183.122 1533.7 182.739 1531.5 182.739L1531.53 182.703ZM-225.546 191.372C-230.314 191.372 -230.87 192.193 -229.319 197.23C-228.301 200.497 -225.639 204.84 -223.348 206.903C-217.909 211.83 -217.145 211.648 -218.487 205.807C-219.18 202.607 -219.628 199.377 -219.83 196.135C-219.968 192.704 -221.589 191.372 -225.546 191.372ZM-24.882 199.986C-23.0305 199.967 -20.8317 201.446 -19.9754 203.271C-18.1238 207.213 -20.4383 209.804 -22.9379 206.519C-23.8868 205.26 -23.7017 204.22 -22.5213 204.201C-21.3641 204.201 -22.1741 203.234 -24.3729 202.084C-27.1503 200.624 -27.266 200.004 -24.9052 199.986H-24.882ZM1572.66 202.084C1569.65 202.084 1567.19 203.052 1567.19 204.238C1567.19 205.424 1568.91 206.392 1570.99 206.392C1573.07 206.392 1575.62 205.424 1576.5 204.238C1577.4 203.052 1575.64 202.084 1572.66 202.084ZM1646.53 206.392C1645.86 206.441 1645.23 206.688 1644.77 207.085C1644.31 207.482 1644.05 207.999 1644.05 208.536C1644.05 209.073 1644.31 209.59 1644.77 209.987C1645.23 210.384 1645.86 210.631 1646.53 210.68C1646.88 210.673 1647.23 210.612 1647.55 210.5C1647.87 210.388 1648.15 210.227 1648.4 210.027C1648.64 209.827 1648.82 209.592 1648.95 209.334C1649.07 209.077 1649.13 208.802 1649.13 208.527C1649.14 207.973 1648.87 207.438 1648.39 207.038C1647.9 206.638 1647.24 206.406 1646.53 206.392ZM1657.11 206.392C1656.43 206.441 1655.8 206.688 1655.34 207.085C1654.88 207.482 1654.63 207.999 1654.63 208.536C1654.63 209.073 1654.88 209.59 1655.34 209.987C1655.8 210.384 1656.43 210.631 1657.11 210.68C1657.46 210.676 1657.81 210.616 1658.13 210.505C1658.46 210.394 1658.75 210.235 1659 210.035C1659.24 209.835 1659.43 209.598 1659.56 209.34C1659.69 209.081 1659.75 208.805 1659.75 208.527C1659.76 207.968 1659.48 207.431 1658.99 207.031C1658.49 206.631 1657.82 206.401 1657.11 206.392ZM1600.64 208.947C1598.88 208.399 1595.24 210.042 1594.27 212.432C1593.62 214.002 1594.83 214.476 1597.4 213.673C1599.71 212.943 1601.56 211.447 1601.56 210.297C1601.56 209.567 1601.22 209.129 1600.64 208.947ZM1632.58 210.534C1631.54 210.626 1628.87 210.68 1626.72 210.68C1624.55 210.68 1622.74 211.684 1622.74 212.87C1622.74 214.038 1625.82 214.969 1629.57 214.969C1633.34 214.969 1635.96 213.911 1635.45 212.651C1634.91 211.374 1633.64 210.461 1632.58 210.534ZM37.4465 237.472C40.3627 237.38 43.4178 238.11 47.6996 239.625C52.4674 241.304 54.1801 247.217 49.8752 247.217C48.556 247.217 45.6166 247.801 43.3021 248.531C39.3212 249.772 37.9326 248.404 38.8815 244.243C39.2981 242.381 34.322 243.093 25.2261 246.141C17.7967 248.623 19.9029 244.188 28.0035 240.301C31.7067 238.512 34.5303 237.563 37.4465 237.472ZM853.898 248.604C859.337 248.385 863.086 249.754 865.678 252.857C869.22 257.109 869.011 257.328 863.133 256.397C859.661 255.868 855.171 256.835 853.088 258.514C851.072 260.169 848.677 261.507 846.029 262.456C843.853 263.04 845.473 265.796 850.658 270.432C855.541 274.775 858.804 280.196 859.129 284.411C859.429 288.189 861.212 293.172 863.109 295.526C867.09 300.38 867.761 309.56 864.151 309.56C862.12 309.669 860.118 310.001 858.203 310.546C856.259 311.093 851.282 309.323 847.14 306.567C840.636 302.242 840.011 300.873 842.626 296.931C844.27 294.413 846.908 292.369 848.436 292.369C849.963 292.369 847.464 288.536 842.881 283.846C834.248 274.976 828.925 263.916 831.17 259.463C833.531 254.773 845.82 248.896 853.898 248.604ZM769.836 250.174H769.883C772.498 250.502 774.211 251.743 772.753 253.66C771.85 254.846 767.985 255.813 764.12 255.813C757.616 255.813 757.385 255.558 761.389 252.291C762.506 251.462 763.845 250.842 765.307 250.475C766.77 250.109 768.317 250.006 769.836 250.174ZM1442 251.944C1440.24 251.397 1436.63 253.003 1435.64 255.412C1435.01 256.999 1436.19 257.456 1438.79 256.653C1441.1 255.923 1442.95 254.426 1442.95 253.276C1442.95 252.565 1442.58 252.127 1442 251.944ZM739.679 253.094C742.503 253.422 744.655 254.536 743.475 256.087C742.688 257.146 743.938 259.591 746.298 261.507C749.724 264.281 751.899 264.519 756.899 262.657C764.259 259.938 772.544 262.73 787.288 272.969C794.995 278.316 795.874 279.776 792.588 281.546C786.57 284.813 768.911 284.174 764.421 280.542C759.375 276.418 747.525 276.4 740.882 280.469C734.263 284.539 725.283 284.612 720.376 280.652C717.02 277.914 717.252 276.254 722.714 267.493C726.139 261.982 730.259 256.269 731.81 254.755C733.337 253.24 736.855 252.765 739.679 253.112V253.094ZM905.996 254.645C909.931 254.828 911.436 258.405 908.357 263.223C904.978 268.534 905.881 268.114 900.303 267.092C893.869 265.942 894.54 258.624 901.344 255.667C902.736 254.992 904.34 254.638 905.973 254.645H905.996ZM62.0956 255.138C62.2576 254.992 62.5585 254.992 63.0214 255.138C63.9867 255.515 64.915 255.948 65.7987 256.434C68.8076 257.949 70.8212 261.416 70.8212 264.92C70.8212 268.187 70.5203 270.833 70.1499 270.833C69.7796 270.833 67.5577 267.001 65.1507 262.347C62.7668 257.73 61.679 255.631 62.0956 255.138ZM75.7972 255.813C77.2554 255.813 79.1533 256.799 80.0558 258.003C80.9585 259.171 80.5187 260.102 79.0606 260.102C77.6025 260.102 75.6584 259.171 74.7789 257.985C73.8531 256.799 74.3391 255.795 75.7972 255.795V255.813ZM1430.13 255.813C1426.64 255.813 1419.14 261.964 1419.14 264.847C1419.14 266.161 1421.59 265.796 1424.95 263.971C1431.33 260.504 1434.34 255.813 1430.13 255.813ZM629.348 255.868C629.788 255.868 630.112 256.781 630.644 258.66C631.339 260.978 633.329 262.091 635.528 261.398C637.657 260.723 639.231 261.562 639.231 263.296C639.231 264.975 644.601 269.355 651.151 273.005C659.089 277.458 663.07 281.236 663.093 284.411C663.14 287.003 665.5 291.529 668.324 294.504C671.171 297.46 673.531 301.384 673.578 303.227C673.647 307.808 680.336 314.926 684.618 314.981C689.594 314.999 696.977 302.625 692.672 301.475C688.113 300.234 688.738 295.216 693.621 293.683C695.889 292.989 697.023 291.401 696.121 290.215C695.218 289.01 697.046 288.061 700.24 288.061C704.707 288.061 705.656 289.029 704.592 292.35C703.828 294.723 704.129 296.639 705.286 296.639C706.489 296.639 706.883 298.574 706.119 300.928C705.332 303.337 706.003 305.271 707.67 305.271C709.29 305.271 710.632 306.732 710.632 308.538C710.632 312.28 721.001 316.021 731.347 316.021C735.212 316.021 740.744 316.203 743.66 316.422C746.576 316.623 751.622 316.057 754.885 315.181C760.393 313.685 760.856 314.214 760.856 322.189C760.856 326.916 759.722 333.14 758.38 336.005C755.834 341.48 745.373 345.13 741.484 341.955C740.188 340.914 735.166 341.006 730.004 342.155C723.038 343.725 717.136 343.36 705.795 340.549C697.556 338.505 689.686 336.023 688.298 335.019C681.655 330.238 665.685 336.279 665.685 343.579C665.685 348.506 650.827 344.765 642.008 337.593C638.545 335.002 634.061 333.424 629.302 333.121C620.831 333.03 611.041 327.865 615.299 325.73C619.234 323.759 618.817 310.236 614.813 308.995C607.083 306.586 559.266 311.604 550.68 315.747C541.676 320.054 524.271 320.93 524.271 317.079C524.271 315.893 528.229 314.616 533.136 314.232C543.551 313.429 554.66 304.815 554.66 297.533C554.66 294.394 558.016 290.452 563.872 286.839C568.964 283.681 573.176 279.356 573.176 277.184C573.176 272.038 577.296 270.121 582.943 272.695C586.23 274.191 590.349 273.48 597.848 270.14C605.949 266.49 608.449 266.088 609.49 268.369C611.411 272.658 626.154 285.908 629.047 285.908C630.413 285.908 634.718 288.335 638.606 291.255C646.799 297.424 644.207 301.749 632.218 301.913C622.173 302.078 621.641 306.549 631.223 310.582C639.231 313.94 644.531 313.502 644.531 309.451C644.531 308.338 646.961 305.436 649.947 303.008C653.743 299.906 654.807 297.168 653.511 293.883C651.891 289.667 652.169 289.503 656.127 292.15C658.534 293.792 661.126 294.632 661.843 294.048C664.297 292.04 659.969 286.109 655.131 284.868C652.333 284.074 650.045 282.441 648.767 280.323C647.933 278.517 646.059 277.622 644.67 278.316C643.258 279.028 639.995 276.892 637.403 273.607C635.052 270.553 632.213 267.749 628.955 265.267C626.432 263.679 625.9 261.544 627.335 258.825C628.376 256.89 628.909 255.904 629.348 255.868ZM47.6533 256.762L47.6071 256.799C48.6486 256.853 47.9774 258.113 45.4546 261.215C42.8619 264.339 41.9 268.131 42.7698 271.801H42.8161C43.6956 274.721 43.2327 277.641 41.7745 278.389C40.247 279.155 39.136 277.184 39.136 273.68C39.1824 264.719 41.7977 258.423 45.9869 257.109C46.5119 256.913 47.0755 256.79 47.6533 256.744V256.762ZM605.579 273.425C601.505 274.1 597.941 292.15 600.718 298.063C601.436 299.614 603.843 300.326 606.042 299.632C611.828 297.807 611.411 272.476 605.579 273.425ZM864.776 282.404C865.239 282.221 865.887 282.313 866.627 282.678C868.062 283.408 869.243 284.448 869.243 284.959C869.243 285.488 868.062 285.908 866.604 285.908C865.146 285.908 863.966 284.886 863.966 283.627C863.966 283.006 864.29 282.568 864.776 282.404ZM572.158 291.255C569.404 291.146 565.214 292.752 565.214 294.577C565.214 295.526 566.719 296.73 568.524 297.241C572.158 298.263 576.162 294.613 574.218 292.04C573.824 291.547 573.06 291.31 572.135 291.255H572.158ZM841.4 352.85C844.177 353.288 847.695 355.369 849.338 358.38C852.833 364.859 866.789 370.607 875.654 369.257L882.852 368.125L875.561 374.331C866.026 382.397 856.05 382.689 856.05 374.878C856.05 370.772 854.963 369.604 852.069 370.498C849.894 371.192 848.089 370.772 848.089 369.567C848.089 368.363 845.705 365.351 842.788 362.815C839.895 360.26 837.511 356.847 837.511 355.223C837.511 354.073 838.067 353.324 838.946 352.996C839.724 352.744 840.583 352.693 841.4 352.85ZM470.02 356.829C468.562 356.829 467.428 358.362 467.428 360.205C467.428 362.048 468.585 362.942 470.02 362.212C471.479 361.482 472.705 359.986 472.705 358.873C472.687 358.322 472.395 357.8 471.893 357.417C471.391 357.035 470.718 356.824 470.02 356.829ZM455.833 357.632C454.12 357.997 452.778 359.128 451.991 361.044C451.181 362.997 452.199 363.545 455.115 362.632C457.592 361.866 459.443 362.358 459.443 363.8C459.443 365.625 460.369 365.57 462.776 363.618C465.391 361.501 465.229 360.552 462.082 358.946C459.675 357.705 457.545 357.267 455.833 357.632ZM755.024 363.691C758.264 364.202 765.439 371.374 767.684 376.922C768.61 379.112 771.549 382.726 774.327 384.97C777.104 387.215 779.372 391.504 779.372 394.497C779.372 397.49 781.108 400.483 783.237 401.158C788.283 402.728 799.369 418.405 801.707 427.256C803.558 434.283 801.591 436.929 798.837 431.089C798.027 429.355 794.995 427.329 792.078 426.581C789.185 425.851 785.158 421.982 783.145 418.04C781.108 414.098 778.215 410.265 776.734 409.517C775.252 408.787 774.072 406.05 774.049 403.476C774.049 400.885 772.544 396.651 770.739 394.077C758.38 376.429 752.177 365.315 753.913 363.91C754.167 363.691 754.561 363.636 755.024 363.691ZM91.6514 366.337C90.4087 366.423 89.2407 366.841 88.3417 367.523C86.4438 369.056 87.4622 369.75 91.4662 369.75C94.6602 369.75 97.2524 370.699 97.2524 371.885C97.2524 373.071 97.8541 374.039 98.5716 374.039C99.3122 374.039 99.914 372.688 99.914 371.046C99.914 368.107 95.3776 366.008 91.6514 366.337ZM1270.41 374.623C1269.46 374.696 1268.09 375.572 1265.76 377.305C1260.43 381.229 1259.28 386.065 1262.17 392.143C1263.05 394.023 1264.72 395.519 1265.87 395.519C1269.14 395.519 1274.44 380.791 1272.58 376.886C1271.89 375.353 1271.36 374.568 1270.41 374.623ZM92.5308 374.951C90.4478 375.553 89.0591 378.346 90.6793 380.463C91.5588 381.649 93.4103 382.653 94.7759 382.653C98.0161 382.653 98.0161 376.813 94.8221 375.188C94.491 375.009 94.1108 374.894 93.7126 374.853C93.3144 374.812 92.9094 374.845 92.5308 374.951ZM68.9927 385.043C66.0749 385.084 63.2324 385.78 60.7995 387.051C52.6757 390.774 49.0883 396.997 56.3788 394.716C59.2025 393.84 62.0724 394.351 63.3454 395.994C65.1276 398.202 66.007 398.184 67.8818 395.848C71.0063 391.887 86.8604 394.753 91.4662 400.1C93.6881 402.655 98.1318 404.151 103.872 404.151C108.778 404.151 113.569 405.064 114.472 406.25C115.375 407.437 114.217 408.44 111.972 408.44C108.107 408.44 106.418 410.886 108.917 412.893C109.519 413.386 113.708 413.806 118.175 413.806C125.142 413.806 126.322 412.985 126.322 408.331C126.322 403.768 123.961 402.016 111.833 397.673C103.825 394.807 97.2524 391.869 97.2524 391.121C97.2524 390.391 90.5403 388.475 82.3703 386.869C76.0287 385.628 72.0941 385.007 68.9927 385.043ZM117.11 386.941C113.014 386.941 111.857 389.497 114.819 391.906C116.948 393.621 121.068 391.65 121.068 388.949C121.068 387.836 119.286 386.941 117.11 386.941ZM-383.902 391.23C-384.255 391.235 -384.603 391.294 -384.926 391.405C-385.25 391.516 -385.542 391.676 -385.787 391.876C-386.032 392.076 -386.225 392.312 -386.354 392.571C-386.483 392.83 -386.547 393.106 -386.541 393.384C-386.541 394.57 -385.36 395.519 -383.902 395.519C-383.194 395.51 -382.52 395.28 -382.025 394.88C-381.531 394.48 -381.257 393.942 -381.264 393.384C-381.258 393.106 -381.321 392.83 -381.45 392.571C-381.58 392.312 -381.772 392.076 -382.017 391.876C-382.262 391.676 -382.555 391.516 -382.878 391.405C-383.202 391.294 -383.55 391.235 -383.902 391.23ZM-377.144 393.384C-381.055 393.384 -377.977 397.563 -373.163 398.804C-370.154 399.571 -366.659 402.509 -365.317 405.338C-363.743 408.732 -361.544 410.083 -358.883 409.243C-356.661 408.55 -354.809 407.327 -354.809 406.542C-354.809 403.768 -372.446 393.384 -377.144 393.384ZM121.809 395.355C120.767 395.264 119.379 396.359 118.8 397.782C118.221 399.187 119.17 399.972 120.906 399.498C124.332 398.585 124.98 395.61 121.809 395.355ZM135.001 401.961C130.141 401.961 128.984 403.184 128.984 408.075C128.984 411.433 129.817 414.81 130.812 415.613C131.807 416.416 133.821 416.105 135.279 414.901C136.76 413.715 141.32 412.711 145.393 412.711C149.467 412.711 152.8 411.798 152.8 410.703C152.8 407.455 141.598 401.961 135.001 401.961ZM97.0441 408.678C92.8549 408.805 89.1055 410.649 90.6561 412.693C92.8317 415.54 105.214 415.521 105.214 412.656C105.214 411.433 103.409 409.882 101.21 409.207C99.8819 408.808 98.464 408.628 97.0441 408.678ZM161.386 408.824C157.29 408.349 155.461 409.207 155.461 411.634C155.461 414.061 157.29 414.956 161.363 414.481C164.65 414.116 167.334 412.82 167.334 411.634C167.334 410.448 164.65 409.207 161.363 408.824H161.386ZM1265.97 409.043C1263.56 408.915 1263.19 410.32 1263.19 414.554C1263.19 418.076 1261.96 421.307 1260.46 421.69C1257.22 422.584 1265.16 442.806 1268.74 442.806C1270.06 442.806 1271.06 444.539 1271.06 446.638C1271.06 448.737 1272.91 452.496 1275.06 455.015C1278.53 459.03 1278.53 459.724 1275.06 460.819C1273.94 461.214 1272.97 461.845 1272.27 462.643C1271.57 463.441 1271.16 464.375 1271.08 465.345C1271.08 467.827 1272.77 468.356 1277.7 467.352C1282.61 466.348 1284.32 466.841 1284.32 469.287C1284.32 471.112 1286.4 472.973 1288.95 473.448C1295.68 474.652 1300.13 472.955 1300.61 468.94C1302 457.059 1296.7 449.595 1290.45 454.705C1284.53 459.505 1280.89 458.537 1282.72 452.661C1284.32 447.478 1280.27 442.167 1273.14 440.086C1271.29 439.557 1270.46 438.553 1271.27 437.841C1272.05 437.13 1275.87 437.878 1279.81 439.539C1286.61 442.404 1286.98 442.313 1286.98 437.495C1286.98 433.607 1285.13 432.111 1279.04 431.016C1270.2 429.446 1269.14 427.439 1275.11 423.424C1277.65 421.708 1278.51 419.044 1277.42 416.178C1275.36 410.703 1276.31 411.433 1269.16 409.627C1268.12 409.341 1267.05 409.145 1265.97 409.043ZM1259 444.996C1257.1 444.996 1248.28 453.208 1244.53 458.428C1240.6 463.903 1245.74 463.173 1253.79 457.077C1259.81 452.551 1263.05 444.977 1259 444.977V444.996ZM1536.97 444.996C1534.72 444.996 1532.87 445.945 1532.87 447.131C1532.87 448.317 1533.96 449.266 1535.32 449.266C1536.69 449.266 1538.54 448.317 1539.44 447.131C1540.35 445.945 1539.21 444.977 1536.97 444.977V444.996ZM1538.29 453.847C1537.52 453.792 1536.83 453.92 1536.34 454.303C1535.58 454.942 1535.74 456.457 1536.71 457.716C1538.86 460.545 1543.42 460.746 1543.42 457.99C1543.42 456.092 1540.53 454.084 1538.29 453.847ZM1561.89 456.804C1560.46 456.074 1559.3 456.986 1559.3 458.811C1559.3 460.636 1560.46 462.187 1561.92 462.187C1563.35 462.187 1564.6 461.275 1564.6 460.143C1564.6 459.03 1563.35 457.534 1561.92 456.804H1561.89ZM1242.22 464.268L1237.82 469.633C1235.41 472.608 1231.87 475.054 1229.91 475.054C1227.94 475.054 1225.05 476.988 1223.49 479.343C1221.94 481.715 1219.1 483.686 1217.15 483.686C1215.19 483.686 1212.02 485.146 1210.16 486.971C1208.31 488.796 1205.16 489.782 1203.17 489.161C1201.04 488.504 1198.31 490.256 1196.55 493.377C1196.37 493.706 1196.21 493.87 1196.02 494.162H1196.07C1197.48 501.462 1200.23 506.517 1202.29 512.175C1202.33 513.183 1202.83 514.148 1203.69 514.894C1204.55 515.64 1205.72 516.119 1206.99 516.245C1209.54 516.427 1214.58 516.902 1218.22 517.303C1237.68 519.457 1237.66 519.475 1244.14 510.003C1244.56 509.364 1245.02 508.963 1245.48 508.361C1245.78 506.335 1247.33 501.681 1247.7 501.425C1248.12 501.206 1253.14 497.374 1253.21 497.319C1253.21 496.918 1253.61 496.553 1254.69 496.553C1256.55 496.553 1255.94 494.18 1253.17 490.256C1248.88 484.197 1248.93 483.814 1254.42 479.945L1260.16 475.912L1251.15 470.071L1242.22 464.268ZM1268.35 470.765C1266.8 470.765 1266.24 471.732 1267.15 472.919C1268.05 474.105 1269.32 475.054 1269.95 475.054C1270.59 475.054 1271.08 474.087 1271.08 472.919C1271.08 472.635 1271.02 472.354 1270.88 472.092C1270.74 471.829 1270.54 471.591 1270.29 471.39C1270.03 471.19 1269.73 471.031 1269.4 470.924C1269.07 470.817 1268.71 470.763 1268.35 470.765ZM1120.92 473.977C1119.68 473.754 1118.4 473.767 1117.17 474.014C1115.87 474.324 1115.13 475.072 1115.13 476.258C1115.13 482.171 1119.92 487.282 1128.02 490.019C1131.96 491.333 1135.43 493.487 1136.68 495.129H1136.77L1136.84 495.293C1136.93 495.403 1137.26 495.585 1137.3 495.713C1137.3 495.75 1137.21 495.786 1137.21 495.823L1140.66 500.841L1144.2 506.225C1148.32 512.485 1172.02 531.319 1180.35 534.933C1183.52 536.302 1189.29 537.397 1193.11 537.397C1196.95 537.397 1202.06 538.236 1204.52 539.258C1206.97 540.28 1214.05 541.631 1220.23 542.288C1230.02 543.292 1231.46 542.927 1231.46 539.368C1231.46 536.758 1229.61 535.243 1226.36 535.243C1223.59 535.243 1220.88 534.148 1220.32 532.779C1219.77 531.429 1214.01 530.151 1207.53 529.896C1186.76 529.111 1181.26 526.994 1181.26 519.95C1181.26 514.347 1181.9 513.817 1187.83 515.022C1192.16 515.898 1194.4 515.46 1194.4 513.744C1194.4 512.321 1192.64 511.737 1190.47 512.412C1188.29 513.106 1186.53 512.631 1186.53 511.39C1186.53 507.558 1179.15 502.995 1175.08 504.273C1167.44 503.707 1166.74 499.619 1161.7 493.669C1153.71 489.972 1146.08 485.824 1138.85 481.259C1132.17 477.153 1125.48 474.598 1120.92 473.959V473.977ZM1307.19 488.778C1305.38 488.924 1303.9 490.676 1303.3 494.016C1303.14 495 1302.68 495.94 1301.96 496.753C1303.9 503.086 1310.5 503.232 1310.77 503.451C1312.16 501.791 1314.08 500.403 1315.91 498.724L1312.9 493.286C1311.14 490.11 1308.99 488.632 1307.19 488.778ZM1290.52 491.315C1289.1 491.502 1287.72 491.892 1286.47 492.465C1283.67 493.687 1277.77 494.071 1273.39 493.286C1267.68 492.264 1264.02 492.921 1260.34 495.64C1260.34 495.64 1260.69 495.531 1260.69 495.567C1260.57 495.932 1257.56 502.52 1256.85 504.072C1256.5 505.203 1256.38 506.006 1255.23 508.452C1253.77 511.573 1253.47 515.259 1254.56 516.646C1255.88 518.744 1256.57 521.055 1256.57 523.399C1256.57 525.735 1258.65 527.98 1261.2 528.381C1264.67 528.929 1265.92 527.596 1266.15 523.034C1266.34 519.183 1266.89 518.38 1267.68 520.844C1269.3 526.027 1277.7 524.585 1277.93 519.092C1278.05 516.801 1277.36 514.53 1275.96 512.522C1274.71 511.153 1276.54 508.269 1280.43 505.514C1281.17 505.003 1282.19 504.692 1283.07 504.254L1283.56 503.725L1275.32 502.812L1272.68 503.068C1271.96 503.269 1271.98 503.433 1271.13 503.616C1268.21 504.236 1265.8 503.889 1265.8 502.812C1269.62 499.327 1277.19 499.4 1283.44 498.378L1290.82 497.356C1291.06 496.798 1291.44 496.283 1291.93 495.841C1294.99 492.866 1293.85 490.95 1290.5 491.315H1290.52ZM746.622 500.841C748.636 500.841 750.279 501.699 750.279 502.74C750.279 505.422 743.521 509.675 741.646 508.16C739.1 506.079 742.641 500.86 746.622 500.86V500.841ZM1333.87 502.174C1331.16 502.356 1328.59 502.721 1327.07 502.74C1324.1 504.273 1324.1 505.422 1327.07 509.638C1332.16 516.865 1336.33 520.187 1340.31 520.223C1346 520.278 1363.54 525.717 1366.95 528.491C1369.38 530.48 1369.42 532.013 1366.9 535.28C1362.13 541.485 1362.8 542.361 1371.34 540.974C1376.44 540.153 1380.09 540.791 1382.22 542.872C1386.85 547.416 1397.33 546.704 1400.64 541.686C1404.39 535.973 1406.78 536.284 1417.08 543.547C1425.87 549.734 1441.61 553.804 1444.11 550.555C1444.85 549.57 1440.78 545.701 1435.08 541.978C1422.59 533.802 1423.28 529.513 1437.03 530.389C1448.3 531.119 1460.4 524.549 1457.86 519.128C1455.84 514.912 1452.3 515.058 1446.75 519.585C1444.25 521.61 1440.73 523.454 1438.93 523.673C1435.14 524.19 1431.38 524.786 1427.63 525.461C1421.22 526.611 1418.42 525.881 1413.44 521.665C1409.86 518.635 1398.4 514.091 1386.23 510.934L1365.21 505.495L1357.8 509.784L1350.42 514.036L1347.83 508.507C1346.44 505.495 1343.78 502.849 1341.93 502.539L1341.88 502.502H1341.69C1339.14 502.012 1336.48 501.901 1333.87 502.174ZM1420.62 507.32C1418.35 507.32 1416.54 508.288 1416.54 509.456C1416.54 510.642 1417.63 511.609 1419 511.609C1420.39 511.609 1422.24 510.642 1423.16 509.456C1424.07 508.269 1422.86 507.32 1420.62 507.32ZM1440.29 509.456C1439.94 509.46 1439.59 509.52 1439.27 509.631C1438.94 509.741 1438.65 509.901 1438.41 510.101C1438.16 510.301 1437.97 510.537 1437.84 510.796C1437.71 511.055 1437.65 511.331 1437.65 511.609C1437.65 512.795 1438.86 513.744 1440.29 513.744C1440.64 513.742 1440.99 513.685 1441.32 513.576C1441.64 513.468 1441.94 513.31 1442.18 513.111C1442.43 512.913 1442.63 512.678 1442.76 512.421C1442.89 512.163 1442.96 511.887 1442.95 511.609C1442.96 511.33 1442.89 511.052 1442.76 510.792C1442.63 510.532 1442.44 510.295 1442.19 510.095C1441.94 509.895 1441.65 509.735 1441.32 509.625C1441 509.516 1440.65 509.458 1440.29 509.456ZM1314.75 512.284C1312.28 512.284 1309.45 512.467 1306.35 512.832C1296.01 514.109 1292.93 515.697 1296.01 518.216C1298.67 520.406 1326.63 518.982 1326.63 516.664C1326.63 513.781 1322.23 512.23 1314.75 512.284ZM1465.63 524.968C1464.55 525.37 1464.43 526.939 1465.68 529.531C1466.61 531.484 1469.68 533.108 1472.58 533.108C1475.66 533.108 1478.39 534.933 1479.24 537.561C1480.35 541.029 1482.11 541.722 1486.93 540.737C1492.02 539.696 1493.2 540.28 1493.2 543.93C1493.2 547.325 1494.59 548.292 1498.94 547.763C1507.9 546.704 1507.5 542.47 1498.13 538.656C1491.37 535.918 1489.15 535.773 1487.44 537.926C1485.89 539.861 1484.8 539.24 1483.62 535.773C1482.74 533.108 1480.77 530.954 1479.22 530.954C1477.72 530.954 1474.24 529.367 1471.58 527.396C1468.81 525.37 1466.72 524.567 1465.63 524.968ZM1300.98 536.119C1298.34 536.01 1294.92 537.05 1291.89 539.368C1288.65 541.832 1285.01 543.857 1283.83 543.857C1282.65 543.857 1281.68 545.281 1281.68 547.069C1281.68 551.157 1283.05 551.121 1295.29 546.522C1300.82 544.46 1305.36 541.54 1305.4 540.025C1305.47 537.579 1303.6 536.247 1300.98 536.119ZM1262.79 538.419C1249.67 538.437 1243.45 539.331 1242.66 541.266C1241.78 543.401 1245.88 543.894 1260.71 543.401C1286.17 542.562 1287.95 538.346 1262.79 538.419ZM1395.76 549.424C1395.34 549.241 1394.95 549.314 1394.42 549.533C1393.49 550.032 1392.66 550.621 1391.92 551.285C1389.47 553.293 1387.45 558.111 1387.45 562.016C1387.45 571.872 1384.58 582.566 1381.94 582.566C1380.72 582.566 1374.42 579.938 1367.94 576.744C1356.16 570.977 1356.11 570.923 1360.07 564.717C1364.72 557.381 1363.4 555.775 1352.18 555.3C1346.78 555.025 1341.42 554.39 1336.16 553.402C1330.68 552.271 1328.99 552.526 1330.33 554.278C1331.44 555.738 1330.52 556.742 1328.02 556.742C1325.68 556.742 1321.72 559.644 1319.22 563.184C1314.48 569.974 1312.12 570.996 1309.43 567.473C1306.19 563.203 1295.66 565.447 1288.6 571.853C1284.69 575.449 1280.5 577.931 1279.34 577.347C1278.21 576.781 1275.29 579.938 1272.86 584.428C1269.39 590.815 1266.24 593.17 1258.24 595.122C1252.61 596.491 1246.25 597.586 1244.05 597.586C1241.85 597.586 1238.52 599.083 1236.64 600.926C1234.79 602.751 1231.71 603.755 1229.81 603.171C1224.81 601.619 1223.33 604.631 1222.48 618.3C1221.92 627.097 1223.22 632.9 1227.08 639.288C1230.46 644.891 1232.5 652.793 1232.68 661.006C1232.91 672.978 1233.49 674.11 1240.51 676.865C1247.1 679.439 1249.05 679.329 1255.41 676.263C1259.44 674.329 1268.21 672.193 1274.88 671.445C1281.54 670.715 1286.96 669.31 1286.96 668.415C1286.96 663.798 1322.69 658.013 1333.25 660.933C1340.42 662.922 1349.05 669.547 1349.08 673.161C1349.12 676.081 1353.75 678.198 1364.54 680.315C1372.76 681.921 1375.74 683.673 1376.34 687.104C1377.64 694.532 1386.13 699.112 1399.02 699.404C1405.5 699.569 1411.68 700.39 1412.77 701.284C1415.57 703.547 1416.22 703.419 1423.74 698.601C1427.45 696.229 1432.68 694.313 1435.38 694.313C1438.62 694.313 1440.29 692.78 1440.29 689.841C1440.29 687.378 1444.67 678.417 1449.97 669.948C1458.39 656.498 1459.62 652.666 1459.45 639.836C1459.32 627.006 1458.39 624.341 1452.44 619.286C1448.67 616.092 1445.57 612.551 1445.55 611.438C1445.52 610.325 1442.54 607.113 1438.93 604.32C1435.31 601.546 1432.38 598.59 1432.38 597.787C1432.38 596.984 1428.77 594.648 1424.41 592.549C1420.04 590.45 1416.5 587.585 1416.5 586.18C1416.45 579.354 1410.53 567.473 1407.17 567.473C1405 567.473 1401.96 563.33 1399.88 557.545C1398.03 552.325 1397.01 549.935 1395.76 549.424ZM805.849 553.53C804.345 554.278 803.766 555.811 804.623 556.906C806.891 559.899 808.511 559.315 808.511 555.538C808.511 553.713 807.308 552.8 805.826 553.53H805.849ZM838.946 556.852C836.724 556.669 834.919 557.655 834.919 559.972C834.919 561.743 833.739 563.166 832.281 563.166C830.823 563.166 829.642 564.681 829.642 566.524C829.642 568.349 825.522 571.269 820.454 572.985C811.034 576.197 806.336 583.515 809.506 590.195C810.363 592.038 809.298 596.4 807.076 599.867C803.142 606.073 803.79 613.592 808.974 621.768C811.613 625.965 815.755 626.44 824.944 623.593C829.943 622.06 832.35 618.209 837.257 603.737C840.59 593.845 844.432 583.552 845.751 580.832C848.968 574.317 848.783 566.05 845.404 560.885C843.784 558.439 841.168 557.052 838.946 556.852ZM814.182 557.162C813.279 557.016 812.446 557.089 811.913 557.545C810.849 558.421 811.682 560.009 813.788 561.067C818.741 563.549 820.917 561.706 816.936 558.458C816.199 557.831 815.252 557.382 814.205 557.162H814.182ZM1518.75 595.433C1514.89 595.433 1517.43 599.886 1524.26 605.032C1531.6 610.562 1538.19 612.168 1538.19 608.445C1538.19 606.365 1521.88 595.433 1518.75 595.433ZM877.228 599.721C875.77 599.721 874.612 600.725 874.612 601.911C874.612 603.079 875.77 604.047 877.228 604.047C877.94 604.037 878.619 603.809 879.121 603.41C879.622 603.011 879.906 602.473 879.912 601.911C879.913 601.343 879.633 600.797 879.132 600.388C878.631 599.979 877.948 599.74 877.228 599.721ZM1361.18 672.814C1362.71 672.814 1363.27 673.781 1362.39 674.967C1361.46 676.154 1360.21 677.103 1359.56 677.103C1358.91 677.103 1358.41 676.154 1358.41 674.967C1358.41 673.781 1359.63 672.814 1361.18 672.814ZM1572.29 673.544C1571.59 673.361 1571.01 673.361 1570.73 673.599C1569.67 674.456 1571.68 679.493 1575.25 684.786C1580.92 693.218 1581.29 694.933 1578.16 699.021C1575.06 703.036 1575.18 704.04 1578.86 706.23C1585.41 710.136 1583.97 711.888 1574.88 711.121C1567.89 710.555 1565.97 711.523 1561.87 717.673C1558.23 722.497 1553.4 726.703 1547.68 730.047C1534.68 737.237 1528.03 748.06 1536.62 748.06C1539.05 748.06 1539.86 749.556 1538.93 752.349C1537.22 757.714 1537.87 757.714 1550.85 752.075C1558.4 748.79 1561.89 745.706 1562.98 741.271C1563.91 737.475 1566.82 734.354 1570.5 733.24C1573.81 732.255 1576.27 730.868 1575.97 730.138C1574.72 727.127 1582.03 716.596 1584.83 717.363C1588.51 718.366 1599.5 707.453 1597.49 704.788C1596.7 703.748 1597.77 702.927 1599.85 702.927C1603.79 702.927 1607.72 694.933 1605.31 691.794C1604.57 690.79 1601.03 690.608 1597.49 691.32C1593.05 692.232 1591.06 691.721 1591.01 689.714C1590.89 686.246 1577.28 675.004 1572.29 673.562V673.544ZM1417.89 710.355C1404.6 710.3 1403.77 711.632 1409.83 723.404C1411.92 727.51 1415.06 730.868 1416.85 730.868C1423.07 730.868 1429.81 723.75 1429.81 717.107C1429.78 710.665 1429.39 710.409 1417.89 710.355Z"
        fill="white"
      />
    </g>
  </svg>
</svg>