<svg viewBox="0 0 36 41" fill="none" xmlns="http://www.w3.org/2000/svg">
<path d="M16 0.654679C12.8919 1.01795 9.9434 2.22811 7.4762 4.15306C5.009 6.078 3.11811 8.64378 2.00986 11.5702C0.90161 14.4967 0.61862 17.6713 1.19179 20.7477C1.76496 23.824 3.17225 26.6837 5.26 29.0147L14 38.7147C14.5062 39.2728 15.1236 39.7189 15.8125 40.0241C16.5014 40.3293 17.2466 40.487 18 40.487C18.7535 40.487 19.4987 40.3293 20.1876 40.0241C20.8765 39.7189 21.4939 39.2728 22 38.7147L30.7 29.0147C33.0017 26.4287 34.4642 23.205 34.8943 19.77C35.3243 16.3349 34.7016 12.8501 33.1084 9.77658C31.5153 6.70298 29.0268 4.18538 25.972 2.55661C22.9172 0.927828 19.4399 0.264619 16 0.654679ZM18 24.0347C16.7294 24.0387 15.4862 23.6655 14.4279 22.9625C13.3695 22.2594 12.5435 21.2582 12.0545 20.0854C11.5655 18.9127 11.4355 17.6212 11.681 16.3745C11.9264 15.1278 12.5363 13.982 13.4333 13.0822C14.3304 12.1823 15.4743 11.5689 16.7202 11.3196C17.9661 11.0702 19.258 11.1962 20.4322 11.6815C21.6065 12.1668 22.6104 12.9897 23.3167 14.0459C24.023 15.1021 24.4 16.3441 24.4 17.6147C24.4001 19.3139 23.7264 20.9439 22.5267 22.1473C21.3271 23.3507 19.6993 24.0294 18 24.0347Z" fill="#C29B40"/>
<path d="M18.0002 24.2147C21.7336 24.2147 24.7602 21.1882 24.7602 17.4547C24.7602 13.7213 21.7336 10.6947 18.0002 10.6947C14.2667 10.6947 11.2402 13.7213 11.2402 17.4547C11.2402 21.1882 14.2667 24.2147 18.0002 24.2147Z" fill="white"/>
<path d="M17.9998 22.266C20.657 22.266 22.8111 20.1119 22.8111 17.4547C22.8111 14.7975 20.657 12.6435 17.9998 12.6435C15.3426 12.6435 13.1885 14.7975 13.1885 17.4547C13.1885 20.1119 15.3426 22.266 17.9998 22.266Z" fill="#C29B40"/>
</svg>
