<svg
      xmlns="http://www.w3.org/2000/svg"
      viewBox="0 0 31 40"
      fill="none"
    >
      <g clipPath="url(#clip0_242_1640)">
        <path
          d="M27.8711 27.5V12.5C27.8711 6.97656 23.473 2.5 18.0465 2.5H13.1342C7.70768 2.5 3.30966 6.97656 3.30966 12.5V27.5C3.30966 33.0234 7.70768 37.5 13.1342 37.5H18.0465C23.473 37.5 27.8711 33.0234 27.8711 27.5ZM0.853516 12.5C0.853516 5.59375 6.34913 0 13.1342 0H18.0465C24.8316 0 30.3272 5.59375 30.3272 12.5V27.5C30.3272 34.4062 24.8316 40 18.0465 40H13.1342C6.34913 40 0.853516 34.4062 0.853516 27.5V12.5Z"
          fill="black"
        />
        <rect
          x="14.3564"
          y="7.50206"
          width="2.45888"
          height="7.50411"
          rx="1.22944"
          fill="black"

        />
      </g>
      <defs>
        <clipPath id="clip0_242_1640">
          <rect
            width="29.4737"
            height="40"
            fill="black"
            transform="translate(0.853516)"
          />
        </clipPath>
      </defs>
    </svg>