<svg viewBox="0 0 60 60" fill="none" xmlns="http://www.w3.org/2000/svg">
<path d="M42.5 50C42.5 43 33.75 42.5 30 42.5C26.25 42.5 17.5 43 17.5 50M52.5 42.5C52.5 40.1561 50.9616 35.6144 45 35.0566M15 35C7.5 35 7.5 41.25 7.5 42.5M45 26.25C55 16.25 41.25 7.39635 35 13.75M15 26.25C6.25 20.0001 16.25 6.25008 25 13.75M37.5 27.5C37.5 31.6422 34.1421 35 30 35C25.8579 35 22.5 31.6422 22.5 27.5C22.5 23.3579 25.8579 20 30 20C34.1421 20 37.5 23.3579 37.5 27.5Z" stroke="white" stroke-width="4" stroke-linecap="round" stroke-linejoin="round"/>
</svg>
