<svg viewBox="0 0 21 22" fill="none" xmlns="http://www.w3.org/2000/svg">
<g clip-path="url(#clip0_7952_24755)">
<path d="M1.96875 12.9625H7.21875C7.9454 12.9625 8.5375 13.5546 8.5375 14.2812V19.5312C8.5375 20.2579 7.9454 20.85 7.21875 20.85H1.96875C1.2421 20.85 0.65 20.2579 0.65 19.5312V14.2812C0.65 13.5546 1.2421 12.9625 1.96875 12.9625Z" fill="#7D7D7D"/>
<path d="M1.96875 12.9625H7.21875C7.9454 12.9625 8.5375 13.5546 8.5375 14.2812V19.5312C8.5375 20.2579 7.9454 20.85 7.21875 20.85H1.96875C1.2421 20.85 0.65 20.2579 0.65 19.5312V14.2812C0.65 13.5546 1.2421 12.9625 1.96875 12.9625Z" stroke="black" stroke-width="1.3"/>
<path d="M1.96875 12.9625H7.21875C7.9454 12.9625 8.5375 13.5546 8.5375 14.2812V19.5312C8.5375 20.2579 7.9454 20.85 7.21875 20.85H1.96875C1.2421 20.85 0.65 20.2579 0.65 19.5312V14.2812C0.65 13.5546 1.2421 12.9625 1.96875 12.9625Z" stroke="black" stroke-opacity="0.2" stroke-width="1.3"/>
<path d="M19.0312 0.5H1.96875C0.885964 0.5 0 1.38592 0 2.46875V11.6562C0.544701 11.2428 1.22719 11 1.96875 11H7.21875C9.03001 11 10.5 12.47 10.5 14.2812V19.5312C10.5 20.2728 10.2572 20.9553 9.84375 21.5H19.0312C20.1141 21.5 21 20.614 21 19.5312V2.46875C21 1.38592 20.1141 0.5 19.0312 0.5Z" fill="#7D7D7D"/>
<path d="M17.1956 4.83182L16.6687 4.30494C16.5232 4.15945 16.2873 4.15945 16.1418 4.30494L11.9268 8.51996C11.7813 8.66546 11.7813 8.90135 11.9268 9.04684L12.4537 9.57372C12.5992 9.71921 12.8351 9.71921 12.9806 9.57372L17.1956 5.3587C17.3411 5.2132 17.3411 4.97731 17.1956 4.83182Z" fill="black"/>
<path d="M12.4534 4.3049L11.9265 4.83178C11.781 4.97727 11.781 5.21316 11.9265 5.35865L16.1415 9.57367C16.287 9.71917 16.5229 9.71917 16.6684 9.57367L17.1953 9.0468C17.3408 8.9013 17.3408 8.66541 17.1953 8.51992L12.9803 4.3049C12.8348 4.15941 12.5989 4.15941 12.4534 4.3049Z" fill="black"/>
</g>
<defs>
<clipPath id="clip0_7952_24755">
<rect width="21" height="21" fill="white" transform="translate(0 0.5)"/>
</clipPath>
</defs>
</svg>
