<svg viewBox="0 0 47 46" fill="none" xmlns="http://www.w3.org/2000/svg" color="white">
    <g id="office-bag">
        <g id="finance">
            <g id="office-bag_2">
                <path id="Vector" opacity="0.3"
                    d="M38.6515 29.7662H8.34843C7.34382 29.7662 6.38036 29.3671 5.66999 28.6567C4.95963 27.9463 4.56055 26.9829 4.56055 25.9783V17.4934C4.56055 16.2276 5.06339 15.0137 5.95845 14.1186C6.85351 13.2235 8.06747 12.7207 9.33327 12.7207H37.7424C38.995 12.7406 40.1896 13.2522 41.0683 14.1451C41.9471 15.038 42.4395 16.2406 42.4393 17.4934V25.9783C42.4393 26.9829 42.0403 27.9463 41.3299 28.6567C40.6195 29.3671 39.6561 29.7662 38.6515 29.7662Z"
                    fill="currentColor" />
                <path id="Vector_2"
                    d="M38.6511 29.7653H8.34804C7.68278 29.7641 7.02956 29.5877 6.4541 29.2539V35.4471C6.4541 36.4517 6.85318 37.4152 7.56355 38.1255C8.27391 38.8359 9.23737 39.235 10.242 39.235H36.7571C37.7617 39.235 38.7252 38.8359 39.4356 38.1255C40.1459 37.4152 40.545 36.4517 40.545 35.4471V29.2539C39.9696 29.5877 39.3163 29.7641 38.6511 29.7653Z"
                    fill="currentColor" />
                <path id="Vector_3"
                    d="M26.8145 27.4542H21.4546C21.0779 27.4542 20.7166 27.3045 20.4502 27.0382C20.1838 26.7718 20.0342 26.4105 20.0342 26.0337C20.0342 25.657 20.1838 25.2957 20.4502 25.0293C20.7166 24.7629 21.0779 24.6133 21.4546 24.6133H26.8145C27.1912 24.6133 27.5525 24.7629 27.8189 25.0293C28.0853 25.2957 28.2349 25.657 28.2349 26.0337C28.2349 26.4105 28.0853 26.7718 27.8189 27.0382C27.5525 27.3045 27.1912 27.4542 26.8145 27.4542Z"
                    fill="currentColor" />
                <path id="Vector_4"
                    d="M29.75 14.1404C29.3732 14.1404 29.0119 13.9908 28.7456 13.7244C28.4792 13.458 28.3295 13.0967 28.3295 12.72V11.47C28.3295 10.9677 28.13 10.486 27.7748 10.1308C27.4196 9.77559 26.9379 9.57605 26.4356 9.57605H21.8901C21.3878 9.57605 20.9061 9.77559 20.5509 10.1308C20.1957 10.486 19.9962 10.9677 19.9962 11.47V12.6632C19.9962 13.0399 19.8465 13.4012 19.5801 13.6676C19.3138 13.934 18.9525 14.0836 18.5757 14.0836C18.199 14.0836 17.8377 13.934 17.5713 13.6676C17.3049 13.4012 17.1553 13.0399 17.1553 12.6632V11.47C17.1553 10.2042 17.6581 8.99023 18.5532 8.09517C19.4482 7.20011 20.6622 6.69727 21.928 6.69727H26.4166C27.6792 6.70228 28.8883 7.20733 29.7792 8.10184C30.6702 8.99636 31.1704 10.2075 31.1704 11.47V12.6632C31.1781 12.8544 31.147 13.0453 31.0791 13.2242C31.0111 13.4032 30.9077 13.5665 30.775 13.7045C30.6423 13.8425 30.4832 13.9522 30.307 14.0272C30.1309 14.1021 29.9414 14.1406 29.75 14.1404Z"
                    fill="currentColor" />
            </g>
        </g>
    </g>
</svg>