<svg width="24" height="24" viewBox="0 0 24 24" fill="none" xmlns="http://www.w3.org/2000/svg">
    <path d="M17.6014 21.1753C17.5295 21.1753 17.4589 21.1799 17.3895 21.1879C16.7744 19.3619 14.988 17.9738 12.7985 17.6989V16.3954H11.2016V17.6989C9.00986 17.9741 7.22205 19.3646 6.60869 21.1934C6.52505 21.1816 6.43933 21.1752 6.35191 21.1752C5.46432 21.1752 4.74481 21.8076 4.74481 22.5876C4.74481 23.3676 5.46432 24 6.35191 24C7.15873 24 7.8265 23.4774 7.9414 22.7964C7.96476 22.7305 7.97735 22.6603 7.97735 22.5876C7.97735 20.8784 9.36463 19.4488 11.2016 19.1224V21.3477C10.7028 21.5875 10.3645 22.0528 10.3645 22.5876C10.3645 23.3676 11.0841 24 11.9716 24C12.8592 24 13.5787 23.3676 13.5787 22.5876C13.5787 22.0734 13.2659 21.6235 12.7985 21.3765V19.1225C14.5556 19.4347 15.9004 20.7564 16.0141 22.3666C16.0012 22.4386 15.9944 22.5124 15.9944 22.5877C15.9944 23.3677 16.7139 24 17.6014 24C18.489 24 19.2085 23.3677 19.2085 22.5877C19.2085 21.8077 18.489 21.1753 17.6014 21.1753Z"
          fill="black"/>
    <path d="M23.2015 7.46039H21.0326C20.5915 7.46039 20.2341 7.77456 20.2341 8.16215V10.2814C20.2341 10.9328 19.6304 11.4628 18.8883 11.4628H18.7007C18.6991 11.4628 18.6976 11.463 18.6961 11.463V11.4628H5.30385V11.463C5.30231 11.463 5.30076 11.4628 5.29921 11.4628H5.27452C4.53244 11.4628 3.92874 10.9328 3.92874 10.2814V8.16215C3.92874 7.77456 3.57125 7.46039 3.13023 7.46039H0.798507C0.357488 7.46039 0 7.77456 0 8.16215C0 8.54974 0.357488 8.86391 0.798507 8.86391H2.33178V10.2814C2.33178 11.7067 3.6519 12.8663 5.27452 12.8663H5.29921C5.30081 12.8663 5.30231 12.8661 5.30385 12.8661V13.114C5.30385 14.1496 6.25913 14.9892 7.43747 14.9892H16.5625C17.7409 14.9892 18.6961 14.1496 18.6961 13.114V12.8661C18.6977 12.8661 18.6992 12.8663 18.7008 12.8663H18.8883C20.5109 12.8663 21.8311 11.7067 21.8311 10.2814V8.86391H23.2015C23.6425 8.86391 24 8.54974 24 8.16215C24 7.77461 23.6425 7.46039 23.2015 7.46039Z"
          fill="#7D7D7D"/>
    <path d="M17.6197 2.57687C17.6197 1.15601 16.3043 0 14.6875 0H9.31237C7.69557 0 6.38025 1.15596 6.38025 2.57687V10.0565H17.6197V2.57687Z"
          fill="#B2B2B2"/>
</svg>
