<svg viewBox="0 0 24 24" fill="none" xmlns="http://www.w3.org/2000/svg">
<g clip-path="url(#clip0_7367_22660)">
<path d="M14.9536 15.6082C14.9011 15.6368 14.8434 15.6503 14.7862 15.6503C14.6953 15.6503 14.6053 15.6152 14.5378 15.5477L12.1031 13.1131C12.0365 13.0465 12 12.9565 12 12.8641C12 12.9565 11.9634 13.0465 11.8968 13.1131L9.46216 15.5477C9.39466 15.6152 9.30466 15.6503 9.21372 15.6503C9.15653 15.6503 9.09887 15.6368 9.04637 15.6082L2.97657 12.3184V18.9599C2.97652 18.9721 2.97713 18.9842 2.97835 18.9961C2.97886 19.0012 2.97985 19.0062 2.98055 19.0112C2.98144 19.0174 2.98214 19.0235 2.98336 19.0296C2.98486 19.0372 2.98692 19.0447 2.98889 19.0521C2.98983 19.0555 2.99053 19.059 2.99157 19.0624C2.99386 19.07 2.99663 19.0773 2.99939 19.0847C3.00061 19.088 3.00164 19.0913 3.003 19.0946C3.00572 19.1012 3.00886 19.1076 3.01196 19.114C3.01388 19.1179 3.01561 19.1219 3.01767 19.1258C3.02049 19.131 3.02358 19.1361 3.02663 19.1411C3.02953 19.1459 3.0323 19.1508 3.03539 19.1556C3.03797 19.1595 3.04088 19.1632 3.04364 19.1669C3.04763 19.1725 3.05157 19.178 3.05588 19.1833C3.05827 19.1863 3.06094 19.189 3.06342 19.1918C3.06839 19.1976 3.07336 19.2033 3.07871 19.2087C3.08152 19.2115 3.08452 19.2141 3.08742 19.2167C3.09277 19.2218 3.09802 19.2268 3.10369 19.2315C3.10917 19.2361 3.11499 19.2402 3.12071 19.2444C3.12408 19.2469 3.12722 19.2495 3.13069 19.2519C3.14077 19.2587 3.15122 19.265 3.162 19.2708L11.8328 23.9577C11.885 23.9859 11.9425 24 12 24C12.0575 24 12.115 23.9859 12.1671 23.9577L20.8379 19.2708C20.8487 19.265 20.8591 19.2586 20.8692 19.2519C20.8727 19.2495 20.8759 19.2469 20.8792 19.2444C20.885 19.2402 20.8908 19.236 20.8962 19.2315C20.9019 19.2268 20.9071 19.2218 20.9125 19.2167C20.9153 19.2141 20.9184 19.2115 20.9211 19.2087C20.9265 19.2033 20.9315 19.1976 20.9364 19.1918C20.9389 19.189 20.9416 19.1863 20.944 19.1833C20.9483 19.178 20.9522 19.1725 20.9562 19.1669C20.959 19.1632 20.9619 19.1595 20.9645 19.1556C20.9676 19.1508 20.9703 19.146 20.9732 19.1411C20.9763 19.136 20.9794 19.131 20.9822 19.1258C20.9842 19.1219 20.986 19.1179 20.9879 19.114C20.991 19.1076 20.9941 19.1012 20.9969 19.0946C20.9982 19.0913 20.9992 19.088 21.0005 19.0847C21.0032 19.0774 21.006 19.07 21.0083 19.0624C21.0093 19.059 21.01 19.0555 21.011 19.0521C21.0129 19.0447 21.015 19.0372 21.0165 19.0296C21.0177 19.0235 21.0184 19.0174 21.0193 19.0112C21.02 19.0062 21.021 19.0012 21.0215 18.9961C21.0227 18.9841 21.0233 18.972 21.0233 18.9599V12.3184L14.9536 15.6082Z" fill="black"/>
<path d="M11.8157 3.09602C11.9132 3.04356 11.9803 2.94742 11.9962 2.83773C11.9985 2.82091 11.9999 2.80403 11.9999 2.78711C11.9999 2.80403 12.0013 2.82091 12.0037 2.83727C12.0196 2.94695 12.0867 3.04263 12.1842 3.09555L20.8561 7.78306C20.909 7.8117 20.9662 7.82524 21.0234 7.82524C20.9662 7.82524 20.909 7.83935 20.8561 7.8679L12.1842 12.5554C12.0867 12.608 12.0196 12.704 12.0037 12.8137C12.0013 12.8306 11.9999 12.8475 11.9999 12.8643C11.9999 12.8475 11.9985 12.8306 11.9962 12.8137C11.9803 12.704 11.9132 12.608 11.8157 12.5554L3.14383 7.8679C3.09742 7.8431 3.04773 7.82899 2.99805 7.82571C3.04773 7.82243 3.09742 7.80842 3.14383 7.78353L11.8157 3.09602Z" fill="black"/>
<path d="M23.7825 4.98778C23.7985 5.09747 23.7624 5.20805 23.6841 5.2868L21.2728 7.72112C21.2053 7.78951 21.1149 7.82513 21.0235 7.82513C20.9663 7.82513 20.9091 7.81159 20.8561 7.78294L12.1842 3.09544C12.0867 3.04251 12.0197 2.94684 12.0038 2.83715C12.0014 2.82075 12 2.80392 12 2.787C12 2.78653 12 2.78653 12 2.78606C12 2.69376 12.0366 2.60367 12.1031 2.53767L14.5378 0.10293C14.6475 -0.00722694 14.8167 -0.0315551 14.9536 0.0425075L23.6021 4.73002C23.6996 4.78242 23.7661 4.8781 23.7825 4.98778Z" fill="#B2B2B2"/>
<path d="M23.6841 10.364C23.7624 10.4427 23.7985 10.5534 23.7825 10.6631C23.7661 10.7723 23.6996 10.8679 23.6021 10.9209L14.9536 15.6084C14.9011 15.6369 14.8434 15.6505 14.7863 15.6505C14.6953 15.6505 14.6053 15.6153 14.5378 15.5479L12.1031 13.1132C12.0366 13.0467 12 12.9567 12 12.8643C12 12.8474 12.0014 12.8306 12.0038 12.8136C12.0197 12.704 12.0867 12.6079 12.1842 12.5554L20.8561 7.86785C20.9091 7.8393 20.9663 7.8252 21.0235 7.8252C21.1149 7.8252 21.2053 7.86129 21.2728 7.92931L23.6841 10.364Z" fill="#B2B2B2"/>
<path d="M23.684 10.364L21.2727 7.92931C21.2052 7.86129 21.1147 7.8252 21.0233 7.8252C20.9662 7.8252 20.909 7.8393 20.856 7.86785L19.9404 8.36304C19.9934 8.33449 20.0506 8.32038 20.1078 8.32038C20.1992 8.32038 20.2896 8.35648 20.3571 8.42449L22.7684 10.8591C22.8467 10.9379 22.8828 11.0486 22.8668 11.1582C22.8504 11.2675 22.7839 11.363 22.6864 11.4161L23.6019 10.9209C23.6994 10.8679 23.766 10.7723 23.7824 10.6631C23.7983 10.5534 23.7622 10.4427 23.684 10.364Z" fill="#B2B2B2"/>
<path d="M12.0001 2.786C12.0001 2.78647 12.0001 2.78647 12.0001 2.78694C12.0001 2.80386 11.9987 2.82073 11.9963 2.83756C11.9804 2.94725 11.9134 3.04339 11.8159 3.09584L3.14398 7.78335C3.09757 7.80824 3.04788 7.82226 2.9982 7.82554C2.98835 7.82507 2.97804 7.82507 2.9682 7.82554C2.8796 7.82371 2.79288 7.78809 2.72726 7.72199L0.316002 5.28721C0.237721 5.20846 0.201627 5.09788 0.217565 4.98819C0.233971 4.87897 0.300534 4.7833 0.398034 4.73038L9.04649 0.0428674C9.18336 -0.0311952 9.35258 -0.0063983 9.46227 0.103289L11.897 2.53803C11.9635 2.60464 11.9996 2.69417 12.0001 2.786Z" fill="#B2B2B2"/>
<path d="M11.9963 12.8137C11.9987 12.8306 12.0001 12.8475 12.0001 12.8643C12.0001 12.9567 11.9635 13.0467 11.897 13.1132L9.46227 15.5479C9.39477 15.6153 9.30477 15.6505 9.21383 15.6505C9.15664 15.6505 9.09899 15.6369 9.04649 15.6084L0.398034 10.9209C0.300534 10.8679 0.233971 10.7723 0.217565 10.6631C0.201627 10.5534 0.237721 10.4427 0.316002 10.364L2.72726 7.92932C2.79288 7.86323 2.8796 7.82761 2.9682 7.82568C2.97101 7.82615 2.97382 7.82615 2.97663 7.82615C2.98366 7.82615 2.9907 7.82615 2.9982 7.82568C3.04788 7.82896 3.09757 7.84307 3.14398 7.86787L11.8159 12.5554C11.9134 12.6079 11.9804 12.704 11.9963 12.8137Z" fill="#B2B2B2"/>
<path d="M2.99777 7.82555C2.99027 7.82602 2.98324 7.82602 2.97621 7.82602C2.9734 7.82602 2.97059 7.82602 2.96777 7.82555C2.97762 7.82508 2.98793 7.82508 2.99777 7.82555Z" fill="#E2AE83"/>
<path d="M20.9221 12.3734C20.9175 12.3822 20.9127 12.3855 20.9079 12.3811H20.9079L19.6172 13.0806V19.7217C19.6172 19.7339 19.6166 19.746 19.6154 19.7579C19.6149 19.763 19.6139 19.768 19.6132 19.773C19.6123 19.7791 19.6116 19.7853 19.6104 19.7913C19.6089 19.799 19.6069 19.8064 19.6049 19.8138C19.6039 19.8173 19.6032 19.8208 19.6022 19.8242C19.5999 19.8318 19.5971 19.8391 19.5944 19.8465C19.5932 19.8497 19.5921 19.8531 19.5908 19.8563C19.5881 19.863 19.5849 19.8693 19.5818 19.8757C19.5799 19.8797 19.5782 19.8836 19.5761 19.8876C19.5733 19.8928 19.5702 19.8978 19.5671 19.9028C19.5643 19.9077 19.5615 19.9125 19.5584 19.9173C19.5558 19.9213 19.5529 19.9249 19.5501 19.9287C19.5461 19.9342 19.5422 19.9397 19.5379 19.9451C19.5355 19.948 19.5328 19.9507 19.5304 19.9536C19.5253 19.9594 19.5204 19.965 19.5151 19.9704C19.5123 19.9733 19.5093 19.9758 19.5064 19.9785C19.5011 19.9835 19.4958 19.9886 19.4901 19.9932C19.4846 19.9978 19.4788 20.0019 19.4731 20.0061C19.4697 20.0086 19.4666 20.0112 19.4631 20.0136C19.4608 20.0151 19.4584 20.0164 19.4561 20.0179L20.8382 19.2708C20.849 19.2649 20.8594 19.2586 20.8695 19.2518C20.873 19.2495 20.8762 19.2468 20.8795 19.2443C20.8853 19.2401 20.8911 19.236 20.8965 19.2315C20.9022 19.2268 20.9074 19.2217 20.9128 19.2167C20.9157 19.214 20.9187 19.2115 20.9215 19.2086C20.9268 19.2032 20.9318 19.1976 20.9367 19.1918C20.9392 19.1889 20.9419 19.1862 20.9443 19.1833C20.9486 19.178 20.9525 19.1725 20.9565 19.1669C20.9593 19.1631 20.9622 19.1595 20.9648 19.1555C20.9679 19.1507 20.9706 19.1459 20.9735 19.141C20.9766 19.136 20.9797 19.131 20.9825 19.1257C20.9846 19.1218 20.9863 19.1179 20.9882 19.1139C20.9913 19.1075 20.9944 19.1011 20.9972 19.0945C20.9985 19.0912 20.9996 19.0879 21.0008 19.0846C21.0035 19.0773 21.0063 19.07 21.0086 19.0624C21.0096 19.059 21.0103 19.0555 21.0113 19.052C21.0132 19.0446 21.0153 19.0372 21.0168 19.0295C21.018 19.0235 21.0187 19.0173 21.0196 19.0112C21.0203 19.0062 21.0214 19.0012 21.0218 18.9961C21.023 18.9841 21.0237 18.972 21.0236 18.9599V12.3184L20.9221 12.3734Z" fill="black"/>
<path d="M11.8968 13.1131L9.46216 15.5477C9.39466 15.6152 9.30466 15.6503 9.21372 15.6503C9.15653 15.6503 9.09887 15.6368 9.04637 15.6082L2.97657 12.3184V18.9599C2.97652 18.9721 2.97713 18.9842 2.97835 18.9961C2.97886 19.0012 2.97985 19.0062 2.98055 19.0112C2.98144 19.0174 2.98214 19.0235 2.98336 19.0296C2.98486 19.0372 2.98692 19.0447 2.98889 19.0521C2.98983 19.0555 2.99053 19.059 2.99157 19.0624C2.99386 19.07 2.99663 19.0773 2.99939 19.0847C3.00061 19.088 3.00164 19.0913 3.003 19.0946C3.00572 19.1012 3.00886 19.1076 3.01196 19.114C3.01388 19.1179 3.01561 19.1219 3.01767 19.1258C3.02049 19.131 3.02358 19.1361 3.02663 19.1411C3.02953 19.1459 3.0323 19.1508 3.03539 19.1556C3.03797 19.1595 3.04088 19.1632 3.04364 19.1669C3.04763 19.1725 3.05157 19.178 3.05588 19.1833C3.05827 19.1863 3.06094 19.189 3.06342 19.1918C3.06839 19.1976 3.07336 19.2033 3.07871 19.2087C3.08152 19.2115 3.08452 19.2141 3.08742 19.2167C3.09277 19.2218 3.09802 19.2268 3.10369 19.2315C3.10917 19.2361 3.11499 19.2402 3.12071 19.2444C3.12408 19.2469 3.12722 19.2495 3.13069 19.2519C3.14077 19.2587 3.15122 19.265 3.162 19.2708L11.8328 23.9577C11.885 23.9859 11.9425 24 12 24V12.8641C12 12.9565 11.9634 13.0465 11.8968 13.1131Z" fill="#7D7D7D"/>
</g>
<defs>
<clipPath id="clip0_7367_22660">
<rect width="24" height="24" fill="white"/>
</clipPath>
</defs>
</svg>
