<svg width="24" height="24" viewBox="0 0 24 24" fill="none" xmlns="http://www.w3.org/2000/svg">
    <path d="M11.6378 6.20523H17.9155V9.10262H11.6378V6.20523Z" fill="#B2B2B2"/>
    <path d="M17.9155 3.79074H16.4668C15.254 3.79074 14.0523 4.43935 14.0523 5.23941C14.0523 6.03948 15.2062 6.68808 16.4668 6.68808H17.9155C18.7156 6.68808 19.3641 6.03948 19.3641 5.23941C19.3641 4.43935 18.7156 3.79074 17.9155 3.79074Z"
          fill="black"/>
    <path d="M15.0181 5.23944C15.0181 4.43933 15.6667 3.79077 16.4668 3.79077H11.6378V6.68816H16.4668C15.6667 6.68811 15.0181 6.03951 15.0181 5.23944Z"
          fill="black"/>
    <path d="M17.9018 8.62009C16.4667 8.62009 15.501 9.27291 15.501 10.0684L16.4668 15.8427H19.3369V10.0684C19.3369 9.27287 18.6956 8.62009 17.9018 8.62009Z"
          fill="#B2B2B2"/>
    <path d="M17.9019 8.62008C17.8973 8.62003 17.8928 8.61975 17.8882 8.61975H11.6378V15.8427H16.4668V10.0684C16.4668 9.27291 17.1081 8.62744 17.9019 8.62008Z"
          fill="#B2B2B2"/>
    <path d="M13.2586 6.36003C13.0468 6.16864 12.8655 5.95016 12.7176 5.71274C12.7176 5.71278 12.7177 5.71278 12.7177 5.71283C10.7197 5.71283 9.38025 7.89618 9.38025 9.5855L10.3461 13.9316H14.6921V9.5855C14.6921 8.30572 14.1389 7.15532 13.2586 6.36003Z"
          fill="#7D7D7D"/>
    <path d="M12.7177 5.71285C12.4356 5.2598 12.2777 4.73645 12.2777 4.19171V0.96582H8.41448V4.19171C8.41448 5.02191 8.04961 5.80355 7.43353 6.36005C6.55322 7.15534 6 8.30574 6 9.58552V13.9316H10.3461V9.58552C10.3461 7.89619 11.3099 6.43205 12.7177 5.71285Z"
          fill="#7D7D7D"/>
    <path d="M10.7745 7.70251C10.7745 7.70251 9.38025 8.91081 9.38025 9.58553L10.3461 13.9316H12.2776V9.58553C12.2776 8.66612 11.635 7.89751 10.7745 7.70251Z"
          fill="white"/>
    <path d="M10.7747 7.70226C10.6368 7.67099 10.4934 7.65393 10.3461 7.65393C9.27929 7.65393 8.41449 8.51873 8.41449 9.58551V13.9316H10.3461V9.58551C10.3461 8.9107 10.5002 8.27207 10.7747 7.70226Z"
          fill="white"/>
    <path d="M12.0362 0H10.5875C9.57141 0 8.65594 0.432422 8.65594 0.965813C8.65594 1.4992 9.61927 1.93163 10.5875 1.93163H12.0362C12.5696 1.93163 13.002 1.4992 13.002 0.965813C13.002 0.432422 12.5696 0 12.0362 0Z"
          fill="black"/>
    <path d="M9.6217 0.965813C9.6217 0.432422 10.0541 0 10.5875 0H8.65594C8.12255 0 7.69012 0.432422 7.69012 0.965813C7.69012 1.4992 8.12255 1.93163 8.65594 1.93163H10.5875C10.0541 1.93158 9.6217 1.4992 9.6217 0.965813Z"
          fill="black"/>
    <path d="M3.79071 24H13.4486L12 12L1.85913 14.8974V22.0684C1.85913 23.1352 2.72393 24 3.79071 24Z" fill="#7D7D7D"/>
    <path d="M5.23943 22.0684V13.9316L1.85913 14.8974V22.0684C1.85913 23.1352 2.72393 24 3.79071 24H7.17101C6.10422 24 5.23943 23.1352 5.23943 22.0684Z"
          fill="#7D7D7D"/>
    <path d="M13.4487 24H20.2092C21.276 24 22.1408 23.1352 22.1408 22.0684V14.8974L12 12V22.5513C12 23.3514 12.6486 24 13.4487 24Z"
          fill="black"/>
    <path d="M5.55385 12C4.51505 12 3.99948 12.1995 3.9009 12.4953L2.45223 16.8413C2.2959 17.3104 2.84743 17.7947 4.10518 17.7947H9.54634C9.8581 17.7947 10.1349 17.5952 10.2335 17.2995L12 12H5.55385Z"
          fill="black"/>
    <path d="M3.41797 16.8413L4.86664 12.4953C4.96522 12.1995 5.24202 12 5.55383 12H2.17358C1.86182 12 1.58502 12.1995 1.48639 12.4953L0.0377215 16.8413C-0.118607 17.3104 0.230471 17.7947 0.724909 17.7947H4.10521C3.61077 17.7948 3.26164 17.3104 3.41797 16.8413Z"
          fill="black"/>
    <path d="M23.9623 16.8413L22.5136 12.4953C22.415 12.1995 22.1382 12 21.8264 12H15.3803L16.181 17.2995C16.2796 17.5953 17.0148 17.7948 17.834 17.7948H23.2751C23.7695 17.7948 24.1187 17.3104 23.9623 16.8413Z"
          fill="#7D7D7D"/>
    <path d="M17.1468 17.2995L15.3803 12H12L13.7665 17.2995C13.8651 17.5953 14.1419 17.7948 14.4537 17.7948H17.834C17.5222 17.7948 17.2454 17.5953 17.1468 17.2995Z"
          fill="#7D7D7D"/>
</svg>
