<svg viewBox="0 0 24 24" fill="none" xmlns="http://www.w3.org/2000/svg">
<g clip-path="url(#clip0_7189_10815)">
<path d="M12 23.625C18.4203 23.625 23.625 18.4203 23.625 12C23.625 5.57969 18.4203 0.375 12 0.375C5.57969 0.375 0.375 5.57969 0.375 12C0.375 18.4203 5.57969 23.625 12 23.625Z" fill="#B2B2B2"/>
<path d="M12 22.125C17.5919 22.125 22.125 17.5919 22.125 12C22.125 6.40812 17.5919 1.875 12 1.875C6.40812 1.875 1.875 6.40812 1.875 12C1.875 17.5919 6.40812 22.125 12 22.125Z" fill="#B2B2B2"/>
<path d="M8.25 6V18.75H10.5V13.5H13.875C14.7701 13.5 15.6286 13.1444 16.2615 12.5115C16.8944 11.8786 17.25 11.0201 17.25 10.125V8.625C17.25 7.72989 16.8944 6.87145 16.2615 6.23851C15.6286 5.60558 14.7701 5.25 13.875 5.25H9C8.80109 5.25 8.61032 5.32902 8.46967 5.46967C8.32902 5.61032 8.25 5.80109 8.25 6ZM13.875 11.25H10.5V7.5H13.875C14.1734 7.5 14.4595 7.61853 14.6705 7.8295C14.8815 8.04048 15 8.32663 15 8.625V10.125C15 10.4234 14.8815 10.7095 14.6705 10.9205C14.4595 11.1315 14.1734 11.25 13.875 11.25Z" fill="black"/>
</g>
<defs>
<clipPath id="clip0_7189_10815">
<rect width="24" height="24" fill="white"/>
</clipPath>
</defs>
</svg>
