
<svg xmlns="http://www.w3.org/2000/svg" viewBox="0 0 24 24" fill="none">
  <path d="M6.5 11C8.98528 11 11 8.98528 11 6.5C11 4.01472 8.98528 2 6.5 2C4.01472 2 2 4.01472 2 6.5C2 8.98528 4.01472 11 6.5 11Z" fill="black"/>
  <path opacity="0.3" d="M13 6.5C13 5.60999 13.2639 4.73996 13.7584 3.99994C14.2529 3.25991 14.9557 2.68314 15.7779 2.34254C16.6002 2.00195 17.505 1.91283 18.3779 2.08647C19.2508 2.2601 20.0527 2.68868 20.682 3.31802C21.3113 3.94736 21.7399 4.74918 21.9135 5.6221C22.0872 6.49501 21.9981 7.39981 21.6575 8.22208C21.3169 9.04434 20.7401 9.74715 20.0001 10.2416C19.2601 10.7361 18.39 11 17.5 11C16.9087 11.0013 16.3229 10.8858 15.7764 10.6601C15.2298 10.4345 14.7332 10.103 14.3151 9.68492C13.897 9.2668 13.5655 8.7702 13.3399 8.22364C13.1142 7.67708 12.9987 7.09132 13 6.5ZM6.50001 22C7.39003 22 8.26006 21.7361 9.00008 21.2416C9.7401 20.7471 10.3169 20.0443 10.6575 19.2221C10.9981 18.3998 11.0872 17.495 10.9135 16.6221C10.7399 15.7492 10.3113 14.9474 9.68199 14.318C9.05265 13.6887 8.25083 13.2601 7.37792 13.0865C6.505 12.9128 5.6002 13.0019 4.77794 13.3425C3.95567 13.6831 3.25286 14.2599 2.7584 14.9999C2.26393 15.74 2.00001 16.61 2.00001 17.5C1.99869 18.0913 2.11419 18.6771 2.33987 19.2236C2.56555 19.7702 2.89696 20.2668 3.31509 20.6849C3.73322 21.1031 4.22982 21.4345 4.77638 21.6601C5.32294 21.8858 5.90869 22.0013 6.50001 22ZM17.5 22C18.39 22 19.2601 21.7361 20.0001 21.2416C20.7401 20.7471 21.3169 20.0443 21.6575 19.2221C21.9981 18.3998 22.0872 17.495 21.9135 16.6221C21.7399 15.7492 21.3113 14.9474 20.682 14.318C20.0527 13.6887 19.2508 13.2601 18.3779 13.0865C17.505 12.9128 16.6002 13.0019 15.7779 13.3425C14.9557 13.6831 14.2529 14.2599 13.7584 14.9999C13.2639 15.74 13 16.61 13 17.5C12.9987 18.0913 13.1142 18.6771 13.3399 19.2236C13.5655 19.7702 13.897 20.2668 14.3151 20.6849C14.7332 21.1031 15.2298 21.4345 15.7764 21.6601C16.3229 21.8858 16.9087 22.0013 17.5 22Z" fill="black"/>
</svg>
