<svg xmlns="http://www.w3.org/2000/svg" width="32" height="32" viewBox="0 0 32 32" fill="none">
  <path
    d="M26.8924 2.44146C26.3042 1.85339 25.3531 1.85339 24.7712 2.44146L21.3359 5.86984L26.129 10.6621L29.5581 7.23368C30.1463 6.6456 30.1463 5.69467 29.5581 5.11284L26.8924 2.44146ZM5.19808 22.0107C4.72252 22.4862 4.37836 23.068 4.19064 23.7124L2.47612 29.5181L8.28297 27.8102C8.92748 27.6225 9.50941 27.2722 9.98497 26.8029L24.7148 12.0759L19.9217 7.28373L5.19808 22.0107ZM23.3507 1.02757C24.7211 -0.342525 26.9362 -0.342525 28.3066 1.02757L30.9722 3.6927C32.3426 5.06279 32.3426 7.27747 30.9722 8.64757L11.4054 28.2168C10.6921 28.93 9.81603 29.4493 8.85239 29.7308L1.28096 31.958C0.930546 32.0644 0.548846 31.9643 0.292293 31.7078C0.0357404 31.4513 -0.0643776 31.0696 0.0419978 30.7193L2.26962 23.1493C2.55121 22.1859 3.07683 21.31 3.78391 20.5968L23.3507 1.02757ZM5.17305 1.67196C6.73739 0.107919 9.27163 0.107919 10.836 1.67196L15.2725 6.10757L13.8583 7.52146L11.8684 5.53201L9.72216 7.67787C9.33421 8.06575 8.69595 8.06575 8.308 7.67787C7.92004 7.28999 7.92004 6.65186 8.308 6.26398L10.448 4.11186L9.42181 3.08585C8.63964 2.30383 7.36939 2.30383 6.58722 3.08585L3.12063 6.55802C2.33846 7.34004 2.33846 8.61003 3.12063 9.39205L7.55711 13.8277L6.14294 15.2353L1.70646 10.8059C0.142116 9.24191 0.142116 6.70816 1.70646 5.14412L5.17305 1.67196ZM21.1919 30.2876L16.7555 25.852L18.1696 24.4381L22.6061 28.8737C23.3883 29.6557 24.6585 29.6557 25.4407 28.8737L28.9073 25.4078C29.6895 24.6258 29.6895 23.3558 28.9073 22.5738L27.8873 21.5478L25.7411 23.6936C25.3531 24.0815 24.7148 24.0815 24.3269 23.6936C23.9389 23.3057 23.9389 22.6676 24.3269 22.2797L26.4669 20.1276L24.4771 18.1382L25.8912 16.7243L30.3277 21.1599C31.8921 22.7239 31.8921 25.2577 30.3277 26.8217L26.8611 30.2876C25.2968 31.8517 22.7625 31.8517 21.1982 30.2876H21.1919Z"
    fill="black" />
</svg>