<svg xmlns="http://www.w3.org/2000/svg" viewBox="0 0 24 24" fill="none">
<path d="M11.2101 15.5496C13.0603 15.5496 14.5601 14.0498 14.5601 12.1996C14.5601 10.3495 13.0603 8.84961 11.2101 8.84961C9.35995 8.84961 7.86011 10.3495 7.86011 12.1996C7.86011 14.0498 9.35995 15.5496 11.2101 15.5496Z" fill="black"/>
<path d="M11.21 22.0002C13.5076 22.0002 15.37 20.8227 15.37 19.3702C15.37 17.9177 13.5076 16.7402 11.21 16.7402C8.91254 16.7402 7.05005 17.9177 7.05005 19.3702C7.05005 20.8227 8.91254 22.0002 11.21 22.0002Z" fill="black"/>
<path opacity="0.3" d="M16.5101 7.64C18.0675 7.64 19.3301 6.37744 19.3301 4.82C19.3301 3.26256 18.0675 2 16.5101 2C14.9526 2 13.6901 3.26256 13.6901 4.82C13.6901 6.37744 14.9526 7.64 16.5101 7.64Z" fill="black"/>
<path opacity="0.3" d="M5.88006 7.64C7.4375 7.64 8.70006 6.37744 8.70006 4.82C8.70006 3.26256 7.4375 2 5.88006 2C4.32262 2 3.06006 3.26256 3.06006 4.82C3.06006 6.37744 4.32262 7.64 5.88006 7.64Z" fill="black"/>
<g opacity="0.3">
<path d="M16.35 9.83008C16.03 9.83008 15.72 9.83008 15.41 9.88008C15.8807 10.6975 16.0934 11.6381 16.0203 12.5785C15.9471 13.5189 15.5915 14.4153 15 15.1501C15.448 15.2388 15.9033 15.2857 16.36 15.2901C18.9 15.2901 20.95 14.0601 20.95 12.5601C20.95 11.0601 18.89 9.83008 16.35 9.83008Z" fill="black"/>
</g>
</svg>