<svg viewBox="0 0 55 55" fill="none" xmlns="http://www.w3.org/2000/svg">
    <path d="M25.223 34.9871C29.3859 34.9871 32.7605 31.6125 32.7605 27.4496C32.7605 23.2868 29.3859 19.9121 25.223 19.9121C21.0602 19.9121 17.6855 23.2868 17.6855 27.4496C17.6855 31.6125 21.0602 34.9871 25.223 34.9871Z"
          fill="white"/>
    <path d="M25.2213 49.4991C30.3907 49.4991 34.5813 46.8497 34.5813 43.5816C34.5813 40.3134 30.3907 37.6641 25.2213 37.6641C20.0519 37.6641 15.8613 40.3134 15.8613 43.5816C15.8613 46.8497 20.0519 49.4991 25.2213 49.4991Z"
          fill="white"/>
    <path opacity="0.3"
          d="M37.1477 17.19C40.652 17.19 43.4927 14.3492 43.4927 10.845C43.4927 7.34075 40.652 4.5 37.1477 4.5C33.6435 4.5 30.8027 7.34075 30.8027 10.845C30.8027 14.3492 33.6435 17.19 37.1477 17.19Z"
          fill="white"/>
    <path opacity="0.3"
          d="M13.2298 17.19C16.734 17.19 19.5748 14.3492 19.5748 10.845C19.5748 7.34075 16.734 4.5 13.2298 4.5C9.72552 4.5 6.88477 7.34075 6.88477 10.845C6.88477 14.3492 9.72552 17.19 13.2298 17.19Z"
          fill="white"/>
    <g opacity="0.3">
        <path d="M36.7875 22.1172C36.0675 22.1172 35.37 22.1172 34.6725 22.2297C35.7316 24.0689 36.2102 26.1852 36.0456 28.3011C35.881 30.4171 35.0808 32.4339 33.75 34.0872C34.758 34.2868 35.7824 34.3922 36.81 34.4022C42.525 34.4022 47.1375 31.6347 47.1375 28.2597C47.1375 24.8847 42.5025 22.1172 36.7875 22.1172Z"
              fill="white"/>
    </g>
</svg>
