<svg xmlns="http://www.w3.org/2000/svg" width="24" height="24" viewBox="0 0 20 20" color="#171D38"
    fill="none">
    <path
        d="M16.1363 17.8863H16.032C3.97405 17.1929 2.26201 7.01881 2.02269 3.91381C2.00341 3.67239 2.03195 3.42954 2.10668 3.19917C2.18141 2.96881 2.30087 2.75545 2.4582 2.57133C2.61553 2.3872 2.80765 2.23593 3.02354 2.12619C3.23943 2.01644 3.47486 1.95037 3.71633 1.93176H7.09746C7.34326 1.93153 7.58347 2.0051 7.78696 2.14295C7.99046 2.28081 8.14788 2.47659 8.23883 2.70495L9.17155 4.99995C9.26136 5.22303 9.28365 5.46758 9.23565 5.70323C9.18764 5.93887 9.07147 6.15522 8.90155 6.3254L7.59451 7.64472C7.79868 8.80495 8.3543 9.87447 9.18622 10.7086C10.0181 11.5427 11.0862 12.1011 12.2459 12.3084L13.5775 10.989C13.7502 10.821 13.9686 10.7075 14.2054 10.6628C14.4422 10.618 14.6869 10.644 14.9091 10.7374L17.2225 11.664C17.4474 11.7579 17.6393 11.9165 17.7737 12.1198C17.9081 12.323 17.979 12.5617 17.9772 12.8054V16.0454C17.9772 16.5336 17.7833 17.0019 17.438 17.3471C17.0928 17.6924 16.6246 17.8863 16.1363 17.8863ZM3.8636 3.15904C3.70085 3.15904 3.54477 3.22369 3.42969 3.33877C3.31461 3.45385 3.24996 3.60993 3.24996 3.77267V3.82176C3.53224 7.45449 5.34246 16.0454 16.0995 16.659C16.1801 16.664 16.2609 16.653 16.3373 16.6267C16.4137 16.6004 16.4841 16.5593 16.5445 16.5057C16.6049 16.4521 16.6542 16.3871 16.6894 16.3144C16.7247 16.2418 16.7453 16.1629 16.75 16.0822V12.8054L14.4366 11.8788L12.6754 13.6277L12.3809 13.5909C7.04224 12.922 6.31815 7.58335 6.31815 7.52813L6.28133 7.23358L8.02405 5.47245L7.1036 3.15904H3.8636Z"
        fill="currentColor" />
</svg>