<svg viewBox="0 0 18 19" fill="none" xmlns="http://www.w3.org/2000/svg">
<path opacity="0.3" d="M8.25 2.04499C7.08446 2.18121 5.97874 2.63503 5.05356 3.35688C4.12837 4.07874 3.41928 5.04089 3.00368 6.13831C2.58809 7.23572 2.48197 8.42622 2.69691 9.57985C2.91184 10.7335 3.43958 11.8059 4.2225 12.68L7.5 16.3175C7.68982 16.5268 7.92134 16.694 8.17968 16.8085C8.43801 16.923 8.71744 16.9821 9 16.9821C9.28256 16.9821 9.56199 16.923 9.82033 16.8085C10.0787 16.694 10.3102 16.5268 10.5 16.3175L13.7625 12.68C14.6256 11.7102 15.1741 10.5014 15.3353 9.21321C15.4966 7.92505 15.2631 6.61828 14.6656 5.46569C14.0682 4.31311 13.135 3.369 11.9895 2.75821C10.8439 2.14742 9.53995 1.89872 8.25 2.04499ZM9 10.8125C8.52353 10.814 8.05733 10.674 7.66043 10.4104C7.26353 10.1468 6.95379 9.77129 6.77042 9.33151C6.58705 8.89173 6.5383 8.40742 6.63035 7.93992C6.7224 7.47242 6.95109 7.04274 7.28749 6.7053C7.62388 6.36785 8.05284 6.13781 8.52006 6.04431C8.98727 5.95081 9.47172 5.99804 9.91207 6.18004C10.3524 6.36203 10.7289 6.6706 10.9937 7.06668C11.2586 7.46275 11.4 7.92851 11.4 8.40499C11.4 9.0422 11.1474 9.65342 10.6975 10.1047C10.2476 10.556 9.63721 10.8105 9 10.8125Z" fill="white"/>
<path d="M9 10.8799C10.4 10.8799 11.535 9.74498 11.535 8.34494C11.535 6.94489 10.4 5.80994 9 5.80994C7.59996 5.80994 6.465 6.94489 6.465 8.34494C6.465 9.74498 7.59996 10.8799 9 10.8799Z" fill="white"/>
</svg>
