<svg  viewBox="0 0 57 66" fill="none" xmlns="http://www.w3.org/2000/svg">
<path d="M49.6667 22.1667L14.35 2.01666C12.916 1.18872 11.2892 0.753198 9.63332 0.753938C7.97745 0.754677 6.351 1.19165 4.91772 2.02087C3.48444 2.85008 2.29492 4.04227 1.46891 5.47741C0.642908 6.91254 0.209573 8.53996 0.21254 10.1958V55.8041C0.209573 57.46 0.642908 59.0874 1.46891 60.5226C2.29492 61.9577 3.48444 63.1499 4.91772 63.9791C6.351 64.8083 7.97745 65.2453 9.63332 65.246C11.2892 65.2468 12.916 64.8113 14.35 63.9833L49.6667 43.8333C51.6404 42.7947 53.2929 41.2367 54.4457 39.3274C55.5984 37.4182 56.2077 35.2303 56.2077 33C56.2077 30.7697 55.5984 28.5818 54.4457 26.6725C53.2929 24.7633 51.6404 23.2052 49.6667 22.1667Z" fill="white"/>
</svg>
