<svg
      viewBox="0 0 31 41"
      fill="none"
      xmlns="http://www.w3.org/2000/svg"
    >
      <svg
        width="24"
        height="34"
        viewBox="0 0 24 34"
        fill="none"
        xmlns="http://www.w3.org/2000/svg"
      >
        <path
          fillRule="evenodd"
          clipRule="evenodd"
          d="M11.904 33.1752C17.112 30.2899 23.808 21.243 23.808 12.7156C23.808 5.76199 18.4784 0.125 11.904 0.125C5.3296 0.125 0 5.76199 0 12.7156C0 20.5847 6.944 30.2899 11.904 33.1752ZM11.9039 20.5844C16.2868 20.5844 19.8399 16.8264 19.8399 12.1907C19.8399 7.55499 16.2868 3.797 11.9039 3.797C7.52094 3.797 3.96787 7.55499 3.96787 12.1907C3.96787 16.8264 7.52094 20.5844 11.9039 20.5844Z"
          fill="#061AB1"
        />
        <ellipse
          cx="11.9038"
          cy="12.1906"
          rx="7.936"
          ry="8.39371"
          fill="#FF860D"
        />
        <ellipse
          cx="11.904"
          cy="12.1914"
          rx="3.84"
          ry="4.06147"
          fill="#061AB1"
        />
      </svg>
    </svg>