<svg viewBox="0 0 18 18" fill="none" xmlns="http://www.w3.org/2000/svg">
<path d="M7.75 5.66667C9 4.83333 10.6667 5.25 10.6667 6.91667C10.6667 8.25 9.55556 8.58333 9 8.58333V9.41667M9 11.9167C9.33333 11.9167 9.41667 12.1944 9.41667 12.3333M9 11.9167C8.66667 11.9167 8.58333 12.1944 8.58333 12.3333M9 11.9167V12.75M9.41667 12.3333C9.41667 12.4722 9.33333 12.75 9 12.75M9.41667 12.3333H8.58333M9 12.75C8.66667 12.75 8.58333 12.4722 8.58333 12.3333M16.5 9C16.5 13.1421 13.1421 16.5 9 16.5C4.85786 16.5 1.5 13.1421 1.5 9C1.5 4.85786 4.85786 1.5 9 1.5C13.1421 1.5 16.5 4.85786 16.5 9Z" stroke="#1A2550" stroke-linecap="round" stroke-linejoin="round"/>
</svg>
