<svg xmlns="http://www.w3.org/2000/svg"  viewBox="0 0 20 20" fill="#C29B40">
    <path opacity="0.3"
          d="M10 20C15.5228 20 20 15.5228 20 10C20 4.47715 15.5228 0 10 0C4.47715 0 0 4.47715 0 10C0 15.5228 4.47715 20 10 20Z"
          fill="currentColor"/>
    <path d="M10.0001 13C9.8012 13 9.61044 12.921 9.46979 12.7803C9.32914 12.6397 9.25012 12.4489 9.25012 12.25V11.43C9.24079 10.9287 9.37278 10.435 9.63098 10.0052C9.88918 9.57548 10.2632 9.22712 10.7101 9C10.9721 8.87322 11.1954 8.67861 11.3567 8.43638C11.5181 8.19415 11.6116 7.91314 11.6276 7.62254C11.6437 7.33193 11.5816 7.04233 11.4479 6.78383C11.3141 6.52532 11.1136 6.30733 10.8672 6.15251C10.6207 5.99769 10.3373 5.91168 10.0464 5.90342C9.75547 5.89515 9.46763 5.96493 9.21279 6.10552C8.95795 6.2461 8.74539 6.45235 8.59721 6.70285C8.44902 6.95335 8.37061 7.23895 8.37012 7.53C8.37012 7.72891 8.2911 7.91968 8.15045 8.06033C8.0098 8.20098 7.81903 8.28 7.62012 8.28C7.4212 8.28 7.23044 8.20098 7.08979 8.06033C6.94914 7.91968 6.87012 7.72891 6.87012 7.53C6.87179 7.07204 6.97361 6.62 7.16845 6.20555C7.36328 5.79111 7.64641 5.4243 7.99799 5.13084C8.34957 4.83739 8.76108 4.62438 9.20368 4.50677C9.64627 4.38916 10.1092 4.36978 10.5601 4.45C11.1896 4.56842 11.768 4.87593 12.2183 5.33153C12.6685 5.78712 12.9692 6.36915 13.0801 7C13.2063 7.6742 13.106 8.3712 12.7949 8.98251C12.4839 9.59382 11.9794 10.0851 11.3601 10.38C11.1706 10.4832 11.0133 10.6369 10.9056 10.824C10.7979 11.011 10.7441 11.2242 10.7501 11.44V12.26C10.7475 12.4572 10.6673 12.6454 10.5269 12.7839C10.3866 12.9224 10.1973 13 10.0001 13Z"
          fill="currentColor"/>
    <path d="M10 15.59C10.4142 15.59 10.75 15.2542 10.75 14.84C10.75 14.4258 10.4142 14.09 10 14.09C9.58579 14.09 9.25 14.4258 9.25 14.84C9.25 15.2542 9.58579 15.59 10 15.59Z"
          fill="currentColor"/>
</svg>
