<svg xmlns="http://www.w3.org/2000/svg" viewBox="0 0 32 32" fill="none" color="#171D38">
  <path opacity="0.3"
    d="M28.52 14.0399L26.6667 12.1599C26.5375 12.0333 26.4354 11.8817 26.3666 11.7144C26.2978 11.5471 26.2638 11.3675 26.2667 11.1866V8.51995C26.2649 8.15462 26.191 7.79323 26.0492 7.45655C25.9074 7.11986 25.7004 6.81452 25.4403 6.55805C25.1801 6.30159 24.8718 6.09906 24.5331 5.96209C24.1944 5.82513 23.832 5.75643 23.4667 5.75995H20.8C20.6191 5.7628 20.4395 5.7288 20.2722 5.66004C20.1049 5.59127 19.9533 5.48917 19.8267 5.35995L17.96 3.47995C17.44 2.96049 16.735 2.6687 16 2.6687C15.265 2.6687 14.56 2.96049 14.04 3.47995L12.16 5.33328C12.0334 5.4625 11.8818 5.5646 11.7145 5.63337C11.5471 5.70214 11.3676 5.73613 11.1867 5.73328H8.52001C8.15468 5.73502 7.79329 5.80893 7.45661 5.95075C7.11993 6.09257 6.81458 6.29952 6.55812 6.5597C6.30165 6.81988 6.09912 7.12817 5.96215 7.46686C5.82519 7.80555 5.75649 8.16797 5.76001 8.53328V11.1999C5.76286 11.3808 5.72886 11.5604 5.6601 11.7277C5.59133 11.8951 5.48923 12.0467 5.36001 12.1733L3.48001 14.0399C2.96055 14.56 2.66876 15.2649 2.66876 15.9999C2.66876 16.735 2.96055 17.4399 3.48001 17.9599L5.33334 19.84C5.46256 19.9666 5.56466 20.1182 5.63343 20.2855C5.7022 20.4528 5.73619 20.6324 5.73334 20.8133V23.4799C5.73508 23.8453 5.80899 24.2067 5.95081 24.5434C6.09263 24.88 6.29958 25.1854 6.55976 25.4418C6.81994 25.6983 7.12823 25.9008 7.46692 26.0378C7.80561 26.1748 8.16803 26.2435 8.53334 26.24H11.2C11.3809 26.2371 11.5605 26.2711 11.7278 26.3399C11.8951 26.4086 12.0467 26.5107 12.1733 26.6399L14.0533 28.5199C14.5734 29.0394 15.2783 29.3312 16.0133 29.3312C16.7484 29.3312 17.4533 29.0394 17.9733 28.5199L19.84 26.6666C19.9666 26.5374 20.1182 26.4353 20.2855 26.3665C20.4529 26.2978 20.6325 26.2638 20.8133 26.2666H23.48C24.2155 26.2666 24.9209 25.9744 25.4411 25.4543C25.9612 24.9342 26.2533 24.2288 26.2533 23.4933V20.8266C26.2505 20.6457 26.2845 20.4662 26.3533 20.2988C26.422 20.1315 26.5241 19.9799 26.6533 19.8533L28.5333 17.9733C28.7917 17.7147 28.9964 17.4075 29.1356 17.0696C29.2748 16.7316 29.3459 16.3694 29.3446 16.0038C29.3434 15.6383 29.2699 15.2766 29.1284 14.9396C28.9868 14.6025 28.7801 14.2968 28.52 14.0399Z"
    fill="currentColor" />
  <path
    d="M16 19.9067C15.7359 19.9033 15.4835 19.7968 15.2967 19.61C15.1099 19.4232 15.0035 19.1709 15 18.9067V17.8134C15.0049 17.1609 15.1891 16.5222 15.5324 15.9673C15.8757 15.4123 16.365 14.9624 16.9467 14.6667C17.296 14.4977 17.5937 14.2382 17.8088 13.9152C18.024 13.5923 18.1487 13.2176 18.1701 12.8301C18.1914 12.4426 18.1087 12.0565 17.9304 11.7118C17.7521 11.3672 17.4847 11.0765 17.1561 10.8701C16.8275 10.6636 16.4496 10.549 16.0617 10.5379C15.6738 10.5269 15.29 10.62 14.9503 10.8074C14.6105 10.9949 14.3271 11.2699 14.1295 11.6039C13.9319 11.9379 13.8273 12.3187 13.8267 12.7067C13.8267 12.9719 13.7213 13.2263 13.5338 13.4138C13.3463 13.6014 13.0919 13.7067 12.8267 13.7067C12.5615 13.7067 12.3071 13.6014 12.1196 13.4138C11.932 13.2263 11.8267 12.9719 11.8267 12.7067C11.8174 12.0861 11.9481 11.4714 12.2089 10.9082C12.4697 10.345 12.8541 9.84775 13.3334 9.45339C13.7856 9.06714 14.3151 8.782 14.8865 8.61707C15.4578 8.45214 16.0579 8.41123 16.6464 8.49709C17.2348 8.58295 17.7982 8.79358 18.2986 9.11489C18.799 9.43619 19.225 9.86074 19.548 10.3601C19.871 10.8594 20.0836 11.4221 20.1714 12.0102C20.2593 12.5984 20.2204 13.1986 20.0574 13.7705C19.8944 14.3425 19.611 14.8729 19.2263 15.3265C18.8416 15.78 18.3644 16.146 17.8267 16.4001C17.5739 16.5377 17.3642 16.7426 17.2207 16.992C17.0771 17.2414 17.0054 17.5257 17.0134 17.8134V18.9067C17.0099 19.1732 16.9015 19.4275 16.7119 19.6147C16.5222 19.8018 16.2665 19.9067 16 19.9067Z"
    fill="currentColor" />
  <path
    d="M16 23.3733C16.5523 23.3733 17 22.9256 17 22.3733C17 21.821 16.5523 21.3733 16 21.3733C15.4477 21.3733 15 21.821 15 22.3733C15 22.9256 15.4477 23.3733 16 23.3733Z"
    fill="currentColor" />
</svg>