<svg viewBox="0 0 50 51" fill="none" xmlns="http://www.w3.org/2000/svg">
<g opacity="0.3">
<path d="M44.9999 0.999546L36.1499 2.59955C31.6678 3.79679 27.5913 6.18045 24.3499 9.49955C19.1749 14.8995 13.3999 26.4745 11.0999 31.2995C10.8052 31.9369 10.7167 32.6504 10.8466 33.3405C10.9766 34.0306 11.3186 34.663 11.8249 35.1495L16.9749 40.1495C17.4757 40.6371 18.1184 40.9531 18.8103 41.052C19.5022 41.1508 20.2076 41.0274 20.8249 40.6995C28.29 36.9262 35.2946 32.3039 41.6999 26.9245C45.0791 23.503 47.3598 19.1504 48.2499 14.4245L49.8499 5.99955C49.9793 5.32822 49.9448 4.63559 49.7494 3.98044C49.5539 3.32529 49.2033 2.72696 48.7273 2.23622C48.2513 1.74548 47.6639 1.37682 47.015 1.16153C46.3661 0.946242 45.6749 0.890675 44.9999 0.999546ZM39.0999 18.9745C38.4184 19.6948 37.5381 20.1961 36.571 20.4148C35.6038 20.6336 34.5935 20.5598 33.6684 20.2028C32.7432 19.8459 31.9451 19.222 31.3755 18.4104C30.8059 17.5988 30.4904 16.6361 30.4692 15.6447C30.4481 14.6534 30.7222 13.6781 31.2566 12.8429C31.7911 12.0077 32.5618 11.3503 33.4709 10.9542C34.3799 10.5581 35.3862 10.4413 36.3618 10.6185C37.3374 10.7957 38.2383 11.259 38.9499 11.9495C39.8938 12.8654 40.4389 14.1163 40.467 15.4313C40.495 16.7462 40.0039 18.0192 39.0999 18.9745Z" fill="white"/>
</g>
<path d="M18.4 17.6492L11.45 30.6742L0 30.3992C0 30.3992 9.575 15.7742 18.4 17.6492ZM35.2 31.9992L22.7 39.6492L23.475 50.9992C23.475 50.9992 37.5 40.6992 35.2 31.9992ZM35.45 10.5742C34.4611 10.5742 33.4944 10.8675 32.6721 11.4169C31.8499 11.9663 31.209 12.7472 30.8306 13.6608C30.4522 14.5744 30.3531 15.5798 30.5461 16.5497C30.739 17.5196 31.2152 18.4105 31.9145 19.1098C32.6137 19.809 33.5046 20.2852 34.4745 20.4781C35.4445 20.6711 36.4498 20.5721 37.3634 20.1936C38.2771 19.8152 39.0579 19.1743 39.6073 18.3521C40.1568 17.5298 40.45 16.5631 40.45 15.5742C40.45 14.2481 39.9232 12.9764 38.9855 12.0387C38.0479 11.101 36.7761 10.5742 35.45 10.5742Z" fill="white"/>
</svg>
