<svg viewBox="0 0 24 24" fill="none" xmlns="http://www.w3.org/2000/svg">
<g clip-path="url(#clip0_7464_99225)">
<path d="M6.19501 9.9056C6.04706 9.9056 5.9079 9.81423 5.85406 9.6672C5.65338 9.11971 5.55176 8.54403 5.55176 7.95608C5.55176 5.97195 6.72821 4.1799 8.54882 3.39053C8.73303 3.31052 8.94689 3.39511 9.02655 3.57913C9.10638 3.76315 9.02197 3.9772 8.83795 4.05685C7.28302 4.73105 6.27832 6.26162 6.27832 7.95608C6.27832 8.45852 6.36511 8.95016 6.53613 9.41726C6.60516 9.60568 6.5083 9.81423 6.32007 9.88326C6.27869 9.89846 6.23657 9.9056 6.19501 9.9056Z" fill="black"/>
<path d="M20.569 0H10.6562C10.1031 0 9.61053 0.349731 9.42853 0.871764L8.56445 3.34515L9.43329 5.91192C9.61255 6.43981 10.1078 6.7954 10.6654 6.7954H20.569C21.083 6.7954 21.4994 6.37884 21.4994 5.86504V0.930358C21.4994 0.416564 21.083 0 20.569 0ZM12.1843 4.56848C11.5372 4.56848 11.0131 4.04443 11.0131 3.39752C11.0131 2.75097 11.5372 2.22638 12.1843 2.22638C12.8308 2.22638 13.3547 2.75097 13.3547 3.39752C13.3547 4.04443 12.8308 4.56848 12.1843 4.56848Z" fill="black"/>
<path d="M13.2897 3.78253C13.1305 4.24029 12.6959 4.5686 12.1841 4.5686C11.567 4.5686 11.062 4.09179 11.0168 3.48608C10.8335 3.33557 10.6903 3.1347 10.6103 2.89923L9.75262 0.365234C9.60943 0.503479 9.49701 0.675415 9.42834 0.871887L8.56445 3.34527L9.43329 5.91204C9.61236 6.43993 10.1078 6.79552 10.6654 6.79552H20.569C21.0828 6.79552 21.4994 6.37896 21.4994 5.86517V3.78253H13.2897Z" fill="black"/>
<path d="M14.8847 15.5127L18.0859 23.4443L16.8729 23.9339C16.7469 23.9848 16.6035 23.9236 16.5526 23.7978L13.4435 16.0944L13.2578 15.2618L14.4973 14.625L14.8847 15.5127Z" fill="black"/>
<path d="M14.3329 11.2984C14.5074 11.7309 14.2981 12.2225 13.8661 12.3968L12.1462 13.0908L11.5006 13.3455L10.8037 11.7939L11.691 11.4548L13.2346 10.832C13.3383 10.7903 13.4446 10.7705 13.5497 10.7705C13.8839 10.7705 14.1998 10.9701 14.3329 11.2984Z" fill="white"/>
<path d="M10.4006 12.2565C10.6011 12.3493 10.6879 12.5868 10.5949 12.7868L10.2499 13.5302C10.1571 13.7301 9.91922 13.8169 9.71927 13.7239L6.72861 12.3354C6.52848 12.2429 6.44132 12.0051 6.53433 11.8051L6.87967 11.0615C6.97269 10.8616 7.20999 10.775 7.40994 10.8678L10.4006 12.2565Z" fill="white"/>
<path d="M19.535 22.4901C19.6057 22.6655 19.5209 22.8649 19.3457 22.9357L18.0859 23.4442L17.5586 22.137L18.8178 21.6289C18.9936 21.5582 19.1932 21.643 19.2639 21.8184L19.535 22.4901Z" fill="black"/>
<path d="M18.5057 19.9393C18.5764 20.1147 18.4916 20.3141 18.3164 20.3848L17.0566 20.8934L16.5293 19.5862L17.7885 19.0778C17.9637 19.0069 18.1633 19.0917 18.2346 19.2671L18.5057 19.9393Z" fill="black"/>
<path d="M16.8148 17.1142C17.0323 17.1772 17.1268 17.4328 17.0028 17.6221L16.2197 18.8195L15.3604 16.6914L16.8148 17.1142Z" fill="black"/>
<path d="M14.7874 10.0826C14.741 10.0826 14.694 10.0737 14.6486 10.055C14.4631 9.9781 14.3752 9.76569 14.4519 9.58039C14.6652 9.06532 14.7734 8.51893 14.7734 7.95606C14.7734 5.90931 13.3156 4.15297 11.3067 3.77998C11.1095 3.74318 10.9793 3.55367 11.0159 3.35646C11.0526 3.15926 11.2423 3.02925 11.4395 3.06569C13.7922 3.50258 15.5 5.5594 15.5 7.95606C15.5 8.61488 15.3731 9.25483 15.1232 9.85834C15.0651 9.99824 14.9298 10.0826 14.7874 10.0826Z" fill="black"/>
<path d="M16.3926 12.649C16.3926 14.5768 14.83 16.1394 12.9025 16.1394C10.9747 16.1394 9.41211 14.5768 9.41211 12.649C9.41211 10.7213 10.9747 9.15869 12.9025 9.15869C14.83 9.15869 16.3926 10.7213 16.3926 12.649Z" fill="black"/>
<path d="M11.8071 11.8806C11.8071 10.7832 12.3138 9.80487 13.1055 9.16492C13.0383 9.16107 12.9706 9.15869 12.9025 9.15869C10.9747 9.15869 9.41211 10.7213 9.41211 12.649C9.41211 14.5766 10.9747 16.1394 12.9025 16.1394C13.7328 16.1394 14.4951 15.8488 15.0944 15.3645C13.2613 15.2592 11.8071 13.74 11.8071 11.8806Z" fill="black"/>
<path d="M14.3329 11.2984C14.5074 11.7309 14.2981 12.2225 13.8661 12.3968L12.1462 13.0908L11.5006 13.3455L10.8037 11.7939L11.691 11.4548L13.2346 10.832C13.3383 10.7903 13.4446 10.7705 13.5497 10.7705C13.8839 10.7705 14.1998 10.9701 14.3329 11.2984Z" fill="white"/>
<path d="M10.9775 12.1795L11.2883 12.8715C11.6539 12.8152 12.0114 12.7193 12.3572 12.5823C13.0964 12.2894 13.7637 11.8155 14.2866 11.2118C14.2877 11.2105 14.2886 11.2092 14.2899 11.2079C14.1634 10.9783 13.9416 10.8267 13.6952 10.7837C13.2548 11.2768 12.7013 11.6646 12.0895 11.907C11.7319 12.0486 11.3593 12.1392 10.9775 12.1795Z" fill="black"/>
<path d="M11.5351 11.3576L7.41119 9.44255C6.76703 9.14372 6.00275 9.42314 5.70337 10.0673L4.67578 12.2807C4.37696 12.9248 4.65637 13.6891 5.30054 13.9883L6.3208 14.462L2.56037 22.5532C2.5221 22.6355 2.52155 22.7301 2.55872 22.8129L3.01008 23.8159C3.0749 23.9597 3.23676 24.0327 3.38727 23.9859L4.40607 23.6696C4.4903 23.6435 4.55933 23.583 4.5965 23.5034L5.60651 21.3349L5.2685 20.7286L5.95386 20.5867L6.21478 20.0247L5.87677 19.4179L6.56213 19.2766L6.82324 18.7143L6.48505 18.108L7.17041 17.9661L8.3584 15.4079L9.42443 15.9029C10.0686 16.2022 10.8332 15.9223 11.1321 15.2781L12.1598 13.0653C12.4587 12.4211 12.1791 11.6565 11.5351 11.3576Z" fill="#7D7D7D"/>
<path d="M10.4006 12.2565C10.6011 12.3493 10.6879 12.5868 10.5949 12.7868L10.2499 13.5302C10.1571 13.7301 9.91922 13.8169 9.71927 13.7239L6.72861 12.3354C6.52848 12.2429 6.44132 12.0051 6.53433 11.8051L6.87967 11.0615C6.97269 10.8616 7.20999 10.775 7.40994 10.8678L10.4006 12.2565Z" fill="white"/>
<path d="M10.4004 12.2565L10.2707 12.1962C9.19775 12.1323 8.19305 11.6656 7.45074 10.8869L7.40973 10.8678C7.20978 10.775 6.97247 10.8616 6.87946 11.0615L6.79395 11.2456C7.73968 12.3176 9.09283 12.9305 10.5253 12.9305H10.528L10.5947 12.7868C10.6877 12.5868 10.6009 12.3493 10.4004 12.2565Z" fill="black"/>
<path d="M13.355 11.7706V11.1235C12.9824 11.4564 12.5525 11.7234 12.0894 11.9069C11.5919 12.1041 11.0659 12.2039 10.5257 12.2039C9.74365 12.2039 8.98944 11.99 8.33594 11.5967V12.423C9.00903 12.7532 9.75574 12.9304 10.5257 12.9304C11.1578 12.9304 11.7739 12.8132 12.3569 12.5823C12.8495 12.3871 13.3098 12.1112 13.717 11.7706H13.355Z" fill="black"/>
</g>
<defs>
<clipPath id="clip0_7464_99225">
<rect width="24" height="24" fill="white"/>
</clipPath>
</defs>
</svg>
