<svg 
  viewBox="0 0 18 18" 
  fill="none" 
  xmlns="http://www.w3.org/2000/svg"
  >
  <path 
    d="M11.4758 5.98357C11.8408 6.73332 12.6101 7.25 13.5 7.25C14.7426 7.25 15.75 6.24264 15.75 5C15.75 3.75736 14.7426 2.75 13.5 2.75C12.2574 2.75 11.25 3.75736 11.25 5C11.25 5.3527 11.3312 5.68644 11.4758 5.98357ZM11.4758 5.98357L6.4424 8.375M6.4424 8.375C6.12067 7.72927 5.47906 7.25 4.5 7.25C1.5 7.25 1.5 11.75 4.5 11.75C5.36266 11.75 5.97814 11.3324 6.33215 10.7516M6.4424 8.375C6.80617 9.10512 6.76097 10.0481 6.33215 10.7516M6.33215 10.7516L11.365 13.25M11.365 13.25C10.9492 14.5588 11.6609 16.25 13.5 16.25C16.5 16.25 16.5 11.75 13.5 11.75C12.3391 11.75 11.6274 12.4238 11.365 13.25Z" 
    stroke="#171D38" 
    stroke-width="1.5" 
    stroke-linecap="round" 
    stroke-linejoin="round"/>
</svg>
