<svg width="24" height="25" viewBox="0 0 24 25" fill="none" color="black"
    xmlns="http://www.w3.org/2000/svg">
    <g >
        <path opacity="0.3"
            d="M16.6755 4.86267C16.6159 3.52668 16.0327 2.26787 15.0521 1.35862C14.0714 0.449374 12.7722 -0.0371683 11.4355 0.00427705H5.92851C4.58321 -0.0508937 3.2709 0.429498 2.27916 1.34018C1.28743 2.25086 0.697154 3.51755 0.637695 4.86267V20.1246C0.693882 21.472 1.28273 22.7419 2.27483 23.6553C3.26693 24.5687 4.5811 25.0509 5.92851 24.9957H11.4864C12.8165 25.0235 14.1046 24.5292 15.0746 23.6187C16.0445 22.7081 16.6192 21.4538 16.6755 20.1246V4.86267Z"
            fill="currentColor" />
        <path
            d="M8.07741 11.5391H20.6812L18.6463 9.45328C18.4677 9.27443 18.3674 9.03199 18.3674 8.77921C18.3674 8.52644 18.4677 8.284 18.6463 8.10514C18.734 8.01515 18.8388 7.94363 18.9546 7.89479C19.0704 7.84596 19.1947 7.8208 19.3204 7.8208C19.446 7.8208 19.5704 7.84596 19.6862 7.89479C19.802 7.94363 19.9068 8.01515 19.9945 8.10514L23.7209 11.8189C23.8996 11.9977 23.9999 12.2402 23.9999 12.493C23.9999 12.7457 23.8996 12.9882 23.7209 13.167L19.9181 16.8808C19.8305 16.9705 19.7256 17.0416 19.6098 17.0897C19.4939 17.1378 19.3695 17.1619 19.2441 17.1606C19.1188 17.1612 18.9946 17.1367 18.8788 17.0887C18.7631 17.0406 18.6581 16.9699 18.57 16.8808C18.3914 16.7019 18.291 16.4595 18.291 16.2067C18.291 15.9539 18.3914 15.7115 18.57 15.5326L20.6685 13.4468H8.07741C7.82442 13.4468 7.5818 13.3463 7.40292 13.1674C7.22403 12.9886 7.12354 12.7459 7.12354 12.493C7.12354 12.24 7.22403 11.9974 7.40292 11.8185C7.5818 11.6396 7.82442 11.5391 8.07741 11.5391Z"
            fill="currentColor" />
    </g>
</svg>