<svg viewBox="0 0 24 24" fill="none" xmlns="http://www.w3.org/2000/svg">
<path d="M4.12552 21.7035C4.06158 21.7035 3.99657 21.6947 3.93202 21.6762C3.55861 21.5696 3.34243 21.1804 3.44911 20.807L4.19911 18.182C4.3058 17.8086 4.69496 17.5924 5.06832 17.6991C5.44172 17.8058 5.65791 18.195 5.55122 18.5683L4.80122 21.1933C4.71305 21.5021 4.43152 21.7035 4.12552 21.7035Z" fill="#7E6D67"/>
<path d="M19.8749 21.7035C19.5689 21.7035 19.2874 21.5022 19.1991 21.1933L18.4491 18.5683C18.3424 18.195 18.5586 17.8058 18.932 17.6991C19.3053 17.5924 19.6946 17.8087 19.8012 18.182L20.5512 20.807C20.6579 21.1804 20.4417 21.5696 20.0683 21.6763C20.0038 21.6947 19.9388 21.7035 19.8749 21.7035Z" fill="black"/>
<path d="M17.9531 2.29688H6.04688C3.9758 2.29688 2.29688 3.9758 2.29688 6.04688V8.625C2.29688 9.01331 2.61169 9.32812 3 9.32812H3.1875C3.8347 9.32812 4.35938 9.8528 4.35938 10.5V12C4.35938 13.4239 5.51363 14.5781 6.9375 14.5781H17.0625C18.4864 14.5781 19.6406 13.4239 19.6406 12V10.5C19.6406 9.8528 20.1653 9.32812 20.8125 9.32812H21C21.3883 9.32812 21.7031 9.01331 21.7031 8.625V6.04688C21.7031 3.9758 20.0242 2.29688 17.9531 2.29688Z" fill="black"/>
<path d="M12 13.1719H6.46875C5.82155 13.1719 5.29688 12.6472 5.29688 12V10.1719C5.29688 8.92922 4.28953 7.92188 3.04688 7.92188H2.25C1.00734 7.92188 0 8.92922 0 10.1719V12.75C0 16.2449 2.83322 19.0781 6.32812 19.0781H12L12.7031 15.9724L12 13.1719Z" fill="#B2B2B2"/>
<path d="M21.75 7.92188H20.9531C19.7105 7.92188 18.7031 8.92922 18.7031 10.1719V12C18.7031 12.6472 18.1785 13.1719 17.5312 13.1719H12V19.0781H17.6719C21.1668 19.0781 24 16.2449 24 12.75V10.1719C24 8.92922 22.9927 7.92188 21.75 7.92188Z" fill="#B2B2B2"/>
</svg>
