<svg xmlns="http://www.w3.org/2000/svg"  viewBox="0 0 24 22" fill="none">
    <g clip-path="url(#clip0_5856_38551)">
    <path opacity="0.7" d="M12 0C11.4917 0.00416667 11.0292 0.291667 10.8083 0.75L8.125 6.2625L2.14167 7.14583C1.64167 7.22083 1.225 7.57083 1.07083 8.05C0.916667 8.52917 1.04167 9.05833 1.4 9.4125L5.74167 13.7083L4.71667 19.7792C4.63333 20.2792 4.84167 20.7875 5.25417 21.0833C5.66667 21.3792 6.2125 21.4167 6.6625 21.1792L12 18.325V0ZM17.9125 21.3333C17.9583 21.3375 18 21.3375 18.0458 21.3333H17.9125Z" fill="#C29B40"/>
    <path opacity="0.4" d="M5.96252 21.3333H6.09586C6.05002 21.3375 6.00836 21.3375 5.96252 21.3333ZM12 18.325V0H12.0042C12.5125 0 12.9792 0.291667 13.2042 0.75L15.8834 6.2625L21.8667 7.14583C22.3667 7.22083 22.7834 7.57083 22.9375 8.05C23.0917 8.52917 22.9667 9.05833 22.6084 9.4125L18.2709 13.7083L19.2959 19.7792C19.3792 20.2792 19.1709 20.7875 18.7584 21.0833C18.3459 21.3792 17.8 21.4167 17.35 21.1792L12.0042 18.325L12 18.3292V18.325Z" fill="#1D1D1D"/>
    </g>
    <defs>
    <clipPath id="clip0_5856_38551">
    <rect width="24" height="21.3333" fill="white"/>
    </clipPath>
    </defs>
</svg>