<svg viewBox="0 0 25 23" fill="none" xmlns="http://www.w3.org/2000/svg" color="#C29B40">
    <g clip-path="url(#clip0_5437_9268)">
        <path opacity="0.7"
            d="M14.0958 1.36621C13.8749 0.898926 13.4083 0.601562 12.8958 0.601562C12.3833 0.601562 11.9208 0.898926 11.6958 1.36621L9.0166 6.98638L3.03327 7.88696C2.53327 7.96343 2.1166 8.32026 1.96243 8.80879C1.80827 9.29731 1.93327 9.83682 2.2916 10.1979L6.63327 14.5776L5.60827 20.767C5.52493 21.2768 5.73327 21.7951 6.14577 22.0967C6.55827 22.3983 7.1041 22.4365 7.5541 22.1944L12.8999 19.2845L18.2458 22.1944C18.6958 22.4365 19.2416 22.4025 19.6541 22.0967C20.0666 21.7908 20.2749 21.2768 20.1916 20.767L19.1624 14.5776L23.5041 10.1979C23.8624 9.83682 23.9916 9.29731 23.8333 8.80879C23.6749 8.32026 23.2624 7.96343 22.7624 7.88696L16.7749 6.98638L14.0958 1.36621Z"
            fill="currentColor" />
    </g>
    <defs>
        <clipPath id="clip0_5437_9268">
            <rect width="24" height="21.75" fill="white" transform="translate(0.891602 0.601562)" />
        </clipPath>
    </defs>
</svg>