<svg viewBox="0 0 20 20" fill="none" xmlns="http://www.w3.org/2000/svg">
<path d="M15.49 0.283325H4.49C3.29734 0.288614 2.15534 0.766107 1.31387 1.61132C0.472401 2.45654 -1.17271e-05 3.60066 2.18337e-10 4.79333V11.6133C2.18336e-10 12.8095 0.475159 13.9566 1.32095 14.8024C2.16674 15.6482 3.31387 16.1233 4.51 16.1233C4.63996 16.1233 4.76459 16.1749 4.85648 16.2668C4.94838 16.3587 5 16.4834 5 16.6133V18.7833C5.01153 18.956 5.06768 19.1228 5.16296 19.2672C5.25824 19.4117 5.3894 19.529 5.54359 19.6076C5.69779 19.6862 5.86974 19.7235 6.04265 19.7157C6.21555 19.7079 6.38347 19.6554 6.53 19.5633L11 16.3033C11.1672 16.1866 11.3661 16.1238 11.57 16.1233H15.46C16.0548 16.1273 16.6445 16.0135 17.1951 15.7887C17.7458 15.5638 18.2465 15.2322 18.6685 14.813C19.0904 14.3938 19.4253 13.8953 19.6538 13.3462C19.8824 12.797 20 12.2081 20 11.6133V4.79333C20 3.5972 19.5248 2.45006 18.6791 1.60427C17.8333 0.758484 16.6861 0.283325 15.49 0.283325Z" fill="currentColor"/>
<path d="M9.99995 10.3034C9.80104 10.3034 9.61027 10.2243 9.46962 10.0837C9.32897 9.94304 9.24995 9.75228 9.24995 9.55337V9.27337C9.23948 8.84479 9.33983 8.42076 9.5413 8.04235C9.74278 7.66393 10.0385 7.34395 10.4 7.11337C10.5211 7.04581 10.622 6.94719 10.6923 6.82767C10.7626 6.70814 10.7997 6.57203 10.8 6.43337C10.8 6.22119 10.7157 6.01771 10.5656 5.86768C10.4156 5.71765 10.2121 5.63337 9.99995 5.63337C9.78778 5.63337 9.5843 5.71765 9.43427 5.86768C9.28424 6.01771 9.19995 6.22119 9.19995 6.43337C9.19995 6.63228 9.12093 6.82304 8.98028 6.9637C8.83963 7.10435 8.64886 7.18337 8.44995 7.18337C8.25104 7.18337 8.06027 7.10435 7.91962 6.9637C7.77897 6.82304 7.69995 6.63228 7.69995 6.43337C7.7024 6.03072 7.8105 5.63578 8.01346 5.28802C8.21642 4.94026 8.50711 4.65188 8.85648 4.4517C9.20584 4.25153 9.60164 4.14658 10.0043 4.14734C10.4069 4.14811 10.8023 4.25457 11.1509 4.45607C11.4995 4.65758 11.7891 4.94706 11.9908 5.29559C12.1924 5.64412 12.299 6.03947 12.2999 6.44212C12.3008 6.84477 12.196 7.2406 11.996 7.59004C11.7959 7.93948 11.5076 8.23028 11.16 8.43337C11.0255 8.5313 10.9175 8.66123 10.846 8.8114C10.7744 8.96157 10.7414 9.12723 10.75 9.29337V9.57337C10.7447 9.76879 10.6634 9.95446 10.5233 10.0908C10.3832 10.2272 10.1954 10.3034 9.99995 10.3034Z" fill="white"/>
<path d="M10 12.5033C10.4142 12.5033 10.75 12.1675 10.75 11.7533C10.75 11.3391 10.4142 11.0033 10 11.0033C9.58579 11.0033 9.25 11.3391 9.25 11.7533C9.25 12.1675 9.58579 12.5033 10 12.5033Z" fill="white"/>
</svg>

