<svg width="20" height="21" viewBox="0 0 20 21" fill="none" xmlns="http://www.w3.org/2000/svg">
    <path opacity="0.3"
          d="M0.0798805 10.6001L0.86988 8.83011C0.98071 8.60079 1.17487 8.4224 1.41273 8.33134C1.6506 8.24028 1.91425 8.24342 2.14988 8.34011L3.03988 8.73011C4.00654 9.18478 5.06163 9.42052 6.12988 9.42052C7.19813 9.42052 8.25322 9.18478 9.21988 8.73011C10.6801 8.05318 12.2703 7.70251 13.8799 7.70251C15.4894 7.70251 17.0796 8.05318 18.5399 8.73011L19.4199 9.12011C19.651 9.22917 19.8316 9.42258 19.9246 9.66062C20.0176 9.89866 20.0159 10.1633 19.9199 10.4001L19.1299 12.1701C19.0191 12.3994 18.8249 12.5778 18.587 12.6689C18.3492 12.7599 18.0855 12.7568 17.8499 12.6601L16.9999 12.2701C16.0332 11.8154 14.9781 11.5797 13.9099 11.5797C12.8416 11.5797 11.7865 11.8154 10.8199 12.2701C9.35962 12.947 7.76941 13.2977 6.15988 13.2977C4.55035 13.2977 2.96014 12.947 1.49988 12.2701L0.61988 11.8801C0.381555 11.7783 0.192057 11.588 0.0913225 11.3492C-0.00941172 11.1104 -0.0135139 10.8419 0.0798805 10.6001ZM0.579881 18.7701L1.45988 19.1601C2.92087 19.8344 4.51079 20.1836 6.11988 20.1836C7.72897 20.1836 9.3189 19.8344 10.7799 19.1601C11.7465 18.7054 12.8016 18.4697 13.8699 18.4697C14.9381 18.4697 15.9932 18.7054 16.9599 19.1601L17.8499 19.5601C18.0855 19.6568 18.3492 19.6599 18.587 19.5689C18.8249 19.4778 19.0191 19.2994 19.1299 19.0701L19.9199 17.3001C20.0159 17.0633 20.0176 16.7987 19.9246 16.5606C19.8316 16.3226 19.651 16.1292 19.4199 16.0201L18.5399 15.6201C17.0796 14.9432 15.4894 14.5925 13.8799 14.5925C12.2703 14.5925 10.6801 14.9432 9.21988 15.6201C8.25322 16.0748 7.19813 16.3105 6.12988 16.3105C5.06163 16.3105 4.00654 16.0748 3.03988 15.6201L2.14988 15.2301C1.91425 15.1334 1.6506 15.1303 1.41273 15.2213C1.17487 15.3124 0.98071 15.4908 0.86988 15.7201L0.0798805 17.5001C-0.0131579 17.7358 -0.0132845 17.9979 0.0795258 18.2337C0.172336 18.4694 0.351164 18.6611 0.579881 18.7701Z"
          fill="black"/>
    <path d="M0.0798893 3.70005L0.869889 1.93005C0.980718 1.70073 1.17488 1.52234 1.41274 1.43128C1.65061 1.34022 1.91426 1.34336 2.14989 1.44005L3.03989 1.84005C4.00655 2.29472 5.06164 2.53046 6.12989 2.53046C7.19814 2.53046 8.25323 2.29472 9.21989 1.84005C10.6809 1.16574 12.2708 0.816528 13.8799 0.816528C15.489 0.816528 17.0789 1.16574 18.5399 1.84005L19.4199 2.23005C19.6486 2.33903 19.8274 2.53075 19.9202 2.76649C20.0131 3.00223 20.0129 3.26441 19.9199 3.50005L19.1299 5.27005C19.0191 5.49938 18.8249 5.67777 18.587 5.76883C18.3492 5.85988 18.0855 5.85675 17.8499 5.76005L16.9999 5.38005C16.0332 4.92538 14.9781 4.68964 13.9099 4.68964C12.8416 4.68964 11.7866 4.92538 10.8199 5.38005C9.35963 6.05699 7.76942 6.40765 6.15989 6.40765C4.55036 6.40765 2.96015 6.05699 1.49989 5.38005L0.619889 4.98005C0.381563 4.87826 0.192065 4.68791 0.0913312 4.44913C-0.00940301 4.21036 -0.0135052 3.9418 0.0798893 3.70005Z"
          fill="black"/>
</svg>
