<svg viewBox="0 0 24 24" fill="none" xmlns="http://www.w3.org/2000/svg">
<g clip-path="url(#clip0_7367_22623)">
<path d="M3.25956 3.44043C3.05949 3.44043 2.89738 3.60259 2.89738 3.8026V6.69999H2.17304V3.8026C2.17304 3.60259 2.01093 3.44043 1.81087 3.44043C1.6108 3.44043 1.44869 3.60259 1.44869 3.8026V6.69999H0.724346V3.8026C0.724346 3.60259 0.562237 3.44043 0.362173 3.44043C0.162109 3.44043 0 3.60259 0 3.8026V8.14868L1.81087 9.59737L3.62173 8.14868V3.8026C3.62173 3.60259 3.45962 3.44043 3.25956 3.44043Z" fill="black"/>
<path d="M3.25956 8.14844H0.362173L0 8.16664C0 8.50399 0.0785674 8.83671 0.229425 9.13847H0.253521L1.08652 10.8045V19.8346C1.08652 20.2346 1.41083 20.5589 1.81087 20.5589C2.2109 20.5589 2.53521 20.2346 2.53521 19.8346V10.8159L3.37396 9.13843H3.39235C3.54316 8.83671 3.62173 8.50399 3.62173 8.16664L3.25956 8.14844Z" fill="black"/>
<path d="M24.0002 4.20118C24.0002 3.97494 23.7943 3.80052 23.5725 3.8448C22.5772 4.04346 21.8271 4.92205 21.8271 5.97578V12.6992C21.8271 12.7554 21.8402 12.8109 21.8654 12.8611L22.5515 14.2333V19.8145C22.5515 20.2045 22.8512 20.5402 23.2408 20.5585C23.6568 20.5781 24.0002 20.2466 24.0002 19.8349V4.20118Z" fill="black"/>
<path d="M12.3623 3.80273V20.5593C16.9895 20.5593 20.7406 16.8082 20.7406 12.181C20.7406 7.55383 16.9895 3.80273 12.3623 3.80273Z" fill="black"/>
<path d="M19.2922 12.181C19.2922 7.55383 16.1898 3.80273 12.3626 3.80273C7.73547 3.80273 3.98438 7.55383 3.98438 12.181C3.98438 16.8082 7.73547 20.5593 12.3626 20.5593C16.1898 20.5593 19.2922 16.8082 19.2922 12.181Z" fill="#B2B2B2"/>
</g>
<defs>
<clipPath id="clip0_7367_22623">
<rect width="24" height="24" fill="white"/>
</clipPath>
</defs>
</svg>
