<svg width="20" height="21" viewBox="0 0 20 21" fill="none" xmlns="http://www.w3.org/2000/svg">
<path opacity="0.3" d="M10 20.041C15.5228 20.041 20 15.5639 20 10.041C20 4.51817 15.5228 0.0410156 10 0.0410156C4.47715 0.0410156 0 4.51817 0 10.041C0 15.5639 4.47715 20.041 10 20.041Z" fill="#C29B40"/>
<path d="M9.71019 13.7512L15.7102 7.7512C15.8034 7.65796 15.8774 7.54727 15.9278 7.42545C15.9783 7.30363 16.0043 7.17306 16.0043 7.0412C16.0043 6.90934 15.9783 6.77877 15.9278 6.65695C15.8774 6.53513 15.8034 6.42444 15.7102 6.3312C15.6169 6.23796 15.5063 6.164 15.3844 6.11354C15.2626 6.06308 15.132 6.03711 15.0002 6.03711C14.8683 6.03711 14.7378 6.06308 14.6159 6.11354C14.4941 6.164 14.3834 6.23796 14.2902 6.3312L9.00019 11.6312L5.71019 8.3312C5.52188 8.1429 5.26649 8.03711 5.00019 8.03711C4.73388 8.03711 4.47849 8.1429 4.29019 8.3312C4.10188 8.5195 3.99609 8.7749 3.99609 9.0412C3.99609 9.3075 4.10188 9.5629 4.29019 9.7512L8.29019 13.7512C8.38315 13.8449 8.49375 13.9193 8.61561 13.9701C8.73747 14.0209 8.86817 14.047 9.00019 14.047C9.1322 14.047 9.2629 14.0209 9.38476 13.9701C9.50662 13.9193 9.61722 13.8449 9.71019 13.7512Z" fill="#C29B40"/>
</svg>
