<svg xmlns="http://www.w3.org/2000/svg" viewBox="0 0 42 42" fill="none" color="white">
    <path opacity="0.3"
        d="M25.2277 4.10352C23.2206 4.10656 21.2424 4.58215 19.4532 5.49179C17.6641 6.40143 16.1143 7.71955 14.9292 9.33947C13.7441 10.9594 12.9571 12.8356 12.6319 14.8161C12.3067 16.7967 12.4524 18.8261 13.0572 20.7399L4.65381 29.1433C4.40129 29.3997 4.21501 29.7137 4.11106 30.0582C4.00712 30.4027 3.98864 30.7673 4.05721 31.1206L4.8754 35.399C4.96468 35.8173 5.17314 36.2008 5.47561 36.5033C5.77807 36.8058 6.16161 37.0142 6.57994 37.1035L10.9436 38.041C11.2982 38.1105 11.6645 38.0908 12.0096 37.9837C12.3548 37.8765 12.6679 37.6854 12.9209 37.4274L15.4606 34.8876L11.8129 31.3592C11.5804 31.1125 11.4509 30.7863 11.4509 30.4473C11.4509 30.1082 11.5804 29.782 11.8129 29.5353C12.0547 29.3 12.3789 29.1683 12.7163 29.1683C13.0537 29.1683 13.3779 29.3 13.6197 29.5353L17.3015 33.0808L21.3413 29.041C22.6059 29.46 23.9296 29.673 25.2618 29.6717C28.6523 29.6717 31.904 28.3248 34.3015 25.9273C36.699 23.5298 38.0458 20.2782 38.0458 16.8876C38.0458 13.4971 36.699 10.2454 34.3015 7.84789C31.904 5.45041 28.6523 4.10352 25.2618 4.10352H25.2277Z"
        fill="currentColor" />
    <path
        d="M25.2274 21.0641C27.5432 21.0641 29.4205 19.1867 29.4205 16.8709C29.4205 14.5551 27.5432 12.6777 25.2274 12.6777C22.9115 12.6777 21.0342 14.5551 21.0342 16.8709C21.0342 19.1867 22.9115 21.0641 25.2274 21.0641Z"
        fill="currentColor" />
</svg>