<svg xmlns="http://www.w3.org/2000/svg" viewBox="0 0 37 37" fill="none" color="white">
  <g clip-path="url(#clip0_3619_14675)">
    <path
      d="M18.5 3.08095C18.5 2.30049 18.0992 1.57627 17.4312 1.16845C16.7633 0.760642 15.9406 0.718454 15.2445 1.07002L1.74453 7.82002C0.978125 8.19971 0.5 8.98017 0.5 9.83095C0.5 10.6817 0.978125 11.4622 1.74453 11.8419L15.2445 18.5919C15.9406 18.9435 16.7703 18.9013 17.4312 18.4935C18.0922 18.0856 18.5 17.3614 18.5 16.581V11.5185H24.7578C25.0109 12.4888 25.8898 13.206 26.9375 13.206H33.125C34.9883 13.206 36.5 11.6942 36.5 9.83095C36.5 7.96767 34.9883 6.45595 33.125 6.45595H26.9375C25.8898 6.45595 25.0109 7.17314 24.7578 8.14346H18.5V3.08095Z"
      fill="currentColor" />
    <path opacity="0.4"
      d="M23 16.5801H34.25C35.4945 16.5801 36.5 17.5855 36.5 18.8301V23.3301C36.5 24.5746 35.4945 25.5801 34.25 25.5801H23C21.7555 25.5801 20.75 24.5746 20.75 23.3301V18.8301C20.75 17.5855 21.7555 16.5801 23 16.5801ZM0.5 30.0801C0.5 28.8355 1.50547 27.8301 2.75 27.8301H9.5C10.7445 27.8301 11.75 28.8355 11.75 30.0801V34.5801C11.75 35.8246 10.7445 36.8301 9.5 36.8301H2.75C1.50547 36.8301 0.5 35.8246 0.5 34.5801V30.0801ZM14 30.0801C14 28.8355 15.0055 27.8301 16.25 27.8301H34.25C35.4945 27.8301 36.5 28.8355 36.5 30.0801V34.5801C36.5 35.8246 35.4945 36.8301 34.25 36.8301H16.25C15.0055 36.8301 14 35.8246 14 34.5801V30.0801Z"
      fill="currentColor" />
  </g>
  <defs>
    <clipPath id="clip0_3619_14675">
      <rect width="36" height="36" fill="currentColor" transform="translate(0.5 0.830078)" />
    </clipPath>
  </defs>
</svg>