<svg viewBox="0 0 50 50" fill="none" xmlns="http://www.w3.org/2000/svg">
<path opacity="0.3" d="M17.5751 23.5C24.1197 23.5 29.4251 18.2393 29.4251 11.75C29.4251 5.26065 24.1197 0 17.5751 0C11.0305 0 5.7251 5.26065 5.7251 11.75C5.7251 18.2393 11.0305 23.5 17.5751 23.5Z" fill="white"/>
<path d="M17.575 50C27.2814 50 35.15 44.7393 35.15 38.25C35.15 31.7607 27.2814 26.5 17.575 26.5C7.8686 26.5 0 31.7607 0 38.25C0 44.7393 7.8686 50 17.575 50Z" fill="white"/>
<g opacity="0.3">
<path d="M35.9749 5.00003C34.5996 5.00161 33.2418 5.30903 32 5.90003C33.0478 8.44291 33.3873 11.2221 32.9823 13.9425C32.5773 16.6628 31.4431 19.2226 29.7 21.35C30.8309 22.3799 32.196 23.1182 33.6769 23.5009C35.1577 23.8836 36.7096 23.8991 38.1979 23.5462C39.6862 23.1933 41.0658 22.4825 42.2171 21.4756C43.3685 20.4686 44.2567 19.196 44.8047 17.768C45.3528 16.34 45.5441 14.7999 45.3621 13.2812C45.18 11.7625 44.6302 10.3112 43.7602 9.05322C42.8902 7.7952 41.7264 6.76849 40.3697 6.06217C39.013 5.35585 37.5045 4.99126 35.9749 5.00003Z" fill="white"/>
</g>
<path d="M35.975 26.25C34.5725 26.2488 33.1736 26.3912 31.8 26.675C33.8652 27.8448 35.5984 29.5213 36.8363 31.5464C38.0741 33.5716 38.7757 35.8786 38.875 38.25C38.8639 40.6554 38.142 43.0038 36.8 45C44.15 44.725 50 40.65 50 35.65C50 30.65 43.725 26.25 35.975 26.25Z" fill="white"/>
</svg>
