<svg xmlns="http://www.w3.org/2000/svg" width="32" height="32" viewBox="0 0 50 50" fill="none">
  <path d="M23.9375 24.9167C29.6329 24.9167 34.25 20.2997 34.25 14.6042C34.25 8.90881 29.6329 4.29175 23.9375 4.29175C18.2421 4.29175 13.625 8.90881 13.625 14.6042C13.625 20.2997 18.2421 24.9167 23.9375 24.9167Z" fill="#1A2550"/>
  <path d="M36.3125 27.0835C34.6599 27.0836 33.0447 27.5751 31.6721 28.4955C30.2995 29.4158 29.2316 30.7235 28.604 32.2523C27.9765 33.7811 27.8176 35.462 28.1477 37.0813C28.4778 38.7006 29.2819 40.1851 30.4578 41.3463C31.6336 42.5075 33.1282 43.2929 34.7515 43.6025C36.3748 43.9122 38.0536 43.7323 39.5744 43.0855C41.0951 42.4388 42.3893 41.3545 43.2923 39.9704C44.1953 38.5864 44.6665 36.9651 44.6458 35.3127C44.6184 33.1206 43.7284 31.0277 42.1685 29.4873C40.6087 27.947 38.5047 27.0833 36.3125 27.0835ZM40.7291 34.2502L37.2083 38.7502C37.0619 38.9299 36.8778 39.0754 36.669 39.1762C36.4602 39.277 36.2318 39.3307 36 39.3335C35.7624 39.3343 35.5278 39.2802 35.3146 39.1754C35.1014 39.0706 34.9153 38.9179 34.7708 38.7293L32.25 35.4168C32.0234 35.0997 31.9253 34.7084 31.9756 34.3219C32.0259 33.9353 32.2207 33.5822 32.5208 33.3335C32.838 33.1069 33.2292 33.0089 33.6158 33.0591C34.0023 33.1094 34.3555 33.3042 34.6042 33.6043L35.9166 35.271L38.2083 32.3543C38.3328 32.1943 38.4876 32.0603 38.6638 31.9601C38.8401 31.8599 39.0344 31.7953 39.2356 31.7702C39.4368 31.745 39.6409 31.7598 39.8364 31.8135C40.0319 31.8673 40.2149 31.959 40.375 32.0835C40.535 32.208 40.669 32.3628 40.7692 32.539C40.8694 32.7153 40.934 32.9095 40.9591 33.1107C40.9843 33.3119 40.9696 33.5161 40.9158 33.7116C40.862 33.9071 40.7703 34.0901 40.6458 34.2502H40.7291Z" fill="#1A2550"/>
  <g opacity="0.3">
  <path d="M42.4166 43.2709C41.9521 40.6728 40.8094 38.2436 39.1041 36.2292L37.2083 38.6458C37.0619 38.8256 36.8778 38.971 36.669 39.0718C36.4602 39.1726 36.2318 39.2264 36 39.2292C35.7624 39.23 35.5278 39.1759 35.3146 39.0711C35.1014 38.9663 34.9153 38.8136 34.7708 38.625L32.25 35.4167C32.0849 35.2034 31.9804 34.9497 31.9474 34.682C31.9144 34.4144 31.9541 34.1428 32.0625 33.8959C31.9589 33.6549 31.9204 33.3911 31.9506 33.1306C31.9808 32.8701 32.0788 32.6221 32.2348 32.4113C32.3908 32.2005 32.5993 32.0343 32.8396 31.9292C33.0799 31.8242 33.3435 31.7839 33.6041 31.8125C30.6175 30.2658 27.3008 29.4653 23.9375 29.4792C14.5833 29.4583 6.79164 35.4167 5.45831 43.2709C5.42745 43.6097 5.47042 43.9512 5.58426 44.2719C5.69809 44.5926 5.88009 44.8847 6.11771 45.1283C6.35532 45.3719 6.64291 45.561 6.96067 45.6827C7.27842 45.8044 7.61878 45.8558 7.95831 45.8333H39.9375C40.2753 45.8527 40.6133 45.799 40.9285 45.6759C41.2437 45.5528 41.5287 45.3631 41.764 45.1199C41.9993 44.8767 42.1794 44.5857 42.292 44.2666C42.4046 43.9475 42.4471 43.6079 42.4166 43.2709Z" fill="#1A2550"/>
  </g>
</svg>