<svg viewBox="0 0 44 50" fill="none" xmlns="http://www.w3.org/2000/svg" color="white">
    <g clip-path="url(#clip0_3487_12939)">
        <path
            d="M21.2262 0C19.9398 0 18.9048 1.04492 18.9048 2.34375V7.8125L16.1578 2.25586C12.4822 4.24805 9.90927 8.06641 9.63843 12.5H9.61909C8.33263 12.5 7.29766 13.5449 7.29766 14.8438C7.29766 16.1426 8.33263 17.1875 9.61909 17.1875H34.381C35.6674 17.1875 36.7024 16.1426 36.7024 14.8438C36.7024 13.5449 35.6674 12.5 34.381 12.5H34.3616C34.0908 8.06641 31.5179 4.24805 27.8423 2.25586L25.0953 7.8125V2.34375C25.0953 1.04492 24.0603 0 22.7738 0H21.2262ZM13.3334 34.375C6.15629 34.375 0.333374 40.2539 0.333374 47.5C0.333374 48.877 1.44573 50 2.80956 50H41.1905C42.5544 50 43.6667 48.877 43.6667 47.5C43.6667 40.2539 37.8438 34.375 30.6667 34.375H13.3334Z"
            fill="currentColor" />
        <path opacity="0.4"
            d="M9.71587 17.1875C9.64816 17.6953 9.61914 18.2227 9.61914 18.75C9.61914 25.6543 15.1616 31.25 22.0001 31.25C28.8386 31.25 34.381 25.6543 34.381 18.75C34.381 18.2227 34.352 17.6953 34.2843 17.1875H9.71587Z"
            fill="currentColor" />
    </g>
    <defs>
        <clipPath id="clip0_3487_12939">
            <rect width="43.3333" height="50" fill="currentColor" transform="translate(0.333374)" />
        </clipPath>
    </defs>
</svg>