<svg xmlns="http://www.w3.org/2000/svg" viewBox="0 0 39 45" fill="none">
    <g clip-path="url(#clip0_3619_14635)">
      <path d="M18.8125 0.164062C17.6695 0.164062 16.75 1.08359 16.75 2.22656V7.03906L14.3094 2.14922C11.0438 3.90234 8.75781 7.2625 8.51719 11.1641H8.5C7.35703 11.1641 6.4375 12.0836 6.4375 13.2266C6.4375 14.3695 7.35703 15.2891 8.5 15.2891H30.5C31.643 15.2891 32.5625 14.3695 32.5625 13.2266C32.5625 12.0836 31.643 11.1641 30.5 11.1641H30.4828C30.2422 7.2625 27.9562 3.90234 24.6906 2.14922L22.25 7.03906V2.22656C22.25 1.08359 21.3305 0.164062 20.1875 0.164062H18.8125ZM11.8 30.4141C5.42344 30.4141 0.25 35.5875 0.25 41.9641C0.25 43.1758 1.23828 44.1641 2.45 44.1641H36.55C37.7617 44.1641 38.75 43.1758 38.75 41.9641C38.75 35.5875 33.5766 30.4141 27.2 30.4141H11.8Z" fill="white"/>
      <path opacity="0.4" d="M8.58594 15.2891C8.52578 15.7359 8.5 16.2 8.5 16.6641C8.5 22.7398 13.4242 27.6641 19.5 27.6641C25.5758 27.6641 30.5 22.7398 30.5 16.6641C30.5 16.2 30.4742 15.7359 30.4141 15.2891H8.58594Z" fill="white"/>
    </g>
    <defs>
      <clipPath id="clip0_3619_14635">
        <rect width="38.5" height="44" fill="white" transform="translate(0.25 0.164062)"/>
      </clipPath>
    </defs>
  </svg>