<svg viewBox="0 0 24 24" fill="none" color="#C29B40" xmlns="http://www.w3.org/2000/svg">
    <g opacity="0.3">
        <path
            d="M11.9996 11.92C14.7389 11.92 16.9595 9.69933 16.9595 6.96C16.9595 4.22067 14.7389 2 11.9996 2C9.26022 2 7.03955 4.22067 7.03955 6.96C7.03955 9.69933 9.26022 11.92 11.9996 11.92Z"
            fill="currentColor" />
    </g>
    <path
        d="M19.6998 21.9999C19.8632 22.0091 20.0268 21.9831 20.1793 21.9235C20.3318 21.8639 20.4697 21.7721 20.5835 21.6545C20.6974 21.5368 20.7846 21.396 20.8392 21.2416C20.8937 21.0873 20.9144 20.9229 20.8998 20.7599C20.2598 16.9999 16.5198 14.1099 11.9998 14.1099C7.47977 14.1099 3.73977 16.9999 3.09977 20.7599C3.08515 20.9229 3.10582 21.0873 3.16039 21.2416C3.21496 21.396 3.30214 21.5368 3.41601 21.6545C3.52987 21.7721 3.66775 21.8639 3.82025 21.9235C3.97275 21.9831 4.1363 22.0091 4.29977 21.9999H19.6998Z"
        fill="currentColor" />
</svg>