<svg viewBox="0 0 16 16" fill="#747474" xmlns="http://www.w3.org/2000/svg">
  <path fill-rule="evenodd" clip-rule="evenodd" d="M15.4822 13.0766L8.90822 1.69201C8.56373 1.07662 7.81735 1.07662 7.47286 1.69201L0.898918 13.0766C0.497018 13.7843 0.898918 14.7689 1.6166 14.7689H14.7645C15.4822 14.7689 15.9128 13.7843 15.4822 13.0766ZM8.19048 12.3071C7.70246 12.3071 7.32926 11.9071 7.32926 11.384C7.32926 10.861 7.70246 10.461 8.19048 10.461C8.6785 10.461 9.05169 10.861 9.05169 11.384C9.05169 11.9071 8.6785 12.3071 8.19048 12.3071ZM9.05169 9.53818C9.05169 9.72279 8.93686 9.84587 8.76462 9.84587H7.61633C7.44409 9.84587 7.32926 9.72279 7.32926 9.53818V5.53818C7.32926 5.35356 7.44409 5.23048 7.61633 5.23048H8.76462C8.93686 5.23048 9.05169 5.35356 9.05169 5.53818V9.53818Z" fill="CurrentColor"/>
</svg>

