<svg viewBox="0 0 65 65" fill="none" xmlns="http://www.w3.org/2000/svg">
<path opacity="0.3" d="M62.5216 28.0257L58.0751 23.5152C57.7651 23.2114 57.5202 22.8478 57.3552 22.4463C57.1902 22.0448 57.1086 21.614 57.1155 21.18V14.7822C57.1113 13.9057 56.934 13.0387 56.5937 12.2309C56.2535 11.4232 55.757 10.6906 55.1327 10.0753C54.5085 9.46 53.7689 8.97409 52.9563 8.64549C52.1437 8.31689 51.2742 8.15208 50.3978 8.16052H44C43.566 8.16735 43.1352 8.08579 42.7337 7.9208C42.3322 7.75582 41.9686 7.51087 41.6648 7.20085L37.1863 2.6904C35.9387 1.44412 34.2474 0.74408 32.484 0.74408C30.7205 0.74408 29.0292 1.44412 27.7816 2.6904L23.2711 7.13687C22.9674 7.44689 22.6037 7.69184 22.2022 7.85683C21.8008 8.02181 21.3699 8.10337 20.9359 8.09654H14.5382C13.6617 8.10071 12.7946 8.27802 11.9869 8.61828C11.1791 8.95853 10.4465 9.45503 9.83123 10.0793C9.21592 10.7035 8.73001 11.4431 8.40141 12.2557C8.07281 13.0683 7.908 13.9378 7.91644 14.8142V21.212C7.92327 21.646 7.84171 22.0768 7.67672 22.4783C7.51174 22.8797 7.26679 23.2434 6.95677 23.5472L2.44632 28.0257C1.20004 29.2733 0.5 30.9646 0.5 32.728C0.5 34.4915 1.20004 36.1828 2.44632 37.4304L6.89279 41.9409C7.20281 42.2446 7.44776 42.6083 7.61275 43.0098C7.77773 43.4112 7.85929 43.8421 7.85246 44.2761V50.6738C7.85663 51.5503 8.03394 52.4174 8.3742 53.2251C8.71445 54.0329 9.21095 54.7655 9.83518 55.3808C10.4594 55.9961 11.199 56.482 12.0116 56.8106C12.8242 57.1392 13.6937 57.304 14.5701 57.2956H20.9679C21.4019 57.2887 21.8328 57.3703 22.2342 57.5353C22.6357 57.7003 22.9994 57.9452 23.3031 58.2552L27.8136 62.7657C29.0612 64.012 30.7525 64.712 32.5159 64.712C34.2794 64.712 35.9707 64.012 37.2183 62.7657L41.6968 58.3192C42.0006 58.0092 42.3642 57.7642 42.7657 57.5993C43.1672 57.4343 43.598 57.3527 44.032 57.3595H50.4298C52.1944 57.3595 53.8868 56.6585 55.1346 55.4107C56.3825 54.1629 57.0835 52.4705 57.0835 50.7058V44.308C57.0766 43.8741 57.1582 43.4432 57.3232 43.0418C57.4882 42.6403 57.7331 42.2766 58.0431 41.9729L62.5536 37.4624C63.1734 36.842 63.6644 36.1051 63.9985 35.2942C64.3325 34.4833 64.5029 33.6144 64.5 32.7374C64.497 31.8604 64.3207 30.9926 63.9811 30.184C63.6416 29.3754 63.1456 28.6419 62.5216 28.0257Z" fill="black"/>
<path d="M43.7119 47.1549C43.2569 47.1522 42.8119 47.0218 42.4273 46.7786C42.0428 46.5355 41.7342 46.1893 41.5366 45.7794L32.4838 26.3301L23.4309 45.7794C23.297 46.0655 23.1079 46.3223 22.8744 46.5352C22.641 46.748 22.3679 46.9127 22.0706 47.0196C21.7734 47.1266 21.458 47.1739 21.1425 47.1587C20.827 47.1435 20.5175 47.0661 20.232 46.931C19.943 46.8005 19.6831 46.6133 19.4679 46.3804C19.2526 46.1475 19.0863 45.8738 18.9789 45.5754C18.8715 45.277 18.8251 44.9601 18.8426 44.6435C18.86 44.3268 18.9409 44.0169 19.0804 43.7321L30.3085 19.6444C30.5255 19.2583 30.8413 18.9369 31.2236 18.7132C31.6059 18.4895 32.0409 18.3716 32.4838 18.3716C32.9267 18.3716 33.3616 18.4895 33.7439 18.7132C34.1262 18.9369 34.442 19.2583 34.659 19.6444L45.8871 43.7001C46.0222 43.9857 46.0996 44.2951 46.1148 44.6106C46.13 44.9261 46.0828 45.2416 45.9758 45.5388C45.8688 45.836 45.7041 46.1092 45.4913 46.3426C45.2785 46.576 45.0216 46.7651 44.7355 46.899C44.4192 47.0635 44.0685 47.1512 43.7119 47.1549Z" fill="black"/>
<path d="M39.6818 38.5502H25.2547C24.6184 38.5502 24.0082 38.2974 23.5583 37.8475C23.1083 37.3975 22.8556 36.7873 22.8556 36.151C22.8556 35.5147 23.1083 34.9045 23.5583 34.4545C24.0082 34.0046 24.6184 33.7518 25.2547 33.7518H39.6818C40.3181 33.7518 40.9283 34.0046 41.3782 34.4545C41.8282 34.9045 42.0809 35.5147 42.0809 36.151C42.0809 36.7873 41.8282 37.3975 41.3782 37.8475C40.9283 38.2974 40.3181 38.5502 39.6818 38.5502Z" fill="black"/>
</svg>
