<svg xmlns="http://www.w3.org/2000/svg" color="white" viewBox="0 0 20 21" fill="none">
    <path
        d="M8.36375 8.86369L6.72738 13.7728L11.6365 12.1364M8.36375 8.86369L11.6365 12.1364M8.36375 8.86369L9.59102 8.4546M11.6365 12.1364L12.1053 10.7301M9.59102 8.4546L12.1053 10.7301M9.59102 8.4546L11.2274 7.90914M12.1053 10.7301L12.6158 9.19851M11.2274 7.90914L13.2728 7.22732L12.6158 9.19851M11.2274 7.90914L12.6158 9.19851M17.3637 10.5001C17.3637 14.5669 14.0669 17.8637 10.0001 17.8637C5.93329 17.8637 2.63647 14.5669 2.63647 10.5001C2.63647 6.43323 5.93329 3.13641 10.0001 3.13641C14.0669 3.13641 17.3637 6.43323 17.3637 10.5001Z"
        stroke="currentColor" stroke-width="2" stroke-linejoin="round" />
</svg>