<svg viewBox="0 0 24 24" fill="none" xmlns="http://www.w3.org/2000/svg">
<path opacity="0.3" d="M12 22C17.5228 22 22 17.5228 22 12C22 6.47715 17.5228 2 12 2C6.47715 2 2 6.47715 2 12C2 17.5228 6.47715 22 12 22Z" fill="#C29B40"/>
<path d="M12 10.6001C12.2652 10.6001 12.5196 10.7055 12.7071 10.893C12.8946 11.0805 13 11.3349 13 11.6001V16.2601C13 16.5253 12.8946 16.7797 12.7071 16.9672C12.5196 17.1547 12.2652 17.2601 12 17.2601C11.7348 17.2601 11.4804 17.1547 11.2929 16.9672C11.1054 16.7797 11 16.5253 11 16.2601V11.6001C11 11.3349 11.1054 11.0805 11.2929 10.893C11.4804 10.7055 11.7348 10.6001 12 10.6001Z" fill="#C29B40"/>
<path d="M12 9.23999C12.6904 9.23999 13.25 8.68035 13.25 7.98999C13.25 7.29963 12.6904 6.73999 12 6.73999C11.3096 6.73999 10.75 7.29963 10.75 7.98999C10.75 8.68035 11.3096 9.23999 12 9.23999Z" fill="#C29B40"/>
</svg>
