<svg
      xmlns="http://www.w3.org/2000/svg"
      viewBox="0 0 25 24"
      fill="none"
    >
      <g clipPath="url(#clip0_353_1186)">
        <path
          d="M12.5906 0C19.2078 0 24.5908 5.38346 24.5908 12.0002C24.5908 18.617 19.2078 24 12.5906 24C5.97384 24 0.59082 18.617 0.59082 12.0002C0.59082 5.38346 5.97384 0 12.5906 0ZM16.7608 7H9.4208C7.85783 7 6.59082 8.25308 6.59082 9.79887V13.2011C6.59082 14.7469 7.85783 16 9.4208 16H16.7608C18.3238 16 19.5908 14.7469 19.5908 13.2011V9.79887C19.5908 8.25308 18.3238 7 16.7608 7ZM11.9171 9.28079L15.1618 11.3486C15.3049 11.439 15.2805 11.6697 15.1351 11.7571L11.9126 13.7217C11.7731 13.8057 11.6464 13.6926 11.6464 13.5162V9.48382C11.6464 9.30499 11.7766 9.19236 11.9171 9.28079Z"
          fill="#001731"
        />
      </g>
      <defs>
        <clipPath id="clip0_353_1186">
          <rect
            width="24"
            height="24"
            fill="white"
            transform="translate(0.59082)"
          />
        </clipPath>
      </defs>
    </svg>