<svg xmlns="http://www.w3.org/2000/svg" width="126" height="36" viewBox="0 0 126 36" fill="none">
    <g clip-path="url(#clip0_3392_79)">
      <path fill-rule="evenodd" clip-rule="evenodd" d="M0.0195312 21.9453V24.4325H4.00388V35.2169H6.92487V24.4325H10.888V21.9453H0.0195312Z" fill="#171D38"/>
      <path fill-rule="evenodd" clip-rule="evenodd" d="M16.832 21.9453V35.2169H26.4748V32.7696H19.7332V29.685H26.3318V27.2581H19.7332V24.3726H26.4748V21.9453H16.832Z" fill="#171D38"/>
      <path fill-rule="evenodd" clip-rule="evenodd" d="M41.4267 21.9453L38.0762 27.278L34.6847 21.9453H31.375L36.6251 29.7849V35.2169H39.5259V29.7849L44.7364 21.9453H41.4267Z" fill="#171D38"/>
      <path fill-rule="evenodd" clip-rule="evenodd" d="M67.4324 31.0949C68.362 32.0387 69.8056 32.8282 71.6253 32.8282C73.1673 32.8282 73.9195 32.1153 73.9195 31.384C73.9195 30.4206 72.7714 30.0929 71.2488 29.7463C69.0934 29.2647 66.3249 28.6873 66.3249 25.8172C66.3249 23.6789 68.2232 21.9453 71.3285 21.9453C73.4241 21.9453 75.1648 22.5617 76.4702 23.7369L74.9077 25.7402C73.8399 24.7768 72.4158 24.3336 71.1305 24.3336C69.8644 24.3336 69.1922 24.8734 69.1922 25.6443C69.1922 26.5108 70.2997 26.7799 71.8229 27.1272C73.9978 27.6087 76.767 28.2441 76.767 31.0949C76.767 33.4446 75.0468 35.2165 71.4861 35.2165C68.9556 35.2165 67.1356 34.3884 65.8896 33.1752L67.4324 31.0949Z" fill="#171D38"/>
      <path fill-rule="evenodd" clip-rule="evenodd" d="M82.9756 21.9453V35.2169H92.6183V32.7696H85.8767V29.685H92.4754V27.2581H85.8767V24.3726H92.6183V21.9453H82.9756Z" fill="#171D38"/>
      <path fill-rule="evenodd" clip-rule="evenodd" d="M98.9707 21.9453V35.2169H108.613V32.7696H101.872V29.685H108.471V27.2581H101.872V24.3726H108.613V21.9453H98.9707Z" fill="#171D38"/>
      <path fill-rule="evenodd" clip-rule="evenodd" d="M52.5389 21.9453L47.2686 35.2169H50.4552L54.3575 24.3926L58.2591 35.2169H61.4256L56.1755 21.9453H52.5389Z" fill="#171D38"/>
      <path fill-rule="evenodd" clip-rule="evenodd" d="M122.933 30.1625C124.404 29.8245 125.916 28.5711 125.916 26.2231C125.916 23.7559 124.18 21.9453 121.34 21.9453H114.966V24.3699L120.91 24.3729C122.075 24.3729 122.954 25.0889 122.954 26.2028C122.954 27.317 122.075 28.034 120.91 28.034L114.966 28.0353V35.2165H117.867V30.4612H119.991L122.668 35.2165H125.998L122.933 30.1625Z" fill="#171D38"/>
      <path fill-rule="evenodd" clip-rule="evenodd" d="M122.924 6.42634V12.0318C122.924 12.8803 122.52 13.1567 121.612 13.1567H100.301H99.9854H97.0189C95.6324 13.1567 94.75 12.6832 94.75 11.8343V6.42634H91.6737V11.0644C91.6737 12.5846 91.6484 13.1567 90.3881 13.1567H86.9266H86.0055H85.9682C85.0607 13.1567 84.6573 12.8803 84.6573 12.0318V0.78125H81.5811V12.5846C81.5811 14.4198 82.4888 15.2686 84.7831 15.2686H86.0055H86.9266H91.1445C92.8588 15.2686 93.8675 15.0122 94.3718 14.183C94.9452 15.0092 98.2095 15.23 99.8575 15.2633C99.9002 15.2649 99.9396 15.2686 99.9854 15.2686H122.822C125.092 15.2686 125.999 14.4198 125.999 12.5846V6.42634H122.924Z" fill="#171D38"/>
      <path fill-rule="evenodd" clip-rule="evenodd" d="M119.464 0.847656H122.468V3.77576H119.464" fill="#EC972D"/>
      <path fill-rule="evenodd" clip-rule="evenodd" d="M122.996 3.77576H126.001V0.847656H122.996V3.77576Z" fill="#EC972D"/>
      <path fill-rule="evenodd" clip-rule="evenodd" d="M84.8701 19.012H87.8745V16.0859H84.8701V19.012Z" fill="#EC972D"/>
      <path fill-rule="evenodd" clip-rule="evenodd" d="M88.4004 19.0101H91.4052V16.084H88.4004V19.0101Z" fill="#EC972D"/>
      <path fill-rule="evenodd" clip-rule="evenodd" d="M10.344 18.9773L15.1089 5.68544L18.619 15.2656H19.8332H21.4676H59.5669C61.2276 15.2656 62.1334 14.9703 62.6367 14.1431C63.1147 14.8521 63.9951 15.2656 65.2783 15.2656H66.461C68.0711 15.2656 69.0271 14.9703 69.5051 14.1627C69.9834 14.8521 70.8638 15.2656 72.1471 15.2656H73.3294C75.77 15.2656 76.7257 14.5171 76.7257 12.5873V6.44203H73.6566V11.0705C73.6566 12.863 73.5055 13.1584 71.7696 13.1584C70.6371 13.1584 69.8576 12.7252 69.8576 11.8191V8.11637H66.7879V11.5433C66.7879 12.9812 66.5362 13.1584 64.9511 13.1584C63.6429 13.1584 62.9888 12.7252 62.9888 11.8387V8.11637H59.9194V11.5433C59.9194 12.7644 59.7683 13.1584 58.6362 13.1584H20.6275L16.7443 3.41602H13.4729L8.31369 16.8058H0V18.9773H10.344Z" fill="#171D38"/>
      <path fill-rule="evenodd" clip-rule="evenodd" d="M13.6689 15.0007H16.6737V12.0742H13.6689V15.0007Z" fill="#EC972D"/>
      <path fill-rule="evenodd" clip-rule="evenodd" d="M13.6689 18.9925H16.6737V16.0664H13.6689V18.9925Z" fill="#EC972D"/>
      <path fill-rule="evenodd" clip-rule="evenodd" d="M52.8564 35.2116H55.8612V32.2852H52.8564V35.2116Z" fill="#EC972D"/>
    </g>
    <defs>
      <clipPath id="clip0_3392_79">
        <rect width="126" height="36" fill="white"/>
      </clipPath>
    </defs>
  </svg>