<svg width="161" height="46" viewBox="0 0 161 46" fill="none" xmlns="http://www.w3.org/2000/svg">
    <g clip-path="url(#clip0_353_2443)">
    <path fill-rule="evenodd" clip-rule="evenodd" d="M0.615234 28.0419V31.22H5.67473V45H9.38392V31.22H14.4165V28.0419H0.615234Z" fill="white"/>
    <path fill-rule="evenodd" clip-rule="evenodd" d="M21.9648 28.0419V45H34.2096V41.8729H25.6489V37.9315H34.0281V34.8304H25.6489V31.1434H34.2096V28.0419H21.9648Z" fill="white"/>
    <path fill-rule="evenodd" clip-rule="evenodd" d="M53.1956 28.0419L48.9411 34.8559L44.6345 28.0419H40.4316L47.0985 38.0591V45H50.782V38.0591L57.3985 28.0419H53.1956Z" fill="white"/>
    <path fill-rule="evenodd" clip-rule="evenodd" d="M86.2188 39.7331C87.3993 40.9389 89.2324 41.9478 91.5431 41.9478C93.5013 41.9478 94.4565 41.0368 94.4565 40.1024C94.4565 38.8714 92.9985 38.4527 91.0651 38.0098C88.328 37.3945 84.8125 36.6567 84.8125 32.9892C84.8125 30.2571 87.223 28.0419 91.1663 28.0419C93.8273 28.0419 96.0377 28.8295 97.6954 30.3311L95.7112 32.8909C94.3553 31.6599 92.5469 31.0936 90.9149 31.0936C89.3071 31.0936 88.4535 31.7833 88.4535 32.7684C88.4535 33.8756 89.8598 34.2194 91.7941 34.6632C94.5559 35.2784 98.0723 36.0903 98.0723 39.7331C98.0723 42.7354 95.888 44.9995 91.3664 44.9995C88.153 44.9995 85.8419 43.9413 84.2598 42.3912L86.2188 39.7331Z" fill="white"/>
    <path fill-rule="evenodd" clip-rule="evenodd" d="M105.957 28.0419V45H118.202V41.8729H109.641V37.9315H118.02V34.8304H109.641V31.1434H118.202V28.0419H105.957Z" fill="white"/>
    <path fill-rule="evenodd" clip-rule="evenodd" d="M126.268 28.0419V45H138.512V41.8729H129.951V37.9315H138.331V34.8304H129.951V31.1434H138.512V28.0419H126.268Z" fill="white"/>
    <path fill-rule="evenodd" clip-rule="evenodd" d="M67.3077 28.0419L60.6152 45H64.6618L69.6171 31.1689L74.5715 45H78.5924L71.9256 28.0419H67.3077Z" fill="white"/>
    <path fill-rule="evenodd" clip-rule="evenodd" d="M156.695 38.5416C158.564 38.1098 160.483 36.5082 160.483 33.5079C160.483 30.3553 158.278 28.0419 154.672 28.0419H146.578V31.14L154.127 31.1438C155.606 31.1438 156.722 32.0586 156.722 33.482C156.722 34.9057 155.606 35.8218 154.127 35.8218L146.578 35.8235V44.9995H150.263V38.9233H152.96L156.358 44.9995H160.587L156.695 38.5416Z" fill="white"/>
    <path fill-rule="evenodd" clip-rule="evenodd" d="M156.685 8.21317V15.3757C156.685 16.4599 156.173 16.8131 155.02 16.8131H127.957H127.557H123.79C122.03 16.8131 120.909 16.208 120.909 15.1234V8.21317H117.003V14.1396C117.003 16.082 116.97 16.8131 115.37 16.8131H110.974H109.805H109.757C108.605 16.8131 108.093 16.4599 108.093 15.3757V1H104.187V16.082C104.187 18.427 105.339 19.5116 108.253 19.5116H109.805H110.974H116.331C118.507 19.5116 119.788 19.184 120.429 18.1245C121.157 19.1802 125.302 19.4623 127.395 19.5048C127.449 19.5069 127.499 19.5116 127.557 19.5116H156.556C159.438 19.5116 160.591 18.427 160.591 16.082V8.21317H156.685Z" fill="white"/>
    <path fill-rule="evenodd" clip-rule="evenodd" d="M152.291 1.08521H156.106V4.82668H152.291" fill="#EC972D"/>
    <path fill-rule="evenodd" clip-rule="evenodd" d="M156.775 4.82668H160.591V1.08521H156.775V4.82668Z" fill="#EC972D"/>
    <path fill-rule="evenodd" clip-rule="evenodd" d="M108.361 24.2934H112.176V20.5544H108.361V24.2934Z" fill="#EC972D"/>
    <path fill-rule="evenodd" clip-rule="evenodd" d="M112.846 24.2934H116.661V20.5544H112.846V24.2934Z" fill="#EC972D"/>
    <path fill-rule="evenodd" clip-rule="evenodd" d="M13.726 24.2499L19.7768 7.26585L24.2341 19.5072H25.7758H27.8512H76.2314C78.3402 19.5072 79.4903 19.1298 80.1294 18.0728C80.7364 18.9787 81.8544 19.5072 83.4839 19.5072H84.9857C87.0303 19.5072 88.2442 19.1298 88.8512 18.0979C89.4586 18.9787 90.5767 19.5072 92.2061 19.5072H93.7075C96.8067 19.5072 98.0202 18.5507 98.0202 16.0849V8.2326H94.123V14.1467C94.123 16.4372 93.9311 16.8146 91.7268 16.8146C90.2888 16.8146 89.2989 16.261 89.2989 15.1032V10.372H85.4008V14.7509C85.4008 16.5883 85.0813 16.8146 83.0684 16.8146C81.4072 16.8146 80.5766 16.261 80.5766 15.1283V10.372H76.679V14.7509C76.679 16.3112 76.4871 16.8146 75.0495 16.8146H26.7844L21.8534 4.36603H17.6992L11.1479 21.4752H0.59082V24.2499H13.726Z" fill="white"/>
    <path fill-rule="evenodd" clip-rule="evenodd" d="M17.9492 19.1709H21.7648V15.4315H17.9492V19.1709Z" fill="#EC972D"/>
    <path fill-rule="evenodd" clip-rule="evenodd" d="M17.9492 24.2707H21.7648V20.5317H17.9492V24.2707Z" fill="#EC972D"/>
    <path fill-rule="evenodd" clip-rule="evenodd" d="M67.71 44.9936H71.5255V41.2542H67.71V44.9936Z" fill="#EC972D"/>
    </g>
    <defs>
    <clipPath id="clip0_353_2443">
    <rect width="160" height="46" fill="white" transform="translate(0.59082)"/>
    </clipPath>
    </defs>
    </svg>
    