<?xml version="1.0" standalone="no"?>
<!DOCTYPE svg PUBLIC "-//W3C//DTD SVG 20010904//EN"
 "http://www.w3.org/TR/2001/REC-SVG-20010904/DTD/svg10.dtd">
<svg version="1.0" xmlns="http://www.w3.org/2000/svg"
 width="672.000000pt" height="672.000000pt" viewBox="0 0 672.000000 672.000000"
 preserveAspectRatio="xMidYMid meet">
<metadata>
Created by potrace 1.14, written by Peter Selinger 2001-2017
</metadata>
<g transform="translate(0.000000,672.000000) scale(0.100000,-0.100000)"
fill="#000000" stroke="none">
<path d="M2511 6472 c-17 -15 -60 -121 -208 -512 -24 -63 -48 -124 -54 -135
-5 -12 -11 -27 -13 -35 -3 -15 -10 -32 -41 -105 -9 -22 -18 -44 -19 -50 -3
-16 -106 -278 -116 -297 -6 -10 -10 -22 -10 -27 0 -5 -7 -25 -15 -45 -8 -20
-15 -38 -15 -41 0 -3 -7 -19 -15 -35 -8 -16 -15 -32 -15 -35 0 -3 -7 -22 -16
-43 -9 -20 -17 -41 -18 -47 -2 -5 -7 -19 -11 -30 -4 -11 -28 -72 -53 -135 -60
-158 -147 -381 -157 -405 -4 -11 -9 -25 -10 -30 -2 -6 -13 -35 -25 -65 -34
-85 -37 -92 -55 -140 -9 -25 -23 -58 -30 -75 -7 -16 -25 -64 -40 -105 -15 -41
-33 -88 -40 -105 -7 -16 -39 -97 -70 -180 -32 -82 -61 -158 -67 -168 -5 -10
-11 -26 -13 -35 -2 -9 -31 -87 -65 -172 -34 -85 -63 -159 -64 -165 -2 -5 -8
-23 -15 -40 -7 -16 -37 -95 -67 -175 -31 -80 -80 -206 -109 -280 -29 -74 -65
-169 -81 -210 -15 -41 -31 -79 -36 -85 -4 -5 -8 -15 -8 -23 0 -8 -7 -28 -15
-45 -8 -18 -41 -102 -73 -187 -94 -245 -132 -343 -141 -365 -11 -25 -23 -57
-27 -70 -1 -5 -10 -28 -20 -50 -10 -22 -18 -44 -20 -50 -2 -10 -46 -126 -69
-180 -7 -16 -27 -68 -45 -115 -17 -47 -36 -94 -40 -105 -4 -11 -26 -67 -49
-125 -22 -58 -46 -118 -52 -135 -7 -16 -13 -34 -15 -40 -1 -5 -18 -50 -38 -98
-20 -48 -36 -95 -36 -103 0 -8 -4 -14 -8 -14 -5 0 -9 -6 -9 -12 -1 -14 -35
-105 -82 -218 -17 -41 -31 -79 -31 -85 0 -5 -6 -22 -14 -37 -8 -14 -19 -43
-26 -65 -7 -21 -18 -48 -26 -60 -10 -17 -11 -29 -3 -53 6 -17 16 -29 23 -27 6
2 23 0 39 -4 15 -4 27 -4 27 1 0 8 68 5 77 -4 3 -2 15 -1 27 4 13 4 29 4 37 0
7 -5 16 -5 19 0 3 5 21 5 43 0 20 -4 39 -4 42 0 3 4 21 4 40 0 19 -4 35 -4 35
0 0 8 68 5 77 -4 3 -2 15 -1 27 4 13 4 29 4 37 0 7 -5 16 -5 19 0 3 5 21 5 43
0 20 -4 39 -4 42 0 3 4 21 4 40 0 19 -4 35 -4 35 0 0 8 68 5 77 -4 3 -2 15 -1
27 4 13 4 29 4 37 0 7 -5 16 -5 19 0 3 5 21 5 43 0 20 -4 39 -4 42 0 3 4 21 4
40 0 19 -4 35 -4 35 0 0 4 17 6 38 3 20 -2 46 -4 57 -3 29 2 47 2 75 0 14 0
59 -1 100 -1 41 0 82 0 90 0 65 -3 110 22 110 61 0 9 3 20 7 24 4 3 8 14 9 23
2 10 7 26 13 38 10 20 50 134 89 250 11 33 32 90 46 128 14 37 26 71 27 75 1
4 5 16 9 27 4 11 35 101 69 200 34 99 68 196 76 215 18 46 76 212 79 225 1 6
4 15 8 20 3 6 11 26 16 45 6 19 18 55 27 80 9 25 18 52 20 60 2 8 18 53 35
100 17 47 54 150 81 230 28 80 59 168 69 195 19 50 41 113 120 340 23 66 44
127 47 135 3 8 7 20 9 25 1 6 28 82 59 170 31 88 74 210 95 270 21 61 50 142
65 180 15 39 28 75 29 80 9 36 31 102 37 110 4 6 10 22 13 35 5 22 56 169 73
210 3 8 7 20 9 25 1 6 13 42 27 80 14 39 42 117 62 175 20 58 40 114 44 125 9
20 46 130 79 230 9 28 21 53 27 57 5 4 7 8 3 8 -4 0 -3 12 3 28 6 15 33 92 61
172 27 80 53 154 58 165 8 17 34 93 117 333 10 28 20 52 23 52 3 0 18 -35 32
-77 55 -162 100 -289 108 -308 5 -11 21 -56 35 -100 15 -44 29 -87 33 -95 3
-8 6 -17 7 -20 1 -3 4 -12 8 -20 3 -8 20 -55 36 -105 17 -49 45 -128 62 -175
17 -47 32 -89 33 -95 2 -5 6 -17 9 -25 3 -8 13 -35 21 -60 8 -25 36 -103 61
-175 26 -71 51 -146 57 -165 6 -19 13 -39 16 -45 4 -5 7 -14 8 -20 3 -11 51
-151 119 -340 26 -71 50 -141 55 -155 4 -14 36 -104 70 -200 34 -96 63 -181
63 -187 0 -7 4 -13 9 -13 4 0 8 -9 8 -20 0 -10 4 -29 9 -42 9 -21 22 -56 26
-68 1 -3 5 -12 8 -20 7 -16 117 -328 121 -345 2 -5 6 -17 9 -25 3 -8 13 -35
21 -60 8 -25 33 -97 56 -160 23 -63 52 -146 65 -185 13 -38 44 -128 70 -200
25 -71 53 -150 61 -175 8 -25 19 -54 24 -65 4 -11 22 -63 40 -115 17 -52 36
-103 41 -112 5 -10 9 -22 9 -27 0 -5 5 -22 12 -38 6 -15 12 -32 14 -38 9 -33
86 -250 107 -303 14 -34 24 -62 21 -62 -3 0 13 -47 36 -105 4 -11 13 -33 18
-50 6 -16 14 -39 18 -50 4 -11 8 -22 8 -25 1 -3 5 -11 9 -17 5 -7 6 -13 2 -13
-3 0 -1 -9 5 -21 6 -11 13 -28 15 -37 2 -9 9 -30 16 -47 6 -16 13 -34 15 -40
5 -20 28 -81 41 -112 12 -29 47 -52 60 -40 2 3 18 1 34 -3 16 -5 31 -5 34 0 3
4 21 4 40 0 19 -4 35 -4 35 0 0 8 68 5 77 -4 3 -2 15 -1 27 4 13 4 29 4 37 0
7 -5 16 -5 19 0 3 5 21 5 43 0 20 -4 39 -4 42 0 3 4 21 4 40 0 19 -4 35 -4 35
0 0 8 68 5 77 -4 3 -2 15 -1 27 4 13 4 29 4 37 0 7 -5 16 -5 19 0 3 5 21 5 43
0 20 -4 39 -4 42 0 3 4 21 4 40 0 19 -4 35 -4 35 0 0 8 68 5 77 -4 3 -2 15 -1
27 4 13 4 29 4 37 0 7 -5 16 -5 19 0 3 5 21 5 43 0 20 -4 39 -4 42 0 3 4 21 4
40 0 19 -4 35 -4 35 0 0 4 17 6 38 3 20 -2 46 -4 57 -3 28 2 46 2 75 1 106 -6
149 -1 164 21 8 12 13 25 10 30 -3 4 -7 16 -9 25 -2 15 -39 111 -70 188 -5 11
-9 22 -10 25 -1 3 -7 19 -14 35 -6 17 -19 50 -28 75 -9 25 -20 50 -25 56 -4 6
-9 19 -11 30 -4 19 -11 37 -43 119 -31 76 -58 148 -60 155 0 3 -5 16 -11 30
-19 43 -115 293 -130 335 -7 22 -17 49 -22 60 -12 28 -34 84 -76 195 -20 52
-40 104 -44 115 -12 27 -55 139 -57 145 0 3 -6 19 -13 35 -7 17 -37 95 -67
175 -89 232 -135 352 -154 395 -16 36 -33 82 -35 95 -1 6 -82 215 -95 245 -4
11 -26 67 -48 125 -76 199 -137 355 -197 510 -21 52 -50 129 -65 170 -15 41
-48 127 -73 190 -25 63 -67 174 -95 245 -27 72 -53 139 -57 150 -5 11 -9 22
-10 25 -1 3 -7 19 -14 35 -6 17 -16 44 -22 60 -6 17 -20 49 -30 72 -11 24 -19
45 -19 49 0 6 -73 199 -95 249 -7 17 -20 53 -30 80 -10 28 -23 64 -30 80 -7
17 -39 98 -70 180 -31 83 -64 165 -72 184 -8 18 -16 39 -17 45 -1 6 -10 28
-19 50 -9 21 -17 40 -17 42 0 2 -15 43 -34 92 -19 48 -52 134 -75 192 -22 58
-46 119 -52 135 -7 17 -13 32 -13 35 -1 5 -63 166 -87 225 -7 17 -13 35 -14
40 -3 11 -69 180 -90 230 -7 17 -21 53 -30 80 -10 28 -23 56 -28 63 -5 6 -6
12 -3 12 4 0 -2 13 -14 29 l-21 30 -834 0 c-764 -1 -837 -2 -854 -17z"/>
<path d="M2680 1640 c-7 -4 -18 -6 -25 -4 -9 4 -11 -164 -10 -708 1 -392 2
-716 3 -719 1 -3 322 -5 714 -5 703 1 711 1 715 21 4 24 4 29 2 121 -1 39 1
76 5 83 4 6 3 11 -2 11 -6 0 -7 14 -2 34 4 19 4 40 0 47 -5 7 -4 23 1 36 5 12
5 23 1 23 -4 0 -6 15 -5 33 3 60 6 185 4 242 -2 111 -3 182 -1 190 1 6 1 15 0
20 -6 29 -4 195 3 195 5 0 5 5 2 10 -9 15 -10 104 -1 118 4 7 3 12 -2 12 -6 0
-7 14 -2 34 4 19 4 40 0 47 -5 7 -4 23 1 36 5 12 5 23 1 23 -4 0 -6 20 -5 45
2 30 -2 47 -10 50 -31 9 -78 14 -73 7 2 -4 -10 -6 -27 -5 -44 3 -74 3 -132 3
-27 0 -59 1 -70 1 -11 1 -36 1 -55 0 -19 -1 -42 -1 -50 -1 -8 0 -37 0 -65 0
-27 0 -59 1 -70 1 -11 1 -36 1 -55 0 -19 -1 -42 -1 -50 -1 -8 0 -37 0 -65 0
-27 0 -59 1 -70 1 -11 1 -36 1 -55 0 -19 -1 -42 -1 -50 -1 -8 0 -37 0 -65 0
-27 0 -59 1 -70 1 -11 1 -36 1 -55 0 -19 -1 -42 -1 -50 -1 -8 0 -35 -1 -60 -3
-25 -2 -52 0 -60 4 -8 4 -34 4 -57 0 -22 -5 -47 -4 -55 0 -8 4 -20 4 -28 -1z"/>
</g>
</svg>
